<?xml version="1.0" encoding="UTF-8"?>
<svg id="Layer_2" data-name="Layer 2" xmlns="http://www.w3.org/2000/svg" xmlns:xlink="http://www.w3.org/1999/xlink" viewBox="0 0 543.32 90.81">
  <defs>
    <style>
      .cls-1 {
        fill: #11224e;
      }

      .cls-2 {
        fill: url(#radial-gradient);
      }

      .cls-3 {
        fill: url(#radial-gradient-3);
      }

      .cls-4 {
        fill: url(#radial-gradient-2);
      }
    </style>
    <radialGradient id="radial-gradient" cx="-373.77" cy="-1053.41" fx="-373.77" fy="-1053.41" r="50.74" gradientTransform="translate(178.89 1148.17) rotate(11.77)" gradientUnits="userSpaceOnUse">
      <stop offset="0" stop-color="#e100ff"/>
      <stop offset="1" stop-color="#7f00ff"/>
    </radialGradient>
    <radialGradient id="radial-gradient-2" cx="-362.68" cy="-1069.83" fx="-362.68" fy="-1069.83" r="40.17" gradientTransform="translate(178.89 1148.17) rotate(11.77)" gradientUnits="userSpaceOnUse">
      <stop offset="0" stop-color="#38ef7d"/>
      <stop offset="1" stop-color="#11998e"/>
    </radialGradient>
    <radialGradient id="radial-gradient-3" cx="-362.06" cy="-1048.39" fx="-362.06" fy="-1048.39" r="64.92" gradientTransform="translate(178.89 1148.17) rotate(11.77)" gradientUnits="userSpaceOnUse">
      <stop offset="0" stop-color="#fdc830"/>
      <stop offset="1" stop-color="#f37335"/>
    </radialGradient>
  </defs>
  <g id="Layer_1-2" data-name="Layer 1">
    <g>
      <g>
        <path class="cls-2" d="M31.46,11.67c.1,2.05.35,7.43.45,9.58.03.57.09,2.01.12,2.57.2,3.81-1.22,8.64-3.78,12.32-2.62,3.89-6.18,6.2-9.06,6.05-.4,0-1.47-.02-1.88-.03-1.57-.02-5.57-.09-7.07-.11l-8.46-.13c-3.96-.35-.61-10.59,3.49-11.13.1,0,.2,0,.3,0l16.64,1.83c1.99.08,4.28-3.2,4.39-6.13.22-3.61.54-9.27.74-12.6.26-3.15,3.91-5.17,4.13-2.24h0Z"/>
        <path class="cls-4" d="M40.76,3.45c-.46,2.25-1.64,8.11-2.11,10.43-.12.61-.44,2.15-.56,2.75-.84,4.05-.1,8.1,2.13,10.33,2.36,2.53,6.32,2.86,10.13.83.55-.28,2.03-1.03,2.61-1.31,2.26-1.14,8.44-4.26,10.9-5.5l15.84-7.99c8.85-4.87,4.37-16.29-4-12.07-.2.11-.4.23-.58.35l-26.91,17.75c-2.55,1.54-4.75-.4-4.36-3.51.39-3.78,1.02-9.73,1.37-13.23.26-3.26-3.71-2.14-4.46,1.17h0Z"/>
        <path class="cls-3" d="M35.47,83.48c.7-4.14,2.37-14.09,2.99-17.74.16-.93.55-3.25.7-4.13.99-5.73.06-11.36-2.37-14.47-2.32-3.14-5.97-3.81-9.4-2.05-.48.23-1.75.85-2.24,1.08-1.88.91-6.76,3.27-8.61,4.16l-10.66,5.15c-5.29,2.87-6.71,15.8-1.18,13.78.14-.06.29-.14.43-.22l23.24-13.71c2.57-1.35,4.68,1.72,4.06,5.92-.7,5.48-1.94,15.01-2.73,21.21-.7,6.29,4.58,7.39,5.77,1.01h0Z"/>
      </g>
      <g>
        <polygon class="cls-1" points="48.46 90.29 80.44 90.29 80.44 80.15 61.06 80.15 61.06 68.6 78.2 68.6 78.2 58.84 61.06 58.84 61.06 48.1 80.44 48.1 80.44 37.97 48.46 37.97 48.46 90.29"/>
        <polygon class="cls-1" points="118.16 58.76 118.16 48.7 86.63 48.7 86.63 59.13 103.77 59.13 86.48 80.23 86.48 90.29 118.6 90.29 118.6 79.86 100.49 79.86 118.16 58.76"/>
        <path class="cls-1" d="M159.79,80.41c-2.96,2.01-6.15,3.02-9.58,3.02s-6.48-.78-9.17-2.35c-2.68-1.57-4.78-3.78-6.3-6.63-1.52-2.86-2.27-6.22-2.27-10.1s.78-7.23,2.35-10.06,3.7-5.02,6.41-6.56c2.71-1.54,5.78-2.31,9.21-2.31,3.73,0,6.91,1.02,9.54,3.06,2.63,2.04,4.6,4.82,5.89,8.35l7.9-2.46c-1.09-3.53-2.78-6.51-5.07-8.94-2.29-2.43-5.01-4.29-8.16-5.55-3.16-1.27-6.6-1.9-10.32-1.9s-7.04.65-10.25,1.94c-3.21,1.29-6.03,3.12-8.46,5.48-2.44,2.36-4.34,5.14-5.7,8.35-1.37,3.21-2.05,6.75-2.05,10.62s.68,7.43,2.05,10.66c1.37,3.23,3.27,6.03,5.7,8.39,2.43,2.36,5.26,4.19,8.46,5.48,3.21,1.29,6.62,1.94,10.25,1.94s6.83-.63,10.06-1.9c3.23-1.27,6.09-3.13,8.57-5.59,2.48-2.46,4.32-5.48,5.52-9.06l-8.05-1.86c-1.39,3.33-3.57,6-6.52,8.01Z"/>
        <path class="cls-1" d="M212.11,51.31c-3.16-1.74-6.7-2.61-10.62-2.61s-7.41.87-10.58,2.61c-3.18,1.74-5.7,4.17-7.57,7.3-1.86,3.13-2.8,6.83-2.8,11.11s.91,7.93,2.72,11.11c1.81,3.18,4.27,5.64,7.38,7.38,3.1,1.74,6.6,2.61,10.47,2.61s7.5-.87,10.73-2.61c3.23-1.74,5.8-4.2,7.71-7.38,1.91-3.18,2.87-6.88,2.87-11.11s-.93-7.98-2.79-11.11c-1.86-3.13-4.37-5.56-7.53-7.3ZM211.89,77.32c-1.22,2.04-2.78,3.57-4.7,4.58-1.91,1.02-3.94,1.53-6.08,1.53s-4.11-.51-5.93-1.53c-1.81-1.02-3.27-2.55-4.36-4.58-1.09-2.04-1.64-4.57-1.64-7.6s.57-5.63,1.71-7.64c1.14-2.01,2.63-3.51,4.47-4.51,1.84-.99,3.83-1.49,5.96-1.49s4.14.5,6,1.49c1.86.99,3.39,2.5,4.58,4.51,1.19,2.01,1.79,4.56,1.79,7.64s-.61,5.57-1.83,7.6Z"/>
        <path class="cls-1" d="M281.39,48.7c-2.29,0-4.41.5-6.37,1.49-1.96.99-3.64,2.32-5.03,3.99-1.39,1.67-2.39,3.57-2.98,5.7-.65-3.38-2.29-6.09-4.92-8.12-2.63-2.04-5.89-3.06-9.76-3.06-1.74,0-3.49.4-5.25,1.19-1.76.8-3.33,1.88-4.7,3.24-1.37,1.37-2.37,2.92-3.02,4.66v-8.57h-8.5v41.07h8.5v-21.32c0-2.48.43-4.7,1.3-6.63.87-1.94,2.07-3.47,3.61-4.58,1.54-1.12,3.35-1.68,5.44-1.68,3.08,0,5.56,1.08,7.45,3.24,1.89,2.16,2.83,5.13,2.83,8.91v22.06h8.42v-21.32c0-3.73.94-6.81,2.83-9.24,1.89-2.43,4.4-3.65,7.53-3.65s5.57,1.08,7.45,3.24c1.89,2.16,2.83,5.13,2.83,8.91v22.06h8.42v-24.08c0-5.76-1.48-10.12-4.44-13.08-2.96-2.96-6.85-4.43-11.67-4.43Z"/>
        <path class="cls-1" d="M358.84,48.7c-2.29,0-4.41.5-6.37,1.49-1.96.99-3.64,2.32-5.03,3.99-1.39,1.67-2.39,3.57-2.98,5.7-.65-3.38-2.29-6.09-4.92-8.12-2.63-2.04-5.89-3.06-9.76-3.06-1.74,0-3.49.4-5.25,1.19-1.76.8-3.33,1.88-4.7,3.24-1.37,1.37-2.37,2.92-3.02,4.66v-8.57h-8.5v41.07h8.5v-21.32c0-2.48.43-4.7,1.3-6.63.87-1.94,2.07-3.47,3.61-4.58,1.54-1.12,3.35-1.68,5.44-1.68,3.08,0,5.56,1.08,7.45,3.24,1.89,2.16,2.83,5.13,2.83,8.91v22.06h8.42v-21.32c0-3.73.94-6.81,2.83-9.24,1.89-2.43,4.4-3.65,7.53-3.65s5.57,1.08,7.45,3.24c1.89,2.16,2.83,5.13,2.83,8.91v22.06h8.42v-24.08c0-5.76-1.48-10.12-4.44-13.08-2.96-2.96-6.85-4.43-11.67-4.43Z"/>
        <path class="cls-1" d="M414.44,80.3c-1.39,1.04-2.92,1.86-4.58,2.46-1.67.6-3.34.89-5.03.89-2.09,0-4.05-.37-5.89-1.12-1.84-.75-3.37-1.78-4.58-3.09-1.22-1.32-2-2.79-2.35-4.43.05,0,.36.01.93.04.57.03,1.23.05,1.97.07.75.03,1.37.06,1.86.11,2.93.15,5.89.05,8.87-.3,2.98-.35,5.71-1.02,8.2-2.01,2.48-.99,4.5-2.36,6.04-4.1,1.54-1.74,2.31-3.92,2.31-6.56,0-1.89-.42-3.65-1.27-5.29-.85-1.64-2.05-3.08-3.61-4.32-1.57-1.24-3.42-2.21-5.55-2.91-2.14-.7-4.5-1.04-7.08-1.04-2.88,0-5.64.5-8.27,1.49-2.63.99-4.96,2.44-6.97,4.32-2.01,1.89-3.6,4.14-4.77,6.75-1.17,2.61-1.75,5.53-1.75,8.76,0,2.98.51,5.73,1.53,8.24,1.02,2.51,2.48,4.71,4.4,6.6,1.91,1.89,4.22,3.35,6.93,4.4,2.71,1.04,5.73,1.57,9.06,1.57,2.53,0,4.97-.34,7.3-1.01,2.34-.67,4.53-1.71,6.6-3.13,2.06-1.42,3.91-3.22,5.55-5.4l-6.34-4.55c-.94,1.34-2.11,2.53-3.5,3.58ZM393.39,62.12c1.17-1.89,2.77-3.4,4.81-4.55,2.04-1.14,4.35-1.71,6.93-1.71,1.74,0,3.25.27,4.55.82,1.29.55,2.3,1.28,3.02,2.2.72.92,1.08,1.95,1.08,3.09,0,1.34-.5,2.44-1.49,3.28-.99.85-2.3,1.5-3.91,1.97-1.62.47-3.37.8-5.26.97-1.89.17-3.75.26-5.59.26-1.24,0-2.39-.02-3.43-.07-1.04-.05-1.91-.1-2.61-.15.1-2.19.73-4.22,1.9-6.11Z"/>
        <path class="cls-1" d="M440.38,58.24v-9.02h-8.5v41.07h8.5v-20.72c0-2.73.43-5.01,1.3-6.82.87-1.81,2.07-3.18,3.61-4.1,1.54-.92,3.33-1.38,5.37-1.38.4,0,.78.01,1.16.04.37.03.76.09,1.16.19v-8.8c-2.88,0-5.45.86-7.71,2.57-2.26,1.71-3.89,4.04-4.88,6.97Z"/>
        <path class="cls-1" d="M484.43,81.31c-1.84,1.57-4.2,2.35-7.08,2.35-2.29,0-4.29-.55-6-1.64-1.71-1.09-3.04-2.68-3.99-4.77-.94-2.09-1.42-4.6-1.42-7.53s.47-5.5,1.42-7.57c.94-2.06,2.27-3.63,3.99-4.7,1.71-1.07,3.71-1.6,6-1.6,2.48,0,4.6.66,6.34,1.98,1.74,1.32,3.08,3.29,4.03,5.93l8.12-2.61c-.75-2.14-1.68-3.99-2.8-5.55-1.12-1.57-2.44-2.86-3.95-3.88-1.52-1.02-3.26-1.78-5.22-2.27-1.96-.5-4.14-.75-6.52-.75-3.93,0-7.41.87-10.44,2.61-3.03,1.74-5.4,4.17-7.12,7.3-1.71,3.13-2.57,6.83-2.57,11.11s.86,7.93,2.57,11.11c1.71,3.18,4.09,5.64,7.12,7.38,3.03,1.74,6.51,2.61,10.44,2.61,3.63,0,6.7-.62,9.21-1.86,2.51-1.24,4.57-2.93,6.19-5.07,1.61-2.14,2.79-4.5,3.54-7.08l-7.9-1.86c-.79,2.68-2.11,4.81-3.95,6.37Z"/>
        <path class="cls-1" d="M536.98,76.73c-.94,1.34-2.11,2.53-3.5,3.58-1.39,1.04-2.92,1.86-4.58,2.46-1.67.6-3.34.89-5.03.89-2.09,0-4.05-.37-5.89-1.12-1.84-.75-3.37-1.78-4.58-3.09-1.22-1.32-2-2.79-2.35-4.43.05,0,.36.01.93.04.57.03,1.23.05,1.97.07.75.03,1.37.06,1.86.11,2.93.15,5.89.05,8.87-.3,2.98-.35,5.71-1.02,8.2-2.01,2.48-.99,4.5-2.36,6.04-4.1,1.54-1.74,2.31-3.92,2.31-6.56,0-1.89-.42-3.65-1.27-5.29-.85-1.64-2.05-3.08-3.61-4.32-1.57-1.24-3.42-2.21-5.55-2.91-2.14-.7-4.5-1.04-7.08-1.04-2.88,0-5.64.5-8.27,1.49-2.63.99-4.96,2.44-6.97,4.32-2.01,1.89-3.6,4.14-4.77,6.75-1.17,2.61-1.75,5.53-1.75,8.76,0,2.98.51,5.73,1.53,8.24,1.02,2.51,2.48,4.71,4.4,6.6,1.91,1.89,4.22,3.35,6.93,4.4,2.71,1.04,5.73,1.57,9.06,1.57,2.53,0,4.97-.34,7.31-1.01,2.34-.67,4.53-1.71,6.6-3.13,2.06-1.42,3.91-3.22,5.55-5.4l-6.34-4.55ZM512.42,62.12c1.17-1.89,2.77-3.4,4.81-4.55,2.04-1.14,4.35-1.71,6.93-1.71,1.74,0,3.25.27,4.55.82,1.29.55,2.3,1.28,3.02,2.2.72.92,1.08,1.95,1.08,3.09,0,1.34-.5,2.44-1.49,3.28-.99.85-2.3,1.5-3.91,1.97-1.62.47-3.37.8-5.25.97-1.89.17-3.75.26-5.59.26-1.24,0-2.39-.02-3.43-.07-1.04-.05-1.91-.1-2.61-.15.1-2.19.73-4.22,1.9-6.11Z"/>
      </g>
    </g>
  </g>
</svg>