<?xml version="1.0" encoding="UTF-8"?>
<svg id="Layer_2" data-name="Layer 2" xmlns="http://www.w3.org/2000/svg" xmlns:xlink="http://www.w3.org/1999/xlink" viewBox="0 0 483.32 501.78">
  <defs>
    <style>
      .cls-1 {
        fill: url(#radial-gradient);
      }

      .cls-2 {
        fill: url(#radial-gradient-3);
      }

      .cls-3 {
        fill: url(#radial-gradient-2);
      }
    </style>
    <radialGradient id="radial-gradient" cx="344.51" cy="-277.54" fx="344.51" fy="-277.54" r="290.13" gradientTransform="translate(-234.75 434.01) rotate(11.77)" gradientUnits="userSpaceOnUse">
      <stop offset="0" stop-color="#e100ff"/>
      <stop offset="1" stop-color="#7f00ff"/>
    </radialGradient>
    <radialGradient id="radial-gradient-2" cx="407.92" cy="-371.46" fx="407.92" fy="-371.46" r="229.7" gradientTransform="translate(-234.75 434.01) rotate(11.77)" gradientUnits="userSpaceOnUse">
      <stop offset="0" stop-color="#38ef7d"/>
      <stop offset="1" stop-color="#11998e"/>
    </radialGradient>
    <radialGradient id="radial-gradient-3" cx="411.42" cy="-248.86" fx="411.42" fy="-248.86" r="371.17" gradientTransform="translate(-234.75 434.01) rotate(11.77)" gradientUnits="userSpaceOnUse">
      <stop offset="0" stop-color="#fdc830"/>
      <stop offset="1" stop-color="#f37335"/>
    </radialGradient>
  </defs>
  <g id="Layer_1-2" data-name="Layer 1">
    <g>
      <path class="cls-1" d="M179.88,66.74c.55,11.72,1.99,42.47,2.57,54.8.16,3.24.54,11.5.69,14.7,1.15,21.77-6.99,49.38-21.63,70.45-14.97,22.26-35.35,35.46-51.82,34.61-2.31-.02-8.4-.14-10.74-.17-8.96-.13-31.86-.51-40.44-.64l-48.38-.76c-22.64-2.02-3.49-60.56,19.96-63.63.58-.04,1.17-.02,1.7.04l95.12,10.48c11.38.45,24.49-18.3,25.1-35.04,1.25-20.65,3.1-52.99,4.24-72.04,1.47-18.02,22.36-29.55,23.62-12.79h0Z"/>
      <path class="cls-3" d="M233.03,19.73c-2.62,12.89-9.39,46.35-12.08,59.63-.71,3.48-2.49,12.31-3.19,15.73-4.81,23.17-.57,46.29,12.16,59.09,13.49,14.48,36.12,16.35,57.93,4.75,3.16-1.58,11.6-5.86,14.9-7.52,12.93-6.51,48.23-24.34,62.34-31.45l90.59-45.7c50.6-27.82,24.96-93.15-22.88-69-1.13.62-2.28,1.32-3.34,2.02l-153.86,101.48c-14.58,8.82-27.19-2.31-24.92-20.07,2.2-21.59,5.81-55.62,7.86-75.66,1.48-18.65-21.22-12.26-25.53,6.72h0Z"/>
      <path class="cls-2" d="M202.83,477.32c3.99-23.69,13.56-80.56,17.09-101.44.9-5.33,3.13-18.6,3.98-23.63,5.67-32.75.35-64.93-13.57-82.72-13.25-17.96-34.12-21.81-53.73-11.73-2.75,1.32-10.02,4.85-12.82,6.2-10.77,5.2-38.66,18.7-49.22,23.8l-60.95,29.47c-30.24,16.41-38.39,90.33-6.73,78.81.8-.34,1.64-.78,2.44-1.24l132.88-78.42c14.71-7.73,26.76,9.81,23.22,33.82-3.98,31.35-11.07,85.82-15.6,121.29-4,35.94,26.16,42.27,33.02,5.79h0Z"/>
    </g>
  </g>
</svg>