<?xml version="1.0" encoding="UTF-8"?>
<svg id="Layer_1" xmlns="http://www.w3.org/2000/svg" version="1.1" viewBox="0 0 1080 1080">
  <!-- Generator: Adobe Illustrator 30.0.0, SVG Export Plug-In . SVG Version: 2.1.1 Build 123)  -->
  <defs>
    <style>
      .st0 {
        fill: #9e9e9e;
      }
    </style>
  </defs>
  <g>
    <g>
      <path class="st0" d="M175.19,789.34c0,.42-.14.63-.42.63-1.32,0-3.47-.06-6.42-.21-2.82-.14-4.89-.22-6.22-.22-1.61,0-3.61.08-6,.22-2.38.14-4.18.21-5.36.21-.28,0-.42-.21-.42-.63s.14-.63.42-.63c2.38,0,4.1-.23,5.16-.69,1.05-.45,1.58-1.27,1.58-2.47s-.53-2.84-1.58-4.95l-11.8-24.44h-19.38l-8.64,19.92c-.98,2.31-1.47,4.24-1.47,5.79,0,4.56,3.41,6.85,10.21,6.85.36,0,.53.21.53.63s-.17.63-.53.63c-1.26,0-3.09-.06-5.48-.21-2.66-.14-4.98-.22-6.94-.22-1.83,0-4.01.08-6.53.22-2.25.14-4.08.21-5.48.21-.28,0-.42-.21-.42-.63s.14-.63.42-.63c1.97,0,3.63-.39,5-1.16,1.36-.77,2.69-2.11,3.95-4.01,1.26-1.89,2.7-4.71,4.32-8.42l22.44-51.71c.06-.22.31-.33.73-.37s.67.09.75.37l25.38,52.14c2.38,5.12,4.42,8.6,6.11,10.43,1.68,1.83,3.59,2.74,5.68,2.74.28,0,.42.21.42.63ZM125.69,753.73h17.27l-9.05-18.97-8.22,18.97Z"/>
      <path class="st0" d="M248.92,789.34c0,.42-.1.63-.31.63h-13.91c-1.12,0-3.23-2.11-6.31-6.33-3.1-4.2-6.75-10-10.95-17.37-1.48.21-2.96.31-4.42.31s-2.6-.03-3.37-.1v14.95c0,2.19.17,3.77.53,4.74.35.99,1.02,1.65,1.99,2.01.99.35,2.6.53,4.85.53.21,0,.32.21.32.63s-.12.63-.32.63c-1.97,0-3.51-.04-4.63-.1l-6.75-.1-6.53.1c-1.2.06-2.84.1-4.95.1-.14,0-.21-.21-.21-.63s.06-.63.21-.63c2.25,0,3.88-.18,4.9-.53,1.02-.36,1.72-1.04,2.11-2.06.39-1.02.58-2.58.58-4.69v-32.22c0-2.11-.19-3.65-.58-4.64-.39-.98-1.09-1.66-2.11-2.04s-2.57-.59-4.68-.59c-.22,0-.32-.21-.32-.63s.1-.63.32-.63l4.85.1c2.66.14,4.81.22,6.42.22,1.34,0,2.55-.04,3.64-.1,1.08-.08,2.02-.14,2.79-.22,2.17-.21,4.24-.31,6.21-.31,4.85,0,8.55.87,11.12,2.62,2.56,1.76,3.84,4.29,3.84,7.59,0,2.82-.84,5.39-2.48,7.74-1.65,2.35-3.91,4.27-6.79,5.75,3.86,6.39,7.14,11.34,9.85,14.85,2.7,3.51,5.21,6.02,7.52,7.53,2.33,1.5,4.74,2.26,7.28,2.26.21,0,.31.21.31.63ZM213.74,764.69c4.22,0,7.15-.95,8.79-2.84,1.65-1.9,2.48-4.71,2.48-8.43,0-7.57-3.12-11.37-9.37-11.37-2.47,0-4.08.53-4.85,1.58-.77,1.04-1.16,2.98-1.16,5.79v15.07c1.54.14,2.91.21,4.1.21Z"/>
      <path class="st0" d="M278.94,787.76c-3.87-2.31-6.87-5.44-9.01-9.37-2.13-3.93-3.2-8.22-3.2-12.86,0-5.4,1.4-10.09,4.2-14.05,2.82-3.97,6.42-6.97,10.8-9.01,4.38-2.03,8.86-3.05,13.42-3.05,4.92,0,9.27,1.21,13.06,3.63,3.79,2.43,6.71,5.57,8.74,9.44,2.03,3.86,3.06,7.89,3.06,12.11,0,4.71-1.27,9.1-3.79,13.22-2.53,4.1-5.91,7.37-10.17,9.8-4.24,2.42-8.9,3.63-13.95,3.63s-9.31-1.16-13.17-3.47ZM306.69,783.23c2.98-3.87,4.49-9.23,4.49-16.12,0-4.63-.78-8.87-2.33-12.74-1.54-3.86-3.79-6.93-6.74-9.22-2.94-2.28-6.45-3.42-10.53-3.42-5.13,0-9.09,1.83-11.91,5.48-2.8,3.65-4.22,8.81-4.22,15.48,0,4.92.81,9.37,2.43,13.39,1.61,4,3.88,7.16,6.79,9.48,2.92,2.31,6.27,3.47,10.07,3.47,4.98,0,8.96-1.93,11.94-5.79Z"/>
      <path class="st0" d="M408.92,789.34c0,.42-.08.63-.22.63-1.97,0-3.51-.04-4.63-.1l-6.21-.1-7.16.1c-1.2.06-2.85.1-4.96.1-.14,0-.21-.21-.21-.63s.06-.63.21-.63c2.39,0,4.17-.19,5.32-.58,1.16-.39,1.93-1.08,2.31-2.06.39-.99.51-2.53.37-4.64l-1.36-34.65-17.59,42.46c-.14.28-.4.41-.75.41-.42,0-.69-.13-.84-.41l-20.23-39.5-.75,28.12c-.06,3.86.44,6.63,1.53,8.32,1.09,1.68,2.97,2.53,5.63,2.53.22,0,.32.21.32.63s-.1.63-.32.63c-1.54,0-2.74-.04-3.57-.1l-4.74-.1-4.63.1c-.91.06-2.21.1-3.9.1-.14,0-.22-.21-.22-.63s.08-.63.22-.63c2.6,0,4.47-.82,5.63-2.48,1.16-1.65,1.81-4.44,1.95-8.37l.84-31.6c-2.11-2.88-4.71-4.32-7.79-4.32-.21,0-.32-.21-.32-.63s.12-.63.32-.63l6.74.1,5.48-.1c.91,0,1.67.33,2.26,1,.6.67,1.49,2.16,2.69,4.47l16.65,32.86,14.74-35.71c.28-.77.72-1.4,1.32-1.9.59-.49,1.21-.73,1.84-.73l5.9.1,7.37-.1c.14,0,.22.22.22.63s-.08.63-.22.63c-2.94,0-5.05.48-6.31,1.43-1.26.95-1.79,2.83-1.58,5.63l1.48,32.44c.14,2.19.36,3.77.68,4.74.31.99.93,1.65,1.84,2.01.91.35,2.39.53,4.42.53.14,0,.22.21.22.63Z"/>
      <path class="st0" d="M486.66,789.34c0,.42-.18.63-.53.63-1.34,0-3.41-.06-6.22-.21-2.94-.14-5.05-.22-6.31-.22-1.05,0-2.64.08-4.74.22-1.97.14-3.47.21-4.53.21-.28,0-.42-.21-.42-.63s.14-.63.42-.63c1.75,0,3.03-.23,3.84-.69.81-.45,1.21-1.17,1.21-2.15,0-1.27-.45-2.85-1.36-4.74l-6.85-14.75h-14l-4.32,10.63c-1.2,2.96-1.79,5.21-1.79,6.75,0,1.75.6,3.02,1.84,3.79,1.22.77,3.14,1.16,5.73,1.16.36,0,.53.21.53.63s-.17.63-.53.63c-1.05,0-2.49-.06-4.31-.21-1.97-.14-3.79-.22-5.48-.22s-3.83.08-6.22.22c-2.11.14-3.79.21-5.05.21-.35,0-.53-.21-.53-.63s.18-.63.53-.63c2.17,0,3.91-.32,5.22-.95,1.29-.63,2.48-1.81,3.57-3.52,1.09-1.72,2.4-4.45,3.95-8.16l15.38-36.98c.14-.27.36-.42.63-.42s.5.15.64.42l16.84,36.45c1.83,3.86,3.3,6.69,4.42,8.47,1.13,1.79,2.26,3.02,3.43,3.69,1.16.67,2.65,1,4.47,1,.35,0,.53.21.53.63ZM448.1,764.16h12.01l-6.42-13.8-5.59,13.8Z"/>
      <path class="st0" d="M510.25,745.15c-1.9,1.94-3.34,5.12-4.32,9.54,0,.14-.19.21-.58.21s-.58-.06-.58-.21c.28-2.19.55-4.99.84-8.43.28-3.43.42-6.07.42-7.89,0-.35.19-.53.58-.53s.58.18.58.53c0,.91.53,1.49,1.58,1.74,1.05.24,2.39.37,4,.37,6.04.14,11.34.21,15.91.21l9.17-.1c1.2-.06,2.8-.1,4.85-.1,2.66,0,4.62-.17,5.85-.48,1.22-.32,2.02-1,2.37-2.06.14-.21.39-.31.73-.31s.53.1.53.31c-.49,9.06-.73,14.65-.73,16.75,0,.14-.19.21-.58.21s-.58-.06-.58-.21c-.28-4.28-1.34-7.43-3.16-9.44-1.83-1.99-4.53-3-8.11-3-2.6,0-4.32.48-5.16,1.43-.85.94-1.27,2.79-1.27,5.53v32.22c0,2.19.19,3.77.59,4.74.37.99,1.17,1.65,2.37,2.01,1.2.35,3.09.53,5.68.53.14,0,.22.21.22.63s-.08.63-.22.63c-2.31,0-4.1-.04-5.37-.1l-7.37-.1-7.26.1c-1.34.06-3.16.1-5.48.1-.14,0-.22-.21-.22-.63s.08-.63.22-.63c2.6,0,4.49-.18,5.68-.53,1.2-.36,2.02-1.04,2.48-2.06.45-1.02.68-2.58.68-4.69v-32.44c0-1.97-.14-3.41-.42-4.32-.28-.9-.84-1.54-1.68-1.89-.84-.35-2.21-.53-4.1-.53-3.52,0-6.22.96-8.11,2.89Z"/>
      <path class="st0" d="M632.96,789.34c0,.42-.06.63-.21.63-2.11,0-3.77-.04-4.95-.1l-6.43-.1-6.74.1c-1.13.06-2.71.1-4.74.1-.21,0-.32-.21-.32-.63s.12-.63.32-.63c2.25,0,3.88-.18,4.9-.53,1.02-.36,1.7-1.04,2.06-2.06.35-1.02.53-2.58.53-4.69v-15.26h-28.13v15.26c0,2.11.18,3.68.53,4.69.36,1.02,1.04,1.7,2.06,2.06,1.02.35,2.65.53,4.9.53.21,0,.32.21.32.63s-.12.63-.32.63c-2.03,0-3.61-.04-4.74-.1l-6.63-.1-6.53.1c-1.2.06-2.84.1-4.95.1-.14,0-.21-.21-.21-.63s.06-.63.21-.63c2.25,0,3.9-.18,4.95-.53,1.05-.36,1.77-1.04,2.16-2.06.39-1.02.58-2.58.58-4.69v-32.22c0-2.11-.19-3.65-.58-4.64-.39-.98-1.08-1.66-2.11-2.04-1.02-.39-2.61-.59-4.78-.59-.22,0-.32-.21-.32-.63s.1-.63.32-.63l4.73.1c2.67.14,4.85.22,6.53.22s3.93-.08,6.75-.22l4.63-.1c.21,0,.32.22.32.63s-.12.63-.32.63c-2.17,0-3.78.22-4.8.64-1.02.41-1.72,1.13-2.11,2.16-.39,1.02-.58,2.57-.58,4.68v14.65h28.13v-14.65c0-2.11-.18-3.66-.53-4.68-.36-1.03-1.05-1.75-2.11-2.16-1.05-.42-2.67-.64-4.85-.64-.21,0-.32-.21-.32-.63s.12-.63.32-.63l4.74.1c2.66.14,4.91.22,6.74.22,1.61,0,3.75-.08,6.43-.22l4.95-.1c.14,0,.21.22.21.63s-.06.63-.21.63c-2.25,0-3.9.21-4.95.59-1.05.39-1.77,1.07-2.16,2.04-.39.99-.58,2.53-.58,4.64v32.22c0,2.11.19,3.68.58,4.69.39,1.02,1.11,1.7,2.16,2.06,1.05.35,2.7.53,4.95.53.14,0,.21.21.21.63Z"/>
      <path class="st0" d="M696.22,775.64c.37,0,.58.1.58.31-.5,5.07-.75,9.21-.75,12.43,0,.57-.1.96-.31,1.21-.22.26-.63.37-1.27.37h-38.97c-.14,0-.21-.21-.21-.63s.06-.63.21-.63c2.25,0,3.88-.18,4.9-.53,1.02-.36,1.72-1.04,2.11-2.06.39-1.02.58-2.58.58-4.69v-32.22c0-2.11-.19-3.65-.58-4.64-.39-.98-1.11-1.66-2.16-2.04-1.05-.39-2.66-.59-4.85-.59-.14,0-.21-.21-.21-.63s.06-.63.21-.63h37.08c.69,0,1.05.28,1.05.85l.1,6.53c.06,1.32.1,3.01.1,5.05,0,.21-.21.31-.63.31s-.63-.1-.63-.31c-.63-3.23-2.1-5.89-4.37-7.96-2.29-2.07-4.9-3.1-7.84-3.1h-2.33c-2.1,0-3.66.19-4.68.58s-1.71,1.07-2.06,2.04c-.35.99-.53,2.53-.53,4.64v14.32c6.33-.06,10.72-.26,13.22-.58,2.49-.32,3.92-.48,4.27-.48.42,0,.63.77.63,2.31,0,1.62-.21,2.43-.63,2.43-.28,0-1.68-.18-4.22-.53-2.52-.36-6.94-.6-13.27-.75v14.97c0,2.03.18,3.56.53,4.58.35,1.02,1.04,1.72,2.06,2.11,1.02.39,2.58.58,4.68.58h3.91c3.01,0,5.79-1.16,8.32-3.47,2.52-2.33,4.28-5.27,5.26-8.86.08-.21.3-.31.69-.31Z"/>
      <path class="st0" d="M774.93,789.34c0,.42-.1.63-.31.63h-13.91c-1.12,0-3.23-2.11-6.31-6.33-3.1-4.2-6.75-10-10.95-17.37-1.48.21-2.96.31-4.42.31s-2.6-.03-3.37-.1v14.95c0,2.19.17,3.77.53,4.74.35.99,1.02,1.65,1.99,2.01.99.35,2.6.53,4.85.53.21,0,.32.21.32.63s-.12.63-.32.63c-1.97,0-3.51-.04-4.63-.1l-6.75-.1-6.53.1c-1.2.06-2.84.1-4.95.1-.14,0-.21-.21-.21-.63s.06-.63.21-.63c2.25,0,3.88-.18,4.9-.53,1.02-.36,1.72-1.04,2.11-2.06.39-1.02.58-2.58.58-4.69v-32.22c0-2.11-.19-3.65-.58-4.64-.39-.98-1.09-1.66-2.11-2.04-1.02-.39-2.57-.59-4.68-.59-.22,0-.32-.21-.32-.63s.1-.63.32-.63l4.85.1c2.66.14,4.81.22,6.42.22,1.34,0,2.55-.04,3.64-.1,1.08-.08,2.02-.14,2.79-.22,2.17-.21,4.24-.31,6.21-.31,4.85,0,8.55.87,11.12,2.62,2.56,1.76,3.84,4.29,3.84,7.59,0,2.82-.84,5.39-2.48,7.74-1.65,2.35-3.91,4.27-6.79,5.75,3.86,6.39,7.14,11.34,9.85,14.85,2.7,3.51,5.21,6.02,7.52,7.53,2.33,1.5,4.74,2.26,7.28,2.26.21,0,.31.21.31.63ZM739.75,764.69c4.22,0,7.15-.95,8.79-2.84,1.65-1.9,2.48-4.71,2.48-8.43,0-7.57-3.12-11.37-9.37-11.37-2.47,0-4.08.53-4.85,1.58-.77,1.04-1.16,2.98-1.16,5.79v15.07c1.54.14,2.91.21,4.1.21Z"/>
      <path class="st0" d="M848.26,789.34c0,.42-.18.63-.53.63-1.34,0-3.41-.06-6.22-.21-2.94-.14-5.05-.22-6.31-.22-1.05,0-2.64.08-4.74.22-1.97.14-3.47.21-4.53.21-.28,0-.42-.21-.42-.63s.14-.63.42-.63c1.75,0,3.03-.23,3.84-.69.81-.45,1.21-1.17,1.21-2.15,0-1.27-.45-2.85-1.36-4.74l-6.85-14.75h-14l-4.32,10.63c-1.2,2.96-1.79,5.21-1.79,6.75,0,1.75.6,3.02,1.84,3.79,1.22.77,3.14,1.16,5.73,1.16.36,0,.53.21.53.63s-.17.63-.53.63c-1.05,0-2.49-.06-4.31-.21-1.97-.14-3.79-.22-5.48-.22s-3.83.08-6.22.22c-2.11.14-3.79.21-5.05.21-.35,0-.53-.21-.53-.63s.18-.63.53-.63c2.17,0,3.91-.32,5.22-.95,1.29-.63,2.48-1.81,3.57-3.52,1.09-1.72,2.4-4.45,3.95-8.16l15.38-36.98c.14-.27.36-.42.63-.42s.5.15.64.42l16.84,36.45c1.83,3.86,3.3,6.69,4.42,8.47,1.13,1.79,2.26,3.02,3.43,3.69,1.16.67,2.65,1,4.47,1,.35,0,.53.21.53.63ZM809.7,764.16h12.01l-6.42-13.8-5.59,13.8Z"/>
      <path class="st0" d="M883.22,785.87c.49,1.04,1.41,1.79,2.79,2.21,1.36.41,3.52.63,6.47.63.22,0,.32.21.32.63s-.1.63-.32.63c-2.52,0-4.53-.04-6-.1l-7.79-.1-6.53.1c-1.2.06-2.84.1-4.95.1-.14,0-.21-.21-.21-.63s.06-.63.21-.63c2.19,0,3.79-.18,4.85-.53,1.05-.36,1.77-1.04,2.16-2.06.39-1.02.58-2.58.58-4.69v-32.22c0-2.11-.19-3.65-.58-4.64-.39-.98-1.11-1.66-2.16-2.04s-2.66-.59-4.85-.59c-.14,0-.21-.21-.21-.63s.06-.63.21-.63l4.85.1c2.82.14,4.99.22,6.53.22,1.76,0,3.75-.1,6-.32.77-.06,1.7-.14,2.79-.21,1.09-.08,2.3-.1,3.64-.1,11.79,0,17.69,4.18,17.69,12.52,0,3.38-.86,6.24-2.58,8.59-1.72,2.35-3.91,4.11-6.58,5.27-2.66,1.16-5.44,1.74-8.32,1.74-1.68,0-2.98-.1-3.9-.32-.21-.14-.32-.39-.32-.73,0-.42.18-.63.53-.63.42,0,.86.04,1.32.1.45.06.96.1,1.53.1,2.8,0,5.12-1.02,6.94-3.05,1.83-2.04,2.74-4.99,2.74-8.86,0-4.42-1.02-7.71-3.05-9.9-2.04-2.17-4.89-3.27-8.54-3.27-1.54,0-2.73.17-3.52.48-.81.32-1.43,1-1.85,2.06-.41,1.05-.63,2.7-.63,4.95v31.6c0,2.17.24,3.79.75,4.85Z"/>
      <path class="st0" d="M980.02,741.3c0,.42-.1.63-.32.63-2.17,0-4.32.81-6.42,2.43-2.11,1.62-4.08,3.96-5.9,7.06l-8.43,14.43v15.58c0,2.19.19,3.77.59,4.74.37.99,1.17,1.65,2.37,2.01,1.2.35,3.09.53,5.68.53.22,0,.32.21.32.63s-.1.63-.32.63c-2.17,0-3.9-.04-5.16-.1l-7.48-.1-7.16.1c-1.34.06-3.16.1-5.48.1-.21,0-.31-.21-.31-.63s.1-.63.31-.63c2.53,0,4.38-.18,5.58-.53,1.2-.36,2.02-1.04,2.48-2.06.45-1.02.68-2.58.68-4.69v-14l-11.69-18.01c-1.76-2.74-3.39-4.67-4.9-5.79-1.52-1.13-3.25-1.7-5.22-1.7-.21,0-.31-.21-.31-.63s.1-.63.31-.63l3.48.1c1.83.14,3.05.22,3.68.22,2.19,0,5.09-.08,8.74-.22l5.59-.1c.21,0,.31.22.31.63s-.1.63-.31.63c-3.24,0-4.85.81-4.85,2.43,0,.77.35,1.65,1.05,2.64l10.95,16.84,7.05-12.52c1.13-1.97,1.7-3.73,1.7-5.27,0-1.26-.41-2.26-1.22-3.01-.81-.73-1.98-1.11-3.52-1.11-.14,0-.22-.21-.22-.63s.08-.63.22-.63l4.63.1c2.53.14,4.81.22,6.85.22.91,0,2.07-.08,3.47-.22l2.84-.1c.22,0,.32.22.32.63Z"/>
    </g>
    <g>
      <path class="st0" d="M278.56,596.7c10.15,26.59,25.15,40.63,44.01,42.06h-109.78s41.1-2.41,27.08-40.14l-35.78-100.59h-113.17l-31.91,87.06c-13.06,33.37-2.42,51.27,30.95,53.67H0c22.73-1.43,40.62-20.79,54.16-57.07l109.78-291.62,1.46,4.35,113.17,302.28ZM130.08,393.09l-36.76,100.1h108.82l-38.21-108.82c-6.28-15.96-11.61-24.17-15.96-24.17-3.87,0-9.68,11.12-17.9,32.88ZM322.57,638.76h1.93-1.93Z"/>
      <path class="st0" d="M400.46,610.23c0,13.06,6.78,21.76,15.97,25.16,9.67,3.38,14.02,3.38,18.37,3.38h-97.69c4.35,0,8.22,0,17.9-3.38,9.67-3.4,15.96-12.09,15.96-25.16v-259.7c0-23.19-13.54-24.65-17.9-24.17l47.39-33.37v317.24Z"/>
      <path class="st0" d="M541.7,610.23c0,13.06,5.8,21.76,15,25.16,9.18,3.38,13.05,3.38,17.4,3.38h-94.79c4.36,0,8.22,0,17.41-3.38,9.19-3.4,15.47-12.09,15.47-25.16v-140.73c0-19.33-7.74-26.59-17.4-25.14l46.91-32.4v198.27ZM504.94,360.21c0-11.12,9.19-20.33,20.31-20.33,10.15,0,19.34,9.2,19.34,20.33s-9.19,20.3-19.34,20.3c-11.12,0-20.31-9.18-20.31-20.3Z"/>
      <path class="st0" d="M726.94,636.36c11.12-.49,20.8-1.46,29.51-3.4,8.71-1.92,14.51-3.38,16.93-4.83,2.42-1.46,6.76-3.38,12.08-6.78,13.06-7.72,26.6-26.11,32.41-37.72l4.35-8.21-11.61,64.31-181.35-.49,135.41-198.29c8.22-12.07,7.25-17.88-9.68-17.88h-36.76c-8.71,0-16.44.95-23.69,2.41-14.02,3.4-17.41,5.8-31.44,14.04-10.15,5.8-21.29,17.88-26.6,25.14l-3.86,5.32,14.51-50.29h169.74c-15.96,21.76-42.07,59.01-77.86,111.23-35.31,52.24-54.65,81.26-58.03,87.55-6.78,11.61-3.39,17.41,10.64,17.41l35.3.49Z"/>
      <path class="st0" d="M993.44,619.92c41.11,2.41,69.64-13.06,86.56-46.43-5.32,19.82-16.44,36.26-33.85,50.29-17.4,13.55-37.72,20.3-61.42,19.82-29.01-.49-54.16-10.64-74.96-31.43-20.8-20.79-31.92-48.35-32.41-82.21-.96-44.98,16.93-78.83,54.17-101.56,17.9-11.12,38.21-16.44,61.9-15.98,25.63.97,45.95,10.66,61.9,29.02,15.97,18.38,23.7,42.09,23.22,71.59h-171.2c0,30.45,7.74,55.61,23.22,75.43,15.47,19.84,36.27,29.99,62.86,31.45ZM941.21,430.81c-21.29,15.47-32.41,41.6-33.85,78.34,50.78,0,82.69-.49,95.76-1.92,21.27-1.46,35.3-6.78,42.07-16.44,8.22-10.66,10.15-39.17-13.06-59.5-12.08-10.15-26.59-15.47-44.49-15.47s-32.88,4.83-46.42,14.98ZM964.9,391.15l57.56-41.09c10.15-8.23,12.57-18.38,7.25-22.73-6.28-7.26-16.44-3.88-23.69,7.72l-41.11,56.1Z"/>
    </g>
  </g>
  <g>
    <path class="st0" d="M278.56,595.39c10.15,26.59,25.15,40.63,44.01,42.06h-109.78s41.1-2.41,27.08-40.14l-35.78-100.59h-113.17l-31.91,87.06c-13.06,33.37-2.42,51.27,30.95,53.67H0c22.73-1.43,40.62-20.79,54.16-57.07l109.78-291.62,1.46,4.35,113.17,302.28ZM130.08,391.79l-36.76,100.1h108.82l-38.21-108.82c-6.28-15.96-11.61-24.17-15.96-24.17-3.87,0-9.68,11.12-17.9,32.88ZM322.57,637.46h1.93-1.93Z"/>
    <path class="st0" d="M400.46,608.92c0,13.06,6.78,21.76,15.97,25.16,9.67,3.38,14.02,3.38,18.37,3.38h-97.69c4.35,0,8.22,0,17.9-3.38,9.67-3.4,15.96-12.09,15.96-25.16v-259.7c0-23.19-13.54-24.65-17.9-24.17l47.39-33.37v317.24Z"/>
    <path class="st0" d="M541.7,608.92c0,13.06,5.8,21.76,15,25.16,9.18,3.38,13.05,3.38,17.4,3.38h-94.79c4.36,0,8.22,0,17.41-3.38,9.19-3.4,15.47-12.09,15.47-25.16v-140.73c0-19.33-7.74-26.59-17.4-25.14l46.91-32.4v198.27ZM504.94,358.91c0-11.12,9.19-20.33,20.31-20.33,10.15,0,19.34,9.2,19.34,20.33s-9.19,20.3-19.34,20.3c-11.12,0-20.31-9.18-20.31-20.3Z"/>
    <path class="st0" d="M726.94,635.05c11.12-.49,20.8-1.46,29.51-3.4,8.71-1.92,14.51-3.38,16.93-4.83,2.42-1.46,6.76-3.38,12.08-6.78,13.06-7.72,26.6-26.11,32.41-37.72l4.35-8.21-11.61,64.31-181.35-.49,135.41-198.29c8.22-12.07,7.25-17.88-9.68-17.88h-36.76c-8.71,0-16.44.95-23.69,2.41-14.02,3.4-17.41,5.8-31.44,14.04-10.15,5.8-21.29,17.88-26.6,25.14l-3.86,5.32,14.51-50.29h169.74c-15.96,21.76-42.07,59.01-77.86,111.23-35.31,52.24-54.65,81.26-58.03,87.55-6.78,11.61-3.39,17.41,10.64,17.41l35.3.49Z"/>
    <path class="st0" d="M993.44,618.61c41.11,2.41,69.64-13.06,86.56-46.43-5.32,19.82-16.44,36.26-33.85,50.29-17.4,13.55-37.72,20.3-61.42,19.82-29.01-.49-54.16-10.64-74.96-31.43-20.8-20.79-31.92-48.35-32.41-82.21-.96-44.98,16.93-78.83,54.17-101.56,17.9-11.12,38.21-16.44,61.9-15.98,25.63.97,45.95,10.66,61.9,29.02,15.97,18.38,23.7,42.09,23.22,71.59h-171.2c0,30.45,7.74,55.61,23.22,75.43,15.47,19.84,36.27,29.99,62.86,31.45ZM941.21,429.5c-21.29,15.47-32.41,41.6-33.85,78.34,50.78,0,82.69-.49,95.76-1.92,21.27-1.46,35.3-6.78,42.07-16.44,8.22-10.66,10.15-39.17-13.06-59.5-12.08-10.15-26.59-15.47-44.49-15.47s-32.88,4.83-46.42,14.98ZM964.9,389.85l57.56-41.09c10.15-8.23,12.57-18.38,7.25-22.73-6.28-7.26-16.44-3.88-23.69,7.72l-41.11,56.1Z"/>
  </g>
</svg>