<?xml version="1.0" encoding="UTF-8"?>
<svg id="Layer_1" xmlns="http://www.w3.org/2000/svg" version="1.1" viewBox="0 0 1080 1080">
  <!-- Generator: Adobe Illustrator 30.0.0, SVG Export Plug-In . SVG Version: 2.1.1 Build 123)  -->
  <defs>
    <style>
      .st0 {
        fill: #9e9e9e;
        fill-rule: evenodd;
      }
    </style>
  </defs>
  <path class="st0" d="M520.06,423.7c14.29,4.1,29.59,2.6,26.6,30.38-3.09,28.73-24.11,33.47-29.3,37.58-13.04,10.33-16.37,25.4-43.32,25.17-60.72-.53-58.27,3.9-104.23,31.13-49.76,29.49-72.43-16.24-47.14-47.16,15.01-18.35,30.66-9.43,52.51-15.29,4.5-7.91-2.87-3.63,3.36-10.69l10.23-8.43c-18.09-2.28-17.05.15-32.5,2.51-.19-.67-.2-2.11-.3-2.43-1.37-4.5.85.18-1.8-3.68-14.21,1.03-14.47,7.54-21.7,14.19-6.42,5.91-46.73,24.09-29.61,70.94,6.16,16.86,20.73,31.21,44.93,26.75,19.51-3.6,33.25-19.28,49.27-23.23-5.13,11.82-7.99,2.2-15.04,15.1-2.64,4.83-7.26,14.01-8.84,18.22,50.47,1.98,104.53.23,155.39.23s102.24,7.41,136.64-18.99c27.02-20.73,50.17-64.28,28.18-112.41-9.86-21.59-19.54-29.14-36.9-40.81-5.42-3.65-31.53-31.76-35.38-42.25,11.59-11.4,24.24-8.96,28.96-27.92,4.63-18.58-9.36-31.13-21.58-35.42,6.29,24.18,12.26,19.94-7.39,36.11-13.79,11.35-18.26,13.37-39.99,14.62-4.45-7.6,3.51-2.56-5.97-6.15-19.99-7.55-11.68-10.16-5.88-33.63-10.57,2.99-14.82,7.27-17.33,19.11-5.19,24.53,3.85,21.42,9.35,26.08-12.24.55-19.94,10.92-32.92,15.31-15.13,5.13-22.29,6.26-28.46,19.43h-.33l.07.32c1.37,5.68,6.15,18.51,20.42,25.29M455.39,499.51c.4-.3.98-.65,1.27-.8l4.51-2c2.21-.97,2.12,1.28,3.16-1.4.26-.68,1.02-.49,1.43-.8l.79-73.77-.61-.3v-44.72l.87.13.04-104.57c74.74,0,145.02-16.02,144.83,70.96,10.12-4.2,10.86-6.69,17.57-13.87l-10.11-29c43.43,6.69,54.97,48.24,14.68,71.53l18.44,34.22c59.13-43.76,35.21-137.99-34.33-153.33-26.44-5.83-92.1-2.4-122.96-2.4-34.75,0-90.54-3.33-122.75.52,7,15.61,11.64,19.2,15.75,38.46,3.58,16.82,3.86,32.93,3.84,50.65-.03,34.12-2.39,78.19.51,110.81l30.95,3.54c-1.82,5-6.73,8.71-11.85,12.28-11.01,7.67-7.02,1.52-8.56,15.87-14.03,3-11.12-.21-10.71,42.14,17.69-8.65,37.16-25.19,63.27-24.15Z"/>
  <path class="st0" d="M109.3,682.78c-13.2-4.18-90.12-2.15-109.3-1.92,3.44,14.7,6.89,15.49,7.27,34.2.7,34.69,3.16,82.8-7.23,112.19,23.39.13,102.22,3.56,118.3-3.14,30.47-12.69,32.68-57.88,2.69-73.07,6.55-10.21,17.89-19.06,13.92-39.64-2.7-13.99-12.87-24.56-25.66-28.61M81.95,744.53l-39.78.15-.28-52.58,43.05.75c24.78,3.3,25.53,47.5-2.99,51.68ZM40.79,817.85l-.48-62.58c32.21-.29,68.89-5.07,69.91,31.37,1.03,36.83-37.46,32.02-69.43,31.22Z"/>
  <path class="st0" d="M911.13,767.66c16.47-109.21-144.13-121.68-159.45-29.27-18.57,111.96,144.93,125.56,159.45,29.27M807.01,692.3c60.45-26.17,106.06,101.09,48.71,125.09-46.24,19.35-83.59-51.26-74.95-93.72,3.88-19.04,13.07-25.67,26.23-31.37Z"/>
  <path class="st0" d="M928.02,681.2c4.72,14.49,7.44,17.56,7.44,36.03,0,40.55,4.36,77.76-7.47,109.82l24.24.19c-5.93-18.1-7.18-18.99-7.23-40.67l.63-89.28c19.9,22.11,37.48,47.76,56.48,71.74,35.51,44.83,35.22,60.58,70.7,57.76v-107.47c.06-20.35,1.82-21.75,7.19-38.53l-24.22.03c5.4,14.99,7.39,17.78,7.4,36.4l-.23,74.4c-.51-.32-1.12-.82-1.45-1.1-8.16-6.91-20.28-24.42-26.87-33.05-9.69-12.7-17.36-21.87-26.62-34.3-31.65-42.47-27.03-45.9-80-41.99"/>
  <path class="st0" d="M207.14,681.03c10.63,28.99-9.4,54.98-20.46,78.84-21.78,47-29.96,49.37-39.42,67.6l25.71-1.16c.12-17.25,3.14-22.68,8.54-35.77l77.64.79c2.41,6.43,3.99,10.45,5.69,17.29l3.78,15.23,51.8,2.96c-3.33-7.4-16.9-24.3-22.81-34.12l-54.29-111.93-36.2.25ZM222.33,712.47l31.81,67.87-66.36.43,34.55-68.31Z"/>
  <path class="st0" d="M396.68,776.06c0-7.5,25.74-42.9,31.04-50.43,5.82-8.28,11.4-14.56,17.54-22.37,11.74-14.92,14.9-13.52,18.73-22.41l-26.86-.03c-4.34,19.59-31.92,66.44-43.03,75.94-5.69-4.8-19.27-27.08-24.97-35.6-8.76-13.1-15.74-21.12-18.13-40.39l-54.34.08c4,6.36,25.36,29.29,38,47.48,25.3,36.41,39.88,51.17,21.74,98.6l47.93-.38c-8.41-20.71-7.66-28.51-7.65-50.51"/>
  <path class="st0" d="M620.94,680.86c10.05,17.12,7.34,51.33,7.34,74.19,0,33.24,2.14,43.02-7.35,72.21l122.86.02v-27.3c-26.32,12.85-10.92,21.76-82.08,17.43-1.96-21.16-.48-48.9-.48-70.77,0-44.02-2.78-28.85,7.32-65.87l-47.61.08Z"/>
  <path class="st0" d="M491.85,822.29c3.85,4.46-.36,3.29,7.15,5.03l78.92-.04v-27.27c-28.32,14.45-10.11,18.65-64.06,17.96-27.51-.35-19.13-.66-22.01,4.32"/>
  <path class="st0" d="M507.45,680.58c-15.82-.21-13.93,1.69-15.59,5.13,4.51,4.6-7.16,5.1,22,4.64,45.2-.7,32.93,5.7,56.7,18.45l-.07-27.52-63.04-.7Z"/>
  <path class="st0" d="M536.79,745.67c-5.85,8.88-34.92.43-43.96,5.18,1.07,7.33-5.01,6.03,18.94,5.82,10.46-.09,19.02-1.39,25.37,3.16l23.35,6.64-.86-27.6c-8.27,2.58-12.99,6.97-22.84,6.79"/>
  <path class="st0" d="M537.13,759.84c-6.35-4.55-14.91-3.25-25.37-3.16-23.95.2-17.87,1.5-18.94-5.82,9.04-4.75,38.11,3.69,43.96-5.18l-45.8,2.09.9,10.85,45.24,1.23Z"/>
</svg>