<?xml version="1.0" encoding="utf-8"?>
<!-- Generator: Adobe Illustrator 29.8.3, SVG Export Plug-In . SVG Version: 9.03 Build 0)  -->
<svg version="1.0" id="Layer_1" xmlns="http://www.w3.org/2000/svg" xmlns:xlink="http://www.w3.org/1999/xlink" x="0px" y="0px"
	 viewBox="0 0 595.3 508.4" style="enable-background:new 0 0 595.3 508.4;" xml:space="preserve">
<style type="text/css">
	.st0{fill:#CAA332;}
</style>
<g>
	<path class="st0" d="M590.4,404.3c0,2-0.2,3.9-0.8,5.9c-0.6,2-1.4,3.7-2.4,5.4l-1.2,0.5h-0.2l-1-1.3c0.2-1.9,0.8-3.9,1.8-5.9
		c1-2,1.6-4.1,1.6-6.4c0-7.1-2.6-13.2-8.1-18.4c3.4,2.8,6.1,5.9,7.7,9.1c1.7,3.2,2.5,6.9,2.5,11H590.4z M576.8,377.9
		c0-0.2,0-0.4,0.2-0.5c0.6,0.2,1,0.5,1,0.9c0,0.2,0,0.4-0.2,0.6l-0.4,0.7c-0.2-0.2-0.4-0.6-0.4-1.1
		C576.8,378.3,576.8,378.1,576.8,377.9z M576.4,393.4v-0.2c0-0.2,0.2-0.4,0.6-0.4v0.2C577,393.3,576.8,393.4,576.4,393.4z
		 M576.4,400.2c0-0.2,0-0.4,0.2-0.4c0.2,0,0.4,0.2,0.4,0.4c0,0.2,0,0.4-0.2,0.4C576.6,400.6,576.4,400.4,576.4,400.2z M533.2,420.1
		c0-0.2,0-0.4,0.2-0.4c0.2,0,0.4,0.2,0.4,0.4c0,0.2,0,0.4-0.2,0.4C533.5,420.4,533.2,420.2,533.2,420.1z M573.2,394.2
		c0-0.2,0.2-0.4,0.4-0.4c0.2,0,0.4,0,0.6,0.2c0.2,0.2,0.4,0.2,0.6,0.2h0.2c0,0.2-0.2,0.4-0.6,0.4
		C574.2,394.5,573.8,394.4,573.2,394.2z M541.7,373.1v-0.2c-1.4-0.9-2.8-1.8-4.3-2.6c-1.4-0.9-2.8-2-4.3-3.2c0.2,0.2,0.6,0.4,1,0.7
		c0.4,0.4,1,0.7,1.6,1.1c0.6,0.4,1.2,0.7,1.6,0.9c0.4,0.2,0.9,0.4,1,0.4l0.8,0.7h0.2c5.5,3,11.3,6.1,17.6,9.1
		c6.3,3,11.7,6.8,16.4,11.2c-2.2-2-4.7-3.7-7.3-5.4c-2.6-1.6-5.2-3.2-8.1-4.6c-2.8-1.5-5.7-2.9-8.5-4.3c-2.8-1.4-5.5-2.8-8.1-4.3
		L541.7,373.1z M527.8,340.4l1.2-0.2l0.8,1.1c0,3,0.8,6.1,2.2,8.9c1.4,2.9,3.3,5.6,5.5,7.9c-2.6-2.3-4.8-5-6.7-8.1
		C529,347,528,343.8,527.8,340.4z M525.8,347.9v-0.2c0-0.2,0-0.2,0.2-0.2l0.4,0.4v0.2l-0.2,0.2L525.8,347.9z M578.4,377.7l-0.8-1.5
		c-2.6-1.8-5.5-3.4-8.7-4.8c-3.2-1.4-5.7-3.2-7.5-5.4h-2.2c-1.2-1.6-3.3-3.2-6.1-4.6c-2.8-1.5-5.7-3-8.5-4.9
		c-2.9-1.8-5.5-3.9-7.7-6.2c-2.2-2.3-3.4-5.4-3.4-9.1c0-4.5,1.6-7.7,4.9-9.8c3.2-2.1,7.3-3.2,12-3.2l2.8,0.2l1.6,1.4
		c0.6-0.2,1.4-0.2,2.6-0.2l1.2,0.2l0.8,1.3h2.2l2.5,2.1l1.4,0.6v1.4h1.6v1.4l1.4,0.6c0.8,1.1,1.6,2.7,2.2,4.8
		c0.6,2.1,1.2,4.3,1.6,6.4c0.4,2.1,0.8,4.1,1.2,5.9c0.4,1.8,0.8,2.6,1,2.8l1.4-0.7c1.6-0.6,2.8-1.6,3.8-3c1-1.4,1.8-3,2.2-4.8
		c0.4-1.8,0.8-3.6,1-5.6v-0.7c0-1.6-0.2-3-0.6-4.3c1.8-1.6,3.4-3.4,4.8-5.6c1.4-2.1,2.2-4.5,2.2-6.8c0-1.1,0-1.6-0.2-1.8l-1.4-0.9
		h-3.9c-0.6,0.6-1,1.1-1,1.6c0,0.7,0.2,1.4,0.4,2c-0.8,0.7-1.6,1.4-2.6,2.3c-1,0.9-2,1.2-3.2,1.2c-1.4,0-3-0.4-5.1-1.1
		c-2.1-0.7-4.3-1.6-6.7-2.5c-2.4-0.9-4.8-1.8-7.3-2.5c-2.4-0.7-4.8-1.1-7.1-1.1c-2.5,0-5.1,0-7.9,0.2c-2.8,0.2-5.2,0.5-7.5,1.1
		l-1.7,1.4h-3c-0.9,0.7-1.7,1.3-2.5,1.8c-0.8,0.6-1.6,0.9-2.4,1.3c-0.8,0.4-1.6,0.9-2.4,1.4c-0.9,0.6-1.4,1.3-1.8,2.2l-1.4,0.7
		c-1.8,2.3-3.2,4.5-4.3,6.4c-1,2-1.4,4.5-1.4,7.5c0,4.5,1.3,9.1,3.7,13.8c2.4,4.6,5.5,8.6,9.1,11.9h1.6l0.6,1.4
		c1.8,1.3,3.8,2.3,5.9,3.4c2,1.1,4,2.1,5.9,3.4l2.4,0.6l4.7,3.4c2.6,0.7,5.5,2,8.6,3.7c3,1.8,6,3.9,8.9,6.2c2.8,2.3,5.1,4.9,6.9,7.7
		s2.8,5.5,2.8,8.1c0,3-0.6,5.5-2,7.5c-1.4,2-3.3,3.6-5.5,4.8c-2.2,1.3-4.7,2.2-7.5,2.7c-2.8,0.6-5.7,0.7-8.5,0.7
		c-3,0-5.3-0.4-6.7-1.2c-1.4-0.9-3.3-2-5.5-3.2h-1.6l-0.8-1.4c-3.4-2.2-6.5-5-9.3-8.6c-2.9-3.5-4.9-7.1-6.3-10.5
		c-0.4-1.2-0.6-2.5-0.6-3.5c0-1.1-0.8-2-2.2-2.5c-1-0.4-2-0.5-3-0.5c-1.6,0-2.4,0.9-2.4,2.5c0,3.4,0.4,7,1.2,10.7
		c0.8,3.7,2.2,6.9,4,9.8c-1,0.5-1.8,1.3-2.4,2.1c-0.6,0.9-1.2,1.8-1.6,2.9c-0.4,1.1-0.8,2.1-1,3.2c-0.2,1.1-0.2,2-0.2,2.9
		c0,0.9,0.2,1.6,0.8,2.3c0.6,0.8,1.4,1.1,2.4,1.1c1,0,1.8-0.4,2.2-1.1c0.4-0.7,0.8-1.6,1.2-2.5c0.4-0.9,1-1.8,1.8-2.5
		c0.8-0.7,2-1.1,3.9-1.1c1.6,0,3.2,0.2,4.9,0.7c1.6,0.5,3.2,1.1,4.7,1.6l1.6,1.5h3c3,1.2,5.9,1.9,8.3,2.3c2.5,0.4,5.5,0.6,9,0.6
		c3.4,0,6.9-0.2,10.3-0.6c3.4-0.4,6.7-1.2,9.7-2.5c1.4-0.5,2.6-1.3,3.6-2.1c1-0.9,2.5-1.6,4.1-2.2v-1.4h1.6v-1.2h1.4
		c0.6-0.9,1-1.6,1-2.2V419c0-0.8,0.8-1.6,2.2-2.9v-1.3l1.4-0.7c0.4-1.8,0.8-3.5,1.2-5.3c0.4-1.8,0.6-3.6,0.6-5.4
		c0-2.3-0.4-4.9-1-7.7c-0.6-2.8-1.6-5.5-2.8-8.2c-1.2-2.7-2.9-5-4.9-7.1c-2-2.2-4.3-3.7-6.9-4.7L578.4,377.7z M478.2,406.7
		c0,0.6,0.2,0.7,0.8,0.7v-0.2C479,406.9,478.8,406.7,478.2,406.7z M481.5,402.6h0.4c0-0.6-0.2-0.7-0.4-0.7c-0.2,0-0.4,0-0.4,0.2
		c0,0.2-0.2,0.4-0.4,0.6c0.2,0.2,0.6,0.2,1,0.2L481.5,402.6z M483.3,399.7h0.2c0-0.2-0.2-0.4-0.4-0.4v0.2
		C483.1,399.7,483.1,399.7,483.3,399.7z M481.9,398.5h-1.4l-0.2,0.7c0,0.4,0.2,0.6,0.6,0.6C481.5,399.7,481.9,399.4,481.9,398.5z
		 M485.7,400.4h2.4l0.2-1.3c0-0.9-0.2-1.3-0.9-1.3C486.3,398.5,485.7,399.4,485.7,400.4z M482,397.7h-0.2v0.7h0.8
		c0.2,0,0.4-0.2,0.4-0.4C482.8,397.9,482.4,397.7,482,397.7z M480.4,398.5c0-0.4-0.2-0.6-0.6-0.6C479.8,398.3,480,398.5,480.4,398.5
		z M490.4,397c-0.2,0.2-0.4,0.4-0.6,0.4c-0.2,0-0.2-0.2-0.2-0.4H490.4z M481.9,397.7c0-0.2-0.2-0.4-0.4-0.4
		C481.5,397.5,481.6,397.7,481.9,397.7z M485.1,395.8h0.6c0.2,0.2,0.4,0.4,0.6,0.4c0.2,0,0.2-0.2,0.2-0.4c-0.2-0.2-0.6-0.4-1-0.4
		C485.3,395.4,485.1,395.6,485.1,395.8z M481.2,393.6v0.7h0.6v-0.2C481.9,393.8,481.6,393.6,481.2,393.6z M483.5,393.6h-0.2
		c-0.2,0-0.2,0-0.2-0.2v-0.2C483.3,393.3,483.5,393.4,483.5,393.6z M489.7,391.7c-0.6-0.2-1.2-0.4-1.8-0.4h-0.5
		c0.2,0.5,0.6,0.9,1.3,0.9c0.2,0,0.4-0.2,0.8-0.5H489.7z M493.8,388.8v-0.5H493C493,388.6,493.2,388.8,493.8,388.8z M493,388.3
		c0-0.4-0.2-0.6-0.6-0.6C492.4,388.1,492.6,388.3,493,388.3z M489.7,387.2v0.4c0,0.5,0.2,0.7,0.6,0.7c0.4,0,0.8,0,1,0.2v-0.4
		c0-0.5-0.2-0.9-0.6-0.9c-0.4,0-0.8-0.2-1-0.4V387.2z M497.4,386.5h-1.4c0.2-0.6,0.6-0.8,1-0.8C497.3,385.7,497.4,386,497.4,386.5z
		 M489.2,386v0.6c0,0.4,0.2,0.5,0.6,0.7v-0.6C489.7,386.1,489.6,386,489.2,386z M485.9,386.1V386c-0.2,0-0.4,0.2-0.4,0.4h0.2
		C485.9,386.3,485.9,386.3,485.9,386.1z M488.5,386h0.4c0-0.6-0.2-0.7-0.6-0.7c-0.2,0-0.4,0.2-0.9,0.5c0.2,0.2,0.6,0.2,1.3,0.2
		H488.5z M485.7,386c0.4,0,0.6-0.2,0.6-0.6C485.9,385.4,485.7,385.6,485.7,386z M492.2,386.1l1.4,1.5l0.2-1.8v-1.1
		C492.8,384.9,492.2,385.4,492.2,386.1z M493.4,379v0.2h0.4v-0.7C493.6,378.6,493.4,378.8,493.4,379z M495.7,373.8v0.2
		c0,0.2,0.2,0.4,0.6,0.4c0.4,0,0.8,0,1,0v-0.7L495.7,373.8z M491,394.9l1.3,0.9l0.2-1.3L491,394.9z M498.1,371.3c-0.4,0-0.8,0-1-0.2
		c0.2-0.5,0.6-0.7,1-0.7c0.4,0,0.8,0.2,1.2,0.6C498.9,371.1,498.5,371.3,498.1,371.3z M498.1,380.8v1.4c-0.2,0.2-0.6,0.4-1,0.5
		c-0.4,0.2-0.6,0.4-0.6,0.8c0.6,0.5,0.8,1.1,0.8,1.6c0,0.6-0.2,1.1-0.8,1.6v1.4h-0.6c-0.2,0-0.4,0.2-0.6,0.7
		c-0.2,0.6-0.5,1.1-0.6,1.8c-0.2,0.7-0.2,1.2-0.2,1.8c0,0.6,0,0.9,0,1.1l0.6-0.2l-0.6,0.7c-0.2,1.1-0.4,2.1-0.6,3.2
		c-0.2,1.1-0.4,2-0.6,2.9c0.2,0.2,0.4,0.4,0.4,0.5c0,0.2-0.2,0.4-0.8,0.4c-0.6,1.8-1.4,3.6-2.4,5.4h0.4c0,0.4-0.4,1.1-1.4,2.3
		c-1,1.3-2,2.5-3.2,3.7c-1.2,1.3-2.5,2.5-3.7,3.7c-1.2,1.3-2,2-2.4,2.3l-0.8,0.2l-0.8-0.2l-0.2-1.4c0.4-0.7,1-1.4,1.6-2
		c0.6-0.6,1.3-1.1,1.8-1.6l-0.2-0.2h0.4c0.2,0,0.8-0.6,1.6-1.5c0.8-0.9,1.6-1.9,2.4-3.2c0.8-1.3,1.6-2.3,2.2-3.4
		c0.6-1.1,1-1.8,1.2-2.1l-0.4-0.4l0.6-0.2c0.6-1.1,1.2-2.1,1.6-3.2c0.4-1.1,0.8-2.2,1-3.2c-0.2-0.2-0.6-0.2-1.3-0.2
		c-0.2,0-0.6,0-1.4,0.2c-0.8,0.2-1.2,0.4-1.2,0.6c0,0.2,0.4,0.4,1,0.4c0.6,0,1,0,1.2,0c0.6,0.2,0.8,0.5,0.8,1.2
		c0,0.7-0.2,1.3-0.8,1.8c-0.4,0.4-0.8,0.5-1.4,0.5c-0.2,0-0.4,0-0.6-0.2l0.2,1.4c0,0.9-0.2,1.6-0.6,2.3c-0.4,0.7-1.2,1.1-2.2,1.1
		h-0.4c0.6-0.6,1-1.1,1-1.4c-0.6-0.6-1-1.1-1-1.6c0-0.6,0.2-1.1,0.6-1.6l-2.2-0.7c0.4,0.4,0.6,0.7,0.6,1.1c0,1.3-0.9,1.8-2.2,1.8
		c0.6,0.2,0.8,0.5,0.8,0.9c0,0.2-0.4,0.4-1.2,0.4H480l0.8,2.7h1.4l-0.6,0.7l1.4,0.7l-0.8,0.8l1.6,0.7c-0.4,0.4-0.8,0.5-1.4,0.5
		c-0.6,0-1-0.2-1.4-0.4c-0.4-0.2-1-0.4-1.7-0.4c0.2-0.2,0.6-0.4,1-0.5c0.4-0.2,0.6-0.6,0.6-0.9c0-0.4-0.6-0.6-1.7-0.6h-2
		c0.2-0.2,0.6-0.4,1.2-0.5c0.6-0.2,1-0.6,1-1.1c0-0.6-0.2-0.9-0.8-1.1c-0.6-0.2-1-0.4-1.4-0.5c0.6,0,1.2-0.4,1.6-0.9
		c0.4-0.5,0.6-1.1,0.6-1.6l-1-1.6v-0.6c0-0.4,0-0.7,0.2-0.9c0.2-0.2,0.4-0.5,0.4-1.1c0-0.2-0.2-0.4-0.4-0.5l-0.8-0.4l2.2-1.3
		l0.9,1.3h1.6c1-1.3,2.2-2,3.6-2c-0.2-0.2-0.4-0.6-0.6-0.9c-0.2-0.4-0.4-0.5-0.6-0.5c-0.4,0-0.8,0.2-1.4,0.5c-0.6,0.4-1,0.6-1.2,0.7
		h-3v0.4c0,0.2-0.2,0.2-0.4,0.2c-0.6,0-1-0.2-1.2-0.6h0.8c0.4,0,0.8,0,1.2-0.2c0.6-0.2,1.3-0.4,1.8-0.6l-2.4-1.3l1.6-0.7v-2.7
		l1.4-0.7l-0.6-0.7l2.2-1.4l-0.8-2.7l1.6,1.4l1.4-1.4l2.4-0.7c-0.4-0.7-0.6-1.4-0.6-2.1c0-0.6,0.2-0.9,0.6-1.1
		c0.2,0.2,0.4,0.4,0.6,0.8c0.2,0.4,0.6,0.5,1,0.5c0.2,0,0.4-0.2,0.4-0.5v-0.8h0.8c0.5,0,0.6,0,0.6-0.2c0-0.2-0.2-0.4-0.8-0.6
		c-0.6-0.2-1-0.4-1.2-0.5c0.6-0.7,0.8-1.3,0.8-1.8c0-0.6-0.2-0.9-0.6-1.3c-0.4-0.4-0.6-0.7-0.6-1.3c0-0.4,0-0.5,0.2-0.7h0.8
		c0.2,0.9,0.8,1.4,1.8,1.4l1.4-0.2c0-2-0.2-4.9-0.4-8.6c-0.2-3.7-0.4-7.6-0.6-11.7V351c0-2.9,0.2-5.7,0.4-8.6
		c0.2-3.7,0.8-6.8,1.8-9.1l0.6-0.5h1.6l0.4,1.2c-1.4,2.3-2,5-2,8.1v30.5l1.4,0.6v0.7l0.8,0.7H497l0.2,0.9c0,0.9-0.2,1.8-0.8,2.5
		c-0.6,0.6-0.8,1.3-0.8,2v0.6c0.2,0.4,0.6,0.5,1.2,0.7c0.6,0.2,1.2,0.2,1.8,0.2L498.1,380.8z M496.5,390.3l-0.6-0.7
		c0.2-0.6,0.6-0.8,1-0.8c0.6,0,0.8,0.2,0.8,0.8C497.7,390.1,497.3,390.3,496.5,390.3z M477.8,365.7c0,0.2-0.2,0.4-0.4,0.4
		c-0.4,0-0.8-0.2-1-0.4c0-0.2,0-0.4,0.2-0.4c0.2,0,0.4,0,0.6,0.2C477.4,365.7,477.6,365.7,477.8,365.7z M477,362.4h-0.2l-0.2-0.2
		V362L477,362.4c0.4,0,0.6,0.2,0.6,0.6C477.2,362.9,477,362.7,477,362.4z M478.8,380.2c0.4,0,0.6,0.2,0.6,0.6H478
		C478.2,380.4,478.4,380.2,478.8,380.2z M478,356.8c0.6-0.2,1-0.4,1-0.6c0-0.2,0.2-0.4,0.4-0.5c0.2-0.2,0.4-0.4,0.8-0.6
		c0.2-0.2,0.5-0.2,0.9-0.2c0.4,0,1,0,1.6,0.2c0-0.5,0.2-0.9,0.6-0.9c0.4,0,0.8,0.2,1,0.4l-1.6,0.5c0,0.4,0.2,0.7,0.4,1.1
		c0.2,0.2,0.4,0.4,0.6,0.4h0.4c-0.8,0.9-1.8,1.8-2.8,2.7c-0.6,0.6-1,1.1-1,1.6c0,0.6,0.2,1.1,0.6,1.6c-0.4,0-0.6-0.2-0.8-0.6
		c-0.2-0.4-0.4-0.7-0.6-1.1c-0.2-0.4-0.4-0.7-0.6-1.1c-0.2-0.4-0.6-0.6-1.2-0.6c0,0.4-0.2,0.6-0.6,0.6c-0.4,0-0.6-0.2-0.8-0.6h1.4
		c0.2-0.2,0.4-0.4,0.6-0.5c0.2-0.2,0.2-0.4,0.2-0.6c0-0.2-0.2-0.4-0.8-0.4c-0.6,0-1-0.2-1.3-0.4l1.4-1.4h-1.4c0.2-0.2,0.6-0.4,1-0.6
		h0.2c0.2,0,0.2,0.2,0.2,0.7L478,356.8z M481.1,351.5c0,0.2,0,0.4-0.2,0.4c-0.2,0-0.4-0.2-0.4-0.4c0-0.2,0-0.4,0.2-0.4
		C480.8,351.1,481.1,351.3,481.1,351.5z M482.7,350.8c0,0.2,0,0.4-0.2,0.4c-0.2,0-0.4-0.2-0.6-0.4c0-0.2,0-0.4,0.2-0.4
		C482.3,350.4,482.4,350.6,482.7,350.8z M485.9,334.3v0.4c0,0.4-0.2,0.6-0.4,0.8c-0.4,0.2-0.8,0.4-1.2,0.4c-0.4,0-1,0-1.6,0
		c-0.6,0-1,0-1.2,0.2c0.2-0.9,0.8-1.4,1.8-1.6c1-0.2,1.8-0.4,2.5-0.5L485.9,334.3z M486.1,371.8c0,0.2,0,0.4-0.2,0.6
		c-0.4,0-0.6-0.2-0.6-0.6c0-0.2,0.2-0.4,0.6-0.5C486.1,371.5,486.1,371.7,486.1,371.8z M485.1,353.2c0-0.2,0-0.4,0.2-0.4
		c0.2,0,0.4,0.2,0.6,0.4c0,0.2,0,0.4-0.2,0.4C485.5,353.6,485.3,353.4,485.1,353.2z M488.1,354.7c0,0.2-0.2,0.4-0.6,0.4
		c-0.4,0-0.6,0-0.8,0l0.6-1.1c0.2,0.2,0.4,0.2,0.6,0.2c0.2,0,0.2,0.2,0.2,0.4V354.7z M488.8,336.3c-0.2-0.2-0.4-0.4-0.4-0.5
		c-0.4,0-0.6-0.2-0.6-0.4C488,335.4,488.4,335.8,488.8,336.3z M488.4,339.9c0-0.2,0.2-0.4,0.4-0.4c0.4,0,0.8,0.2,1,0.4
		c0,0.4-0.2,0.5-0.4,0.5C489.2,340.4,488.8,340.2,488.4,339.9z M488.9,373.2c0,0.2,0,0.4-0.2,0.4c-0.2,0-0.4-0.2-0.6-0.4h-0.6
		c0-0.2,0.2-0.4,0.5-0.4C488.4,372.9,488.8,373.1,488.9,373.2z M489.3,334.3h-0.8c0.2-0.5,0.4-0.7,0.6-0.7c0.2,0,0.4,0,0.6,0.2
		c0.2,0.2,0.4,0.4,0.6,0.5c-0.2,0.2-0.6,0.2-1.2,0.2L489.3,334.3z M490.8,338.1v-0.4c0.6,0.4,1,0.8,1,0.9l-0.5,1.1
		C491,339.3,490.8,338.8,490.8,338.1z M497.7,365.6v0.2l-0.2,0.2h-0.2L497.7,365.6c0-0.4,0.2-0.6,0.6-0.6
		C498.2,365.4,498.1,365.6,497.7,365.6z M470.9,414.9l0.6-0.4c0-0.4,0.2-0.5,0.4-0.5C471.9,414.4,471.5,414.7,470.9,414.9z
		 M469.7,417v-1.3c0.4-0.4,0.8-0.5,1-0.5c0.2,0,0.2,0.2,0.2,0.4c0,0.2,0,0.5-0.2,1.1c-0.2,0.5-0.4,0.7-0.6,0.7
		c-0.2,0-0.2-0.2-0.2-0.4H469.7z M452.9,428.6v-0.2c0-0.2,0.2-0.4,0.6-0.4v0.2C453.5,428.5,453.3,428.6,452.9,428.6z M452.1,425.4
		c-0.6,0-0.8-0.2-0.8-0.4c0-0.2,0.2-0.6,0.8-1.1v1.3l1.4,0.2c-0.2,0.2-0.4,0.4-0.6,0.5c-0.2,0.2-0.4,0.4-0.6,0.4
		c-0.2,0-0.4-0.2-0.4-0.4l0.2-0.2V425.4z M446.8,426.7l0.6,1.1c-0.2,0-0.4,0-0.8,0c-0.4,0-0.6-0.2-0.6-0.4l0.6-0.5l0.2-1.3
		c0.4,0.4,0.6,0.7,0.6,0.9c0,0.2-0.2,0.4-0.8,0.4L446.8,426.7z M443.7,423.3c0,0.2,0,0.4-0.2,0.4c-0.2,0-0.4-0.2-0.6-0.4
		c0-0.2,0-0.4,0.2-0.4C443.3,422.9,443.5,423.1,443.7,423.3z M439.1,425.4l-0.8-2c0.2,0,0.4,0,0.8-0.2h0.2c0.2,0,0.4,0.2,0.4,0.4
		c0,0.2-0.2,0.4-0.4,0.6c-0.2,0.2-0.2,0.4-0.2,0.5V425.4z M435.2,420.8l-0.4,0.2c-0.2,0-0.4-0.2-0.4-0.4v-0.5l0.4-0.2
		c0.2,0,0.4,0.2,0.4,0.4V420.8z M433.8,418.1l-0.2,1.4l-0.8,0.2l-0.8-0.2l-2.6-2.1l-0.2,0.2l-0.2,1.3c-0.4-0.4-0.6-0.6-0.6-0.7
		c0-0.4,0.2-0.6,0.8-0.6l0.2-0.4c0,0.2,0,0.4,0.2,0.6c0.2,0.2,0.6,0.4,1,0.4l0.8-0.4l0.2-1.4l-1.6-2.5l-0.9,0.6l0.6-0.7
		c-3-5.2-4.7-10.7-4.7-16.6v-55.7c0-2.3,0.6-4.7,1.6-7l0.6-0.5l1.2-0.2c0.2-0.2,0.6-0.4,1-0.5c0.4-0.2,0.8-0.4,1.2-0.4h0.6l-2.2,1.2
		v0.6c0,0.6,0,1.1-0.2,1.6c-0.4,0.9-0.8,1.6-1,2.3l1.2,0.5l-1.6,1.1l-0.2,3v3.6c0.2,0.2,0.2,0.4,0.2,0.5v0.6
		c-0.2,0.6-0.2,0.9-0.2,1.1c0.2,0,0.2,0,0.2,0.2c0,0.2,0,0.4-0.2,0.4v49.3c0,4.5,0.8,8.6,2.4,12.5l0.8-0.4l-0.6,0.7l-0.2-0.2
		l1.8,3.5l0.2-0.2c0.2,0,0.4,0,0.6,0.2v0.4l-0.2,0.2c0.2,0.6,0.4,0.9,0.6,1.3c0.2,0.4,0.6,0.7,1,1.2V418.1z M430,419.5l0.2-0.2
		L430,419.5v0.7h1.4c-0.4,0.4-0.8,0.6-1,0.6c-0.2,0-0.4-0.2-0.4-0.6V419.5z M423.1,344.7l-0.2-1.3c-1,0-1.4-0.2-1.4-0.5l0.2-0.4
		c0.2-0.2,0.2-0.4,0.2-0.7c0-0.4-0.2-0.8-0.4-1.1l1.3,1.1c0.2,0.4,0.2,0.7,0.2,1.1v0.5c0.6,0,0.8,0.2,0.8,0.6
		C423.7,344.1,423.5,344.3,423.1,344.7z M412.9,378.1c-0.2,0-0.4,0-0.4-0.2v-0.2L412.9,378.1c0.2,0,0.4,0.2,0.4,0.4v0.2
		C413.2,378.5,412.9,378.3,412.9,378.1z M412.3,380.6l0.6-0.4c0-0.4,0.2-0.6,0.4-0.6C413.3,380.1,412.9,380.4,412.3,380.6z
		 M414.5,376.8l-0.8,0.6v-0.2C413.7,377,414,376.8,414.5,376.8z M416.8,334.7l0.2-0.7h0.6l-0.2,0.6L416.8,334.7z M418.6,335.4h0.4
		v0.4l-0.6,0.2L418.6,335.4z M420.6,347.5c0,0.2,0,0.4-0.2,0.4c-0.2,0-0.4-0.2-0.6-0.4c0-0.2,0-0.4,0.2-0.4
		C420.2,347.2,420.4,347.4,420.6,347.5z M419.8,349.5c0-0.2,0-0.4,0.2-0.4c0.2,0,0.4,0.2,0.6,0.4c0,0.2,0,0.4-0.2,0.4
		C420.2,349.8,420,349.7,419.8,349.5z M422.9,335.4v0.2c0,0.2-0.2,0.4-0.6,0.4v-0.2C422.3,335.6,422.5,335.4,422.9,335.4z
		 M433.8,415.4c0,0.2,0,0.4-0.2,0.4c-0.2,0-0.4-0.2-0.6-0.4c0-0.2,0-0.4,0.2-0.4C433.4,415.1,433.6,415.3,433.8,415.4z M406,329.8
		l-0.4,0.2c-0.2,0-0.4-0.2-0.4-0.4v-0.6l0.4-0.2c0.2,0,0.4,0.2,0.4,0.4V329.8z M513.9,326.1l-0.8-0.7l0.8-2.1
		c-0.6-0.2-1.2-0.4-1.8-0.4h-1.8c-7.1,0-14,1.1-20.7,3.2c-0.6,0.6-1.2,0.9-1.8,1.3c-0.6,0.4-1.4,0.5-2.2,0.5c-0.2,0-1-0.4-2.6-0.9
		c-1.6-0.6-3.4-1.1-5.6-1.6c-2.2-0.6-4.7-1.1-7.3-1.6c-2.6-0.5-5.1-0.9-7.3-0.9c-1.4,0-2.6,0.2-3.7,0.5c-1,0.4-1.6,1.3-1.6,2.5
		c0,0.7,0.2,1.2,0.6,1.8c0.4,0.5,1,0.9,1.7,1.3h0.8c1.4,0,2.8,0.4,4.3,0.9c1.6,0.7,3,1.6,4.3,2.9c1.2,1.2,2.2,2.7,2.8,4.3
		c0.6,1.3,0.8,2.3,0.8,3.4c0,0.6,0,1.1-0.2,1.6l0.8,2v19.3c0,4.7-0.2,9.1-0.8,13.4l0.8,1.4c0,1.2-0.2,2.3-0.8,3.2l0.8,1.3v10.7
		c0,3-0.4,6.2-1.2,9.6c-0.8,3.4-2,6.4-3.8,9.3c-1.8,2.8-4.1,5.2-6.9,6.9c-2.9,1.8-6.3,2.7-10.6,2.7c-4.4,0-8.1-0.9-10.7-2.8
		c-2.6-2-4.7-4.5-6.3-7.7c-1.6-3.2-2.6-6.8-3.2-10.7c-0.6-3.9-0.8-7.8-0.8-11.8c-0.2-0.9-0.2-1.8-0.2-2.7c0-2.8,0.2-5.7,0.4-8.4
		c0.2-3.4,0.2-6.4,0.2-9c0-4.8,0-9.6-0.2-14.3c-0.2-4.7-0.2-9.5-0.2-14.3c0-0.7,0-1.4,0-2.1c0-0.8,0.2-1.5,0.4-2h1.6
		c0.2-0.9,0.6-1.8,1.2-2.7c0.6-0.9,1.2-1.8,1.8-2.7c0.6-0.4,1.4-0.7,2.4-0.9l3-0.7c1-0.2,2-0.4,2.8-0.5c0.8-0.2,1.4-0.6,1.7-1.1V327
		c0-0.6,0.2-1.1,0.4-1.6c0.2-0.6,0.4-1.1,0.4-1.6c0-0.4-0.2-0.5-0.8-0.7c-0.6-0.2-1.3-0.4-1.8-0.5c-0.6-0.2-1.2-0.2-1.8-0.2h-1.2
		c-1.2,0-2.4,0-3.7,0c-1.2,0-2.4,0-3.6,0.2c-0.8,0.5-1.4,0.9-1.8,1.1c-0.4,0.2-0.8,0.2-1.2,0.2c-0.4,0-0.8,0-1.2,0c-0.4,0-1,0-1.8,0
		l-0.6,0.2l-1.4,1.4H421c-1.6,0.9-2.8,1.8-3.9,2.7c-3.4-2.3-7.1-3.9-10.9-4.7c-3.9-0.7-7.9-1.1-12.2-1.1c-1.6,0-3,0.2-4.3,0.7v4.1
		c0.2,0.6,0.4,0.7,0.6,0.7c0.2,0,0.2,0,0.2-0.2h1.4c1.8,0,3.4,0.7,4.9,2.1c1.2,0.6,2.4,1.1,3.4,1.6c1,0.6,1.8,1.3,2.4,2.3
		c1.2,1.6,2,4.3,2.4,8.1c0.4,3.7,0.6,7.6,0.6,11.9s0,8.4-0.2,12.3c-0.2,3.9-0.2,7-0.2,9.3c0,4.1,0.2,8.4,0.6,12.7
		c0.4,4.3,1.2,8.6,2.5,12.7c1.2,4.1,3,8.1,5.5,11.8c2.4,3.7,5.7,6.9,9.5,9.8c1.8,1.2,3.6,2.3,5.6,3c2.1,0.7,4.1,1.8,5.9,3h1.6
		l0.6,1.2c0.6,0.2,1.2,0.4,1.8,0.4c0.2,0,0.4,0,0.6-0.2c0.6,0,1.2,0,1.8-0.2c0.4,0.6,1,0.9,2,1.1c1,0.2,2,0.4,3.2,0.6
		c1.3,0.2,2.5,0.2,3.4,0.2h2.6c3.4,0,6.5-0.4,9.1-1.1c2.6-0.7,5.7-1.4,9.1-2.1c0.8-0.7,1.6-1.3,2.2-1.6c0.6-0.4,1.4-0.7,2.2-0.9
		c0.8-0.2,1.7-0.4,2.2-0.6c0.6-0.2,1.2-0.6,1.8-1.1v-1.4h1.4v-1.3h1.6v-1.4h1.6c1.2-1.1,2.4-2.3,3.4-3.6c1-1.2,1.8-2.7,2.4-4.1
		l1.7-0.7v-2c2-1.8,3.6-4.5,4.8-7.8c1.2-3.4,2-7.3,2.6-11.6c0.6-4.3,1-8.8,1.2-13.6v-3.6c0-3.4,0-6.8-0.2-10.2
		c-0.2-4.5-0.4-8.6-0.6-12.4c-0.2-3.7-0.2-6.9-0.2-9.5c0-1.4,0.2-2.8,0.6-4.1c1.8-1.9,3-3.5,3.7-4.6c0.6-1.1,1.2-1.8,1.8-2.3
		c0.6-0.6,1.7-1.1,2.9-1.4c1.2-0.4,3.2-1.1,6.1-2c0.4-0.2,0.6-0.4,0.6-0.6c0-0.2,0-0.4,0-0.5c0-0.2,0-0.4,0-0.6
		c0-0.2,0.2-0.4,0.4-0.6L513.9,326.1z M311.8,374h0.8v-1.5c-0.4,0-0.6,0.2-0.6,0.6C312.1,373.4,312.1,373.8,311.8,374z M313.5,372
		v0.2c0,0.2-0.2,0.4-0.9,0.4V372H313.5z M326.7,426.3L326,426v-0.2l-0.2,0.5H326.7z M379.6,333.2v2.3l-0.9,1.1h-0.4l-1-0.4l-1.4,0.4
		l1-0.7l-1.2-1.1h1l0.8-1.1v-1.6h0.8L379.6,333.2z M374.3,334.9c0.6,0.6,0.8,1.1,0.8,1.6h-0.2c-0.2,0-0.4,0-0.6,0
		c-0.2,0-0.4-0.2-0.4-0.4c0-0.4,0.2-0.7,0.4-0.9V334.9z M369.7,328.8l-0.6,1.4l-0.8-2.8C369.2,327.4,369.7,327.9,369.7,328.8z
		 M366.6,331.5v0.7c-0.2-0.2-0.4-0.4-0.6-0.5c0-0.2,0.2-0.2,0.8-0.2v-1.3c-1-0.2-1.4-0.5-1.4-1.1v-0.4c0.4,0,0.8,0.2,1.2,0.4
		c0.2,0.2,0.2,0.4,0.2,0.7v0.4c0.2,0.2,0.4,0.4,0.6,0.6c0.2,0.2,0.4,0.4,0.4,0.5c0,0.2-0.2,0.4-0.4,0.4v-0.2H366.6z M363.7,330.1
		l-0.2-1.3l-1.6-0.6c0.2-0.2,0.6-0.4,1-0.4c0.4,0,0.6,0.4,0.6,0.9c0.6,0,0.8,0.2,0.8,0.6C364.4,329.5,364.1,329.7,363.7,330.1z
		 M366.6,326.8c0,0.2,0,0.4-0.2,0.4c-0.2,0-0.4-0.2-0.4-0.4c0-0.2,0-0.4,0.2-0.4C366.4,326.5,366.6,326.7,366.6,326.8z M353.6,373.4
		v-0.7c0-0.2,0.2-0.6,0.4-0.9c0.2-0.4,0.4-0.5,0.6-0.5c0.2,0.5,0.4,0.9,0.4,1.1L353.6,373.4z M357.7,374.7h-0.9
		c0.2-0.6,0.5-0.7,0.6-0.7c0.2,0,0.4,0,0.6,0.2c0.2,0.2,0.4,0.4,0.6,0.6c-0.2,0.2-0.6,0.2-1.2,0.2L357.7,374.7z M357.7,376.7v-1.3
		c0.4-0.4,0.8-0.6,1-0.6l0.2,0.2v0.2c0,0.2,0,0.6-0.2,1.1c-0.2,0.6-0.4,0.8-0.6,0.8c-0.2,0-0.4-0.2-0.4-0.6V376.7z M327.2,425.6
		l-0.8,0.2c-0.2,0-0.4,0-0.6,0c-0.2,0-0.4,0-0.6,0c-0.6-0.6-1.2-0.9-1.8-0.9c-0.2,0-0.4,0-0.6,0.2l1.4-0.9l-0.8-0.6
		c0.4,0.4,0.8,0.6,1.3,0.6l0.8-0.2c0.2-0.5,0.4-0.9,0.4-1.2v-0.2c-1.4-3-2.2-6.2-2.2-9.5c0-0.2,0-0.4,0.2-0.5v-10.2h-0.4
		c-0.2,0-0.4,0-0.4-0.2c0-0.4,0.2-0.7,0.8-0.9v-1.4c0-0.2,0-0.4,0-0.5c0-0.2,0-0.4,0-0.6l0.2-3.9v-4.1c-0.2-0.2-0.4-0.4-0.6-0.5
		c-0.2,0-0.2,0-0.2-0.2h0.8v-58.8h0.8l1.4,1.1v28.8l0.6-0.4l-0.6,0.7v1.1l0.6-0.4l-0.6,0.7v21.4l0.6-0.4l-0.6,0.7v1.6l0.6-0.4
		l-0.6,0.7v1.4c0,0.2,0,0.4,0.2,0.4c0.2,0,0.4,0,0.6-0.2c0.2-0.2,0.4-0.4,0.6-0.6l-0.4,0.4l-0.2,0.2h-0.6c0,1.3,0.2,2.8,0.4,4.8
		c0.2,2,0.4,3.2,0.4,3.9l-0.6,0.5v1.1l0.8,0.8v0.2c0,0.2-0.2,0.2-0.8,0.2v16.6c0,2.5,0.4,4.8,1.4,6.8c0.4,0.2,0.6,0.4,0.6,0.7
		c0,0.2,0,0.4-0.2,0.5l0.2,0.6h0.4c1,0,1.4,0.2,1.4,0.7l-0.8,0.7c-0.2,0.2-0.6,0.4-1,0.4c-0.2,0-0.4-0.2-0.4-0.4c0-0.2,0-0.4,0-0.5
		L327.2,425.6z M322,419.5c0-0.4,0.2-0.5,0.4-0.5c0.2,0,0.6,0.2,1,0.5c0,0.2-0.2,0.4-0.4,0.4C322.6,419.9,322.2,419.7,322,419.5z
		 M320.4,420.8l-5.5,4.8h-1.6l-0.2-1.4l0.5-0.9l4.8-4.3L320.4,420.8z M310.9,403.5l0.4,0.4c0.4,0,0.6,0.2,0.6,0.5
		c-0.2,0-0.4-0.2-0.6-0.4c-0.2-0.2-0.4-0.4-0.6-0.5H310.9z M309.8,420.8c-0.4,0-0.6-0.2-0.6-0.4c0.2,0,0.6,0.4,1,0.9
		C310.1,421.1,309.8,420.9,309.8,420.8z M309.2,363.6c0.2,0,0.4,0,0.6,0.2c0,0.4-0.2,0.5-0.6,0.5c-0.4,0-0.6-0.2-0.8-0.5
		c0.2-0.2,0.4-0.2,0.6-0.2H309.2z M312.9,364.5l-0.6,1.1c-0.2-0.2-0.4-0.2-0.6-0.2c-0.2,0-0.2-0.2-0.2-0.4c0-0.2,0.2-0.4,0.6-0.4
		c0.4,0,0.6,0,0.8,0V364.5z M311.3,369.3c-0.4,0-0.8-0.2-1.4-0.4c0.2-0.2,0.4-0.6,0.8-1.1l0.2-0.4v-0.2c-0.2,0-0.4,0.2-0.6,0.4
		l-0.4,0.2c0.6-0.6,1-0.7,1.4-0.7l1.6,0.7c-0.2,0.2-0.4,0.5-0.6,0.9c-0.2,0.4-0.4,0.6-0.8,0.6H311.3z M315.1,367.7
		c0,0.2,0,0.4-0.2,0.4c-0.2,0-0.4-0.2-0.4-0.4c0-0.2,0-0.4,0.2-0.4C314.9,367.4,315.1,367.6,315.1,367.7z M310.6,395.1
		c0,0.4,0,0.7-0.2,0.9c-0.6-0.2-0.9-0.4-0.9-0.6c0-0.2,0-0.4,0.2-0.6c0.2-0.2,0.4-0.4,0.6-0.5c0.2,0.2,0.4,0.5,0.4,0.9L310.6,395.1z
		 M311.8,384.5c0.2-0.2,0.4-0.2,0.6-0.2c0.2,0,0.4,0.2,0.4,0.7c-0.2,0.2-0.4,0.2-0.6,0.2C312.1,385.2,311.8,385,311.8,384.5z
		 M314.9,373.4l-0.2-1.3l-3,0.7v0.8h1.4c-0.2,0.2-0.4,0.4-0.6,0.5h-0.2c-0.2,0-0.4-0.2-0.4-0.5H311v1.2c0.2,0.2,0.4,0.2,0.6,0.2
		c0.2,0,0.4,0.2,0.4,0.4c0,0.2-0.2,0.4-0.4,0.4h-1l0.6-1.1c-0.2-0.2-0.6-0.4-1.2-0.6c-0.6-0.2-0.9-0.4-0.9-0.5
		c0.2-0.2,0.4-0.4,0.6-0.4h0.2c0.4,0.2,0.8,0.2,1,0.2v-0.7c-0.6,0-0.8-0.4-0.8-1.1c0-0.2,0-0.4,0.2-0.6c0.2-0.2,0.4-0.4,0.6-0.4
		l0.8,0.2h0.8l2.2,1.2c0.6,0,0.8,0.2,0.8,0.6c0,0.2-0.2,0.4-0.6,0.7H314.9z M315.7,370.6l0.6-0.4c0-0.4,0.2-0.6,0.6-0.6
		C316.7,370.1,316.3,370.4,315.7,370.6z M317.9,388.4c0-0.2,0-0.4,0.2-0.4c0.2,0,0.4,0.2,0.4,0.4c0,0.2,0,0.4-0.2,0.4
		C318.2,388.8,317.9,388.6,317.9,388.4z M316.3,373.6c0-0.2,0-0.4,0.2-0.4c0.2,0,0.4,0.2,0.6,0.4c0,0.2,0,0.4-0.2,0.4
		C316.7,374,316.5,373.8,316.3,373.6z M313.9,397.5c0,0.4-0.2,0.6-0.6,0.6c-0.2-0.2-0.2-0.4-0.2-0.6c0-0.2,0-0.4,0.2-0.5
		C313.7,397.2,313.9,397.4,313.9,397.5z M313.3,406.9c0-0.2,0-0.4,0.2-0.4h0.2L313.3,406.9c0,0.2-0.2,0.4-0.4,0.4h-0.2
		C312.9,407,313.1,406.9,313.3,406.9z M314.7,419.2c0,0.2,0,0.4-0.2,0.4c-0.2,0-0.4-0.2-0.4-0.4c0-0.2,0-0.4,0.2-0.4
		C314.5,418.8,314.7,419,314.7,419.2z M314.1,414.4c0-0.4,0.2-0.6,0.6-0.6c0.2,0.2,0.2,0.4,0.2,0.6c0,0.2,0,0.4-0.2,0.5
		c-0.4-0.2-0.6-0.4-0.6-0.7V414.4z M320.2,401.6c0,0.2,0,0.4-0.2,0.4c-0.2,0-0.4-0.2-0.6-0.4c0-0.2,0-0.4,0.2-0.4
		C319.8,401.3,319.9,401.5,320.2,401.6z M321,409.7c0,0.2,0,0.4-0.2,0.4c-0.2,0-0.5-0.2-0.6-0.4c0-0.2,0-0.4,0.2-0.4
		C320.6,409.3,320.8,409.5,321,409.7z M322.4,391.5v0.2c0,0.2-0.2,0.4-0.6,0.4v-0.2C321.8,391.7,322,391.5,322.4,391.5z
		 M330.9,427.4c0,0.2,0,0.4-0.2,0.4c-0.2,0-0.4-0.2-0.6-0.4c0-0.2,0-0.4,0.2-0.4C330.5,427,330.7,427.2,330.9,427.4z M306.4,329.3
		v-0.6c0.6,0,1,0.2,1,0.6c0,0.4-0.2,0.7-0.8,1.2c-0.2-0.2-0.2-0.5-0.2-1.1V329.3z M382,361.5l0.4-1.5c-0.4-3-0.6-5.9-0.6-8.7
		c0-1.5,0-2.9,0.2-4.3c0.2-4.1,0.4-8.4,0.4-12.9c0-1.8,0-3.6-0.2-5.4c-0.2-1.8-0.4-3.5-0.6-5.4c-0.4-0.2-1.2-0.4-2.4-0.4h-2.6
		c-14.8,0-29.4,0-43.8,0.2c-14.4,0.2-29,0.2-43.8,0.2l-0.6,0.7v1.5c0,1.2,0.4,2.1,1,2.6c0.6,0.6,1.4,0.9,2.4,1.1
		c1,0.2,2,0.4,3.2,0.5c1.3,0.2,2.5,0.7,3.7,1.4v1.5h1.6v1.2l1.4,0.7c0.8,1.1,1.4,3.6,1.8,7.3c0.4,3.7,0.8,8.2,1,13.4
		c0.2,5.2,0.4,10.7,0.6,16.6v17c-0.2,5.4-0.2,10.2-0.2,14.3c0,4.1,0,7,0,8.6c0,2-0.2,3.8-0.6,5.6l-1.6,1.4l-0.9,2.7
		c-1,1.1-2.2,2-3.6,2.7c-1.4,0.7-2.8,1.3-4.3,1.8c-1.4,0.6-2.6,0.9-3.7,1.3c-1,0.4-1.6,0.7-1.8,1.1v3.4c0.6,0.6,1.6,0.9,2.8,1.1
		c1.2,0.2,2.2,0.2,2.8,0.2c4.1,0,8.1-0.4,12-1.1c3.8-0.8,7.5-2.2,10.9-4.2c0.6,0.9,1.4,1.6,2.4,2.2c0.6,0,1.8,0.2,3.7,0.5
		c1.8,0.4,3.9,0.7,6.1,1.1c2.2,0.4,4.7,0.7,7.1,1.1c2.4,0.4,4.5,0.5,6.3,0.5c1,0,1.6-0.4,1.8-0.9c0.2-0.6,0.2-1.3,0.2-2
		c0-1.1-0.2-1.8-0.8-2.3c-0.6-0.6-1.4-0.9-2.5-1.3c-1-0.4-2-0.5-3-0.7c-1-0.2-2-0.4-3-0.7c-2.1-0.7-3.4-2.7-4.3-5.7
		c-0.8-3-1.2-6.4-1.4-10.2c-0.2-1.8-0.2-3.5-0.2-5.5c0-1.8,0-3.6,0.2-5.4c0.2-3.6,0.2-6.3,0.2-7.8l-0.8-1.8l0.8-0.7
		c0.2-0.2,0.2-0.4,0.2-0.5c0-0.7-0.4-1.5-1-2l0.8-1.4v-2.7c0.6-0.4,1.6-0.6,3-0.6h3.3c1.8,0,3.6,0,5.6,0c2.1,0,3.8,0.2,5.7,0.6
		c1.8,0.4,3.7,0.9,5.3,1.6c1.6,0.7,3,1.8,4.3,3.4v1.4h1.6c0.8,1.4,1.2,2.5,1.2,3.2c0,0.7,0.2,1.3,0.4,1.6c0.2,0.4,0.9,0.7,1.7,0.9
		c0.8,0.2,2.2,0.4,4.4,0.5c0.2-0.5,0.4-0.9,0.4-1.1l-2-11.2l-1.4-1.3v-2.7h-1.6l-0.8-3.4c0.2-0.5,0.6-1.1,1.2-1.4
		c0.6-0.4,1-0.9,1.2-1.4V369l1.4-1.3c0.2-0.4,0.4-1.1,0.6-2.1c0.2-1.1,0.4-2.2,0.6-3.4c0.2-1.3,0.4-2.3,0.6-3.2
		c0.2-0.9,0.4-1.6,0.4-2c0-0.5-0.2-0.9-0.4-1.1h-3.9c-1.2,0-2.1,0.7-2.6,2.2c-0.6,1.4-1.2,2.7-1.8,3.7c-2.2,3.5-5.1,5.7-8.5,6.4
		c-3.4,0.7-7.3,1.1-11.5,1.1c-2.4,0-5.1-0.4-8.1-0.9c0.2-3.2,0.4-6.4,0.4-9.6c0-2.7,0-5.4-0.2-8.1c-0.4-5.9-0.6-11.9-0.6-18
		c0-1.6,0.2-2.9,0.4-3.7c0.2-0.9,1.4-1.5,3.6-1.5c4.9,0,9.4,0.4,13.4,0.9c4.1,0.6,8.5,1.3,13.2,2.1v1.5c1,0.5,2.1,1.1,3,1.4
		c1,0.4,2.1,0.7,3,1.2v1.5h1.6l0.6,2c1.8,1.4,3.3,3,4.3,4.8c1,1.8,1.8,3.7,2.4,5.9c0.6,2.2,1,4.3,1.3,6.4c0.2,2.2,0.4,4.1,0.6,6.1
		c0.4,0.2,1,0.4,1.8,0.4c1.4,0,3-0.4,4.9-0.9L382,361.5z M382.2,361.3c0,0.2-0.2,0.2-0.4,0.2c0.2,0,0.4,0,0.6-0.2H382.2z
		 M237.6,402.9c0-0.2-0.2-0.4-0.6-0.5c-0.4-0.2-0.6-0.2-0.8-0.2c0,0.4,0.2,0.6,0.6,0.6c0.2,0,0.4,0,0.6,0.2H237.6z M235.3,393.6
		l-0.8,0.5h1.6C236.1,393.8,235.9,393.6,235.3,393.6z M243.8,392.7c0-0.6,0.2-0.7,0.6-0.7v0.2C244.5,392.5,244.2,392.7,243.8,392.7z
		 M249.9,355.4v0.7h0.8C250.7,355.6,250.5,355.4,249.9,355.4z M222.2,348.6c0,0.4-0.2,0.5-0.6,0.5c-0.4,0-0.6-0.2-0.8-0.5H222.2z
		 M217.3,348.1v-1.6H217c-0.4,0-0.6,0.2-0.8,0.6c-0.2,0.4-0.2,0.7-0.2,0.9c0.4,0.4,0.8,0.5,1,0.5c0.2,0,0.5-0.2,0.5-0.4H217.3z
		 M217.9,346.3l-0.6-0.4v0.5C217.7,346.5,217.9,346.5,217.9,346.3z M214.2,346c0.4,0,0.6-0.2,0.6-0.6
		C214.5,345.4,214.2,345.6,214.2,346z M217.3,346.1v-1.2c-0.4,0.2-0.6,0.4-0.6,0.5c0,0.4,0.2,0.6,0.6,0.6V346.1z M240.6,393.6v-0.2
		c0,0.2,0,0.2-0.2,0.2H240.6z M243.4,392.9h-1v1.2c0.2-0.4,0.6-0.5,1.3-0.5L243.4,392.9z M264.1,327.7c0-0.2,0-0.4,0.2-0.4
		c0.2,0,0.4,0.2,0.6,0.4c0,0.2,0,0.4-0.2,0.4C264.5,328.1,264.3,327.9,264.1,327.7z M262.7,335.9v0.6c-0.2,0-0.4-0.2-0.4-0.4
		c0-0.2,0-0.2,0.2-0.2H262.7z M253,356.6v0.2c0,0.6,0.2,0.7,0.6,0.7c0.5,0,0.6,0.2,0.6,0.7c0,0.2-0.2,0.6-0.6,0.9l-0.8-1.4h-0.2
		c-0.4,0-0.6,0.4-0.6,0.9v1.3c-0.6-0.6-1.2-0.7-1.8-0.7c-0.4,0-0.6,0.2-0.6,0.7v1.3l0.8,1.4c-0.2-0.2-0.6-0.4-1-0.7
		c-0.2-0.2-0.2-0.4-0.2-0.6c0-0.2,0.2-0.4,0.4-0.5v-1.3c-0.2-0.2-0.4-0.4-0.6-0.4c-0.2,0-0.2-0.2-0.2-0.4c0-0.4,0.4-0.7,1.2-0.9
		c0.8-0.2,1.2-0.5,1.2-0.9c0-0.2,0-0.4-0.2-0.4c-0.2,0-0.4-0.2-0.6-0.4h-1.6l0.8-0.7l-0.8-1.4l2.4,0.7c0.2-0.4,0.4-0.7,0.6-1.3
		c0.2-0.5,0.6-0.7,1.2-0.7c1,0,1.4,0.4,1.4,1.1c0,0.4-0.2,0.8-0.6,0.9L253,356.6z M249.1,365.4h-0.2l-0.2-0.2V365L249.1,365.4
		c0.4,0,0.6,0.2,0.6,0.6C249.3,366,249.1,365.7,249.1,365.4z M247.7,367.6c0-0.4,0.2-0.6,0.4-0.6c0.2,0,0.6,0.2,1,0.6
		c0,0.2-0.2,0.4-0.4,0.4C248.3,367.9,247.9,367.7,247.7,367.6z M247.9,364.2h-0.8c0-0.6,0.2-0.8,0.6-0.8c0.2,0,0.4,0.2,0.8,0.6
		c-0.2,0.2-0.4,0.4-0.6,0.4c-0.2,0-0.2,0-0.2-0.2H247.9z M238.5,384.5c0.2,0,0.4,0,0.4,0.2v0.2L238.5,384.5c-0.2,0-0.4-0.2-0.4-0.4
		V384C238.4,384.2,238.5,384.3,238.5,384.5z M239.6,396.7v2.1h-0.4c-0.4,0-0.6-0.2-0.8-0.7c-0.2-0.6-0.2-0.9-0.2-1.3
		c0-0.5,0.2-0.7,0.4-0.7h0.2c0.2,0.2,0.4,0.4,0.6,0.6l0.2-1.3c0.6,0.4,1,0.7,1,1.1c0,0.2-0.2,0.4-0.6,0.4c-0.2,0-0.4,0-0.6-0.2
		H239.6z M234.7,409c0,0.2-0.2,0.4-0.4,0.4c-0.2,0-0.4-0.2-0.6-0.4h-0.6c0-0.2,0.2-0.4,0.6-0.4c0.2,0,0.6,0.2,1.2,0.4H234.7z
		 M234.5,405l1.6-1.4c0-0.5,0.2-0.7,0.8-0.7c0.2,0,0.6,0,1.2,0.2c0.6,0.2,1,0.4,1,0.7c0,0.2-0.2,0.4-0.6,0.4h-1v0.4
		c0,0.2,0,0.5,0,1.1s-0.2,0.9-0.8,0.9c-1-0.4-1.7-0.9-2.1-1.8h-1.4c0.2-0.2,0.6-0.4,1-0.5h0.2c0.2,0,0.2,0.2,0.2,0.7L234.5,405z
		 M243.8,394.7l-2.2,0.7v0.6c0,0.2,0,0.4-0.2,0.4c-0.2,0-0.4-0.2-0.8-0.4v4.3l0.2-0.2l-0.2,0.4v1.1h1c0.4-0.4,0.6-0.7,0.6-0.9
		c0-0.2,0-0.4-0.2-0.5c-0.2-0.2-0.4-0.6-0.4-1.1v-0.4c0.6,0,1,0.2,1.2,0.8c0.2,0.5,0.2,1.1,0.2,1.6v1.3l-1.4-0.7v0.4
		c0,1.3-0.2,2.3-0.8,3.2h-0.2v9.5l0.2-1.2c0.6,0.5,0.8,1.1,0.8,1.6l-0.8,1.6c0.2,2.2,0.8,4.1,1.8,5.9l-0.4,1.2h-1.4
		c-0.6-0.2-1.4-0.9-2.6-2.1c-1.2-1.3-2-2.1-2.6-2.7l-1,0.9l-1.8,1.6c-0.6,0.6-1.2,1.1-1.8,1.6c-0.6,0.6-1,0.7-1.2,0.7l-0.8-0.4
		l-0.4-1.2c0.2-0.6,1-1.5,2.4-2.7l3-2.7l5.5,4.8h1.6l0.4-1.3c-0.6-0.9-1-2-1.2-3c-0.2-1.1-0.4-2.1-0.8-3.2l0.2-0.2v-0.5l-0.8-0.7
		c0-0.2,0.2-0.2,0.8-0.2v-9.6c0-0.2,0-0.6-0.2-0.9c-0.2-0.4-0.5-0.6-0.6-0.6c-0.2,0-0.4,0.2-0.4,0.4c0,0.2,0,0.4-0.2,0.6
		c-1,0-2.2,0-3.6,0.2c-1.4,0.2-2.6,0.4-3.7,0.5c0.2-0.5,0.6-1.1,1-1.6c0.4-0.5,0.8-1.1,1.2-1.6l2.4,1.2l0.6-1.2
		c1,0.7,1.8,1.1,2.4,1.1c0.4-0.2,0.9-0.4,1-0.7c0.2-0.4,0.4-0.7,0.4-1.1h0.2v-2.8c0-0.4-0.2-0.7-0.6-0.9c-0.4-0.2-0.8-0.4-1.2-0.4
		l-2.9,1.5v0.4c0,0.4,0,0.7-0.2,1.2c-0.2,0.6-0.6,0.7-1.2,0.7c-0.2-0.2-0.4-0.5-0.4-1.1c0-0.5,0-0.9,0.2-1.2h-0.8l-0.8,1.9h-0.2
		c-0.5,0-0.6-0.4-0.6-0.9c0-0.6,0.2-0.9,0.4-1.1c0.2-0.2,0.4-0.2,0.6-0.2c0.2,0,0.4,0,0.6,0.2l-0.8-1.5l-1.2,0.2c-0.2,0-0.6,0-1-0.2
		c-0.4-0.2-0.6-0.4-0.6-0.5c0-0.2,0.2-0.4,0.6-0.6c0.4-0.2,0.8-0.4,1-0.5c0-0.4,0.2-0.6,0.4-0.6c0.2,0,0.6,0.2,1,0.6h-1.4l1.4,1.4
		l1.4,0.2c1,0,1.6-0.4,1.8-1.1c0.2-0.7,0.4-1.4,0.6-2l0.8,2c0.4-0.2,0.8-0.5,1-1.1c0.2-0.6,0.4-0.9,0.6-0.9c0.6,0,1,0.2,1.2,0.7
		c-0.2,0.2-0.4,0.2-0.6,0.2c-0.2,0-0.5,0.2-0.5,0.4c0,0.2,0.2,0.4,0.5,0.6c0.2,0.2,0.4,0.2,0.6,0.2v-2.5c-0.6-0.2-1.2-0.4-1.8-0.4
		c-0.6,0-0.8-0.4-0.8-1.1l0.2-0.8h0.8v1.1c0,0.2,0.2,0.4,0.4,0.4c0.8,0,1.2-0.4,1.2-0.9v-1.1h-0.2v-0.2l0.2-0.2v-15.2
		c0-0.4-0.4-1.1-1.2-2.1c-0.8-1.1-1.2-1.8-1.4-2.2c-1.4-2.8-3-5.7-4.8-8.6c-1.8-2.8-3.7-5.7-5.5-8.4c-0.2,0.2-0.4,0.4-0.6,0.4v-0.4
		l-0.2-0.2c0-0.2,0-0.4,0.2-0.4l0.2,0.2l-3.8-6.2l-1.4,1.9l0.8,0.8c-0.2,0.4-0.6,0.5-1,0.5h-0.2c-0.6-0.2-1-0.4-1.2-0.5
		c-0.2,0.2-0.4,0.4-0.4,0.5c0,0.6,0.4,0.9,1.4,1.1c0.6,0.2,0.8,0.4,0.8,0.6l-0.2,0.2h1.6c0-0.2,0-0.4,0-0.5c0-0.2,0.2-0.4,0.4-0.4
		c0.4,0,0.8,0,1.2,0.2c0.4,0.2,0.8,0.4,1,0.6c-0.4,0.2-0.8,0.4-1.3,0.4c-0.6,0-1,0-1.4-0.2c0.2,0.6,0.4,0.9,0.4,1.1
		c0,0.2-0.6,0.4-1.6,0.4h-2.1l-0.6,1.4h-0.8c-1,0-2.1-0.2-3-0.6c-1-0.4-2.1-0.7-3-0.9c0.6-0.2,1.4-0.4,2.4-0.4c0.6,0,1-0.2,1-0.6
		s0-0.7,0-1.1l-1.6-2h-3l1.4-0.7c-0.2-0.6-0.8-1.3-1.8-2c-1-0.7-1.8-1.1-2.6-1.1c-0.2,0-0.2,0-0.2,0.2v0.2c0.2,0.2,0.4,0.4,0.6,0.6
		c-0.8-0.9-1.2-1.6-1.2-2.2c0-0.5,0.2-1.1,0.4-1.8l2.2,2.7h2.5v1.3l2.2-1.3l0.8-1.4c-0.2-0.2-0.2-0.6-0.2-0.9s0.2-0.7,0.4-0.9
		c0.2,0.6,0.4,0.9,0.4,1.1c0,0.4-0.2,0.5-0.6,0.7l-0.8,1.4c0.2,1.1,1,1.6,2.4,1.6c1.4,0,2.6-0.2,3.6-0.4v1.4c0.6-0.2,1-0.6,1.3-1.1
		c0.2-0.6,0.4-1.1,0.4-1.6l0.4,0.2c-1-1.9-2.1-4.1-3.3-6.2c-1.2-2.1-1.8-4.5-1.8-6.8v-0.4l0.4-0.2l1.2,0.2l0.4,1.1v1.3
		c0,1.6,0.4,3.2,1,4.8c0.6,1.6,1.4,3.2,2.5,4.8c1,1.6,2,3.2,3,4.7c1,1.4,1.8,2.7,2.6,3.9v0.4l5.5,8.7l0.8-0.2h0.2
		c-0.2,0.2-0.4,0.2-0.6,0.2l-0.2,0.6l1,1.4l1-0.2l-0.9,0.7l0.6,1.1l0.8-0.4l-0.6,0.7l0.6,0.9l0.8-0.2h0.2c-0.2,0.2-0.4,0.2-0.6,0.2
		l-0.2,0.5l0.2,0.6l1.8-0.6h0.8l0.6,2l-1.8,0.9c1.4,2.3,2.4,3.9,3,5c0.6,1.1,1,2,1.2,2.9c0.2,0.6,0.2,1.1,0.2,1.6
		c0,0.5,0,1.2-0.2,1.9c-0.2,1.5-0.2,3.8-0.2,6.8l0.2,0.2h-0.2v2l1,0.2l-1,0.6v1.6c0.6,0.4,1.3,0.7,2.1,0.9c0.2,0.2,0.4,0.4,0.4,0.6
		c0,0.4-0.2,0.7-0.8,1.1L243.8,394.7z M223.1,409.7c0-0.2,0.2-0.4,0.4-0.4c0.2,0,0.6,0.2,1.3,0.4c-0.6,0.2-1,0.4-1.3,0.4
		c-0.4,0-0.6-0.2-0.6-0.4H223.1z M221.8,424c0-0.2,0-0.4,0.2-0.4c0.2,0,0.4,0.2,0.4,0.4c0,0.2,0,0.4-0.2,0.4
		C221.9,424.3,221.8,424.2,221.8,424z M223.8,397.4v-0.2c0-0.4,0.2-0.5,0.6-0.7h1.3l2,0.2v0.2c0,0.6-0.4,0.7-1,0.7
		c-0.6,0-1,0-1.4-0.2c-0.2-0.2-0.4-0.2-0.6-0.2c-0.2,0-0.4,0-0.6,0.2H223.8z M228.8,386.3l-0.4,0.4c0,0.4-0.2,0.6-0.6,0.6
		c0-0.2,0.2-0.4,0.4-0.6c0.2-0.2,0.5-0.4,0.6-0.6V386.3z M225.8,382.2v1.3c0.2-0.2,0.6-0.2,1-0.2c0.4,0,0.8,0.2,1.2,0.4
		c-0.4,0.4-0.8,0.6-1.4,0.6c-0.2,0-0.4-0.2-0.6-0.7c-0.2,0.2-0.4,0.2-0.6,0.2c-0.4,0-0.6-0.4-0.6-0.9c0-0.5,0.2-0.7,0.8-0.7
		c0.2,0,0.4,0,0.6,0.2l-1.4-0.7l1.2-1.1v-0.2c0-0.2-0.2-0.7-0.4-1.4c0.2,0.2,0.8,0.5,1.8,1.1c1,0.6,1.7,0.9,1.7,1.1
		c-0.6,0.6-1.7,0.9-3,1.1L225.8,382.2z M229.1,382.9h1.4c0,0.4-0.2,0.6-0.4,0.6C229.9,383.5,229.5,383.3,229.1,382.9z M230.8,364.3
		H230c0.2-0.5,0.4-0.7,0.6-0.7c0.2,0,0.4,0,0.6,0.2c0.2,0.2,0.4,0.4,0.6,0.5c-0.2,0.2-0.6,0.2-1.2,0.2L230.8,364.3z M230.7,385.6
		l0.2-1.3c0.2,0.2,0.4,0.4,0.6,0.6v0.2c0,0.2-0.2,0.4-0.8,0.4v0.7h0.6c0.6,0,1,0.2,1,0.6c0,0.4-0.2,0.6-0.6,0.6
		c-0.2,0-0.6-0.2-1-0.6V385.6z M234.3,371l-0.4,0.4c0,0.2-0.2,0.4-0.4,0.4h-0.2c0.2-0.2,0.4-0.4,0.6-0.4c0-0.2,0-0.4,0.2-0.4H234.3z
		 M228.4,377.7l0.6,1.1c-0.2,0-0.4,0-0.9,0c-0.4,0-0.6-0.2-0.6-0.4c0-0.4,0.2-0.6,0.8-0.6c-0.2-0.4-0.2-0.7-0.2-0.9
		c0-0.4,0.2-0.8,0.5-0.9c0.2,0.2,0.4,0.6,0.4,0.9c0,0.5-0.2,0.9-0.6,1.1V377.7z M219.9,354.7c0.4,0,0.6,0.2,0.6,0.5
		c-0.2,0.2-0.4,0.2-0.6,0.2c-0.2,0-0.4,0-0.6-0.2c0.2-0.4,0.4-0.5,0.8-0.5H219.9z M216.6,354c-0.4,0.6-0.8,0.8-1.2,0.8
		c-0.4,0-0.8-0.2-1.4-0.6c0.2-0.2,0.6-0.4,1.2-0.4C215.8,353.8,216.2,353.8,216.6,354z M211.4,349.7h-0.8l-1.4-0.7v-0.2
		c0-0.2,0.2-0.4,0.4-0.4c0.2,0,0.4,0,0.6,0c0.4,0,0.8,0.2,1,0.4c0.2,0.2,0.2,0.4,0.2,0.6c0,0.2,0,0.4-0.2,0.5L211.4,349.7z
		 M205.3,331.3l-0.8-0.5c0.2-0.6,0.6-0.9,1.2-0.9c0.6,0,0.8,0.2,0.8,0.7C206.5,331.1,206.1,331.3,205.3,331.3z M202.4,332.5v0.2
		c-0.4-0.4-0.8-0.6-1.2-0.6h-0.6c-0.6,0.4-1.2,0.6-2.1,0.6l-0.2-0.6c0-0.5,0.2-0.9,0.8-1.1c0.6-0.2,1-0.2,1.2-0.2
		c0.4,0,0.8,0.2,1.2,0.6c0.4,0.4,0.6,0.7,0.6,1.1H202.4z M200.8,338.8c0-0.2,0-0.4,0.2-0.4c0.2,0,0.4,0.2,0.6,0.4
		c0,0.2,0,0.4-0.2,0.4C201.2,339.2,201.1,339,200.8,338.8z M198.2,337.9l-0.4-0.4c-0.4,0-0.6-0.2-0.6-0.6c0.4,0,0.6,0.2,0.6,0.6h0.2
		l0.2,0.2V337.9z M200.7,328.1l1,1.3c0.4-0.4,0.8-0.6,1.4-0.6c0.4,0,0.6,0.2,0.6,0.4c-0.4,0.6-1,0.9-1.7,0.9h-0.4v-0.7l-0.8,0.4
		l-0.2,0.2c-0.2,0-0.2-0.2-0.2-0.5L200.7,328.1z M204.5,333.4c0,0.2-0.2,0.4-0.4,0.4c-0.2,0-0.4-0.2-0.6-0.4h-0.6
		c0-0.2,0.2-0.4,0.6-0.4c0.2,0,0.6,0.2,1.2,0.4H204.5z M207.6,334.7c0,0.2,0,0.4-0.2,0.4c-0.2,0-0.4-0.2-0.6-0.4
		c0-0.2,0-0.4,0.2-0.4C207.2,334.3,207.3,334.5,207.6,334.7z M208.4,331.3l0.2,0.2L208.4,331.3h-0.8v1.3c-0.4-0.2-0.6-0.4-0.6-0.7
		c0-0.4,0.2-0.6,0.6-0.6H208.4z M208.4,338.8c-0.2,0-0.4,0-0.4-0.2v-0.2L208.4,338.8c0.2,0,0.4,0.2,0.4,0.4v0.2
		C208.5,339.2,208.4,339,208.4,338.8z M206.9,329.7v-1.5c0.2,0.2,0.4,0.2,0.6,0.2c0.2,0,0.4,0,0.6-0.2c0.2-0.2,0.2-0.4,0.2-0.5
		c0-0.2,0-0.2-0.2-0.2h0.6c0.2,0,0.4,0.2,0.4,0.4c0,0.4-0.2,0.8-0.6,0.9c-0.4,0.2-0.8,0.4-1,0.6L206.9,329.7z M210.8,340.6
		c0,0.2,0,0.4-0.2,0.4c-0.2,0-0.4-0.2-0.6-0.4c0-0.2,0-0.4,0.2-0.4C210.4,340.2,210.6,340.4,210.8,340.6z M211.4,337.2
		c0,0.2-0.2,0.4-0.4,0.4c-0.2,0-0.4-0.2-0.6-0.4h-0.6c0-0.2,0.2-0.4,0.6-0.4c0.2,0,0.6,0.2,1.2,0.4H211.4z M214.1,330.2h-0.9
		c0.2-0.5,0.4-0.7,0.6-0.7c0.2,0,0.4,0,0.6,0.2c0.2,0.2,0.4,0.4,0.6,0.5c-0.2,0.2-0.6,0.2-1.2,0.2L214.1,330.2z M228.4,349.1
		c0,0.4-0.2,0.6-0.6,0.6c-0.2,0-0.6-0.2-1-0.6c0-0.2,0.2-0.4,0.6-0.4c0.2,0,0.6,0.2,1.3,0.4H228.4z M227.8,354.4
		c0.2-0.2,0.4-0.4,0.6-0.4v-0.2c0-0.2,0-0.2,0.2-0.2h0.2C228.4,354,228,354.2,227.8,354.4z M238.5,365.7l-0.2-0.2L238.5,365.7z
		 M249.9,351.3c0,0.2,0,0.4-0.2,0.4c-0.2,0-0.4-0.2-0.6-0.4c0-0.2,0-0.4,0.2-0.4C249.5,351,249.7,351.1,249.9,351.3z M281.3,328.2
		l0.2-2.8c0-0.9-0.4-1.4-1.2-1.6c-0.8-0.2-1.6-0.4-2.2-0.4c-2.6,0-4.8,0.4-6.9,1.3c-2,0.9-3.9,2-5.6,3.2l-1.8-0.4l0.2-0.5
		c0-0.6-0.6-1.1-1.6-1.6c-1-0.6-2.2-1.1-3.6-1.4c-1.4-0.4-2.6-0.7-3.9-0.9c-1.3-0.2-2.1-0.4-2.6-0.4c-0.4,0-1,0.2-1.8,0.4
		c0,0.9,0,1.6,0,2.3c0,0.7,0,1.4,0,2.3c0,0.4,0.4,0.5,1,0.7c0.6,0.2,1.2,0.4,1.8,0.6c0.6,0.2,1.3,0.5,1.8,1.1c0.6,0.5,1,1.2,1,2.3
		c0,0.5-0.6,1.9-1.8,4.3c-1.2,2.3-2.6,4.9-4.1,7.5c-1.4,2.7-2.8,5.2-4.3,7.7c-1.4,2.5-2.4,4.1-3,5c-0.2,0.4-0.4,0.9-0.8,1.6
		c-0.4,0.7-0.8,1.6-1.4,2.5c-0.6,0.9-1.2,1.6-1.8,2.1c-0.6,0.6-1,0.9-1.4,0.9c-1.4-3.7-3.4-7.5-6.1-11.2c-2.6-3.7-4.8-7.5-6.9-11.1
		l-1.4-0.7l-3.3-8.6c0-0.9,0.4-1.6,1.2-2.2c0.9-0.5,1.7-1.1,2.6-1.4c1-0.4,1.8-0.9,2.6-1.4c0.8-0.6,1.2-1.4,1.2-2.7
		c0-1.3-0.8-2-2.4-2.1c-1.6-0.2-2.8-0.2-3.9-0.2c-2,0-4.1,0.2-6.1,0.6c-2,0.4-4,0.9-5.9,1.4l-4.5,1.3l-1.8,0.7
		c-3-1.6-6.1-2.9-9.4-3.6c-3.2-0.7-6.7-1.1-10.1-1.1c-1,0-1.8,0.2-2.6,0.4c-0.8,0.2-1.6,0.4-2.4,0.6v1.4c0,1.6,0.2,2.5,0.4,2.8
		c0.2,0.4,1.2,0.7,2.8,1.3c3.3,0.9,5.9,2.5,7.7,4.8c1.8,2.3,3.7,4.7,5.5,7c1.7,2.3,3.8,5.4,6.7,9.3c2.8,3.9,5.5,8.1,8.1,12.4
		c2.6,4.3,4.9,8.4,6.9,12.5c2,4.1,3,7.3,3,9.6V409c0,2.3-0.2,4.3-0.6,5.9c-0.4,1.6-1,2.9-1.8,3.9c-0.8,1.1-2,2.1-3.4,3.2
		c-1.4,1.1-3.2,2.1-5.5,3.4h-4.7v3.4c0,1.2,0.2,1.9,0.4,2.1c0.2,0.2,0.4,0.2,0.6,0.2c0.4,0,1-0.2,2-0.4l0.8,0.8l1.6-0.8
		c2.6-0.2,5.3-0.4,7.9-0.4c2.6,0,5.3-0.4,7.9-1.1c1-0.4,2.2-1.1,3.6-2c1.4-0.9,2.6-1.4,3.7-1.4l2.2,2.2c0.6,0.2,1.2,0.4,1.8,0.4
		c0.6,0,1.2,0,1.8,0c3.4,1.2,6.9,1.9,10.1,2.1c3.3,0.2,6.9,0.4,10.7,0.5v-3.4c0-1.2-0.8-2.1-2.4-2.6c-1.6-0.6-3.4-1.3-5.3-2.2
		c-1.8-0.9-3.4-2.3-4.9-4.1c-1.2-1.6-1.8-3.7-1.8-6.6v-1.6l-0.8-2.2l0.8-1.9l-0.8-2.2l0.8-4.6c-0.6-1.3-0.8-2.7-0.8-4.3v-4.8
		c0-2,0-3.9,0-5.9c0-2,0.2-3.9,0.6-5.7c0.4-1.8,1-3.2,1.6-4.3c0.9-1.3,2.1-3.2,3.4-5.9c1.4-2.7,3.3-5.5,5.3-8.8
		c2-3.2,4.1-6.6,6.3-10.2c2.2-3.5,4.5-6.8,6.5-9.8c2.1-3,4.1-5.7,5.9-8c1.8-2.3,3.2-3.8,4.4-4.3c0.8-0.6,1.6-0.9,2.5-1.3
		c0.8-0.4,1.8-0.7,2.8-0.9L281.3,328.2z M167.7,389.5c0.2,0,0.4-0.2,0.6-0.4h-0.2C167.9,389.1,167.7,389.3,167.7,389.5z
		 M166.9,388.1c-0.4,0-0.6,0.2-0.6,0.7h0.2C166.7,388.8,166.9,388.6,166.9,388.1z M126.4,375.9H126v0.8c0.2,0.4,0.6,0.5,1.2,0.5
		c0.4,0,0.6-0.2,0.6-0.5c0-0.6-0.4-0.8-1.2-0.8H126.4z M132.7,354.9h-1.4v0.7c0.2,0,0.6,0,1-0.2c0.4-0.2,0.6-0.4,0.6-0.6H132.7z
		 M126.6,353.4l-1.6-1.3c0-0.4,0.2-0.5,0.6-0.5c0.2,0,0.6,0.2,1,0.5V353.4z M123.5,351.3v0.2c0.2,0,0.4-0.2,0.4-0.4h-0.2
		C123.5,351.1,123.5,351.1,123.5,351.3z M120.3,350.8v0.7c0.2,0,0.4,0,0.4-0.2C120.7,351.1,120.5,351,120.3,350.8z M175.8,417.4h1
		c-0.6,0.7-1.2,1.1-1.8,1.1c-0.2,0-0.4,0-0.8-0.2c-0.4-0.2-0.6-0.4-0.8-0.5c0.2-0.2,0.6-0.4,1-0.4c0.4,0,0.8,0,1.2,0H175.8z
		 M175,422.8l-0.6-0.7c-0.2-0.2-0.2-0.4-0.2-0.6c0-0.6,0.2-0.9,0.6-1.1c0.4-0.2,0.8-0.4,1.2-0.4c0.6,0,0.8,0.2,0.8,0.5
		c-0.6,0.2-1,0.4-1.4,0.6c-0.2,0.2-0.4,0.4-0.4,0.6c0,0.2,0,0.4,0.2,0.5L175,422.8z M172.2,407.4c0.2-0.2,0.4-0.4,0.6-0.4
		c0,0.2-0.2,0.4-0.4,0.4H172.2z M171.2,399.5c0-0.2,0.2-0.4,0.4-0.4c0.2,0,0.6,0.2,1.2,0.4c-0.4,0.4-0.8,0.6-1,0.6
		C171.4,400.1,171.2,399.9,171.2,399.5z M167.3,392.7l-0.8-1.3l-1.4,0.6v-0.6c0-0.4,0.2-0.7,0.4-0.9c0.2-0.2,0.4-0.6,0.4-1.1
		c-0.2-0.6-0.8-1.1-1.8-1.6c-0.6-0.2-1-0.6-1-1.1c0-0.2,0.2-0.6,0.6-0.9h-0.4c-0.2,0-0.2-0.2-0.2-0.4c0-0.4,0.2-0.7,0.6-0.9v1.3
		c1,0,1.6,0.4,1.8,1.1c0.2,0.7,0.6,1.3,1.3,1.8c0.4-0.4,0.8-0.5,1.2-0.5c0.4,0,0.6,0.2,0.8,0.7c0.2,0.6,0.2,0.9,0.2,1.1v0.7
		c0,0.4-0.2,0.6-0.4,0.6c-0.2,0-0.4-0.2-0.6-0.6c-0.2-0.4-0.4-0.5-0.6-0.7l-0.8,1.4c0.6,0,1,0.2,1,0.7v0.2c-0.2,0-0.2,0-0.2,0.2
		V392.7z M160.8,387.4c0.2,0.2,0.2,0.6,0.2,0.9c0,0.4-0.2,0.7-0.4,0.9c-0.2-0.2-0.4-0.4-0.6-0.5c-0.2-0.2-0.2-0.4-0.2-0.6
		c0-0.2,0.2-0.4,0.8-0.5c0.2-0.2,0.4-0.4,0.6-0.4c0.4,0,0.6,0.2,0.6,0.5c0,0.4,0,0.7,0,0.9v0.2c-0.4,0-0.6-0.2-0.8-0.5
		c-0.2-0.4-0.4-0.7-0.6-0.9H160.8z M157.8,383.3c-1-0.6-2.4-0.9-4.3-0.9h-1c-2.2,0.2-4.1,0.2-5.5,0.2l-1.4,0.7
		c-1.2-0.4-2.6-0.6-4.1-0.6h-2c-2.2,0.4-4.3,0.6-6.1,0.6c1.8-7.1,3.8-14.3,6.1-21.4c2.2-7.1,4-14.3,5.7-21.5
		c0.2,0.4,0.6,1.6,1.4,3.7c0.8,2.2,1.7,4.9,2.6,7.9c1,3,2,6.2,3,9.6c1,3.4,2,6.6,3,9.5c1,2.9,1.8,5.4,2.4,7.3c0.6,2,1,3,1,3.2
		c0,0.4,0,0.7-0.2,0.9L157.8,383.3z M136.1,388.8c0-0.2,0-0.4,0.2-0.4c0.2,0,0.4,0.2,0.6,0.4c0,0.2,0,0.4-0.2,0.4
		C136.5,389.1,136.3,389,136.1,388.8z M136.1,358.1c0-0.2,0-0.4,0.2-0.4c0.2,0,0.4,0.2,0.6,0.4c0,0.2,0,0.4-0.2,0.4
		C136.5,358.5,136.3,358.3,136.1,358.1z M119.3,423.5l-0.6,1.2h-1.3c-0.6-0.4-1-0.7-1.2-0.9c-0.2-0.2-0.6-0.6-1.2-1.1l0.6,0.2
		l1.2-0.2l0.4-1.1c-0.2-0.6-0.2-1.1-0.2-1.6c0-0.6,0-1.1,0-1.6c0-3.2,0.4-6.4,1-9.6c0.6-3.2,1.4-6.4,2.4-9.7c1-3.2,2.1-6.4,3.3-9.6
		c1.2-3.2,2.2-6.3,3-9.3l-2.1-0.6l0.8-1.2v-0.7c-0.4-0.6-0.6-0.9-0.6-1.1c0-0.2,0.2-0.4,0.4-0.4c0.2-0.2,0.4-0.2,0.6-0.2
		c0.4,0,0.8,0,1,0.2l0.6,0.8l2-7.2l-1.2-0.4l1.4-0.4l0.6-2.3H130l0.6-0.5l0.8-2.9c-0.6-0.5-0.8-0.9-0.8-1.2l0.2-0.7l0.8,0.9l0.6-2.1
		L130,360c-0.4,0.2-0.6,0.4-0.6,0.6c0,0.2,0,0.2,0.2,0.2c0.2,0.4,0.4,0.7,0.4,1.2c0,0.4-0.2,0.6-0.8,0.6c-0.4-0.6-0.6-1.3-0.6-2.2
		c0-0.5,0.2-0.9,0.8-0.9c0.2,0,0.5,0,0.6,0.2l1.4-0.7c-0.6-0.5-0.8-1.1-0.8-1.6c0-0.2,0-0.4,0.2-0.6l-0.8-0.7
		c-0.2,0.4-0.6,0.5-1,0.5c-0.4,0-0.6-0.2-0.6-0.7l0.8-1.8l0.8,2h0.8l1.4-0.7l0.2-1.3c0.2,0.2,0.4,0.4,0.6,0.6v0.2
		c0,0.2-0.2,0.4-0.8,0.4v0.7l1-0.2l1.6-5.7l-1-0.2l1.2-0.5l5.9-20.9h0.8c0.2,0,0.6,0.2,1.2,0.4c0,0.2,0,0.4,0,0.6c0,0.2,0,0.4,0,0.5
		c-0.2,0.2-0.2,0.6-0.2,1.1l-4.3,15.2l0.4-0.2l-0.6,0.7c-0.2,0.5-0.4,1.4-0.8,2.7c-0.4,1.2-0.9,2.5-1.3,3.9c-0.4,1.5-0.8,2.7-1,3.9
		c-0.2,0.9-0.2,1.4-0.2,1.8v0.6l-0.4,0.2l-0.6,1.8l1.2-0.2c0.2,0,0.4,0,0.4,0.2c0,0.4-0.2,0.7-0.8,1.1c-0.6,0.4-1,0.5-1.2,0.7
		l-1.8,6.4h0.2c0,3.2-0.8,7-2.4,11.4c-1.6,4.5-3.4,9.1-5.3,13.9c-1.8,4.8-3.4,9.6-4.7,14.5c-0.6,2.7-1,5.2-1,7.5
		c0,2,0.2,3.9,0.8,5.7L119.3,423.5z M116.9,388.3V387c0.2-0.2,0.4-0.4,0.4-0.5c0-0.2,0.2-0.2,0.4-0.2l0.2,0.2v0.2
		c0,0.2,0,0.6-0.2,1.1c-0.2,0.6-0.4,0.7-0.6,0.7c-0.2,0-0.4-0.2-0.4-0.5L116.9,388.3z M120.7,357.2c0-0.2,0-0.4,0.2-0.4
		c0.2,0,0.4,0.2,0.6,0.4c0,0.2,0,0.4-0.2,0.4C121.1,357.5,120.9,357.4,120.7,357.2z M120.5,362c0,0.2-0.2,0.4-0.4,0.4
		c-0.2,0-0.4-0.2-0.6-0.4h-0.6c0-0.2,0.2-0.4,0.6-0.4c0.2,0,0.6,0.2,1.2,0.4H120.5z M123.5,376.3v0.2c0,0.2-0.2,0.4-0.6,0.4v-0.2
		C122.9,376.5,123.1,376.3,123.5,376.3z M123.5,362.6c0,0.4-0.2,0.5-0.4,0.5c0-0.2,0.4-0.5,1-0.9
		C123.9,362.4,123.7,362.6,123.5,362.6z M119.7,353.4v-0.7c0.4,0,0.6-0.2,0.8-0.6c0.2-0.4,0.4-0.7,0.4-1.1s0.2-0.6,0.4-0.7h0.4
		c0.2,0,0.6,0,1.3,0.2v-0.7h-1.4c0.2-0.4,0.6-0.5,1.2-0.5c0.2,0,0.4,0.2,0.4,0.4v0.9c-0.4,0.4-0.6,0.8-0.6,0.9
		c0,0.2,0.2,0.4,0.6,0.6c0.4,0.2,0.8,0.4,1.2,0.5c0.4,0.2,0.8,0.4,1.2,0.6c0.5,0.2,0.6,0.5,0.6,1.1c0,0.4,0,0.7,0,1.1
		c0,0.4,0,0.7,0,1.1c-0.8,0.2-1.2,0.7-1.2,1.5c0.6,0.9,1.4,1.4,2.6,1.4c-0.6,0.2-1.2,0.4-1.8,0.5c-0.6,0.2-1.2,0.2-1.8,0.2
		c-0.6,0-1-0.2-1.2-0.7c-0.2-0.6-0.2-1.1-0.2-1.6c0-0.6,0-1.3,0.2-2c0.2-0.7,0.2-1.2,0.2-1.6c-0.9,0.4-1.8,0.6-2.9,0.6
		c-0.6,0-0.8-0.2-0.8-0.7c0-0.2,0-0.4,0.2-0.6c0-0.2,0-0.2,0.2-0.2V353.4z M126,351.5h1.4c-0.2,0.4-0.6,0.6-1,0.6
		C126.2,352,126,351.8,126,351.5l-1.4-0.2c0.4-0.4,0.6-0.6,0.8-0.6C125.8,350.8,126,351,126,351.5z M126.8,353.4
		c0-0.2,0-0.4,0.2-0.4c0.2,0,0.4,0.2,0.4,0.4c0,0.2,0,0.4-0.2,0.4C127,353.8,126.8,353.6,126.8,353.4z M126.8,361.6v-0.2
		c0-0.2,0-0.2,0.2-0.2l0.4,0.4v0.2l-0.2,0.2L126.8,361.6z M129.6,359.3c-0.2,0.2-0.4,0.4-0.6,0.6c-0.2,0.2-0.4,0.2-0.6,0.2
		c-0.2,0-0.4-0.2-0.4-0.5c0-0.2,0.2-0.4,0.6-0.4c0.2,0,0.6,0.2,1.3,0.4L129.6,359.3z M128.8,350.6c0,0.2,0,0.4-0.2,0.4
		c-0.2,0-0.4-0.2-0.6-0.4c0-0.2,0-0.4,0.2-0.4C128.4,350.2,128.6,350.4,128.8,350.6z M128.8,347.9c0,0.2,0,0.4-0.2,0.4
		c-0.2,0-0.4-0.2-0.6-0.4c0-0.2,0-0.4,0.2-0.4C128.4,347.5,128.6,347.7,128.8,347.9z M130,352.4l0.2,1.2h0.6l0.8-1.2l-0.6-1.1
		c0.2,0,0.6,0,1,0c0.4,0,0.6,0.2,0.6,0.4c0,0.2,0,0.2-0.2,0.2c-0.2,0-0.4,0-0.6,0.2l-0.8,1.2v0.2c0,0.5-0.2,0.9-0.4,0.9
		c-0.2,0-0.4-0.2-0.4-0.4l0.2-0.2v-0.6c-0.6,0-0.8-0.2-0.8-0.4c0-0.2,0.2-0.5,0.6-0.9L130,352.4z M133.1,347.4l-0.8,1.4L133.1,347.4
		v-0.7c0-0.2,0.2-0.4,0.4-0.4c0.2,0,0.4,0.2,0.6,0.7c0.2,0.5,0.4,0.9,0.6,1.1L133.1,347.4z M138.3,334.5c0,0.2,0,0.4-0.2,0.4
		c-0.2,0-0.4-0.2-0.4-0.4c0-0.2,0-0.4,0.2-0.4C138.1,334.2,138.3,334.3,138.3,334.5z M143,330.4c0-0.2,0-0.4,0.2-0.4
		c0.2,0,0.4,0.2,0.6,0.4c0,0.2,0,0.4-0.2,0.4C143.4,330.8,143.2,330.6,143,330.4z M143.8,337.2c0,0.2,0,0.4-0.2,0.4
		c-0.2,0-0.4-0.2-0.6-0.4c0-0.2,0-0.4,0.2-0.4C143.4,336.8,143.6,337,143.8,337.2z M143.2,334v-1.2c0.2-0.2,0.4-0.4,0.4-0.6
		c0-0.2,0.2-0.2,0.4-0.2l0.2,0.2v0.2c0,0.2,0,0.5-0.2,1.1c-0.2,0.5-0.4,0.7-0.6,0.7c-0.2,0-0.4-0.2-0.4-0.6L143.2,334z M145.6,330.2
		l-0.8-2h0.8c0.4,0,0.6,0.2,0.6,0.6c0,0.2,0,0.4-0.2,0.6L145.6,330.2z M162.9,380.8l0.4-0.4c0-0.4,0.2-0.6,0.6-0.6
		c0,0.2-0.2,0.4-0.4,0.6c-0.2,0.2-0.4,0.4-0.6,0.5V380.8z M165.3,384.7l-0.4,0.4c0,0.4-0.2,0.6-0.6,0.6c0-0.4,0.2-0.6,0.6-0.6v-0.2
		l0.2-0.2H165.3z M167.1,389.1c0,0.2,0,0.4-0.2,0.4c-0.2,0-0.4-0.2-0.6-0.4c0-0.2,0-0.4,0.2-0.4C166.7,388.8,166.9,389,167.1,389.1z
		 M168.5,393.4l0.2-0.4c0,0.2,0,0.4,0.2,0.6v0.5c0,0.2,0,0.4,0.2,0.6l-0.2,0.4c-0.2,0-0.2-0.2-0.2-0.7c0-0.6,0-0.9,0-1.1
		L168.5,393.4z M173.8,407.7c0,0.2,0,0.4-0.2,0.4c-0.2,0-0.5-0.2-0.5-0.4c0-0.2,0-0.4,0.2-0.4C173.6,407.4,173.8,407.6,173.8,407.7z
		 M105.5,426.2l-1-0.4l-0.2-1.3l0.4-0.7c2.2-0.9,4.1-2.3,5.7-4.3l1.6,2.2c-0.8,1.1-1.8,1.9-3,2.6c-1.2,0.8-2.4,1.3-3.6,1.8H105.5z
		 M191.8,427.4l-2-0.2l-3.9-2l-0.6-2h-1.6v-1.4c-1-0.9-2.4-3.6-4.1-8.1c-1.6-4.5-3.4-9.8-5.5-16.1c-2-6.3-4-13.1-6.3-20.6
		c-2.2-7.5-4.3-14.6-6.3-21.6c-2-6.9-3.8-13.4-5.5-19.1c-1.6-5.7-2.8-10-3.8-13.1c-3.4-0.2-6.7-0.4-9.9-0.4c-3.2,0-6.5,0-9.7,0
		c-1.4,0-2.6,0-3.9,0c-1.2,0-2.4,0-3.8,0.2c-0.4,0.2-0.8,0.9-1.2,2.1c-0.4,1.3-0.8,2.7-1.2,4.3c-0.5,1.6-0.9,3-1,4.5
		c-0.2,1.4-0.4,2.5-0.6,3c-3,11.4-6.3,22.7-9.5,33.9c-3.3,11.2-6.5,22.5-9.5,33.9c-0.6,2-1.2,4.2-1.8,6.6c-0.6,2.5-1.4,4.8-2.4,7.1
		c-1,2.3-2.5,4.3-4.3,5.9c-1.8,1.5-4.1,2.2-6.7,2.2h-0.6v5.5c3-0.2,5.9-0.4,8.3-0.4c2.5,0,5.1-0.4,7.9-1.1l5.2-3.4
		c0.2,0,1,0.2,2.2,0.7c1.2,0.6,2.9,1.1,4.7,1.6c1.8,0.5,3.9,1.1,6.1,1.6c2.2,0.5,4.3,0.7,6.3,0.7c1,0,2.2,0,3.4-0.2
		c1.2-0.2,2.2-0.7,2.8-1.6l-0.8-1.9l0.8-1.5h-0.8c-3,0-5.1-1.1-6.3-3.2c-1.3-2.1-1.8-4.3-1.8-6.4c0-3,0.8-6.6,2.4-10.5
		c1.6-3.9,2.8-7.5,3.7-10.5l27.3-0.6c1.4,0,2.8,0.2,4.3,0.6c0.6,3.4,1.6,6.8,3,10.3c1.4,3.6,2.2,7,2.2,10.4c0,2-0.4,3.5-1.3,4.7
		c-0.8,1.1-2,2.3-3.9,3.5h-1c-1.4,0-2.5,0.2-3.3,0.7c-0.8,0.6-1.2,1.4-1.2,2.7c0,0.2,0.2,0.7,0.4,1.6c0.2,0.9,0.4,1.3,0.6,1.3h0.2
		c2.6-0.4,5.1-0.8,7.3-0.9c2.2-0.2,4.5-0.7,6.7-1.6c0.6-0.2,1.4-0.5,2.2-1.1c0.8-0.6,1.6-0.7,2.6-0.7c0.9,0,1.8,0.4,3,1.1
		c1.3,0.7,2.2,1.3,2.9,1.6h1c1.7,0,2.9,0.2,3.9,0.7c1,0.7,2.2,1.1,3.9,1.1c0.6,0,1.3-0.2,2.1-0.4c0.6-0.9,1-2,1-3
		c0-1.4-0.2-2.1-0.6-2.1c-0.4,0-1.2,0-2.2,0L191.8,427.4z M45.2,371.5c0-0.5-0.2-0.7-0.8-0.7v0.2C44.4,371.3,44.6,371.5,45.2,371.5z
		 M45.2,366.7V366c-0.2,0-0.4,0-0.4,0.2C44.8,366.3,45,366.5,45.2,366.7z M87.6,324.5v0.2c0,0.4,0.2,0.6,0.8,0.6
		C88.4,324.7,88.2,324.5,87.6,324.5z M89.4,324.8c1.2-0.2,1.8-0.7,1.8-1.6l-0.2-0.7c-0.6,0.2-1,0.5-1.2,1.1
		c-0.2,0.5-0.4,1.1-0.6,1.6L89.4,324.8z M93.7,321.6l-0.4,0.6h0.6C93.8,321.8,93.8,321.6,93.7,321.6z M96.3,320c0-0.2,0-0.4,0.2-0.4
		c0.2,0,0.4,0.2,0.6,0.4c0,0.2,0,0.4-0.2,0.4C96.7,320.4,96.5,320.2,96.3,320z M95.5,324.7h-1.4c0.2,0.2,0.2,0.6,0.2,0.9
		c0,0.4-0.2,0.7-0.4,0.9c-0.2-0.5-0.4-0.9-0.4-1.1c0-0.2,0.2-0.4,0.6-0.6c0-0.4,0.2-0.5,0.6-0.5c0.2,0,0.5,0.2,0.6,0.5L95.5,324.7z
		 M91.8,324.7c-0.4,0.9-1,1.8-1.8,2.7l-0.6-2.7h-0.8v0.6c0,0.5-0.2,0.7-0.4,0.7c-0.4,0-0.6-0.2-0.9-0.6c-0.2-0.4-0.2-0.7-0.2-0.9
		v-0.4H88v-0.4c0-0.5,0.4-0.9,1-1.2c1-0.6,1.6-0.9,2-1.1v-2.1l4.7,1.4v0.4c0,0.2-0.2,0.7-0.6,1.5c-0.5,0.7-0.9,1.1-1.4,1.1
		c-0.2,0-0.4-0.2-0.4-0.7V322C92.6,322.9,92.2,323.8,91.8,324.7z M82.3,328.1c0-0.2,0-0.4,0.2-0.4c0.2,0,0.4,0.2,0.6,0.4
		c0,0.2,0,0.4-0.2,0.4C82.7,328.4,82.5,328.2,82.3,328.1z M62.9,422.4H61c-0.6-0.2-1.6-0.9-3-2.2c-1.4-1.2-2.2-2.1-2.6-2.7
		c-0.2,0.2-0.6,0.6-1.2,1.1c-0.6,0.5-1.2,1.1-1.8,1.6c-0.6,0.6-1.2,1.1-1.8,1.5c-0.6,0.4-1,0.5-1.4,0.5l-0.8-0.2l-0.4-1.5
		c0.2-0.5,1-1.4,2.2-2.5l2.6-2.3c0-0.4,0.2-0.5,0.6-0.7c0.4-0.2,0.8-0.4,1-0.6c0.2,0.4,0.5,0.8,0.5,0.9c0,0.2-0.2,0.4-0.6,0.6
		l4.7,4.1h1.6l0.4-1.4c-0.6-1.3-1-2.5-1.2-3.6c-0.2-1.1-0.4-2.3-0.6-3.6l-0.6,0.2L59,411v-12.5h-0.2c-0.2,0-0.2-0.2-0.2-0.4
		c0-0.2,0-0.4,0.2-0.4H59v-1.1h-0.6L59,396v-7.7h-0.2c-0.2,0-0.2-0.2-0.2-0.4c0-0.2,0-0.4,0.2-0.4H59v-7.3l-0.6,0.2l0.6-0.8v-51.9
		h0.8l1,0.4c0,0.2,0,1.6,0,4.5c0,2.9,0,6.3,0,10.4v44.8c0.2,0,0.4,0.2,0.6,0.4l0.2,0.2c0,0.2,0,0.2-0.2,0.2l-0.4-0.2v17.3l0.6-0.2
		l-0.6,0.8v6.4c0,0.7,0.2,1.6,0.4,2.8c0.2,0.2,0.2,0.4,0.2,0.6c0,0.2,0,0.2-0.2,0.2c0.2,0.7,0.4,1.4,0.6,2.1c0.2,0.8,0.6,1.5,1,2.2
		v1.4h1.4c-0.2,0.4-0.6,0.6-1,0.6c-0.2,0-0.4-0.2-0.4-0.6L62.9,422.4z M47.5,417.5c0-0.2,0.2-0.4,0.4-0.4c0.2,0,0.4,0,0.6,0.2
		c0.2,0.2,0.4,0.2,0.6,0.2h0.2c0,0.2-0.2,0.4-0.6,0.4C48.4,417.9,48,417.7,47.5,417.5z M47.2,414.2l1.4,0.2
		c-0.4,0.4-0.6,0.5-0.8,0.5C47.5,414.9,47.2,414.7,47.2,414.2h-1.4c0.2-0.4,0.6-0.5,1.2-0.5c0.2,0,0.5,0.2,0.5,0.5H47.2z
		 M44.2,410.4v1.3l1.6-0.7c-0.2,0.2-0.4,0.4-0.6,0.5c-0.2,0.2-0.4,0.4-0.6,0.4c-0.2,0-0.4-0.2-0.4-0.4c-0.4,0-0.6-0.2-0.6-0.4
		c0-0.4,0.2-0.7,0.6-0.9V410.4z M43.1,406.9h-0.8c0.2-0.4,0.6-0.6,1.2-0.6c0.5,0,0.9,0.2,1,0.4c-0.2,0.2-0.6,0.2-1.2,0.2H43.1z
		 M41.8,328.8c0,0.2,0,0.4-0.2,0.4c-0.2,0-0.4-0.2-0.6-0.4c0-0.2,0-0.4,0.2-0.4C41.4,328.4,41.5,328.6,41.8,328.8z M44,331.5
		c0,0.2,0,0.4-0.2,0.4c-0.2,0-0.4-0.2-0.6-0.4c0-0.2,0-0.4,0.2-0.4C43.6,331.1,43.8,331.3,44,331.5z M44.2,328.2L45,327v-0.7h0.4
		c0.6,0,0.8,0.2,0.8,0.4c0,0.4-0.2,0.7-0.6,1.1c-0.4,0.4-0.8,0.5-1.2,0.5H44.2z M48,358.6c0.6,0.4,1,0.9,1,1.4
		c-0.6,0.9-1.2,1.5-2.1,1.5l-0.6-0.2c1.2-0.5,1.8-1.3,1.8-2c0-0.2,0-0.4-0.2-0.5V358.6z M50.3,362c0,0.2,0,0.4-0.2,0.4
		c-0.2,0-0.4-0.2-0.4-0.4c0-0.2,0-0.4,0.2-0.4C50,361.6,50.3,361.9,50.3,362z M51.7,365l1.2-0.5c0,0.2-0.2,0.5-0.4,0.9l-0.2,0.4
		C52.1,365.7,51.9,365.6,51.7,365c-0.6,0.2-1,0.6-1.4,0.9c-0.4,0.4-1,0.5-1.6,0.5c-0.4,0-0.8-0.2-1.4-0.4l1-1.4
		c0.8-0.4,1.8-0.5,2.8-0.5c0.6,0,0.8,0.2,0.8,0.5L51.7,365z M51.1,368.4l2.2,1.3c-0.6,0-1.4,0-2.2,0c-0.8,0-1.4-0.4-2-0.9
		C49.9,368.6,50.4,368.4,51.1,368.4z M55.2,369c-0.4,0-0.6-0.2-0.6-0.6H56c-0.2,0.4-0.4,0.6-0.6,0.6H55.2z M54.5,371.1
		c0-0.2,0-0.4,0.2-0.4c0.2,0,0.4,0.2,0.6,0.4c0,0.2,0,0.4-0.2,0.4C54.9,371.5,54.8,371.3,54.5,371.1z M53.7,388.8v0.2
		c0,0.2-0.2,0.4-0.6,0.4v-0.2C53.1,389,53.3,388.8,53.7,388.8z M53.1,411.8c0,0.2,0,0.4-0.2,0.4c-0.2,0-0.4-0.2-0.6-0.4
		c0-0.2,0-0.4,0.2-0.4C52.7,411.5,52.9,411.7,53.1,411.8z M49.6,371.5h-1.4v1.3c1,0,1.4,0.4,1.4,1.1v0.4h-1.4v0.4
		c0,0.6-0.2,0.9-0.8,1.1c-0.6,0.2-1.3,0.4-1.8,0.4v-2.7L48,374v-1.5c-0.2-0.2-0.4-0.4-0.6-0.5c-0.2-0.2-0.5-0.4-0.5-0.6
		c0-0.2,0.2-0.4,0.5-0.4h0.2c0.2,0.2,0.4,0.2,0.6,0.2l-0.2-0.7c0-0.2,0.2-0.4,0.4-0.4c0.2,0,0.4,0.2,0.6,0.4
		c0.2,0.2,0.4,0.4,0.6,0.5h1.4c-0.2,0.2-0.4,0.4-0.6,0.6h-0.2c-0.2,0-0.4-0.2-0.4-0.6L49.6,371.5z M49.2,382.7l0.4-0.4
		c0-0.4,0.2-0.5,0.6-0.5c0,0.4-0.2,0.5-0.6,0.5v0.2l-0.2,0.2H49.2z M47.9,412.2h1.8c-0.2,0.5-0.6,0.7-1.2,0.7c-0.2,0-0.4,0-0.6-0.2
		c-0.2-0.2-0.4-0.2-0.6-0.2C47.5,412.4,47.6,412.2,47.9,412.2z M48,393.1c0,0.4-0.2,0.6-0.6,0.7c-0.2-0.2-0.2-0.5-0.2-0.9
		c0-0.4,0.2-0.8,0.4-0.9C47.9,392.5,48,392.9,48,393.1z M42.7,383.5c0.2,0.2,0.4,0.2,0.6,0.2c0,0.6-0.2,0.7-0.6,0.7
		c-0.2,0-0.4-0.2-0.8-0.5c0.2-0.2,0.4-0.4,0.6-0.4H42.7z M43.8,373.6l-0.8-2h0.8c0-0.2,0-0.6,0-0.9c0-0.4,0.2-0.5,0.4-0.5
		c1,0,1.4,0.5,1.4,1.4c0,0.5-0.2,0.7-0.6,0.7c-0.2,0-0.4,0-0.6-0.2L43.8,373.6z M42.6,365.7h0.8l0.8,1.3l0.8,0.7h-0.8
		c-0.2,0.2-0.2,0.4-0.2,0.7c0,0.4-0.2,0.6-0.5,0.6c-0.4,0-0.6-0.4-0.6-1.1c0-0.7,0-1.3,0-1.5L42.6,365.7z M43.4,403.6
		c0-0.2,0.2-0.4,0.4-0.4c0.2,0,0.4,0,0.6,0.2c0.2,0.2,0.4,0.2,0.6,0.2h0.2c0,0.2-0.2,0.4-0.6,0.4C44.4,404,44,403.8,43.4,403.6z
		 M61,400.2h-0.2l-0.2-0.2v-0.2L61,400.2c0.4,0,0.6,0.2,0.6,0.6C61.2,400.8,61,400.6,61,400.2z M60.6,388.4l0.4-0.4
		c0-0.2,0.2-0.4,0.4-0.4h0.2c-0.2,0.2-0.4,0.4-0.6,0.4c0,0.2,0,0.4-0.2,0.4H60.6z M102.6,344.3l0.8-1.3c-1.2-2-1.8-3.9-2-5.9
		c-0.2-2-0.8-3.9-1.8-5.9c-0.4-0.9-1-1.6-1.8-2.3c-0.8-0.8-1.2-1.6-1.4-2.5c1.2-1.2,1.8-2.7,1.8-4.5c0-1.3-0.2-2.5-0.8-3.7
		c-0.6-1.3-1.4-2.3-2.4-3.2h-0.8v0.4c0,2.7-1,4.5-2.8,5.6c-1.8,1.1-4.1,1.8-6.7,2c-1.8,0.2-3.4,0.4-5.1,0.4c-1,0-2,0-3-0.2
		c-2.8-0.2-5.1-0.2-6.9-0.2c-8.1,0-16.2,0-24.3,0.2c-8.1,0.2-16.3,0.2-24.4,0.2c-1.8,0-3.4-0.2-4.8-0.6c-0.6-0.5-1.4-1.1-2.2-1.6
		c-0.8-0.5-1.6-1.2-2.4-1.9c-0.9-0.8-1.4-1.5-1.8-2.2c-0.4-0.5-0.6-1.2-0.6-2v-0.5H8.1c-1,0.7-1.8,1.4-2.2,2.3
		c-0.4,0.9-0.6,1.8-0.6,2.7c0,1.1,0,2.1,0.2,3.2c0.2,1.1,0.2,2,0.2,2.9c0,1.6-0.6,3.4-1.8,5.2c-1.2,1.8-2,3.5-2.6,5.2
		c-0.4,1.4-0.6,2.9-0.6,4.3c0,1.6-0.4,3-1,4.5c0,1.6,1,2.3,2.8,2.3c1,0,1.8-0.2,2.2-0.4c0.4-0.2,1-0.6,1.6-1.1
		c0.6-3.4,1.8-5.9,3.8-7.7c2.1-1.8,4.5-3,7.3-3.7c2.9-0.7,5.9-1.3,9.1-1.4c3.3-0.2,6.5-0.2,9.5-0.2c1,0,2,0.2,3,0.6l0.2,26.9
		c0,0.9,0,3,0,6.3c0,3.2,0.2,6.9,0.4,11.4v13.9c-0.2,5-0.4,9.6-0.8,13.9c-0.4,4.3-0.8,7.8-1.4,10.9c-0.6,3-1.4,4.8-2.5,5.4
		c-0.6,0.4-1.2,0.7-2,1.1c-0.8,0.4-1.4,0.9-1.8,1.4c-0.6,0.2-1.4,0.4-2.4,0.6c-1,0.2-1.8,0.4-2.6,0.6c-0.8,0.2-1.6,0.5-2.2,0.9
		c-0.6,0.4-0.8,0.7-0.8,1.3c0,0.2,0.2,0.9,0.6,2.1c0.4,1.3,0.8,1.8,1,1.8c0.6-0.2,1.7-0.4,3-0.6c1-0.2,1.8-0.2,2.6-0.2
		c1,0,1.8,0,2.6,0.2c1,0.2,1.8,0.2,2.6,0.2c1,0,2,0,3-0.2c1.8-0.2,3.6-0.7,5.3-1.4c1.6-0.7,3.4-1.3,5.2-1.4l1.6-2.2
		c0.2,0,1.3,0.2,2.9,0.7c1.6,0.6,3.6,1.1,5.9,1.6c2.2,0.6,4.7,1.1,7.3,1.6c2.6,0.5,5.1,0.7,7.3,0.7c1,0,2,0,3,0s1.8-0.6,2.4-1.4
		v-3.4c-0.2-0.6-0.6-0.7-1.2-0.7H78c-0.6,0.2-1.2,0.2-1.8,0.2c-0.8,0-1.4,0-1.8-0.2c-2.1-2-3.7-3.4-5.1-4.3
		c-1.4-0.9-2.5-1.8-3.3-2.7c-0.8-0.9-1.4-2.1-1.8-3.6c-0.4-1.4-0.6-3.5-0.6-6.6c0-0.6,0-2.7,0-6.4c0-3.7,0.2-8.4,0.4-13.8
		c0.2-5.4,0.4-11.2,0.4-17.5c0-6.3,0-12.2,0-17.7c0-5.5,0-10.2,0-14.1c0-3.9,0-6.3-0.2-6.8c0.4-0.2,1.2-0.4,2.6-0.4h9.9
		c2,0,4.1,0.2,5.9,0.6c1.8,0.4,3.7,0.9,5.3,1.8c1.6,0.9,3.4,2.2,5.5,3.7c1,0.9,1.7,1.8,1.8,2.7c0.2,0.9,0.4,1.8,0.4,2.7
		c0,0.9,0.2,1.6,0.6,2.2c0.4,0.5,1.2,0.7,2.2,0.7c0.4,0,1.4,0,2.8-0.2c1.4-0.2,2.2-0.5,2.2-1.1c-0.6-0.6-0.8-1.4-0.8-2.5
		L102.6,344.3z"/>
	<path class="st0" d="M395.1,2.5c0.1,0,0.6-0.2,1.9-0.5c1.3-0.3,3.2-0.8,5.7-1.3c2.6-0.4,5.8-1,10.1-0.5c2.2,0.3,4.7,0.7,7.7,2.5
		c1.5,0.9,3,2.3,4.2,4.3c1.2,2,1.8,4.5,1.9,6.7c0.1,4.5-1.3,8-2.8,11c-1.5,3.1-3.3,5.8-5.3,8.4c-4,5.2-8.7,9.8-14,14.5
		c-5.3,4.6-11.1,9.1-17.5,13.3c-6.4,4.3-13.2,8.5-20.6,12.5c-14.7,7.9-31.2,15.3-49.3,21.5C201.9,134.4,161.1,93,169.3,53.5
		C178.6,9.4,260.2,1.3,303.3,17c21.6,7.8,39.8,23.9,46.8,47.2c2,6.6,2.9,13.2,3.4,19.4c5,60.3-33.2,158-82.9,203
		c-2.7,2.5-5.2,4.4-7.2,6c-2,1.6-3.6,2.7-4.7,3.4c-1.2,0.7-1.7,1.1-1.8,1.1c-0.1,0.1,0.7-0.5-0.2,0.1c-0.9,0.6-2.2,0.3-2.7-0.6
		c-0.5-0.8-0.4-1.9,0.3-2.5c0.7-0.6,0.1-0.1,0.3-0.3c0.2-0.2,0.5-0.5,1-0.9c0.9-0.8,2.1-2.2,3.7-3.9c39.2-44.3,75.2-157.4,58-214.4
		c-10-33-33.5-42-74.2-39.2c-19.2,1.3-50.1,13.4-38.9,29.4c5.1,7.3,16.2,8.4,23,9c23.7,1.9,60.4-3.3,83.5-8.2
		c17.2-3.6,33.3-8.2,47.6-13.5c14.4-5.3,27.2-11.3,37.6-17.8c5.2-3.3,9.9-6.7,13.7-10.2c1.9-1.8,3.6-3.6,4.8-5.4
		c1.3-1.8,2.2-3.7,2.3-5.3c0.1-1.6-0.4-2.7-1.6-3.6c-1.2-0.9-2.7-1.6-4.3-2c-3.1-0.9-6-1-8.3-1.1c-2.3-0.1-4.2,0-5.4,0
		c-1.2,0.1-0.8,0-1.9,0.1c-1.1,0.1-2-0.8-2.1-1.9c0-0.9,0.6-1.8,1.5-2C395.6,2.3,394.9,2.5,395.1,2.5"/>
	<path class="st0" d="M54,461.6c0.2-0.3,0.6-0.3,1.2-0.1c0.6,0.2,1.3,0.5,1.9,0.9c0.7,0.4,1.2,1,1.7,1.6c0.4,0.6,0.6,1.2,0.3,1.9
		c-1.6,2-3.2,4.1-4.8,6.4c-1.6,2.3-3.1,4.6-4.5,7.1c-1.4,2.4-2.8,4.9-4,7.3c-1.2,2.5-2.4,4.9-3.3,7.2c-1,2.3-1.8,4.6-2.4,6.7
		c-0.6,2.1-1.1,4-1.2,5.7c0,0.2-0.2,0.2-0.6-0.1c-0.4-0.3-0.8-0.6-1.3-1.1c-0.5-0.5-0.9-1-1.2-1.5c-0.4-0.5-0.6-0.9-0.6-1.2
		c0.1-1.7,0.5-3.7,1.1-5.9c0.6-2.2,1.5-4.5,2.5-7c1-2.4,2.2-4.9,3.4-7.5c1.3-2.6,2.6-5.1,4-7.5c1.4-2.4,2.7-4.8,4.1-7
		C51.5,465.3,52.8,463.3,54,461.6 M31.5,478.4c0,0.3-0.2,0.4-0.7,0.4c-0.5,0-1-0.1-1.6-0.3c-0.6-0.2-1.2-0.4-1.7-0.7
		c-0.5-0.3-0.9-0.5-1-0.7c0-2.1,0.2-4.1,0.8-5.8c0.6-1.7,1.4-3.2,2.3-4.5c1-1.3,2.1-2.5,3.3-3.4c1.3-1,2.6-1.8,3.9-2.5
		c1.3-0.7,2.7-1.3,4-1.8c1.3-0.5,2.6-0.9,3.7-1.2c2-0.5,4.1-0.9,6.3-1.2c2.2-0.2,4.3-0.3,6.5-0.3c1.8,0,3.7,0,5.7,0.1
		c2,0.1,3.8,0.2,5.5,0.4c1.5,0.1,3.1,0.2,4.6,0.3c1.5,0.1,3,0.1,4.4,0.1c1.7,0,3.3-0.1,4.7-0.3c1.4-0.2,2.8-0.6,4-1.1
		c0.2-0.1,0.4,0,0.4,0.4c0,0.4,0,0.8-0.1,1.3c-0.1,0.5-0.2,1-0.4,1.5c-0.2,0.5-0.4,0.8-0.6,1c-1.3,0.4-2.7,0.8-4.2,1
		c-1.5,0.2-3.1,0.3-4.6,0.3c-1.8,0-3.6-0.1-5.5-0.3c-1.9-0.2-3.8-0.4-5.7-0.6c-2.1-0.2-4.1-0.4-6.2-0.6c-2.1-0.2-4.2-0.3-6.3-0.3
		c-1.3,0-2.6,0-3.9,0.1c-1.3,0.1-2.5,0.3-3.8,0.5c-1.7,0.3-3.4,0.9-5,1.6c-1.6,0.8-3.1,1.9-4.4,3.2c-1.3,1.4-2.3,3.2-3.1,5.3
		C32.1,472.8,31.6,475.4,31.5,478.4z"/>
	<path class="st0" d="M70.4,477.3c0.4-0.2,0.9-0.2,1.5,0c0.6,0.2,1.2,0.5,1.8,0.9c0.6,0.4,1,0.9,1.4,1.4c0.4,0.6,0.4,1.1,0.2,1.7
		c-0.1,0.3-0.2,0.6-0.5,1.1c-0.2,0.4-0.5,1-0.7,1.6c-0.4,1-0.9,2.1-1.5,3.3c-0.5,1.2-1.1,2.5-1.5,3.7c-0.5,1.2-0.9,2.4-1.2,3.5
		c-0.3,1.1-0.5,2-0.5,2.7c0,0.9,0.1,1.3,0.3,1.3h0.4c0.9-0.3,1.7-0.8,2.5-1.5c0.8-0.7,1.6-1.5,2.4-2.5c0.8-0.9,1.5-1.9,2.1-2.9
		c0.7-1,1.3-2,1.8-2.9l0.7-1.2c0.2-0.3,0.4-0.4,0.7-0.5c0.3-0.1,0.6-0.1,0.9,0c0.3,0.1,0.5,0.2,0.6,0.5c0.1,0.2,0.1,0.5-0.1,0.8
		l-1.2,1.8c-1,1.6-2.1,3.2-3.2,4.9c-1.2,1.7-2.5,3.2-4.1,4.5c-0.2,0.2-0.5,0.4-0.9,0.7c-0.4,0.3-0.8,0.5-1.2,0.7
		c-0.5,0.2-1,0.4-1.6,0.5c-0.6,0.1-1.2,0.2-1.8,0.2c-1.3-0.1-2.2-0.5-2.9-1.3c-0.6-0.8-0.9-1.9-0.9-3.1c0-0.5,0-1.1,0.1-1.6
		c-0.6,0.7-1.2,1.4-1.8,2.1c-0.6,0.7-1.2,1.3-1.9,1.8c-0.2,0.2-0.5,0.4-0.9,0.7c-0.4,0.3-0.8,0.5-1.2,0.7c-0.5,0.2-1,0.4-1.6,0.5
		c-0.6,0.1-1.2,0.2-1.8,0.2c-1.2-0.1-2.2-0.5-2.8-1.3c-0.6-0.8-0.9-1.8-0.9-3.1c0-0.7,0.1-1.3,0.2-1.9c0.1-0.6,0.3-1.3,0.5-2
		c0.2-0.8,0.5-1.6,0.8-2.5c0.3-0.9,0.6-1.8,1-2.8c0.3-1,0.7-1.9,1-2.8c0.5-1.3,0.9-2.7,1.4-4c0.4-1.3,0.8-2.6,1.2-3.8h0.3
		c0.4-0.2,0.9-0.2,1.5,0c0.6,0.2,1.2,0.5,1.8,0.9c0.6,0.4,1,0.9,1.4,1.4c0.4,0.6,0.4,1.1,0.2,1.7l-1.3,2.9c-0.4,1-0.9,2-1.5,3.2
		c-0.5,1.2-1,2.4-1.5,3.6c-0.5,1.2-0.9,2.3-1.2,3.4c-0.3,1.1-0.5,1.9-0.5,2.6c0,0.9,0.1,1.3,0.3,1.3h0.4c0.9-0.3,1.7-0.8,2.5-1.5
		c0.8-0.7,1.6-1.5,2.3-2.4c0.7-0.9,1.4-1.8,2.1-2.8c0.7-1,1.3-2,1.8-2.9h0c0.1-0.2,0.2-0.3,0.3-0.4c0.1-0.1,0.2-0.3,0.3-0.4
		c0.2-0.4,0.3-0.9,0.5-1.3c0.2-0.4,0.3-0.9,0.5-1.3c0.5-1.4,1-2.7,1.5-4.1c0.5-1.4,0.9-2.7,1.2-3.9H70.4z"/>
	<path class="st0" d="M97.4,493.2c-0.7,1-1.5,1.9-2.3,2.9c-0.9,1-1.8,1.9-2.9,2.7c-1,0.8-2.1,1.5-3.3,1.9c-1.2,0.5-2.4,0.7-3.7,0.6
		c-1.4-0.1-2.5-0.5-3.1-1.3c-0.7-0.8-1-1.8-1-2.9c0-0.8,0.2-1.6,0.5-2.4c0.3-0.8,0.6-1.5,1-2.3c0.4-0.8,0.9-1.5,1.4-2.2
		c0.5-0.7,1-1.4,1.5-2.1c0.1-0.2,0.3-0.4,0.4-0.6c0.2-0.3,0.3-0.5,0.5-0.6l1.1-1.5c0.6-0.8,1.1-1.5,1.6-2.1c0.5-0.6,0.8-0.9,1-1
		c-0.4,0.1-0.7,0.1-1,0.2c-0.3,0.1-0.6,0.1-0.9,0.2c-0.4,0.1-0.7,0.2-1.1,0.2c-0.4,0.1-0.9,0.1-1.5,0H85c-0.7,1-1.4,2-2.1,3
		c-0.7,1-1.3,2-1.9,3c-0.1,0.2-0.3,0.2-0.6,0.2s-0.5,0-0.8-0.1c-0.3-0.1-0.5-0.2-0.6-0.4c-0.1-0.2-0.1-0.4,0-0.6
		c0.3-0.4,0.5-0.9,0.8-1.3c0.3-0.5,0.6-0.9,0.8-1.3c0.3-0.5,0.6-1,0.9-1.5c0.3-0.5,0.7-1.1,1-1.6c-0.5-0.4-0.7-0.8-0.7-1.4
		c0-0.4,0.1-0.8,0.2-1.2c0.2-0.5,0.4-0.9,0.6-1.4c0.2-0.5,0.5-1,0.8-1.5c0.3-0.5,0.6-1,0.9-1.4c0.3-0.4,0.5-0.8,0.7-1.2
		c0.2-0.4,0.4-0.8,0.6-1.3c0.9,0.4,1.7,0.8,2.5,1.3c0.8,0.5,1.2,1.2,1.2,1.9c0,0.4-0.1,0.8-0.3,1.3l-2.2,3.1c-0.1,0.2,0,0.3,0.3,0.2
		c0.3-0.1,0.7-0.2,1.3-0.4c0.6-0.2,1.2-0.5,1.9-0.8c0.7-0.3,1.4-0.6,2.1-0.9c0.7-0.3,1.2-0.6,1.8-0.9c0.5-0.3,0.9-0.6,1-0.7
		c0.2,0,0.4,0.1,0.7,0.2c0.3,0.1,0.6,0.3,0.9,0.4c0.3,0.2,0.5,0.3,0.8,0.5c0.2,0.2,0.4,0.3,0.4,0.3c0.3,0.4,0.3,0.8,0.1,1.4
		c-0.2,0.6-0.5,1.2-0.9,1.9c-0.4,0.7-1,1.5-1.7,2.4c-0.7,0.8-1.3,1.7-2,2.6c-0.4,0.5-0.8,1.1-1.2,1.6c-0.4,0.5-0.8,1.1-1.2,1.6
		c-0.3,0.4-0.7,0.8-1.1,1.4c-0.4,0.5-0.8,1.1-1.1,1.7c-0.4,0.6-0.6,1.2-0.9,1.8c-0.2,0.6-0.4,1.1-0.4,1.6c0,0.8,0.3,1.2,0.9,1.2
		c0.4,0,0.8-0.1,1.3-0.4c0.5-0.3,1.1-0.7,1.7-1.2c0.6-0.5,1.2-1.1,1.9-1.7c0.6-0.7,1.2-1.4,1.8-2.1c0.6-0.9,1.1-1.8,1.7-2.7
		c0.6-0.9,1-1.7,1.4-2.3c0.1-0.2,0.3-0.2,0.6-0.3c0.3,0,0.5,0,0.8,0.1c0.3,0.1,0.5,0.2,0.6,0.4c0.2,0.2,0.2,0.4,0,0.6
		c-0.2,0.4-0.4,0.7-0.6,1.1c-0.2,0.4-0.4,0.7-0.6,1.1c-0.3,0.5-0.6,1-0.9,1.5C98,492.3,97.7,492.7,97.4,493.2"/>
	<path class="st0" d="M122.5,492.3c-0.4,0.7-1.1,1.6-1.8,2.6c-0.8,1-1.6,2-2.6,3c-1,1-2,1.8-3.1,2.5c-1.1,0.7-2.2,1-3.2,1
		c-0.6,0-1.2-0.1-1.8-0.3c-0.6-0.2-1.1-0.5-1.5-0.9c-0.4-0.4-0.8-0.9-1.1-1.5c-0.3-0.6-0.4-1.3-0.3-2.2c0-0.8,0.1-1.6,0.3-2.4
		c0.2-0.8,0.4-1.7,0.8-2.6c0.3-0.9,0.7-1.9,1.1-3c0.4-1.1,0.9-2.3,1.5-3.7c0.3-0.6,0.5-1.2,0.6-1.8c0.2-0.6,0.3-1.1,0.3-1.5
		c0-0.3-0.2-0.4-0.6-0.3c-0.4,0.1-1.1,0.6-2,1.4c-1.1,1-2.1,2-3.1,3c-0.9,1-1.9,2.1-2.9,3.3c-0.8,1.9-1.5,3.8-2.1,5.8
		c-0.6,2-0.9,4-1.1,6.2c0,0.3-0.3,0.4-0.8,0.3c-0.5-0.1-1-0.2-1.5-0.5c-0.5-0.2-1.1-0.5-1.5-0.9c-0.5-0.4-0.7-0.7-0.8-1
		c0.1-2.4,0.6-4.8,1.4-7.1c0.8-2.4,1.6-4.7,2.5-7.1c0.4-1.1,0.9-2.3,1.3-3.5c0.4-1.2,0.8-2.5,1.2-3.9c0.4-0.2,0.9-0.2,1.6,0
		c0.7,0.2,1.3,0.5,1.9,0.8c0.6,0.4,1.1,0.8,1.5,1.4c0.4,0.5,0.5,1.1,0.3,1.6h0c0,0.1,0,0.1,0,0.1c1.2-1.1,2.5-2.1,3.8-2.9
		c1.3-0.8,2.8-1.2,4.2-1.3c0.4,0,0.8,0.1,1.2,0.4c0.4,0.3,0.9,0.6,1.2,1c0.4,0.4,0.7,0.8,0.9,1.3c0.2,0.4,0.3,0.8,0.2,1.2
		c-0.5,1.5-1.1,2.9-1.7,4.2c-0.6,1.3-1,2.4-1.5,3.3c-0.4,0.8-0.7,1.6-1,2.3c-0.3,0.7-0.6,1.4-0.8,2.1c-0.2,0.7-0.4,1.4-0.6,2.1
		c-0.1,0.7-0.2,1.6-0.3,2.5c0,0.2,0,0.3,0.1,0.5c0.1,0.2,0.3,0.2,0.7,0.1c0.8-0.4,1.9-1.2,3.1-2.3c1.2-1.1,2.5-2.6,3.8-4.5
		c0.6-0.9,1.2-1.8,1.7-2.7l0.8-1.3c0.1-0.2,0.3-0.2,0.6-0.3c0.3,0,0.5,0,0.8,0.1c0.3,0.1,0.5,0.2,0.6,0.4c0.2,0.2,0.2,0.4,0,0.6
		L122.5,492.3z"/>
	<path class="st0" d="M127.4,487.7c0-0.6,0-1.2,0.1-1.8c0.1-0.6,0.2-1.2,0.3-1.9c-0.4,0.6-0.9,1.3-1.3,2c-0.4,0.7-0.9,1.4-1.3,2.1
		l-0.8,1.2c0.5,0.1,1.1,0.3,1.5,0.5c0.1,0.1,0.2,0.3,0.4,0.7c0.2,0.4,0.3,0.8,0.5,1.2c0.1,0.4,0.2,0.9,0.3,1.3c0,0.4,0,0.7-0.2,0.8
		c-0.8-0.6-1.4-1-2-1c-0.4,0-0.8,0.1-1.3,0.2c-0.4,0.2-0.8,0.4-1.2,0.6c-0.3,0.3-0.6,0.6-0.8,1c-0.2,0.4-0.3,0.8-0.3,1.3
		c0,0.3,0,0.6,0.1,0.9c0.1,0.3,0.2,0.5,0.3,0.8c0.4,0.6,0.8,1.1,1.4,1.4c0.5,0.3,1,0.5,1.5,0.5c0.6,0.1,1.1,0,1.5-0.3
		c0.4-0.3,0.8-0.6,1-1c0.3-0.4,0.4-0.9,0.6-1.5c0.1-0.6,0.2-1.2,0.2-1.9c0-0.5,0-1.1-0.1-1.7c0-0.6-0.1-1.2-0.2-1.7
		c-0.1-0.6-0.1-1.2-0.2-1.9C127.4,489,127.4,488.4,127.4,487.7 M118,495.9c0-1,0.3-2,0.8-3.1c0.5-1,1.2-1.8,2.1-2.5
		c0.2-0.3,0.4-0.6,0.6-1c0.2-0.3,0.4-0.7,0.6-1c0.8-1.3,1.7-2.7,2.6-4c0.9-1.3,1.8-2.7,2.9-4c0.2-0.3,0.4-0.5,0.5-0.7
		c0.2-0.2,0.3-0.5,0.5-0.7c0.5-0.7,1.1-1.5,1.8-2.4c0.7-0.8,1.7-1.8,2.9-2.9c0.4,0.2,0.9,0.4,1.4,0.7c0.6,0.3,1.1,0.7,1.6,1
		c0.5,0.4,0.8,0.7,1,1.1c0.2,0.4,0.2,0.7-0.1,0.9h0c-0.4,0.4-0.8,0.8-1,1.1c-0.2,0.3-0.5,0.7-0.9,1.2l-0.6,0.9
		c-0.7,1.1-1.1,2.2-1.4,3.4c-0.2,1.2-0.4,2.5-0.4,3.7c0,0.6,0,1.3,0,1.9c0,0.6,0.1,1.3,0.1,1.9l0.1,2.6c0,1.2-0.1,2.2-0.5,3.2
		c-0.4,1-0.9,1.8-1.7,2.5c-0.7,0.7-1.6,1.2-2.6,1.5c-1,0.3-2.1,0.5-3.3,0.4c-2.5-0.2-4.3-0.9-5.4-2C118.6,498.6,118,497.3,118,495.9
		z"/>
	<path class="st0" d="M192.7,456.2c0.2-0.3,0.5-0.3,1-0.1c0.5,0.2,1,0.6,1.4,1.1c0.5,0.5,0.9,1,1.2,1.5c0.4,0.6,0.5,1,0.4,1.4
		c-1.6,4.1-3.2,7.8-4.7,11.1c-1.5,3.3-2.9,6.3-4.2,9.2c-0.7,1.5-1.4,3-2.1,4.6c-0.7,1.6-1.4,3.3-2.1,5c-0.7,1.7-1.4,3.4-2,5
		c-0.7,1.7-1.3,3.3-1.9,4.9c-0.1,0.4-0.2,0.7-0.3,1c-0.1,0.3-0.1,0.5-0.1,0.7c0.3-0.5,0.5-1,0.8-1.4c0.2-0.4,0.4-0.7,0.6-1.1
		c0.2-0.4,0.4-0.6,0.5-0.8c1.5-2.5,3-5.1,4.7-7.6l2.1-3.3c3.2-5.2,6.5-10.4,10-15.5c3.5-5.1,7.3-10,11.5-14.6
		c0.2-0.2,0.4-0.2,0.8-0.1c0.3-0.1,0.6,0.1,1.2,0.4c0.5,0.3,1,0.7,1.6,1.1c0.5,0.4,1,0.8,1.3,1.3c0.4,0.4,0.5,0.7,0.4,0.9
		c-0.6,0.6-1.5,1.7-2.5,3.4c-1.1,1.7-2.3,3.7-3.6,6.1c-1.3,2.4-2.6,4.9-3.9,7.7c-1.3,2.8-2.5,5.6-3.6,8.3c-1.1,2.8-2,5.4-2.7,7.9
		c-0.7,2.5-1,4.7-1,6.5c0,1.2,0.2,2.3,0.5,3.1c0.3,0.8,0.8,1.3,1.5,1.5c0.8,0.3,1.7,0.5,2.6,0.5c0.5,0,1.1-0.1,1.7-0.2
		c0.6-0.1,1.2-0.3,1.8-0.5c0.3,0,0.4,0.1,0.3,0.3c0,0.2-0.2,0.4-0.4,0.7c-0.2,0.3-0.5,0.5-0.8,0.8c-0.3,0.2-0.6,0.4-0.8,0.4
		c-0.5,0.1-1,0.1-1.5,0.2c-0.5,0-1,0-1.6,0c-1.2,0-2.4-0.1-3.5-0.4c-1.7-0.4-2.9-1.3-3.7-2.6c-0.8-1.3-1.1-2.8-1.1-4.7
		c0-1.7,0.2-3.5,0.7-5.6c0.4-2,1-4.2,1.8-6.4c0.8-2.2,1.6-4.5,2.6-6.8c1-2.3,2-4.6,3-6.7c-3.3,4.4-6.4,8.9-9.3,13.3
		c-2.9,4.5-5.7,8.9-8.4,13.3c-0.3,0.5-0.7,1-1.2,1.5c-0.5,0.5-1.1,0.9-1.7,1.3c-0.6,0.3-1.2,0.6-1.9,0.6c-0.6,0.1-1.3,0-1.9-0.4
		c-1-0.5-1.4-1.4-1.4-2.8c0-1.4,0.3-3.2,1-5.4c0.7-2.2,1.5-4.6,2.6-7.2c1.1-2.6,2.3-5.4,3.6-8.3c1.3-2.9,2.7-5.8,4-8.6l1-2.2
		c-1.8,2.6-3.5,5.1-5.3,7.5c-1.8,2.5-3.6,4.9-5.6,7.3h0c-0.9,1.1-1.8,2.3-2.7,3.5c-0.9,1.2-2.1,2.5-3.3,3.8c-0.2,0.2-0.4,0.5-0.8,1
		c-0.4,0.5-0.8,1-1.3,1.5c-0.9,1.1-1.9,2.2-3.1,3.4c-1.1,1.2-2.3,2.3-3.5,3.3c-1.2,1-2.5,1.8-3.8,2.5c-1.3,0.7-2.6,1-3.9,0.9
		c-1.3,0-2.4-0.4-3.2-1c-0.8-0.7-1.5-1.5-2-2.5c-0.5-1-0.9-2.1-1.1-3.3c-0.2-1.2-0.3-2.4-0.3-3.5c0-0.4,0-0.9,0-1.4
		c0-0.5,0.1-0.9,0.1-1.2c0.2-1.8,0.8-3.9,1.6-6.4c0.8-2.4,1.9-4.9,3.2-7.5c1.3-2.5,2.8-5.1,4.5-7.5c1.7-2.5,3.5-4.7,5.5-6.6
		c2-1.9,4-3.5,6.1-4.6c2.1-1.2,4.3-1.7,6.5-1.7c0.9,0,1.7,0.3,2.4,0.7c0.7,0.4,1.3,1,1.8,1.7c0.5,0.7,0.8,1.4,1.1,2.2
		c0.3,0.8,0.4,1.6,0.4,2.3c0,0.6-0.1,1.2-0.3,1.8c-0.3,0.8-0.8,1.5-1.5,2.2c-0.7,0.7-1.3,1.2-2,1.6c-0.7,0.4-1.2,0.5-1.7,0.5
		c-0.4-0.1-0.6-0.5-0.4-1.2c0.1-0.4,0.3-1.2,0.5-2.1c0.2-1,0.3-1.9,0.3-2.9c0-0.9-0.1-1.6-0.3-2.3c-0.2-0.6-0.6-1-1.2-1.1
		c-1.6-0.1-3.3,0.4-5.1,1.5c-1.8,1.1-3.5,2.5-5.2,4.3c-1.7,1.8-3.4,3.8-4.9,6.1c-1.6,2.3-3,4.6-4.2,6.9c-1.2,2.3-2.3,4.6-3.1,6.8
		c-0.8,2.2-1.3,4-1.6,5.6c0,0.1,0,0.1,0,0.2c0,0.1,0,0.2,0,0.2c0,0.4-0.1,0.8-0.1,1.2c0,0.4,0,0.8,0,1.2c0,0.3,0,0.7,0,1
		c0,0.4,0.1,0.7,0.1,1c0.2,1.2,0.6,2.3,1.2,3.3c0.6,0.9,1.6,1.5,2.9,1.8c0.9,0,2-0.4,3.2-1.2c1.2-0.8,2.5-1.9,3.9-3.2
		c1.4-1.3,2.9-2.9,4.5-4.8c1.6-1.8,3.2-3.8,4.9-5.9c1.7-2.1,3.4-4.3,5.1-6.7c1.7-2.3,3.5-4.7,5.2-7c2-2.7,4-5.3,5.8-7.9
		c1.9-2.5,3.7-4.9,5.5-7c0.2-0.3,0.3-0.6,0.4-0.9C192.4,456.8,192.5,456.5,192.7,456.2L192.7,456.2z"/>
	<path class="st0" d="M220.1,479.6c-1.2,0.3-2.4,0.9-3.6,1.8c-1.1,0.9-2.1,2-3,3.3c-0.9,1.2-1.6,2.5-2.3,3.9
		c-0.6,1.3-1.1,2.5-1.3,3.6c2.3-0.8,4.4-2,6.3-3.6c1.9-1.6,3.4-3.5,4.6-5.8c0.3-0.6,0.4-1.2,0.4-1.7c0-0.5-0.1-0.8-0.3-1.1
		C220.7,479.6,220.5,479.5,220.1,479.6 M223,483.7c-1.4,2.5-3.2,4.6-5.5,6.3c-2.3,1.7-4.9,2.9-7.8,3.8v0.4c0,1,0.2,2,0.6,3
		c0.4,1,1,1.6,1.9,1.9c0.6,0.1,1.3,0.1,2.2-0.2c0.9-0.2,1.8-0.7,2.7-1.3c1-0.6,2-1.4,3-2.5c1-1,2-2.2,3-3.6c0.5-0.7,1-1.5,1.4-2.2
		c0.4-0.7,0.8-1.4,1.2-2c0.2-0.3,0.4-0.4,0.8-0.5c0.3-0.1,0.6-0.1,0.9,0c0.3,0.1,0.5,0.2,0.6,0.5c0.1,0.2,0.1,0.5-0.1,0.8l-0.9,1.5
		c-0.8,1.2-1.7,2.7-2.8,4.2c-1.1,1.6-2.5,3.1-4.1,4.6c-0.9,0.8-1.8,1.4-2.7,1.8c-0.9,0.4-1.8,0.7-2.6,0.9c-0.8,0.2-1.6,0.3-2.2,0.4
		c-0.7,0-1.2,0-1.6,0c-2.4,0-4.2-0.6-5.5-1.7c-1.3-1.2-2-2.7-2.1-4.7c-0.1-1.8,0.3-3.6,1-5.4c0.7-1.8,1.9-3.8,3.6-5.9
		c0.5-0.7,1.2-1.4,2.1-2.2c0.9-0.8,1.9-1.5,3-2.2c1.1-0.7,2.3-1.2,3.5-1.6c1.2-0.4,2.5-0.6,3.7-0.6c1.2,0,2.2,0.4,2.9,1
		c0.7,0.6,1.1,1.4,1.1,2.4C224.1,481.5,223.7,482.5,223,483.7z"/>
	<path class="st0" d="M261.4,492.3c-0.4,0.7-1.1,1.6-1.8,2.6c-0.8,1-1.6,2-2.6,3c-0.9,1-2,1.8-3.1,2.5c-1.1,0.7-2.2,1-3.3,1
		c-0.6,0-1.2-0.1-1.8-0.3c-0.6-0.2-1.1-0.5-1.5-0.9c-0.4-0.4-0.8-0.9-1.1-1.5c-0.3-0.6-0.4-1.3-0.3-2.2c0-0.8,0.1-1.6,0.3-2.4
		c0.2-0.8,0.4-1.7,0.8-2.6c0.3-0.9,0.7-1.9,1.1-3c0.4-1.1,0.9-2.3,1.5-3.7c0.3-0.6,0.5-1.2,0.7-1.8c0.2-0.6,0.3-1.1,0.3-1.5
		c0-0.3-0.2-0.4-0.6-0.2c-0.4,0.2-1.1,0.6-2,1.4c-1.1,1-2.2,2-3.1,3c-1,1-1.9,2.1-2.8,3.3c-0.5,1.1-1,2.3-1.4,3.6
		c-0.4,1.3-0.8,2.6-1.1,4.1c-0.3,1.4-0.5,2.9-0.6,4.4c0,0.3-0.2,0.4-0.7,0.4c-0.5-0.1-1-0.2-1.6-0.5c-0.6-0.2-1.1-0.5-1.6-0.9
		c-0.5-0.4-0.7-0.7-0.8-1c0.1-2.2,0.5-4.5,1.2-6.8c0.7-2.3,1.5-4.6,2.5-6.9c0.5-1.2,0.8-2.2,1.1-3c0.2-0.8,0.3-1.3,0.1-1.4
		c-0.4,0.1-1.3,0.7-2.7,1.9c-1.1,1-2.1,2-3.1,3c-0.9,1-1.9,2.1-2.9,3.3c-0.8,1.9-1.5,3.8-2.1,5.8c-0.6,2-0.9,4-1.1,6.2
		c0,0.3-0.3,0.4-0.8,0.3c-0.5-0.1-1-0.2-1.5-0.5c-0.5-0.2-1.1-0.5-1.5-0.9c-0.5-0.4-0.7-0.7-0.8-1c0.1-2.4,0.6-4.8,1.4-7.1
		c0.8-2.4,1.6-4.7,2.5-7.1c0.4-1.1,0.9-2.3,1.3-3.5c0.4-1.2,0.8-2.5,1.2-3.9c0.4-0.2,0.9-0.2,1.6,0c0.7,0.2,1.3,0.5,1.9,0.8
		c0.6,0.4,1.1,0.8,1.5,1.4c0.4,0.5,0.5,1.1,0.3,1.6h0c0,0.1,0,0.1,0,0.1c1.2-1.1,2.5-2.1,3.8-2.9c1.3-0.8,2.8-1.2,4.2-1.3
		c0.4,0,0.8,0.1,1.3,0.4c0.5,0.3,0.9,0.6,1.3,1c0.4,0.4,0.7,0.8,0.9,1.3c0.2,0.4,0.2,0.8,0.1,1.2c-0.1,0.1-0.1,0.2-0.1,0.3
		c0,0.1-0.1,0.2-0.1,0.2c1.2-1.2,2.5-2.2,3.9-3c1.4-0.8,2.9-1.3,4.4-1.4c0.4,0,0.8,0.1,1.2,0.4c0.4,0.3,0.9,0.6,1.2,1
		c0.4,0.4,0.7,0.8,0.9,1.3c0.2,0.4,0.2,0.8,0.1,1.2c-0.5,1.5-1.1,2.9-1.6,4.2c-0.5,1.3-1,2.4-1.4,3.3c-0.4,0.8-0.7,1.6-1,2.3
		c-0.3,0.7-0.5,1.4-0.8,2.1c-0.2,0.7-0.4,1.4-0.6,2.2c-0.2,0.7-0.3,1.5-0.3,2.4c0,0.2,0,0.3,0.1,0.5c0.1,0.2,0.3,0.2,0.7,0
		c0.9-0.4,2-1.2,3.2-2.3c1.2-1.1,2.5-2.6,3.8-4.5c0.3-0.4,0.6-0.9,0.9-1.5c0.3-0.6,0.7-1.2,1-1.8l0.5-0.8c0.2-0.3,0.4-0.4,0.8-0.5
		c0.3-0.1,0.6-0.1,0.9,0c0.3,0.1,0.5,0.2,0.6,0.5c0.1,0.2,0.1,0.5-0.1,0.8c-0.4,0.7-0.8,1.4-1.3,2.1
		C262.2,490.9,261.8,491.6,261.4,492.3"/>
	<path class="st0" d="M274.7,486.7c-0.2-0.1-0.3-0.2-0.5-0.5c-0.1-0.2-0.2-0.5-0.2-0.8c0-0.3-0.1-0.6-0.1-1c0-0.3,0-0.6,0-0.9
		c0-0.3,0.2-0.5,0.4-0.8c0.3-0.3,0.5-0.5,0.8-0.7c0.3-0.2,0.6-0.4,0.9-0.6c0.3-0.2,0.5-0.3,0.6-0.4c0.3-0.2,0.6-0.3,0.8-0.3
		c0-0.4-0.2-0.8-0.4-1.2c-0.3-0.3-0.8-0.4-1.5-0.4c-0.6,0.1-1.4,0.3-2.3,0.8c-0.9,0.5-1.8,1.1-2.6,1.9h0c-0.7,0.7-1.4,1.6-2,2.5
		c-0.6,0.9-1.1,1.9-1.5,2.9c-0.4,1-0.7,2-1,3.1c-0.2,1-0.4,2-0.4,2.9c0,1.3,0.3,2.5,0.8,3.4c0.5,0.9,1.4,1.4,2.6,1.5
		c1.2,0.1,2.4-0.4,3.5-1.3c1.2-0.9,2.2-2.1,3.1-3.5c0.9-1.4,1.7-2.9,2.2-4.5c0.6-1.6,0.8-3.1,0.8-4.4c0-0.6-0.1-1-0.2-1.2
		c-0.3,0-0.6,0.1-1,0.4c-0.4,0.2-0.7,0.5-1,0.9c-0.3,0.3-0.6,0.7-0.8,1.1c-0.2,0.4-0.4,0.7-0.4,1.1H274.7z M275.8,477.1
		c0.8,0.1,1.5,0.3,2.1,0.6c0.6,0.3,1,0.6,1.4,1.1c0.4,0.4,0.6,0.9,0.8,1.4c0.2,0.5,0.3,1,0.4,1.5c0.6,0.7,1,1.6,1.2,2.8
		c0,0.2,0.1,0.4,0.1,0.7c0,0.2,0,0.5,0,0.7c0,1.2-0.2,2.4-0.5,3.6c-0.3,1.2-0.8,2.4-1.4,3.6c-0.6,1.2-1.3,2.2-2.2,3.2
		c-0.8,1-1.7,1.9-2.7,2.7c-1,0.8-2,1.4-3.1,1.8c-1.1,0.4-2.2,0.6-3.3,0.6c-2,0-3.7-0.6-5.2-1.8c-1.5-1.2-2.5-2.8-3.1-5
		c-0.2-0.7-0.2-1.4-0.2-2c0-1.8,0.4-3.6,1.3-5.5c0.9-1.9,2.1-3.6,3.6-5.1c1.5-1.5,3.2-2.8,5-3.7
		C271.9,477.3,273.8,476.9,275.8,477.1z"/>
	<path class="st0" d="M302.2,493.2c-0.7,1-1.5,1.9-2.3,2.9c-0.9,1-1.8,1.9-2.9,2.7c-1,0.8-2.1,1.5-3.3,1.9c-1.2,0.5-2.4,0.7-3.7,0.6
		c-1.4-0.1-2.5-0.5-3.1-1.3c-0.7-0.8-1-1.8-1-2.9c0-0.8,0.2-1.6,0.5-2.4c0.3-0.8,0.6-1.5,1-2.3c0.4-0.8,0.9-1.5,1.4-2.2
		c0.5-0.7,1-1.4,1.5-2.1c0.1-0.2,0.3-0.4,0.4-0.6c0.2-0.3,0.3-0.5,0.5-0.6l1.1-1.5c0.6-0.8,1.1-1.5,1.6-2.1c0.5-0.6,0.8-0.9,1-1
		c-0.4,0.1-0.7,0.1-1,0.2c-0.3,0.1-0.6,0.1-0.9,0.2c-0.4,0.1-0.7,0.2-1.1,0.2c-0.4,0.1-0.9,0.1-1.5,0h-0.6c-0.7,1-1.4,2-2.1,3
		c-0.7,1-1.3,2-1.9,3c-0.1,0.2-0.3,0.2-0.6,0.2c-0.3,0-0.5,0-0.8-0.1c-0.3-0.1-0.5-0.2-0.6-0.4s-0.1-0.4,0-0.6
		c0.3-0.4,0.5-0.9,0.8-1.3c0.3-0.5,0.6-0.9,0.8-1.3c0.3-0.5,0.6-1,0.9-1.5c0.3-0.5,0.7-1.1,1-1.6c-0.5-0.4-0.7-0.8-0.7-1.4
		c0-0.4,0.1-0.8,0.2-1.2c0.2-0.5,0.4-0.9,0.6-1.4c0.2-0.5,0.5-1,0.8-1.5c0.3-0.5,0.6-1,0.9-1.4c0.3-0.4,0.5-0.8,0.7-1.2
		c0.2-0.4,0.4-0.8,0.6-1.3c0.9,0.4,1.7,0.8,2.5,1.3c0.8,0.5,1.2,1.2,1.2,1.9c0,0.4-0.1,0.8-0.3,1.3l-2.2,3.1c-0.1,0.2,0,0.3,0.3,0.2
		c0.3-0.1,0.7-0.2,1.3-0.4c0.6-0.2,1.2-0.5,1.9-0.8c0.7-0.3,1.4-0.6,2.1-0.9c0.7-0.3,1.2-0.6,1.8-0.9c0.5-0.3,0.9-0.6,1-0.7
		c0.2,0,0.4,0.1,0.7,0.2c0.3,0.1,0.6,0.3,0.9,0.4c0.3,0.2,0.5,0.3,0.8,0.5c0.2,0.2,0.4,0.3,0.4,0.3c0.3,0.4,0.3,0.8,0.1,1.4
		c-0.2,0.6-0.5,1.2-0.9,1.9c-0.4,0.7-1,1.5-1.7,2.4c-0.7,0.8-1.3,1.7-2,2.6c-0.4,0.5-0.8,1.1-1.2,1.6c-0.4,0.5-0.8,1.1-1.2,1.6
		c-0.3,0.4-0.7,0.8-1.1,1.4c-0.4,0.5-0.8,1.1-1.1,1.7c-0.4,0.6-0.6,1.2-0.9,1.8c-0.2,0.6-0.4,1.1-0.4,1.6c0,0.8,0.3,1.2,0.9,1.2
		c0.4,0,0.8-0.1,1.3-0.4c0.5-0.3,1.1-0.7,1.7-1.2c0.6-0.5,1.2-1.1,1.9-1.7c0.6-0.7,1.2-1.4,1.8-2.1c0.6-0.9,1.1-1.8,1.7-2.7
		c0.6-0.9,1-1.7,1.4-2.3c0.1-0.2,0.3-0.2,0.6-0.3c0.3,0,0.5,0,0.8,0.1c0.3,0.1,0.5,0.2,0.6,0.4c0.2,0.2,0.2,0.4,0,0.6
		c-0.2,0.4-0.4,0.7-0.6,1.1c-0.2,0.4-0.4,0.7-0.6,1.1c-0.3,0.5-0.6,1-0.9,1.5C302.9,492.3,302.6,492.7,302.2,493.2"/>
	<path class="st0" d="M312.6,464c0.4-0.1,0.8,0.1,1.4,0.4c0.6,0.4,1.1,0.8,1.6,1.3c0.5,0.5,1,1,1.3,1.5c0.4,0.5,0.6,0.8,0.6,1
		c-0.1,0.5-0.4,1.1-0.7,1.8c-0.3,0.7-0.7,1.3-1,2c-0.3,0.6-0.6,1.3-0.9,1.9c-0.3,0.6-0.5,1.3-0.8,2.1c-0.4-0.1-0.7-0.2-1.2-0.5
		c-0.4-0.3-0.8-0.6-1.2-0.9c-0.4-0.4-0.7-0.7-0.9-1.1c-0.3-0.4-0.4-0.6-0.4-0.9c0-0.5,0.1-1.1,0.3-1.8c0.1-0.7,0.3-1.4,0.5-2.1
		c0.2-0.8,0.4-1.6,0.6-2.4c0.2-0.8,0.3-1.6,0.4-2.3H312.6z M312.4,481.3l0.1-0.3c0.3-0.4,0.4-0.7,0.4-0.7
		C312.9,480.2,312.7,480.5,312.4,481.3z M307.9,477.2c0.4-0.2,0.8-0.2,1.4,0c0.6,0.2,1.1,0.4,1.6,0.8c0.5,0.4,0.9,0.8,1.3,1.3
		c0.3,0.5,0.5,1,0.4,1.6l-1.7,3.2c-0.5,0.8-1,1.8-1.6,2.8c-0.6,1-1.1,2.1-1.7,3.1c-0.5,1-1.1,2.1-1.5,3.1c-0.5,1-0.9,1.9-1.1,2.7
		c-0.3,0.8-0.4,1.4-0.4,1.9c0,0.5,0.2,0.7,0.6,0.7h0.4c0.9-0.3,1.8-0.8,2.7-1.5c0.9-0.7,1.7-1.5,2.5-2.4c0.8-0.9,1.6-1.8,2.4-2.8
		c0.8-1,1.5-1.9,2.1-2.8l0.7-1c0.1-0.2,0.3-0.2,0.6-0.3c0.3,0,0.6,0,0.8,0.1c0.2,0.1,0.4,0.2,0.6,0.4c0.1,0.2,0.1,0.4-0.1,0.6h0
		c-1.3,2-2.7,3.9-4.1,5.7c-1.5,1.8-3.2,3.5-5.2,5.1c-0.3,0.2-0.6,0.4-1,0.7c-0.4,0.3-0.8,0.5-1.3,0.7c-0.5,0.2-1,0.4-1.6,0.5
		c-0.6,0.1-1.1,0.2-1.7,0.2c-1.2,0-2-0.4-2.5-1.1c-0.5-0.7-0.8-1.6-0.8-2.6c0-0.8,0.2-1.7,0.5-2.7h0c0.2-0.6,0.4-1.3,0.7-2.1
		c0.3-0.8,0.7-1.7,1.1-2.6c0.4-0.9,0.8-1.9,1.3-2.9c0.5-1,0.9-2,1.4-3c0.6-1.4,1.2-2.7,1.8-3.9c0.6-1.2,1-2.4,1.4-3.4H307.9z"/>
	<path class="st0" d="M330.2,479.6c-1.2,0.3-2.4,0.9-3.6,1.8c-1.1,0.9-2.1,2-3,3.3c-0.9,1.2-1.6,2.5-2.3,3.9
		c-0.6,1.3-1.1,2.5-1.3,3.6c2.3-0.8,4.4-2,6.3-3.6c1.9-1.6,3.4-3.5,4.6-5.8c0.3-0.6,0.4-1.2,0.4-1.7c0-0.5-0.1-0.8-0.3-1.1
		C330.8,479.6,330.5,479.5,330.2,479.6 M333,483.7c-1.4,2.5-3.2,4.6-5.5,6.3c-2.3,1.7-4.9,2.9-7.8,3.8v0.4c0,1,0.2,2,0.6,3
		c0.4,1,1,1.6,1.9,1.9c0.6,0.1,1.3,0.1,2.2-0.2c0.9-0.2,1.8-0.7,2.7-1.3c1-0.6,2-1.4,3-2.5c1-1,2-2.2,3-3.6c0.5-0.7,1-1.5,1.4-2.2
		c0.4-0.7,0.8-1.4,1.2-2c0.2-0.3,0.4-0.4,0.8-0.5c0.3-0.1,0.6-0.1,0.9,0c0.3,0.1,0.5,0.2,0.6,0.5c0.1,0.2,0.1,0.5-0.1,0.8l-0.9,1.5
		c-0.8,1.2-1.7,2.7-2.8,4.2c-1.1,1.6-2.5,3.1-4.1,4.6c-0.9,0.8-1.8,1.4-2.7,1.8c-0.9,0.4-1.8,0.7-2.6,0.9c-0.8,0.2-1.6,0.3-2.2,0.4
		c-0.7,0-1.2,0-1.6,0c-2.4,0-4.2-0.6-5.5-1.7c-1.3-1.2-2-2.7-2.1-4.7c-0.1-1.8,0.3-3.6,1-5.4c0.7-1.8,1.9-3.8,3.6-5.9
		c0.5-0.7,1.2-1.4,2.1-2.2c0.9-0.8,1.9-1.5,3-2.2c1.1-0.7,2.3-1.2,3.5-1.6c1.2-0.4,2.5-0.6,3.7-0.6c1.2,0,2.2,0.4,2.9,1
		c0.7,0.6,1.1,1.4,1.1,2.4C334.2,481.5,333.8,482.5,333,483.7z"/>
	<path class="st0" d="M340.2,487.7c0-0.6,0-1.2,0.1-1.8c0.1-0.6,0.2-1.2,0.3-1.9c-0.4,0.6-0.9,1.3-1.3,2c-0.4,0.7-0.9,1.4-1.3,2.1
		l-0.8,1.2c0.5,0.1,1.1,0.3,1.5,0.5c0.1,0.1,0.2,0.3,0.4,0.7c0.2,0.4,0.3,0.8,0.5,1.2c0.1,0.4,0.2,0.9,0.3,1.3c0,0.4,0,0.7-0.2,0.8
		c-0.8-0.6-1.4-1-2-1c-0.4,0-0.8,0.1-1.3,0.2c-0.4,0.2-0.8,0.4-1.2,0.6c-0.3,0.3-0.6,0.6-0.8,1c-0.2,0.4-0.3,0.8-0.3,1.3
		c0,0.3,0,0.6,0.1,0.9c0.1,0.3,0.2,0.5,0.3,0.8c0.4,0.6,0.8,1.1,1.4,1.4c0.5,0.3,1,0.5,1.5,0.5c0.6,0.1,1.1,0,1.5-0.3
		c0.4-0.3,0.8-0.6,1-1c0.3-0.4,0.4-0.9,0.6-1.5c0.1-0.6,0.2-1.2,0.2-1.9c0-0.5,0-1.1-0.1-1.7c0-0.6-0.1-1.2-0.2-1.7
		c-0.1-0.6-0.1-1.2-0.2-1.9C340.2,489,340.2,488.4,340.2,487.7 M330.8,495.9c0-1,0.3-2,0.8-3.1c0.5-1,1.2-1.8,2.1-2.5
		c0.2-0.3,0.4-0.6,0.6-1c0.2-0.3,0.4-0.7,0.6-1c0.8-1.3,1.7-2.7,2.6-4c0.9-1.3,1.8-2.7,2.9-4c0.2-0.3,0.4-0.5,0.5-0.7
		c0.2-0.2,0.3-0.5,0.5-0.7c0.5-0.7,1.1-1.5,1.8-2.4c0.7-0.8,1.7-1.8,2.9-2.9c0.4,0.2,0.9,0.4,1.4,0.7c0.6,0.3,1.1,0.7,1.6,1
		c0.5,0.4,0.8,0.7,1,1.1c0.2,0.4,0.2,0.7-0.1,0.9h0c-0.4,0.4-0.8,0.8-1,1.1c-0.2,0.3-0.5,0.7-0.9,1.2l-0.6,0.9
		c-0.7,1.1-1.1,2.2-1.4,3.4c-0.2,1.2-0.4,2.5-0.4,3.7c0,0.6,0,1.3,0,1.9c0,0.6,0.1,1.3,0.1,1.9l0.1,2.6c0,1.2-0.1,2.2-0.5,3.2
		c-0.4,1-0.9,1.8-1.7,2.5c-0.7,0.7-1.6,1.2-2.6,1.5c-1,0.3-2.1,0.5-3.3,0.4c-2.5-0.2-4.3-0.9-5.4-2
		C331.4,498.6,330.8,497.3,330.8,495.9z"/>
	<path class="st0" d="M359.4,484.3c1.5-4.3,3.6-8,6.3-11.2c2.7-3.2,5.8-5.8,9.2-8c3.4-2.1,7-3.8,10.7-4.9c3.8-1.1,7.5-1.8,11.1-2
		c0.8,0,1.4,0.1,2,0.4c0.6,0.3,1,0.6,1.3,0.9c0.3,0.3,0.5,0.7,0.6,1c0.1,0.3,0,0.6-0.1,0.7h0.1c-0.1,0.2-0.4,0.7-0.9,1.6
		c-0.5,0.9-1.2,2.1-1.9,3.6c-0.8,1.5-1.7,3.2-2.6,5.1c-1,1.9-1.9,3.9-2.9,6c-1,2.1-1.9,4.3-2.9,6.5c-0.9,2.2-1.8,4.4-2.5,6.4
		c-0.7,2.1-1.3,4.1-1.8,5.9c-0.4,1.9-0.7,3.5-0.7,4.9c0,1.8,0.3,3.1,1,3.7h0c0.4,0.3,0.8,0.5,1.1,0.5c0.4,0,0.9-0.1,1.4-0.4
		c0.5-0.2,0.9-0.4,1.3-0.6h0c0.4-0.3,0.8-0.4,1-0.5c0.2-0.1,0.4,0,0.4,0.3c0.1,0.6,0.1,1.2-0.1,1.8c-0.2,0.6-0.5,1-0.9,1.3h0
		c-0.5,0.4-1,0.6-1.6,0.8c-0.5,0.2-1.1,0.2-1.6,0.2c-1.1,0-2.3-0.4-3.5-1.1c-1.2-0.8-2.1-1.8-2.7-3.1c-0.5-1.3-0.8-2.8-0.8-4.5
		c0-1.6,0.2-3.5,0.6-5.5c0.4-2,1-4.1,1.7-6.2c0.7-2.1,1.5-4.3,2.4-6.5c0.9-2.2,1.8-4.3,2.7-6.4c0.9-2.1,1.9-4.1,2.8-5.9
		c0.9-1.9,1.8-3.5,2.5-5c0.2-0.4,0.4-0.8,0.5-1.1c0.1-0.3,0.2-0.6,0.2-0.8c0-0.3-0.4-0.3-1.2-0.1c-2.4,0.4-4.7,1.2-6.9,2.2
		c-2.2,1.1-4.3,2.3-6.2,3.7c-1.9,1.4-3.7,3-5.4,4.8c-1.6,1.7-3.1,3.5-4.3,5.3c-1.2,1.8-2.2,3.6-3,5.3c-0.8,1.7-1.2,3.3-1.4,4.8
		c-0.7,0-1.4-0.2-2.1-0.4c-0.7-0.2-1.3-0.5-1.8-0.8c-0.5-0.4-0.9-0.8-1.1-1.2C359.3,485.4,359.2,484.9,359.4,484.3"/>
	<path class="st0" d="M416.3,492.3c-0.4,0.7-1.1,1.6-1.8,2.6c-0.8,1-1.6,2-2.6,3c-1,1-2,1.8-3.1,2.5c-1.1,0.7-2.2,1-3.2,1
		c-0.6,0-1.2-0.1-1.8-0.3c-0.6-0.2-1.1-0.5-1.5-0.9c-0.4-0.4-0.8-0.9-1.1-1.5c-0.3-0.6-0.4-1.3-0.3-2.2c0-0.8,0.1-1.6,0.3-2.4
		c0.2-0.8,0.4-1.7,0.8-2.6c0.3-0.9,0.7-1.9,1.1-3c0.4-1.1,0.9-2.3,1.5-3.7c0.3-0.6,0.5-1.2,0.6-1.8c0.2-0.6,0.3-1.1,0.3-1.5
		c0-0.3-0.2-0.4-0.6-0.3c-0.4,0.1-1.1,0.6-2,1.4c-1.1,1-2.1,2-3.1,3c-0.9,1-1.9,2.1-2.9,3.3c-0.8,1.9-1.5,3.8-2.1,5.8
		c-0.6,2-0.9,4-1.1,6.2c0,0.3-0.3,0.4-0.8,0.3c-0.5-0.1-1-0.2-1.5-0.5c-0.5-0.2-1.1-0.5-1.5-0.9c-0.5-0.4-0.7-0.7-0.8-1
		c0.1-2.4,0.6-4.8,1.4-7.1c0.8-2.4,1.6-4.7,2.5-7.1c0.4-1.1,0.9-2.3,1.3-3.5c0.4-1.2,0.8-2.5,1.2-3.9c0.4-0.2,0.9-0.2,1.6,0
		c0.7,0.2,1.3,0.5,1.9,0.8c0.6,0.4,1.1,0.8,1.5,1.4c0.4,0.5,0.5,1.1,0.3,1.6h0c0,0.1,0,0.1,0,0.1c1.2-1.1,2.5-2.1,3.8-2.9
		c1.3-0.8,2.8-1.2,4.2-1.3c0.4,0,0.8,0.1,1.2,0.4c0.4,0.3,0.9,0.6,1.2,1c0.4,0.4,0.7,0.8,0.9,1.3c0.2,0.4,0.3,0.8,0.2,1.2
		c-0.5,1.5-1.1,2.9-1.7,4.2c-0.6,1.3-1,2.4-1.5,3.3c-0.4,0.8-0.7,1.6-1,2.3c-0.3,0.7-0.6,1.4-0.8,2.1c-0.2,0.7-0.4,1.4-0.6,2.1
		c-0.1,0.7-0.2,1.6-0.3,2.5c0,0.2,0,0.3,0.1,0.5c0.1,0.2,0.3,0.2,0.7,0.1c0.8-0.4,1.9-1.2,3.1-2.3c1.2-1.1,2.5-2.6,3.8-4.5
		c0.6-0.9,1.2-1.8,1.7-2.7l0.8-1.3c0.1-0.2,0.3-0.2,0.6-0.3c0.3,0,0.5,0,0.8,0.1c0.3,0.1,0.5,0.2,0.6,0.4c0.2,0.2,0.2,0.4,0,0.6
		L416.3,492.3z"/>
	<path class="st0" d="M417.8,477.4c-0.3,0.1-0.5,0.1-0.8,0c-0.2-0.1-0.4-0.2-0.5-0.3c-0.1-0.1-0.2-0.3-0.1-0.5
		c0-0.2,0.2-0.3,0.4-0.5c2.3-1.5,4.6-2.7,6.9-3.7c1.8-3.8,3-7,3.7-9.8c0.4-0.2,0.9-0.2,1.6,0c0.7,0.2,1.3,0.4,1.9,0.8
		c0.6,0.4,1.1,0.8,1.5,1.4c0.4,0.5,0.5,1.1,0.3,1.6c-0.1,0.3-0.3,0.8-0.6,1.5c-0.3,0.7-0.6,1.4-1.1,2.2c2.4-0.5,4.8-0.7,7.3-0.7
		c0.3,0,0.7,0,1.2,0c0.5,0,0.9,0,1.2,0.1c0.1,0.3,0.1,0.5,0,0.9c-0.1,0.3-0.2,0.6-0.5,0.9c-0.2,0.3-0.5,0.5-0.7,0.7
		c-0.3,0.2-0.6,0.2-0.9,0.2c-0.4,0-0.8-0.1-1.1-0.1c-0.4,0-0.7,0-1.1,0c-1.1,0-2.2,0.1-3.3,0.2c-1.1,0.1-2.2,0.3-3.3,0.6l-2.3,4.4
		l-0.3,0.6c-0.3,0.5-0.7,1.3-1.2,2.3c-0.5,1-1,2.1-1.6,3.3c-0.6,1.2-1.2,2.5-1.8,3.8c-0.6,1.3-1.1,2.6-1.6,3.8
		c-0.5,1.2-0.9,2.4-1.2,3.4c-0.3,1.1-0.5,1.9-0.5,2.6c0,0.7,0.1,1.1,0.2,1.3h0.4c0.9-0.3,1.7-0.8,2.5-1.5c0.8-0.7,1.6-1.5,2.3-2.4
		c0.7-0.9,1.4-1.8,2.1-2.8c0.7-1,1.3-2,1.8-2.9h0c0.2-0.3,0.3-0.5,0.5-0.7c0.2-0.2,0.3-0.5,0.5-0.7c0.1-0.2,0.3-0.2,0.6-0.3
		c0.3,0,0.5,0,0.8,0.1c0.3,0.1,0.5,0.2,0.6,0.4c0.2,0.2,0.2,0.4,0.1,0.6l-1.2,2c-0.5,0.8-1,1.6-1.5,2.4c-0.5,0.8-1.1,1.7-1.7,2.5
		c-0.6,0.8-1.2,1.6-1.9,2.4c-0.7,0.8-1.4,1.4-2.1,2c-0.2,0.2-0.5,0.4-0.9,0.7c-0.4,0.3-0.8,0.5-1.2,0.7c-0.5,0.2-1,0.4-1.6,0.5
		c-0.6,0.1-1.2,0.2-1.8,0.2c-1.3-0.1-2.3-0.5-2.8-1.3c-0.6-0.8-0.9-1.9-0.9-3.1c0-0.3,0-0.6,0-0.9c0-0.4,0.1-0.7,0.1-1
		c0.2-1.4,0.6-2.9,1-4.3c0.5-1.4,1-2.9,1.6-4.3c0.6-1.4,1.2-2.8,1.9-4.3c0.7-1.4,1.4-2.8,2.2-4.2l1.4-2.8c-0.7,0.3-1.5,0.6-2.2,1
		C419.4,476.6,418.6,477,417.8,477.4L417.8,477.4z"/>
	<path class="st0" d="M442.5,486.7c-0.2-0.1-0.3-0.2-0.5-0.5c-0.1-0.2-0.2-0.5-0.2-0.8c0-0.3-0.1-0.6-0.1-1c0-0.3,0-0.6,0-0.9
		c0-0.3,0.2-0.5,0.4-0.8c0.3-0.3,0.5-0.5,0.8-0.7c0.3-0.2,0.6-0.4,0.9-0.6c0.3-0.2,0.5-0.3,0.6-0.4c0.3-0.2,0.6-0.3,0.8-0.3
		c0-0.4-0.2-0.8-0.4-1.2c-0.3-0.3-0.8-0.4-1.5-0.4c-0.6,0.1-1.4,0.3-2.3,0.8c-0.9,0.5-1.8,1.1-2.6,1.9h0c-0.7,0.7-1.4,1.6-2,2.5
		c-0.6,0.9-1.1,1.9-1.5,2.9c-0.4,1-0.7,2-1,3.1c-0.2,1-0.4,2-0.4,2.9c0,1.3,0.3,2.5,0.8,3.4c0.5,0.9,1.4,1.4,2.6,1.5
		c1.2,0.1,2.4-0.4,3.5-1.3c1.2-0.9,2.2-2.1,3.1-3.5c0.9-1.4,1.7-2.9,2.2-4.5c0.6-1.6,0.8-3.1,0.8-4.4c0-0.6-0.1-1-0.2-1.2
		c-0.3,0-0.6,0.1-1,0.4c-0.4,0.2-0.7,0.5-1,0.9c-0.3,0.3-0.6,0.7-0.8,1.1c-0.2,0.4-0.4,0.7-0.4,1.1H442.5z M443.6,477.1
		c0.8,0.1,1.5,0.3,2.1,0.6c0.6,0.3,1,0.6,1.4,1.1c0.4,0.4,0.6,0.9,0.8,1.4c0.2,0.5,0.3,1,0.4,1.5c0.6,0.7,1,1.6,1.2,2.8
		c0,0.2,0.1,0.4,0.1,0.7c0,0.2,0,0.5,0,0.7c0,1.2-0.2,2.4-0.5,3.6c-0.3,1.2-0.8,2.4-1.4,3.6c-0.6,1.2-1.3,2.2-2.2,3.2
		s-1.7,1.9-2.7,2.7c-1,0.8-2,1.4-3.1,1.8c-1.1,0.4-2.2,0.6-3.3,0.6c-2,0-3.7-0.6-5.2-1.8c-1.5-1.2-2.5-2.8-3.1-5
		c-0.2-0.7-0.2-1.4-0.2-2c0-1.8,0.4-3.6,1.3-5.5c0.9-1.9,2.1-3.6,3.6-5.1c1.5-1.5,3.2-2.8,5-3.7
		C439.6,477.3,441.6,476.9,443.6,477.1z"/>
	<path class="st0" d="M518.9,474.6c-1,1-2,2-3.1,3.1c-1.1,1.1-2.2,2.1-3.3,3.1c0.3,0,0.6,0,0.9,0c0.3,0,0.6,0,0.9,0c0.7,0,1.3,0,2,0
		c0.6,0,1.3,0,1.9,0.1c1.1-1.8,2.2-3.6,3.4-5.4c1.2-1.8,2.3-3.6,3.5-5.4l2.1-3.3c-1.4,1.3-2.8,2.6-4.2,3.9
		C521.6,471.9,520.2,473.2,518.9,474.6 M493.5,486.5c-0.2,0.1-0.5,0-1-0.2c-0.4-0.2-0.8-0.4-1.2-0.7c-0.4-0.3-0.6-0.6-0.8-0.8
		c-0.2-0.3-0.2-0.5-0.1-0.7c2.7-0.6,5.4-1.2,8.1-1.7c2.7-0.5,5.5-0.9,8.3-1.2c2.1-1.9,4.1-3.8,6.1-5.7c2-1.9,3.9-3.7,5.6-5.5
		c1.8-1.8,3.4-3.5,5-5c1.5-1.6,2.9-3,4.1-4.3c1.2-1.3,2.2-2.4,3-3.3c0.8-0.9,1.4-1.6,1.7-2c0.2-0.1,0.6,0,1.1,0.3
		c0.5,0.3,1,0.6,1.5,1c0.5,0.4,0.9,0.8,1.2,1.2c0.3,0.4,0.4,0.7,0.3,0.8l-0.2,0.2c0.2,0.1,0.2,0.1,0.2,0.2c-0.4,0.9-0.8,2-1.5,3.3
		c-0.6,1.3-1.4,2.7-2.2,4.3c-0.8,1.5-1.8,3.2-2.8,4.9c-1,1.7-2,3.5-3,5.2c-1.6,2.8-3.3,5.6-4.9,8.4c-1.6,2.8-3,5.4-4.2,7.8
		c-1.2,2.4-2.1,4.5-2.7,6.4c-0.6,1.8-0.7,3.2-0.3,4c0.3,0.5,0.5,0.9,0.8,1.1h-0.1c0.2,0.2,0.3,0.3,0.3,0.5c0,0.2-0.1,0.3-0.2,0.5
		c-0.1,0.1-0.3,0.2-0.6,0.3c-0.2,0-0.5,0-0.7-0.1c-1.7-0.1-2.9-0.7-3.6-1.6c-0.7-0.9-1-2-1-3.3c0-0.6,0.1-1.2,0.2-1.8
		c0.1-0.6,0.2-1.2,0.4-1.9c0.2-0.6,0.3-1.2,0.5-1.7c0.2-0.5,0.4-1,0.5-1.5c0.8-1.8,1.6-3.6,2.6-5.4c1-1.8,2-3.7,3.1-5.6
		c-0.6,0-1.2-0.1-1.8-0.1c-0.6,0-1.1,0-1.7,0c-0.5,0-1.1,0-1.6,0c-0.5,0-1,0-1.6,0.1l-2.2,2l-2.5,2.3c-2.2,2.1-4.5,4.2-7,6.4
		c-2.5,2.2-5,4.2-7.6,6.1c-2.6,1.8-5.3,3.4-8,4.6c-2.7,1.2-5.5,1.9-8.3,2c-2.6,0.1-4.8-0.1-6.8-0.8c-1.9-0.7-3.5-1.6-4.7-2.7
		c-1.2-1.2-2.2-2.5-2.8-4.1c-0.6-1.6-0.9-3.2-0.9-5c0-1.9,0.4-3.9,1.1-5.8c0.8-1.9,1.9-3.7,3.3-5.3c1.5-1.6,3.3-2.8,5.4-3.8
		c2.1-1,4.6-1.5,7.4-1.6c2.2,0,4.1,0.4,5.7,1.3c1.6,0.9,2.8,2.2,3.7,3.9h0c0.1,0.3,0.1,0.6,0,1.1c-0.1,0.5-0.2,0.9-0.3,1.4
		c-0.2,0.4-0.4,0.8-0.6,1c-0.2,0.2-0.5,0.2-0.7-0.1c-0.4-0.5-0.8-1.1-1.3-1.8c-0.5-0.7-1.2-1.3-1.8-1.8c-0.7-0.5-1.4-1-2.2-1.4
		c-0.8-0.4-1.7-0.6-2.6-0.6c-2.2-0.1-4.2,0.3-5.9,1c-1.7,0.8-3.2,1.8-4.4,3c-1.2,1.3-2.1,2.7-2.7,4.3c-0.6,1.6-0.9,3.2-0.9,4.8
		c0,1.3,0.2,2.6,0.6,3.8c0.4,1.2,1.1,2.3,2,3.2c0.9,0.9,2,1.7,3.3,2.2c1.3,0.6,2.9,0.8,4.8,0.8c0.3,0,0.5,0,0.7,0c0.2,0,0.5,0,0.7,0
		c2.1-0.1,4.4-0.8,6.7-2c2.3-1.2,4.8-2.7,7.3-4.5c2.5-1.8,5-3.9,7.6-6.2c2.6-2.3,5.2-4.7,7.8-7.2C501,483.8,497.4,484.9,493.5,486.5
		L493.5,486.5z"/>
	<path class="st0" d="M543.3,493.2c-0.7,1-1.5,1.9-2.3,2.9c-0.9,1-1.8,1.9-2.9,2.7c-1,0.8-2.1,1.5-3.3,1.9c-1.2,0.5-2.4,0.7-3.7,0.6
		c-1.4-0.1-2.5-0.5-3.1-1.3c-0.7-0.8-1-1.8-1-2.9c0-0.8,0.2-1.6,0.5-2.4c0.3-0.8,0.6-1.5,1-2.3c0.4-0.8,0.9-1.5,1.4-2.2
		c0.5-0.7,1-1.4,1.5-2.1c0.1-0.2,0.3-0.4,0.4-0.6c0.2-0.3,0.3-0.5,0.5-0.6l1.1-1.5c0.6-0.8,1.1-1.5,1.6-2.1c0.5-0.6,0.8-0.9,1-1
		c-0.4,0.1-0.7,0.1-1,0.2c-0.3,0.1-0.6,0.1-0.9,0.2c-0.4,0.1-0.7,0.2-1.1,0.2c-0.4,0.1-0.9,0.1-1.5,0H531c-0.7,1-1.4,2-2.1,3
		c-0.7,1-1.3,2-1.9,3c-0.1,0.2-0.3,0.2-0.6,0.2c-0.3,0-0.5,0-0.8-0.1c-0.3-0.1-0.5-0.2-0.6-0.4s-0.1-0.4,0-0.6
		c0.3-0.4,0.5-0.9,0.8-1.3c0.3-0.5,0.6-0.9,0.8-1.3c0.3-0.5,0.6-1,0.9-1.5c0.3-0.5,0.7-1.1,1-1.6c-0.5-0.4-0.7-0.8-0.7-1.4
		c0-0.4,0.1-0.8,0.2-1.2c0.2-0.5,0.4-0.9,0.6-1.4c0.2-0.5,0.5-1,0.8-1.5c0.3-0.5,0.6-1,0.9-1.4c0.3-0.4,0.5-0.8,0.7-1.2
		c0.2-0.4,0.4-0.8,0.6-1.3c0.9,0.4,1.7,0.8,2.5,1.3c0.8,0.5,1.2,1.2,1.2,1.9c0,0.4-0.1,0.8-0.3,1.3l-2.2,3.1c-0.1,0.2,0,0.3,0.3,0.2
		c0.3-0.1,0.7-0.2,1.3-0.4c0.6-0.2,1.2-0.5,1.9-0.8c0.7-0.3,1.4-0.6,2.1-0.9c0.7-0.3,1.3-0.6,1.8-0.9c0.5-0.3,0.9-0.6,1-0.7
		c0.2,0,0.4,0.1,0.7,0.2c0.3,0.1,0.6,0.3,0.9,0.4c0.3,0.2,0.5,0.3,0.8,0.5c0.2,0.2,0.4,0.3,0.4,0.3c0.3,0.4,0.3,0.8,0.1,1.4
		c-0.2,0.6-0.5,1.2-0.9,1.9c-0.4,0.7-1,1.5-1.7,2.4c-0.7,0.8-1.3,1.7-2,2.6c-0.4,0.5-0.8,1.1-1.2,1.6c-0.4,0.5-0.8,1.1-1.2,1.6
		c-0.3,0.4-0.7,0.8-1.1,1.4c-0.4,0.5-0.8,1.1-1.1,1.7c-0.4,0.6-0.6,1.2-0.9,1.8c-0.2,0.6-0.4,1.1-0.4,1.6c0,0.8,0.3,1.2,0.9,1.2
		c0.4,0,0.8-0.1,1.3-0.4c0.5-0.3,1.1-0.7,1.7-1.2c0.6-0.5,1.2-1.1,1.9-1.7c0.6-0.7,1.2-1.4,1.8-2.1c0.6-0.9,1.1-1.8,1.7-2.7
		c0.6-0.9,1-1.7,1.4-2.3c0.1-0.2,0.3-0.2,0.6-0.3c0.3,0,0.5,0,0.8,0.1c0.3,0.1,0.5,0.2,0.6,0.4c0.2,0.2,0.2,0.4,0,0.6
		c-0.2,0.4-0.4,0.7-0.6,1.1c-0.2,0.4-0.4,0.7-0.6,1.1c-0.3,0.5-0.6,1-0.9,1.5C544,492.3,543.7,492.7,543.3,493.2"/>
	<path class="st0" d="M545.5,477.4c-0.3,0.1-0.5,0.1-0.8,0c-0.2-0.1-0.4-0.2-0.5-0.3c-0.1-0.1-0.2-0.3-0.1-0.5
		c0-0.2,0.2-0.3,0.4-0.5c2.3-1.5,4.6-2.7,6.9-3.7c1.8-3.8,3-7,3.7-9.8c0.4-0.2,0.9-0.2,1.6,0c0.7,0.2,1.3,0.4,1.9,0.8
		c0.6,0.4,1.1,0.8,1.5,1.4c0.4,0.5,0.5,1.1,0.3,1.6c-0.1,0.3-0.3,0.8-0.6,1.5c-0.3,0.7-0.6,1.4-1.1,2.2c2.4-0.5,4.8-0.7,7.3-0.7
		c0.3,0,0.7,0,1.2,0c0.5,0,0.9,0,1.2,0.1c0.1,0.3,0.1,0.5,0,0.9c-0.1,0.3-0.2,0.6-0.5,0.9c-0.2,0.3-0.5,0.5-0.7,0.7
		c-0.3,0.2-0.6,0.2-0.9,0.2c-0.4,0-0.8-0.1-1.1-0.1c-0.4,0-0.7,0-1.1,0c-1.1,0-2.2,0.1-3.3,0.2c-1.1,0.1-2.2,0.3-3.3,0.6l-2.3,4.4
		l-0.3,0.6c-0.3,0.5-0.7,1.3-1.2,2.3c-0.5,1-1,2.1-1.6,3.3c-0.6,1.2-1.2,2.5-1.8,3.8c-0.6,1.3-1.1,2.6-1.6,3.8
		c-0.5,1.2-0.9,2.4-1.2,3.4c-0.3,1.1-0.5,1.9-0.5,2.6c0,0.7,0.1,1.1,0.2,1.3h0.4c0.9-0.3,1.7-0.8,2.5-1.5c0.8-0.7,1.6-1.5,2.3-2.4
		c0.7-0.9,1.4-1.8,2.1-2.8c0.7-1,1.3-2,1.8-2.9h0c0.2-0.3,0.3-0.5,0.5-0.7c0.2-0.2,0.3-0.5,0.5-0.7c0.1-0.2,0.3-0.2,0.6-0.3
		c0.3,0,0.5,0,0.8,0.1c0.3,0.1,0.5,0.2,0.6,0.4c0.2,0.2,0.2,0.4,0.1,0.6l-1.2,2c-0.5,0.8-1,1.6-1.5,2.4c-0.5,0.8-1.1,1.7-1.7,2.5
		c-0.6,0.8-1.2,1.6-1.9,2.4c-0.7,0.8-1.4,1.4-2.1,2c-0.2,0.2-0.5,0.4-0.9,0.7c-0.4,0.3-0.8,0.5-1.2,0.7c-0.5,0.2-1,0.4-1.6,0.5
		c-0.6,0.1-1.2,0.2-1.8,0.2c-1.3-0.1-2.3-0.5-2.8-1.3c-0.6-0.8-0.9-1.9-0.9-3.1c0-0.3,0-0.6,0-0.9c0-0.4,0.1-0.7,0.1-1
		c0.2-1.4,0.6-2.9,1-4.3c0.5-1.4,1-2.9,1.6-4.3c0.6-1.4,1.2-2.8,1.9-4.3c0.7-1.4,1.4-2.8,2.2-4.2l1.4-2.8c-0.7,0.3-1.5,0.6-2.2,1
		C547,476.6,546.3,477,545.5,477.4L545.5,477.4z"/>
</g>
</svg>
