<?xml version="1.0" encoding="UTF-8"?>
<svg id="Layer_1" xmlns="http://www.w3.org/2000/svg" version="1.1" viewBox="0 0 1080 1080">
  <!-- Generator: Adobe Illustrator 30.0.0, SVG Export Plug-In . SVG Version: 2.1.1 Build 123)  -->
  <defs>
    <style>
      .st0 {
        fill: #9e9e9e;
      }
    </style>
  </defs>
  <path class="st0" d="M227.6,407.56H37.28c-20.56,0-37.28,16.72-37.28,37.28v190.32c0,20.56,16.72,37.28,37.28,37.28h190.32c20.56,0,37.28-16.72,37.28-37.28v-190.32c0-20.56-16.72-37.28-37.28-37.28ZM189.21,574.54l-22.25,22.26,44.18,44.16h-62.96v-201.93h62.97l-43.88,43.88,22.26,22.25,43.87-43.87v157.42l-44.19-44.17ZM31.48,635.16v-79.42h55.16v-31.48H31.48v-79.42c0-3.2,2.6-5.8,5.8-5.8h79.42v201.93H37.28c-3.2,0-5.8-2.6-5.8-5.8Z"/>
  <g>
    <path class="st0" d="M391.42,413.49v24.79h-30.56v84.36h-29.63v-84.36h-30.56v-24.79h90.75Z"/>
    <path class="st0" d="M435.86,438.44c-1.87,0-3.09.34-3.66,1.01-.57.68-.86,1.9-.86,3.66v12.63h45.06v24.95h-45.06v12.63c0,1.77.28,2.99.86,3.66.57.68,1.79,1.01,3.66,1.01h48.34v24.79h-64.55c-6.76,0-11.44-1.58-14.03-4.76-2.6-3.17-3.9-7.93-3.9-14.27v-70.95c0-6.44,1.3-11.25,3.9-14.42,2.6-3.17,7.28-4.76,14.03-4.76h64.55v24.79h-48.34Z"/>
    <path class="st0" d="M553.9,468.22l38.05,54.58h-32.12l-30.25-43.04v43.04h-29.63v-109.15h29.63v43.04l30.25-43.04h32.12l-38.05,54.58Z"/>
    <path class="st0" d="M359.3,640.69c2.08,0,4.11-.23,6.08-.7,1.97-.47,3.82-1.35,5.54-2.65,1.71-1.3,3.2-3.14,4.44-5.53,1.25-2.39,2.18-5.51,2.81-9.36h28.22c-.52,5.92-1.56,11.49-3.12,16.68-1.56,5.2-4.13,9.75-7.72,13.64-3.59,3.9-8.42,6.99-14.5,9.28-6.08,2.29-13.8,3.43-23.16,3.43h-2.18c-10.6,0-19.23-1.45-25.88-4.37-6.65-2.91-11.8-6.86-15.44-11.85-3.64-4.99-6.11-10.86-7.41-17.62-1.3-6.76-1.95-13.98-1.95-21.67s.65-14.91,1.95-21.67c1.3-6.76,3.77-12.63,7.41-17.62,3.64-4.99,8.78-8.94,15.44-11.85,6.65-2.91,15.28-4.37,25.88-4.37h2.18c9.36,0,17.07,1.12,23.16,3.35,6.08,2.24,10.91,5.3,14.5,9.2,3.59,3.9,6.16,8.47,7.72,13.72,1.56,5.25,2.6,10.84,3.12,16.76h-28.22c-.62-3.84-1.56-6.96-2.81-9.36-1.25-2.39-2.73-4.23-4.44-5.54-1.72-1.3-3.56-2.18-5.54-2.65-1.98-.47-4-.7-6.08-.7h-4.99c-2.49,0-4.91.39-7.25,1.17-2.34.78-4.42,2.31-6.24,4.6-1.82,2.29-3.3,5.41-4.44,9.36-1.14,3.95-1.71,9.15-1.71,15.59s.57,11.52,1.71,15.51c1.14,4,2.62,7.15,4.44,9.43,1.82,2.29,3.9,3.82,6.24,4.6,2.34.78,4.76,1.17,7.25,1.17h4.99Z"/>
    <path class="st0" d="M513.05,555.4v109.15h-29.32v-18.09h-36.02l-7.33,18.09h-31.5l32.9-79.52c2.5-6.03,4.91-10.97,7.25-14.81,2.34-3.84,5.01-6.86,8.03-9.04,3.01-2.18,6.63-3.69,10.84-4.52,4.21-.83,9.48-1.25,15.83-1.25h29.32ZM483.73,580.35c-3.43.52-6.52,2.44-9.28,5.77-2.76,3.33-5.54,8.42-8.34,15.28l-8.26,20.27h25.88v-41.32Z"/>
    <path class="st0" d="M603.02,607.17c5.92,2.18,10.29,5.59,13.1,10.21,2.81,4.63,4.21,10.21,4.21,16.76,0,3.74-.57,7.43-1.72,11.07-1.15,3.64-2.86,6.89-5.15,9.75-2.29,2.86-5.12,5.17-8.5,6.94-3.38,1.77-7.3,2.65-11.77,2.65h-61.44v-109.15h56.14c4.57,0,8.55.78,11.93,2.34,3.38,1.56,6.18,3.66,8.42,6.31,2.23,2.65,3.92,5.67,5.07,9.04,1.14,3.38,1.72,6.94,1.72,10.68,0,5.61-.96,10.35-2.89,14.19-1.92,3.85-4.97,6.91-9.12,9.2ZM561.38,596.56h14.81c2.7,0,5.01-.49,6.94-1.48,1.92-.99,2.89-3.25,2.89-6.78s-.96-5.64-2.89-6.63c-1.93-.99-4.24-1.48-6.94-1.48h-14.81v16.37ZM581.5,639.75c2.6,0,4.88-.88,6.86-2.65,1.97-1.77,2.96-4.42,2.96-7.95,0-3.22-.86-5.59-2.57-7.09-1.72-1.51-3.77-2.36-6.16-2.57h-21.21v20.27h20.12Z"/>
    <path class="st0" d="M634.82,664.55v-109.15h29.63v109.15h-29.63Z"/>
    <path class="st0" d="M782.49,555.4v109.15h-20.89c-3.43,0-6.42-.23-8.97-.7-2.55-.47-4.83-1.27-6.86-2.42-2.03-1.14-3.85-2.75-5.46-4.83-1.61-2.08-3.2-4.68-4.76-7.8l-22.92-45.69v61.44h-29.63v-109.15h20.43c3.84,0,7.12.29,9.82.86,2.7.57,5.01,1.51,6.94,2.81,1.92,1.3,3.61,2.99,5.07,5.07,1.45,2.08,2.91,4.58,4.37,7.48l23.23,46.47v-62.68h29.63Z"/>
    <path class="st0" d="M834.72,580.19c-1.87,0-3.09.34-3.66,1.01-.57.68-.86,1.9-.86,3.66v12.63h45.06v24.95h-45.06v12.63c0,1.77.28,2.99.86,3.66.57.68,1.79,1.01,3.66,1.01h48.34v24.79h-64.55c-6.76,0-11.44-1.58-14.03-4.76-2.6-3.17-3.9-7.93-3.9-14.27v-70.95c0-6.44,1.3-11.25,3.9-14.42,2.6-3.17,7.27-4.76,14.03-4.76h64.55v24.79h-48.34Z"/>
    <path class="st0" d="M981.92,555.24v24.79h-30.56v84.36h-29.63v-84.36h-30.56v-24.79h90.75Z"/>
    <path class="st0" d="M1042.89,599.06c5.92.42,11.17,1.2,15.75,2.34,4.57,1.15,8.44,2.83,11.62,5.07,3.17,2.24,5.59,5.09,7.25,8.58,1.66,3.48,2.5,7.82,2.5,13.02s-.73,10.42-2.18,15.05c-1.46,4.63-3.93,8.58-7.41,11.85-3.48,3.28-8.11,5.85-13.88,7.72-5.77,1.87-12.97,2.81-21.6,2.81-6.97,0-13.2-.49-18.71-1.48-5.51-.99-10.21-2.83-14.11-5.54-3.9-2.7-6.91-6.49-9.04-11.38-2.13-4.88-3.3-11.23-3.51-19.02h26.04c0,4.58,1.92,7.95,5.77,10.14,3.84,2.18,8.63,3.27,14.34,3.27,6.65,0,11.36-.91,14.11-2.73,2.75-1.82,4.13-4.39,4.13-7.72,0-2.29-.73-4-2.18-5.15-1.46-1.14-3.43-2-5.93-2.57-2.49-.57-5.36-.94-8.58-1.09-3.22-.16-6.65-.39-10.29-.7-4.78-.31-9.38-.96-13.8-1.95-4.42-.99-8.32-2.55-11.7-4.68-3.38-2.13-6.08-5.04-8.11-8.73-2.03-3.69-3.04-8.45-3.04-14.27,0-6.65.96-12.34,2.89-17.07,1.92-4.73,4.73-8.6,8.42-11.62,3.69-3.01,8.24-5.22,13.64-6.63,5.4-1.4,11.59-2.11,18.56-2.11,13.93,0,24.56,3.1,31.89,9.28,7.33,6.19,11.2,16.24,11.62,30.17h-26.04c0-5.61-1.4-9.75-4.21-12.4-2.81-2.65-7.23-3.98-13.25-3.98-3.12,0-5.74.29-7.87.86-2.13.57-3.82,1.38-5.07,2.42-1.25,1.04-2.13,2.26-2.65,3.66-.52,1.4-.78,2.89-.78,4.44,0,2.29.65,4.05,1.95,5.3,1.3,1.25,3.09,2.21,5.38,2.89,2.29.68,4.99,1.12,8.11,1.33,3.12.21,6.44.42,9.98.62Z"/>
  </g>
</svg>