<?xml version="1.0" encoding="utf-8"?>
<!-- Generator: Adobe Illustrator 29.8.3, SVG Export Plug-In . SVG Version: 9.03 Build 0)  -->
<svg version="1.0" id="Layer_1" xmlns="http://www.w3.org/2000/svg" xmlns:xlink="http://www.w3.org/1999/xlink" x="0px" y="0px"
	 viewBox="0 0 409 241.3" style="enable-background:new 0 0 409 241.3;" xml:space="preserve">
<style type="text/css">
	.st0{fill:#757575;}
</style>
<g>
	<g>
		<path class="st0" d="M338,0c-1.1,19.8-8.1,38.3-20.5,53.6c-7.3,9-15.8,19.2-23.7,27.6c-1.8,2-3.9,3.8-5.9,5.6
			c-1.5,4.2-0.4,8.9,3.1,11.8c4.3,3.5,6.9,2.4,11.9,2.6c8.7,0.4,12.2,1.8,20.2-2.8c11.9-6.8,15.4-17.3,24.7-25.8
			c5.1-4.7,11.1-6.5,16.3-11.2c3.8-3.4,7.3-7.1,7.8-12.4c0.8-7.8-1.6-12.8-2.4-20.3c-0.5-4.9-0.6-10.4,0.4-15.3
			c0.5-2.6,1.7-7.2,5-4.9c35.7,23.9,43,81,8.3,109.4c-31,25.4-74.4,16.9-111.5,18.4c-0.9,0-1-0.3-1.1-1.1c-0.8-6.2,0.1-15.2,0-21.8
			c-0.1-12-0.5-24.2-0.6-36.2c-0.2-25.8-0.1-51.7-0.6-77.5H338z"/>
		<path class="st0" d="M267,135.9h-36.1c-6.9-12.4-13.4-25.2-18.7-38.4c-9-22.4-10.8-36.8-4.8-60.7c1.3-5.2,6.6-17.5,5.8-21.8
			c-0.6-3.2-2.7-3.6-5.5-3.8c-9.5-0.7-15.1,3-20.3,10.5c-1.8,2.5-7,11.5-7.3,14.1c-0.7,7.4-0.6,11.5-4.5,18.2
			c-3.3,5.7-6.8,6.8-6.1,14.5c0.6,7,8.1,13.3,12.4,18.4v50.3H148L147.1,0.9h74.2c4.6,0,16,6.5,19.6,9.7
			c18.9,16.4,15.1,41.7-2.6,57.2c-1.6,1.4-4.2,2.8-5.5,4.1c-0.2,0.2-0.6,0.2-0.5,0.7c0.1,0.3,4.3,4.2,5,5
			c7.3,8.2,10.7,16.1,15.2,25.9C257.4,114.2,262.6,124.9,267,135.9z"/>
		<path class="st0" d="M144.4,0.6L82.3,138l-14.9-0.1L1.5,2.1h36.1c8.7,8.5,15.3,19.3,21,30c6,11.1,8.6,16.9,9,29.9
			c0.3,8-1,15.9-1.2,23.9c-0.3,9.2,4.5,14.8,13.8,10.5c14-6.4,13.4-28.7,12.5-41.3c-0.7-9.2,7.2-17,3.4-25.4
			c-2.2-4.9-7.2-6.3-11.2-9.3C78.3,15.4,72.7,8.3,69.8,0.6H144.4z"/>
		<polygon class="st0" points="409,148.9 409,154 0,155.8 0,148.9 		"/>
		<path class="st0" d="M281.2,179.4l0,0.9c-3.2,0-6.7,1.2-8.3,4.3c-0.3,0.7-1.1,3.1-1.1,3.7v20.4l20.8-20.4c1.5-1.8,3.2-3.9,1.3-6.2
			c-1.4-1.7-4.8-1.6-5-1.8c-0.1-0.1,0-0.7,0-0.9h18.7c0,0.2,0.1,0.8,0,0.9c-0.1,0.1-2.7,0.5-3.5,0.9c-1.4,0.6-2.6,1.6-3.9,2.5
			l-18.8,18l24,30.7c2.1,2.4,5.4,5,8.4,6.1c1.2,0.4,3.3,0.1,2.9,1.5h-29c0-0.2-0.1-0.8,0-0.9c0.2-0.2,4.2-0.2,5.4-1.7
			c2.1-2.4-1.2-6.5-2.6-8.6c-4.8-7.1-11-13.3-15.8-20.3c-0.2-0.1-3,2.7-3,3.2c0.3,6-0.5,12.5,0,18.4c0.4,5.8,3.5,8.8,9.4,8.9l0,0.9
			h-28.4l0-0.9c4.2,0.1,8.3-2.1,9-6.6c0-13.7,1.2-28.6,0.4-42.2c-0.4-6.2-2.7-9.7-9.4-9.8l0-0.9H281.2z"/>
		<path class="st0" d="M151,177.9c25.5-2.3,44.5,26.6,29.6,48.6c-12.4,18.4-40,20-53.5,2C111.7,208.2,126.6,180.1,151,177.9z
			 M151,179.1c-26.7,2.5-26.5,63.3,4.1,60.9C182.9,237.9,182.3,176.2,151,179.1z"/>
		<path class="st0" d="M109,179.1c-0.4,2.1,0.9,16.9,0.3,17.5c-0.3,0.3-0.9-0.1-1.1-0.5c-0.7-1.2-1.3-4.8-2-6.4
			c-2.8-6.8-8.5-12.9-16.5-9.9c-5.8,2.1-7.9,9.4-5.2,14.7c3,5.9,13.2,8.8,18.7,12.4c20.6,13.2,6.3,41.7-19.3,32.6
			c-2.3-0.8-5.2-3.1-7.6-1.6c-0.7,0.4-0.8,1.4-1.1,1.5c-0.2,0.1-1.1,0.1-1.1,0.1c-0.7-0.6,0.6-16.2,0.3-18.4c0,0,0.8,0.3,0.9,0.5
			c0.6,0.9,1.7,5.3,2.3,6.9c2.1,4.8,5.5,9.7,10.9,11.1c11.9,3,18.8-9.2,13.1-19.2c-3.2-5.7-12.9-8.6-18.3-12.3
			c-15.2-10.6-4.2-33.9,13.6-29.9c2.3,0.5,8,3.7,10,2.7C107.8,180.6,107.6,178.7,109,179.1z"/>
		<path class="st0" d="M354.3,179.1c-0.4,2.1,0.9,16.9,0.3,17.5c-0.3,0.3-0.9-0.1-1.1-0.5c-0.7-1.2-1.3-4.8-2-6.4
			c-2.5-6.1-6.9-11.4-14.2-10.5c-7.3,0.8-10.8,9.1-7.6,15.4c3,5.9,13.2,8.8,18.7,12.4c20.6,13.2,6.3,41.7-19.3,32.6
			c-2.3-0.8-5.2-3.1-7.6-1.6c-0.7,0.4-0.8,1.4-1.1,1.5c-0.2,0.1-1.1,0.1-1.1,0.1c-0.7-0.6,0.6-16.2,0.3-18.4c0,0,0.8,0.3,0.9,0.5
			c0.6,0.9,1.7,5.3,2.3,6.9c0.9,2.1,2.2,4.5,3.7,6.3c9.8,11.6,26.5,2.8,21.5-11.9c-3.8-11.3-22.3-11-25.8-22.8
			c-3.7-12.5,7-24.8,20-21.8c2.3,0.5,8,3.7,10,2.7C353,180.6,352.9,178.7,354.3,179.1z"/>
		<path class="st0" d="M247.1,198.7c-0.6,0.1-0.8,0-1.2-0.5c-0.9-1.3-1.9-5.2-2.7-7c-3.4-7.3-9.2-12.6-17.7-12.2
			c-26.3,1.3-30.4,62.1,4.5,59.5c9.2-0.7,14-5.6,16.4-14.1c0.2-0.6,0.3-2.4,0.4-2.5c0,0,1.3-0.3,1.2,0.4
			c-1.6,14.1-12.2,19.7-25.5,18.9c-17.8-1-28.5-13.7-28.2-31.3c0.4-23.8,19.9-36.5,42.3-30.5c2,0.5,6.1,2.7,7.8,1.5
			c0.8-0.6,0.7-1.7,1.7-2c0.5,0.1,0.7,2.4,0.8,2.9C247.2,187.3,246.7,193.2,247.1,198.7z"/>
	</g>
</g>
</svg>
