<?xml version="1.0" encoding="UTF-8"?>
<svg id="Layer_1" xmlns="http://www.w3.org/2000/svg" version="1.1" viewBox="0 0 1080 1080">
  <!-- Generator: Adobe Illustrator 30.0.0, SVG Export Plug-In . SVG Version: 2.1.1 Build 123)  -->
  <defs>
    <style>
      .st0 {
        fill: #9e9e9e;
      }
    </style>
  </defs>
  <path class="st0" d="M892.28,221.76c-1.5,30.67-9.69,62.57-22.48,90.47-21.98,47.96-64.24,83.85-96.13,125.03-2.79,2.94-13.34,11.29-14.37,13.58-3.37,7.52-.32,20.81,4.76,27.12,11.3,14.03,27.89,10.65,43.98,11.13,23.11.68,29.42,3.01,49.83-10.01,26.96-17.21,36.18-40.9,57.16-61.81,23.98-23.91,64.82-30.12,68.32-70.61,1.34-15.52-1.99-22.49-4.53-36.96-2.96-16.84-4.36-32.81-1.62-49.8.31-1.93,2.4-12.46,4.15-12.58,5.1,3.64,10.34,7.01,16.21,9.33,2.9,1.14,10.36,2.46,12.15,3.75,5.53,3.96,15.05,15.62,19.49,21.3,48.23,61.63,59.55,151.43,13.44,217.58-37.6,53.94-102.49,76.06-165.89,81.67l-161-.03-3.19-359.15h179.73Z"/>
  <path class="st0" d="M580.34,223.36c41.22,4.34,77.84,40.29,87.08,79.8,8.42,36-14.66,77.66-42.37,99.75-1.99,1.59-11.82,7.52-12.19,8.16-.41.71-.23,1.68-.19,2.49,13.16,10.97,23.46,24.97,32.79,39.24,22.42,40.71,39.79,84.21,59.1,126.52h-95.06c-22.68-45.11-48.06-91.19-62.52-139.86s-7.21-95.77,8.17-144.7c3.61-11.5,11.11-23.91,7.82-36.48-2.02-7.7-9.22-8.1-16.18-8.57-23.5-1.59-38.05,7.75-51.37,26.08-5.7,7.84-20.12,31.78-20.9,40.57-1.74,19.4-1.72,30.16-12.15,47.72-6.08,10.23-14.36,15.09-15.72,28.19-2.6,24.92,17.71,41.42,32.65,58.16v132.09h-88.67l-1.6-359.15h191.32Z"/>
  <path class="st0" d="M380.24,222.56l-164.13,363.2-37.18-.45L3.99,226.55h93.86c23.2,22.96,41.09,52.16,56.45,80.87,7.56,14.14,17.46,31.84,20.38,47.48,5.51,29.51,1.37,58.13.22,87.51-.87,22.25,2.62,44.45,31.19,35.95,37.58-11.18,42.13-67.26,40.77-99.8-.31-7.41-2.28-13.28-1.53-21.41,1.85-20.11,17.33-35.78,9.07-57.16-5.41-14.01-20.89-18.41-31.93-27.16-16.23-12.87-30.54-30.9-37.96-50.27h195.71Z"/>
  <path class="st0" d="M742.1,695.84c-.32,1.55-1.6,1.42-2.79,1.6-6.11.96-10.86,1.13-15.58,5.98-3.58,3.68-6.39,12.55-6.39,17.56v52.28l2.83-.76,56.94-57.24c4.05-8.49,2.24-14.79-7-17.47-2.17-.63-5.43.49-6.44-1.94h49.53c-.86,2.42-3.91,1.27-5.8,1.79-6.89,1.89-12.46,6.39-17.75,11-15.36,13.37-29.41,29.53-44.79,43.03l-1.2,2.8,61.94,79.46c9.17,10.25,15.44,14.71,28.76,18.35,1.1.3,2.49-.05,2.8,1.59h-76.69c2.31-2.53,6.7-1.49,10.36-2.82,11.27-4.1,5.42-14.6,1-21.71-12.25-19.74-30.56-37.49-44.22-56.38-2.12-4.47-9.9,4.4-10.26,6.29.73,15.43-1.03,31.79-.05,47.1.69,10.83,3.06,20.85,14.44,24.68,3.65,1.23,8.06.37,10.36,2.82h-73.49c2.61-2.48,7.02-1.57,10.93-3.05,12.52-4.71,13.28-16.77,13.86-28.45,1.45-28.8,1.36-65.41,0-94.25-.7-14.84-1.62-26.77-18.21-30.49-2.19-.49-5.55.71-6.59-1.8h73.49Z"/>
  <path class="st0" d="M396.03,692.07c74.3-7.8,125.18,80.03,71.68,137.86-54.27,58.67-154.67,18.74-148.09-61.76,3.11-38.02,38.89-72.16,76.4-76.1ZM402.45,693.68c-78.32,2.26-74.9,176.62,12.34,161.59,27.98-4.82,44.69-37.46,47.72-63.26,4.73-40.24-9.83-99.78-60.06-98.33Z"/>
  <path class="st0" d="M195.71,805.98c1.35-.24,1.67.29,2.21,1.39,2.12,4.38,3.31,11.92,5.4,16.95,4.99,12.03,14.41,26.09,27.54,29.94,27.62,8.11,47.98-12.52,41.81-40.18-6.24-28.01-37.56-30.76-56.57-46.43-35.27-29.09-3.11-87.8,43.35-73.64,7.15,2.18,23.69,13.17,25.75,1.03.59-.43,2.39.72,2.39,1.19v43.5c-2.27.39-1.31-.53-1.8-1.75-4.93-12.33-6.06-23.19-15.75-33.78-19.98-21.84-55.27-8.68-50.94,22.96,3.03,22.15,35.91,30.48,52.45,40.98,53.57,33.99,16.94,105.91-46.07,86.74-7.03-2.14-18.19-9.84-24.9-6.14-2.14,1.18-2.22,4.28-4.85,4.33v-47.09Z"/>
  <path class="st0" d="M844.35,805.98c1.35-.24,1.67.29,2.21,1.39,2.12,4.38,3.31,11.92,5.4,16.95,4.99,12.03,14.41,26.09,27.54,29.94,27.62,8.11,47.98-12.52,41.81-40.18-6.24-28.01-37.56-30.76-56.57-46.43-35.24-29.07-3.09-87.79,43.35-73.64,7.15,2.18,23.69,13.17,25.75,1.03.59-.43,2.39.72,2.39,1.19v43.5c-2.27.39-1.31-.53-1.8-1.75-4.93-12.33-6.06-23.19-15.75-33.78-19.98-21.84-55.27-8.68-50.94,22.96,3.04,22.21,35.91,30.48,52.45,40.98,53.58,34,16.9,105.9-46.07,86.74-7.03-2.14-18.19-9.84-24.9-6.14-2.14,1.18-2.22,4.28-4.85,4.33v-47.09Z"/>
  <path class="st0" d="M648.65,695.05l2.38,2,.8,48.28c-1.82.34-1.27-.1-1.78-1.02-4.3-7.83-6.05-17.95-11.15-26.36-19.19-31.59-58.57-32.57-80.39-3.21-35.02,47.13-21.87,148.1,54.36,136.52,24.55-3.73,36.35-20.02,39.77-43.68,2.07-.31,1.66.32,1.58,1.98-1.2,27.4-24.59,46.15-50.73,48.29-56.01,4.59-93.9-31.88-89.84-88.17,4.09-56.84,53.86-88.83,108-74.41,7.71,2.05,24.22,11.42,27-.23Z"/>
  <rect class="st0" y="615.23" width="1080" height="12.91"/>
</svg>