<?xml version="1.0" encoding="UTF-8"?>
<svg xmlns="http://www.w3.org/2000/svg" xmlns:xlink="http://www.w3.org/1999/xlink" width="85.11pt" height="37.86pt" viewBox="0 0 85.11 37.86" version="1.1">
<defs>
<clipPath id="clip1">
  <path d="M 78 22 L 85.109375 22 L 85.109375 33 L 78 33 Z M 78 22 "/>
</clipPath>
<clipPath id="clip2">
  <path d="M 0 0 L 10 0 L 10 37.859375 L 0 37.859375 Z M 0 0 "/>
</clipPath>
</defs>
<g id="surface1">
<path style=" stroke:none;fill-rule:nonzero;fill:rgb(46.699524%,46.699524%,46.699524%);fill-opacity:1;" d="M 20.015625 19.53125 L 20.015625 24.839844 L 23.285156 24.839844 C 24.0625 24.839844 24.707031 24.578125 25.21875 24.054688 C 25.742188 23.53125 26.003906 22.910156 26.003906 22.1875 C 26.003906 21.480469 25.742188 20.863281 25.21875 20.339844 C 24.707031 19.800781 24.0625 19.53125 23.285156 19.53125 Z M 20.015625 26.710938 L 20.015625 32.867188 L 18.0625 32.867188 L 18.0625 17.664063 L 23.242188 17.664063 C 24.558594 17.664063 25.675781 18.101563 26.597656 18.980469 C 27.53125 19.859375 28 20.925781 28 22.1875 C 28 23.476563 27.53125 24.550781 26.597656 25.414063 C 25.691406 26.277344 24.574219 26.710938 23.242188 26.710938 L 20.015625 26.710938 "/>
<path style=" stroke:none;fill-rule:nonzero;fill:rgb(46.699524%,46.699524%,46.699524%);fill-opacity:1;" d="M 30.695313 29.679688 C 30.695313 30.191406 30.910156 30.617188 31.34375 30.957031 C 31.773438 31.296875 32.28125 31.464844 32.859375 31.464844 C 33.679688 31.464844 34.414063 31.160156 35.058594 30.550781 C 35.703125 29.945313 36.023438 29.230469 36.023438 28.40625 C 35.414063 27.925781 34.566406 27.6875 33.476563 27.6875 C 32.683594 27.6875 32.023438 27.875 31.492188 28.257813 C 30.960938 28.640625 30.695313 29.117188 30.695313 29.679688 Z M 33.222656 22.125 C 34.664063 22.125 35.804688 22.507813 36.640625 23.28125 C 37.476563 24.050781 37.894531 25.109375 37.894531 26.453125 L 37.894531 32.867188 L 36.023438 32.867188 L 36.023438 31.421875 L 35.941406 31.421875 C 35.132813 32.613281 34.054688 33.207031 32.710938 33.207031 C 31.566406 33.207031 30.605469 32.867188 29.835938 32.1875 C 29.0625 31.507813 28.679688 30.65625 28.679688 29.640625 C 28.679688 28.5625 29.085938 27.707031 29.898438 27.070313 C 30.714844 26.433594 31.800781 26.113281 33.15625 26.113281 C 34.320313 26.113281 35.273438 26.328125 36.023438 26.75 L 36.023438 26.304688 C 36.023438 25.625 35.753906 25.050781 35.21875 24.574219 C 34.679688 24.101563 34.050781 23.863281 33.328125 23.863281 C 32.238281 23.863281 31.375 24.324219 30.738281 25.242188 L 29.019531 24.160156 C 29.964844 22.800781 31.367188 22.125 33.222656 22.125 "/>
<path style=" stroke:none;fill-rule:nonzero;fill:rgb(46.699524%,46.699524%,46.699524%);fill-opacity:1;" d="M 52.289063 33.035156 C 51.4375 33.035156 50.734375 32.773438 50.175781 32.25 C 49.617188 31.726563 49.328125 30.996094 49.316406 30.0625 L 49.316406 24.246094 L 47.488281 24.246094 L 47.488281 22.460938 L 49.316406 22.460938 L 49.316406 19.277344 L 51.269531 19.277344 L 51.269531 22.460938 L 53.816406 22.460938 L 53.816406 24.246094 L 51.269531 24.246094 L 51.269531 29.425781 C 51.269531 30.121094 51.402344 30.589844 51.671875 30.839844 C 51.941406 31.085938 52.246094 31.210938 52.585938 31.210938 C 52.742188 31.210938 52.894531 31.191406 53.042969 31.15625 C 53.191406 31.121094 53.328125 31.074219 53.457031 31.019531 L 54.070313 32.761719 C 53.5625 32.945313 52.96875 33.035156 52.289063 33.035156 Z M 40.101563 22.460938 L 41.96875 22.460938 L 41.96875 24.160156 L 42.054688 24.160156 C 42.632813 22.832031 43.832031 22.164063 45.640625 22.164063 L 46.046875 22.207031 L 46.046875 24.246094 L 45.175781 24.160156 C 44.269531 24.160156 43.523438 24.441406 42.933594 25 C 42.347656 25.558594 42.054688 26.269531 42.054688 27.132813 L 42.054688 32.867188 L 40.101563 32.867188 L 40.101563 22.460938 "/>
<path style=" stroke:none;fill-rule:nonzero;fill:rgb(46.699524%,46.699524%,46.699524%);fill-opacity:1;" d="M 55.789063 22.460938 L 57.660156 22.460938 L 57.660156 23.90625 L 57.742188 23.90625 C 58.039063 23.398438 58.496094 22.972656 59.113281 22.632813 C 59.730469 22.292969 60.367188 22.125 61.035156 22.125 C 62.308594 22.125 63.289063 22.488281 63.976563 23.214844 C 64.660156 23.945313 65.003906 24.980469 65.003906 26.328125 L 65.003906 32.867188 L 63.050781 32.867188 L 63.050781 26.453125 C 63.007813 24.753906 62.152344 23.90625 60.484375 23.90625 C 59.703125 23.90625 59.050781 24.222656 58.527344 24.851563 C 58.003906 25.480469 57.742188 26.234375 57.742188 27.113281 L 57.742188 32.867188 L 55.789063 32.867188 L 55.789063 22.460938 "/>
<path style=" stroke:none;fill-rule:nonzero;fill:rgb(46.699524%,46.699524%,46.699524%);fill-opacity:1;" d="M 68.847656 26.410156 L 74.8125 26.410156 C 74.757813 25.691406 74.464844 25.09375 73.933594 24.617188 C 73.402344 24.144531 72.691406 23.90625 71.796875 23.90625 C 71.0625 23.90625 70.429688 24.132813 69.898438 24.585938 C 69.367188 25.039063 69.015625 25.648438 68.847656 26.410156 Z M 71.96875 33.207031 C 70.441406 33.207031 69.179688 32.683594 68.191406 31.632813 C 67.199219 30.585938 66.703125 29.265625 66.703125 27.664063 C 66.703125 26.078125 67.183594 24.757813 68.148438 23.703125 C 69.109375 22.652344 70.339844 22.125 71.839844 22.125 C 73.382813 22.125 74.613281 22.621094 75.523438 23.621094 C 76.4375 24.617188 76.894531 26.015625 76.894531 27.8125 L 76.875 28.027344 L 68.699219 28.027344 C 68.726563 29.042969 69.066406 29.867188 69.71875 30.488281 C 70.367188 31.113281 71.148438 31.421875 72.054688 31.421875 C 73.300781 31.421875 74.277344 30.800781 74.984375 29.554688 L 76.722656 30.402344 C 76.257813 31.28125 75.609375 31.96875 74.78125 32.460938 C 73.953125 32.957031 73.015625 33.207031 71.96875 33.207031 "/>
<g clip-path="url(#clip1)" clip-rule="nonzero">
<path style=" stroke:none;fill-rule:nonzero;fill:rgb(46.699524%,46.699524%,46.699524%);fill-opacity:1;" d="M 80.632813 32.867188 L 78.675781 32.867188 L 78.675781 22.460938 L 80.546875 22.460938 L 80.546875 24.160156 L 80.632813 24.160156 C 80.828125 23.609375 81.234375 23.140625 81.851563 22.75 C 82.46875 22.359375 83.074219 22.164063 83.667969 22.164063 C 84.234375 22.164063 84.714844 22.25 85.109375 22.421875 L 84.515625 24.308594 C 84.277344 24.210938 83.894531 24.160156 83.371094 24.160156 C 82.632813 24.160156 81.992188 24.457031 81.449219 25.054688 C 80.902344 25.648438 80.632813 26.339844 80.632813 27.132813 L 80.632813 32.867188 "/>
</g>
<path style=" stroke:none;fill-rule:nonzero;fill:rgb(28.199768%,48.599243%,74.899292%);fill-opacity:1;" d="M 22.488281 8.78125 L 22.488281 10.105469 L 25.660156 10.105469 C 25.558594 10.945313 25.210938 11.59375 24.621094 12.0625 C 24.042969 12.519531 23.332031 12.746094 22.488281 12.746094 C 21.507813 12.746094 20.683594 12.402344 20.011719 11.71875 C 19.34375 11.039063 19.007813 10.207031 19.007813 9.21875 C 19.007813 8.230469 19.34375 7.398438 20.011719 6.71875 C 20.683594 6.035156 21.507813 5.691406 22.488281 5.691406 C 23.402344 5.691406 24.199219 6.007813 24.878906 6.636719 L 25.816406 5.703125 C 24.875 4.808594 23.765625 4.363281 22.488281 4.363281 C 21.621094 4.363281 20.796875 4.585938 20.023438 5.027344 C 19.257813 5.460938 18.65625 6.058594 18.214844 6.816406 C 17.78125 7.558594 17.5625 8.359375 17.5625 9.21875 C 17.5625 10.085938 17.78125 10.890625 18.214844 11.632813 C 18.648438 12.382813 19.25 12.976563 20.023438 13.410156 C 20.796875 13.851563 21.621094 14.074219 22.488281 14.074219 C 23.796875 14.074219 24.882813 13.664063 25.742188 12.84375 C 26.597656 12.027344 27.023438 10.953125 27.023438 9.609375 C 27.023438 9.292969 27 9.015625 26.953125 8.78125 L 22.488281 8.78125 "/>
<path style=" stroke:none;fill-rule:nonzero;fill:rgb(93.299866%,21.199036%,17.298889%);fill-opacity:1;" d="M 31.878906 12.296875 C 31.539063 12.660156 31.125 12.84375 30.636719 12.84375 C 30.136719 12.84375 29.71875 12.660156 29.378906 12.296875 C 29.039063 11.933594 28.871094 11.484375 28.871094 10.949219 C 28.871094 10.394531 29.039063 9.945313 29.378906 9.597656 C 29.71875 9.234375 30.136719 9.054688 30.636719 9.054688 C 31.132813 9.054688 31.550781 9.234375 31.890625 9.597656 C 32.230469 9.945313 32.398438 10.394531 32.398438 10.949219 C 32.398438 11.476563 32.226563 11.925781 31.878906 12.296875 Z M 30.636719 7.820313 C 29.742188 7.820313 28.996094 8.121094 28.398438 8.722656 C 27.796875 9.3125 27.496094 10.054688 27.496094 10.949219 C 27.496094 11.824219 27.800781 12.566406 28.40625 13.171875 C 29.007813 13.773438 29.75 14.074219 30.636719 14.074219 C 31.519531 14.074219 32.261719 13.773438 32.859375 13.171875 C 33.46875 12.566406 33.773438 11.824219 33.773438 10.949219 C 33.773438 10.054688 33.46875 9.3125 32.859375 8.722656 C 32.261719 8.121094 31.519531 7.820313 30.636719 7.820313 "/>
<path style=" stroke:none;fill-rule:nonzero;fill:rgb(0%,67.498779%,30.599976%);fill-opacity:1;" d="M 48.125 13.882813 L 49.496094 13.882813 L 49.496094 4.695313 L 48.125 4.695313 L 48.125 13.882813 "/>
<path style=" stroke:none;fill-rule:nonzero;fill:rgb(99.198914%,71.398926%,7.798767%);fill-opacity:1;" d="M 38.722656 12.296875 C 38.382813 12.660156 37.96875 12.84375 37.476563 12.84375 C 36.980469 12.84375 36.5625 12.660156 36.222656 12.296875 C 35.882813 11.933594 35.714844 11.484375 35.714844 10.949219 C 35.714844 10.394531 35.882813 9.945313 36.222656 9.597656 C 36.5625 9.234375 36.980469 9.054688 37.476563 9.054688 C 37.976563 9.054688 38.394531 9.234375 38.734375 9.597656 C 39.074219 9.945313 39.242188 10.394531 39.242188 10.949219 C 39.242188 11.476563 39.070313 11.925781 38.722656 12.296875 Z M 37.476563 7.820313 C 36.585938 7.820313 35.839844 8.121094 35.242188 8.722656 C 34.640625 9.3125 34.339844 10.054688 34.339844 10.949219 C 34.339844 11.824219 34.644531 12.566406 35.253906 13.171875 C 35.851563 13.773438 36.59375 14.074219 37.476563 14.074219 C 38.363281 14.074219 39.105469 13.773438 39.703125 13.171875 C 40.3125 12.566406 40.617188 11.824219 40.617188 10.949219 C 40.617188 10.054688 40.3125 9.3125 39.703125 8.722656 C 39.105469 8.121094 38.363281 7.820313 37.476563 7.820313 "/>
<path style=" stroke:none;fill-rule:nonzero;fill:rgb(93.299866%,21.199036%,17.298889%);fill-opacity:1;" d="M 51.996094 9.550781 C 52.34375 9.203125 52.730469 9.03125 53.15625 9.03125 C 53.421875 9.03125 53.664063 9.089844 53.878906 9.214844 C 54.089844 9.335938 54.238281 9.496094 54.316406 9.691406 L 51.523438 10.851563 C 51.503906 10.324219 51.664063 9.890625 51.996094 9.550781 Z M 53.261719 12.84375 C 52.574219 12.84375 52.070313 12.527344 51.746094 11.894531 L 55.925781 10.167969 L 55.785156 9.8125 C 55.671875 9.519531 55.53125 9.25 55.351563 9.003906 C 55.175781 8.761719 54.972656 8.550781 54.742188 8.371094 C 54.511719 8.195313 54.261719 8.058594 53.984375 7.964844 C 53.707031 7.867188 53.417969 7.820313 53.109375 7.820313 C 52.273438 7.820313 51.570313 8.117188 51 8.710938 C 50.441406 9.308594 50.160156 10.054688 50.160156 10.949219 C 50.160156 11.832031 50.457031 12.574219 51.046875 13.171875 C 51.640625 13.773438 52.378906 14.074219 53.261719 14.074219 C 54.367188 14.074219 55.234375 13.613281 55.867188 12.6875 L 54.800781 11.976563 C 54.414063 12.554688 53.902344 12.84375 53.261719 12.84375 "/>
<path style=" stroke:none;fill-rule:nonzero;fill:rgb(28.199768%,48.599243%,74.899292%);fill-opacity:1;" d="M 45.484375 12.308594 C 45.160156 12.664063 44.765625 12.84375 44.296875 12.84375 C 43.808594 12.84375 43.394531 12.660156 43.054688 12.296875 C 42.722656 11.933594 42.558594 11.488281 42.558594 10.960938 C 42.558594 10.421875 42.726563 9.972656 43.066406 9.609375 C 43.414063 9.238281 43.824219 9.054688 44.296875 9.054688 C 44.773438 9.054688 45.167969 9.234375 45.484375 9.597656 C 45.804688 9.96875 45.96875 10.421875 45.96875 10.960938 C 45.96875 11.488281 45.804688 11.9375 45.484375 12.308594 Z M 45.875 8.519531 L 45.824219 8.519531 C 45.429688 8.054688 44.882813 7.820313 44.179688 7.820313 C 43.375 7.820313 42.671875 8.128906 42.074219 8.746094 C 41.480469 9.359375 41.183594 10.097656 41.183594 10.960938 C 41.183594 11.8125 41.480469 12.546875 42.074219 13.160156 C 42.679688 13.769531 43.382813 14.074219 44.179688 14.074219 C 44.882813 14.074219 45.429688 13.835938 45.824219 13.363281 L 45.875 13.363281 L 45.875 13.683594 C 45.875 14.992188 45.316406 15.648438 44.203125 15.648438 C 43.847656 15.648438 43.53125 15.546875 43.257813 15.339844 C 42.980469 15.136719 42.769531 14.867188 42.628906 14.535156 L 41.433594 15.03125 C 41.550781 15.308594 41.703125 15.558594 41.882813 15.785156 C 42.066406 16.007813 42.277344 16.203125 42.515625 16.363281 C 42.757813 16.527344 43.019531 16.652344 43.304688 16.742188 C 43.589844 16.835938 43.886719 16.878906 44.203125 16.878906 C 45.136719 16.878906 45.863281 16.597656 46.386719 16.035156 C 46.914063 15.46875 47.175781 14.664063 47.175781 13.625 L 47.175781 8.011719 L 45.875 8.011719 L 45.875 8.519531 "/>
<g clip-path="url(#clip2)" clip-rule="nonzero">
<path style=" stroke:none;fill-rule:nonzero;fill:rgb(28.199768%,48.599243%,74.899292%);fill-opacity:1;" d="M 0 37.859375 L 9.964844 37.859375 L 9.964844 -0.00390625 L 0 -0.00390625 L 0 37.859375 "/>
</g>
</g>
</svg>
