<?xml version="1.0" encoding="utf-8"?>
<!-- Generator: Adobe Illustrator 29.8.3, SVG Export Plug-In . SVG Version: 9.03 Build 0)  -->
<svg version="1.0" id="katman_1" xmlns="http://www.w3.org/2000/svg" xmlns:xlink="http://www.w3.org/1999/xlink" x="0px" y="0px"
	 viewBox="0 0 841.9 482.2" style="enable-background:new 0 0 841.9 482.2;" xml:space="preserve">
<style type="text/css">
	.st0{fill:#FFFFFF;}
	.st1{fill:#1C2B33;}
	.st2{clip-path:url(#SVGID_00000156564993471713505340000002249602072795338418_);}
	.st3{clip-path:url(#SVGID_00000172428560430212445340000012813645315350127499_);}
	.st4{fill:url(#SVGID_00000090296330788836784400000014191994961269443499_);}
	.st5{enable-background:new    ;}
	.st6{fill:none;}
</style>
<path class="st0" d="M30.5,2.2h780.9c15.6,0,28.3,12.7,28.3,28.3v421.3c0,15.6-12.7,28.3-28.3,28.3H30.5
	c-15.6,0-28.3-12.7-28.3-28.3V30.5C2.2,14.9,14.8,2.2,30.5,2.2z"/>
<path class="st1" d="M811.4,4.4c14.4,0,26.1,11.7,26.1,26.1l0,0v421.2c0,14.4-11.7,26.1-26.1,26.1H30.5c-14.4,0-26.1-11.7-26.1-26.1
	V30.5C4.4,16.1,16,4.4,30.5,4.4H811.4 M811.4,0H30.5C13.6,0,0,13.6,0,30.5v421.2c0,16.8,13.6,30.5,30.5,30.5l0,0h780.9
	c16.8,0,30.5-13.6,30.5-30.5l0,0V30.5C841.9,13.6,828.2,0,811.4,0z"/>
<path class="st1" d="M341.9,127.5h22.5l38.3,69.3l38.3-69.3h22.1v114h-18.4v-87.4l-33.6,60.4H394l-33.6-60.4v87.4h-18.4L341.9,127.5
	L341.9,127.5z"/>
<path class="st1" d="M522.4,243.4c-7.8,0.2-15.6-1.8-22.5-5.6c-6.4-3.7-11.6-9.1-15.1-15.7c-3.7-7.1-5.6-15-5.4-23
	c-0.2-8,1.6-16,5.3-23.2c3.3-6.5,8.4-12,14.7-15.8c6.5-3.9,14-5.9,21.6-5.7c14.8-0.6,28.5,8.1,34.3,21.8c3.3,7.7,4.9,15.9,4.7,24.3
	v5h-62.4c0.8,6.3,3.8,12.1,8.4,16.4c4.7,4.1,10.7,6.2,17,6c4.8,0.1,9.6-0.7,14.1-2.5c4.1-1.7,7.9-4.3,11.1-7.4l9.7,12
	C548.4,239,535.6,243.8,522.4,243.4z M535.8,175.9c-4-4-9.5-6.2-15.2-5.9c-5.7-0.2-11.2,2-15.2,6c-4.3,4.4-7,10.1-7.8,16.2h44.8
	C542.3,186.2,539.9,180.4,535.8,175.9L535.8,175.9z"/>
<path class="st1" d="M582.4,171.6h-16.9v-15h16.9v-24.9h17.7v24.9h25.7v15.1h-25.7v38.1c0,6.3,1.1,10.9,3.2,13.6
	c2.2,2.7,5.9,4.1,11.1,4.1c2,0,4-0.1,6-0.3c1.6-0.2,3.4-0.4,5.4-0.8v14.9c-2.2,0.7-4.5,1.1-6.8,1.5c-2.6,0.4-5.3,0.6-7.9,0.6
	c-19.1,0-28.7-10.5-28.7-31.4L582.4,171.6z"/>
<path class="st1" d="M718.2,241.5h-17.4v-11.9c-3,4.4-7.1,7.9-11.8,10.3c-5.1,2.5-10.6,3.7-16.3,3.6c-7,0.1-14-1.9-19.9-5.7
	c-5.9-3.9-10.6-9.4-13.6-15.8c-3.4-7.2-5.1-15-5-23c-0.2-8,1.6-15.9,5.1-23c3.1-6.4,7.9-11.8,13.9-15.7c6.1-3.9,13.2-5.8,20.5-5.7
	c5.4-0.1,10.7,1.1,15.6,3.4c4.5,2.2,8.5,5.4,11.5,9.5v-10.9h17.4L718.2,241.5L718.2,241.5z M700.5,186.3c-1.7-4.6-4.9-8.6-9-11.4
	c-4.2-2.8-9.1-4.3-14.2-4.2c-6.9-0.3-13.5,2.5-18.1,7.6c-4.5,5.1-6.7,12-6.8,20.7c0,8.7,2.2,15.6,6.5,20.7c4.4,5.1,10.9,8,17.7,7.7
	c5.2,0,10.3-1.5,14.6-4.4c4.2-2.7,7.5-6.7,9.3-11.4L700.5,186.3z"/>
<g>
	<g>
		<defs>
			<path id="SVGID_1_" d="M253.1,123.6c-14.8,0-26.3,11.1-36.8,25.3c-14.4-18.3-26.4-25.3-40.8-25.3c-29.3,0-51.8,38.2-51.8,78.6
				c0,25.3,12.2,41.2,32.7,41.2c14.8,0,25.4-7,44.2-39.9l13.3-23.5c1.9,3.1,3.9,6.4,6,9.9l8.8,14.9c17.2,28.8,26.8,38.6,44.2,38.6
				c20,0,31.1-16.2,31.1-42C304,159.2,281,123.6,253.1,123.6z M186.2,194.6c-15.2,23.9-20.6,29.3-29.1,29.3s-14-7.7-14-21.4
				c0-29.3,14.6-59.3,32.1-59.3c9.4,0,17.4,5.5,29.4,22.8C193.2,183.6,186.2,194.6,186.2,194.6z M243.9,191.6L233.3,174
				c-2.9-4.6-5.6-8.9-8.3-12.8c9.5-14.7,17.4-22,26.7-22c19.4,0,34.8,28.6,34.8,63.7c0,13.4-4.4,21.2-13.5,21.2
				C264.6,224.1,260.4,218.2,243.9,191.6z"/>
		</defs>
		<clipPath id="SVGID_00000078039185990002949210000003360269560770672795_">
			<use xlink:href="#SVGID_1_"  style="overflow:visible;"/>
		</clipPath>
		<g style="clip-path:url(#SVGID_00000078039185990002949210000003360269560770672795_);">
			<g>
				<g>
					<defs>
						<rect id="SVGID_00000153676212514935503620000007827552827794785465_" x="112.8" y="112.7" width="202.1" height="141.6"/>
					</defs>
					<clipPath id="SVGID_00000014632985899775018040000002707783612346123922_">
						<use xlink:href="#SVGID_00000153676212514935503620000007827552827794785465_"  style="overflow:visible;"/>
					</clipPath>
					<g style="clip-path:url(#SVGID_00000014632985899775018040000002707783612346123922_);">
						
							<image style="overflow:visible;enable-background:new    ;" width="197" height="139" xlink:href="7AEF46F9.png"  transform="matrix(1.0226 0 0 1.0226 113.2904 112.3346)">
						</image>
					</g>
				</g>
			</g>
		</g>
	</g>
</g>
<linearGradient id="SVGID_00000049938317008914721370000003525843595497520541_" gradientUnits="userSpaceOnUse" x1="227.346" y1="670.7295" x2="177.4746" y2="605.3809" gradientTransform="matrix(1 0 0 1 3.051759e-05 -483.2756)">
	<stop  offset="0.13" style="stop-color:#3165AE"/>
	<stop  offset="0.87" style="stop-color:#2F61AC"/>
</linearGradient>
<path style="fill:url(#SVGID_00000049938317008914721370000003525843595497520541_);" d="M233.4,174c-22.9-37.3-38.2-50.3-57.9-50.3
	l-0.2,19.6c12.9,0,22.9,10.2,44.6,46.8l1.3,2.2L233.4,174z"/>
<g class="st5">
	<path class="st1" d="M122,357.8v-53.9h20.2c4.1,0,7.4,0.5,9.9,1.6c2.5,1.1,4.4,2.8,5.8,5c1.4,2.3,2.1,4.6,2.1,7.1
		c0,2.3-0.6,4.5-1.9,6.5s-3.1,3.7-5.7,4.9c3.3,1,5.8,2.6,7.5,4.9c1.7,2.3,2.6,5,2.6,8.2c0,2.5-0.5,4.9-1.6,7s-2.4,3.8-3.9,5
		c-1.6,1.2-3.5,2.1-5.9,2.7c-2.4,0.6-5.3,0.9-8.7,0.9L122,357.8L122,357.8z M129.1,326.5h11.7c3.2,0,5.4-0.2,6.8-0.6
		c1.8-0.5,3.2-1.4,4.1-2.7c0.9-1.2,1.4-2.8,1.4-4.7c0-1.8-0.4-3.4-1.3-4.7c-0.9-1.4-2.1-2.3-3.7-2.8c-1.6-0.5-4.3-0.8-8.2-0.8h-10.8
		L129.1,326.5L129.1,326.5z M129.1,351.4h13.4c2.3,0,3.9-0.1,4.9-0.3c1.6-0.3,3-0.8,4.1-1.5c1.1-0.7,2-1.7,2.7-3
		c0.7-1.3,1.1-2.8,1.1-4.5c0-2-0.5-3.8-1.5-5.2c-1-1.5-2.5-2.5-4.3-3.1c-1.8-0.6-4.5-0.9-7.9-0.9h-12.5L129.1,351.4L129.1,351.4z"/>
</g>
<g class="st5">
	<path class="st1" d="M200.8,357.8v-5.7c-3,4.4-7.2,6.6-12.4,6.6c-2.3,0-4.5-0.4-6.5-1.3c-2-0.9-3.5-2-4.4-3.3c-1-1.3-1.7-3-2-4.9
		c-0.3-1.3-0.4-3.4-0.4-6.2v-24.2h6.6v21.7c0,3.5,0.1,5.8,0.4,7c0.4,1.7,1.3,3.1,2.6,4.1c1.4,1,3,1.5,5,1.5c2,0,3.9-0.5,5.6-1.5
		c1.7-1,3-2.4,3.7-4.2c0.7-1.8,1.1-4.3,1.1-7.6v-20.9h6.6v39.1L200.8,357.8L200.8,357.8z"/>
	<path class="st1" d="M214.4,346.1l6.5-1c0.4,2.6,1.4,4.6,3.1,6c1.7,1.4,4,2.1,7,2.1c3,0,5.3-0.6,6.8-1.9c1.5-1.2,2.2-2.7,2.2-4.4
		c0-1.5-0.7-2.7-1.9-3.5c-0.9-0.6-3.2-1.3-6.8-2.2c-4.9-1.2-8.2-2.3-10.1-3.2c-1.9-0.9-3.3-2.1-4.3-3.7c-1-1.6-1.5-3.3-1.5-5.2
		c0-1.7,0.4-3.4,1.2-4.8s1.9-2.7,3.2-3.7c1-0.8,2.4-1.4,4.2-1.9c1.8-0.5,3.7-0.8,5.7-0.8c3.1,0,5.8,0.4,8.1,1.3s4,2.1,5.1,3.6
		c1.1,1.5,1.9,3.5,2.3,6.1l-6.5,0.9c-0.3-2-1.1-3.6-2.6-4.7s-3.4-1.7-6-1.7c-3,0-5.2,0.5-6.5,1.5c-1.3,1-1.9,2.2-1.9,3.5
		c0,0.9,0.3,1.6,0.8,2.3c0.5,0.7,1.4,1.3,2.5,1.8c0.7,0.2,2.6,0.8,5.8,1.7c4.7,1.2,8,2.3,9.8,3.1c1.9,0.8,3.3,2,4.4,3.5
		c1,1.5,1.6,3.4,1.6,5.7c0,2.2-0.6,4.3-1.9,6.2c-1.3,1.9-3.1,3.5-5.6,4.5c-2.4,1.1-5.2,1.6-8.2,1.6c-5.1,0-8.9-1-11.6-3.2
		C216.8,353.4,215.1,350.3,214.4,346.1z"/>
	<path class="st1" d="M254.8,311.5v-7.6h6.6v7.6H254.8z M254.8,357.8v-39.1h6.6v39.1H254.8z"/>
	<path class="st1" d="M271.4,357.8v-39.1h6v5.6c2.9-4.3,7-6.4,12.4-6.4c2.4,0,4.5,0.4,6.5,1.3c2,0.9,3.4,2,4.4,3.3
		c1,1.4,1.7,3,2.1,4.9c0.2,1.2,0.4,3.4,0.4,6.4v24h-6.6V334c0-2.7-0.3-4.7-0.8-6.1c-0.5-1.3-1.4-2.4-2.7-3.2
		c-1.3-0.8-2.9-1.2-4.6-1.2c-2.8,0-5.3,0.9-7.3,2.7s-3.1,5.2-3.1,10.2v21.3L271.4,357.8L271.4,357.8z"/>
	<path class="st1" d="M340.1,345.2l6.8,0.9c-1.1,4-3.1,7.1-6,9.3c-2.9,2.2-6.6,3.3-11.2,3.3c-5.7,0-10.2-1.8-13.6-5.3
		c-3.4-3.5-5-8.5-5-14.8c0-6.6,1.7-11.7,5.1-15.3c3.4-3.6,7.8-5.5,13.2-5.5c5.2,0,9.5,1.8,12.8,5.3c3.3,3.6,5,8.6,5,15
		c0,0.4,0,1,0,1.8H318c0.2,4.3,1.5,7.6,3.6,9.9c2.2,2.3,4.9,3.4,8.2,3.4c2.4,0,4.5-0.6,6.2-1.9C337.7,350.1,339.1,348,340.1,345.2z
		 M318.4,334.5h21.8c-0.3-3.3-1.1-5.8-2.5-7.4c-2.1-2.6-4.8-3.8-8.2-3.8c-3,0-5.6,1-7.7,3.1C319.7,328.4,318.6,331.1,318.4,334.5z"
		/>
	<path class="st1" d="M352.6,346.1l6.5-1c0.4,2.6,1.4,4.6,3.1,6c1.7,1.4,4,2.1,7,2.1c3,0,5.3-0.6,6.8-1.9c1.5-1.2,2.2-2.7,2.2-4.4
		c0-1.5-0.7-2.7-1.9-3.5c-0.9-0.6-3.2-1.3-6.8-2.2c-4.9-1.2-8.2-2.3-10.1-3.2c-1.9-0.9-3.3-2.1-4.3-3.7c-1-1.6-1.5-3.3-1.5-5.2
		c0-1.7,0.4-3.4,1.2-4.8s1.9-2.7,3.2-3.7c1-0.8,2.4-1.4,4.2-1.9c1.8-0.5,3.7-0.8,5.7-0.8c3.1,0,5.8,0.4,8.1,1.3
		c2.3,0.9,4,2.1,5.1,3.6c1.1,1.5,1.9,3.5,2.3,6.1l-6.5,0.9c-0.3-2-1.1-3.6-2.6-4.7c-1.4-1.1-3.4-1.7-6-1.7c-3,0-5.2,0.5-6.5,1.5
		c-1.3,1-1.9,2.2-1.9,3.5c0,0.9,0.3,1.6,0.8,2.3c0.5,0.7,1.4,1.3,2.5,1.8c0.7,0.2,2.6,0.8,5.8,1.7c4.7,1.2,8,2.3,9.8,3.1
		c1.9,0.8,3.3,2,4.4,3.5c1,1.5,1.6,3.4,1.6,5.7c0,2.2-0.6,4.3-1.9,6.2c-1.3,1.9-3.1,3.5-5.6,4.5c-2.4,1.1-5.2,1.6-8.2,1.6
		c-5.1,0-8.9-1-11.6-3.2C355,353.4,353.3,350.3,352.6,346.1z"/>
	<path class="st1" d="M390.3,346.1l6.5-1c0.4,2.6,1.4,4.6,3.1,6c1.7,1.4,4,2.1,7,2.1c3,0,5.3-0.6,6.8-1.9c1.5-1.2,2.2-2.7,2.2-4.4
		c0-1.5-0.7-2.7-1.9-3.5c-0.9-0.6-3.2-1.3-6.8-2.2c-4.9-1.2-8.2-2.3-10.1-3.2c-1.9-0.9-3.3-2.1-4.3-3.7c-1-1.6-1.5-3.3-1.5-5.2
		c0-1.7,0.4-3.4,1.2-4.8s1.9-2.7,3.2-3.7c1-0.8,2.4-1.4,4.2-1.9c1.8-0.5,3.7-0.8,5.7-0.8c3.1,0,5.8,0.4,8.1,1.3
		c2.3,0.9,4,2.1,5.1,3.6c1.1,1.5,1.9,3.5,2.3,6.1l-6.5,0.9c-0.3-2-1.1-3.6-2.6-4.7c-1.4-1.1-3.4-1.7-6-1.7c-3,0-5.2,0.5-6.5,1.5
		c-1.3,1-1.9,2.2-1.9,3.5c0,0.9,0.3,1.6,0.8,2.3c0.5,0.7,1.4,1.3,2.5,1.8c0.7,0.2,2.6,0.8,5.8,1.7c4.7,1.2,8,2.3,9.8,3.1
		c1.9,0.8,3.3,2,4.4,3.5c1,1.5,1.6,3.4,1.6,5.7c0,2.2-0.6,4.3-1.9,6.2c-1.3,1.9-3.1,3.5-5.6,4.5c-2.4,1.1-5.2,1.6-8.2,1.6
		c-5.1,0-8.9-1-11.6-3.2C392.7,353.4,391,350.3,390.3,346.1z"/>
</g>
<g class="st5">
	<path class="st1" d="M456.6,357.8v-53.9h20.3c3.6,0,6.3,0.2,8.2,0.5c2.7,0.4,4.9,1.3,6.7,2.5c1.8,1.2,3.2,3,4.3,5.2
		c1.1,2.2,1.6,4.7,1.6,7.4c0,4.6-1.5,8.5-4.4,11.6c-2.9,3.2-8.2,4.8-15.8,4.8h-13.8v21.9L456.6,357.8L456.6,357.8z M463.7,329.5
		h13.9c4.6,0,7.9-0.9,9.8-2.6c1.9-1.7,2.9-4.1,2.9-7.2c0-2.3-0.6-4.2-1.7-5.8s-2.6-2.7-4.5-3.2c-1.2-0.3-3.4-0.5-6.7-0.5h-13.8
		L463.7,329.5L463.7,329.5z"/>
</g>
<g class="st5">
	<path class="st1" d="M532.3,353c-2.4,2.1-4.8,3.6-7.1,4.4c-2.3,0.9-4.7,1.3-7.3,1.3c-4.3,0-7.6-1-9.9-3.1c-2.3-2.1-3.5-4.8-3.5-8
		c0-1.9,0.4-3.7,1.3-5.2c0.9-1.6,2-2.9,3.4-3.8c1.4-1,3-1.7,4.8-2.2c1.3-0.3,3.3-0.7,5.9-1c5.3-0.6,9.3-1.4,11.8-2.3
		c0-0.9,0-1.5,0-1.7c0-2.7-0.6-4.6-1.9-5.7c-1.7-1.5-4.2-2.2-7.5-2.2c-3.1,0-5.4,0.5-6.9,1.6c-1.5,1.1-2.6,3-3.3,5.8l-6.5-0.9
		c0.6-2.8,1.6-5,2.9-6.7c1.4-1.7,3.3-3,5.8-3.9c2.6-0.9,5.5-1.4,8.9-1.4c3.3,0,6,0.4,8.1,1.2c2.1,0.8,3.6,1.8,4.6,3
		c1,1.2,1.7,2.7,2.1,4.5c0.2,1.1,0.3,3.2,0.3,6.1v8.8c0,6.1,0.1,10.1,0.4,11.7c0.3,1.6,0.8,3.2,1.7,4.7h-6.9
		C533,356.4,532.5,354.8,532.3,353z M531.8,338.2c-2.4,1-6,1.8-10.8,2.5c-2.7,0.4-4.6,0.8-5.8,1.3c-1.1,0.5-2,1.2-2.6,2.2
		c-0.6,0.9-0.9,2-0.9,3.1c0,1.8,0.7,3.2,2,4.4c1.3,1.2,3.3,1.8,5.9,1.8c2.6,0,4.8-0.6,6.8-1.7c2-1.1,3.4-2.6,4.4-4.6
		c0.7-1.5,1.1-3.7,1.1-6.6L531.8,338.2L531.8,338.2z"/>
</g>
<g class="st5">
	<path class="st1" d="M548.1,357.8v-39.1h6v5.9c1.5-2.8,2.9-4.6,4.2-5.5c1.3-0.9,2.7-1.3,4.3-1.3c2.2,0,4.5,0.7,6.8,2.1l-2.3,6.1
		c-1.6-1-3.2-1.4-4.9-1.4c-1.4,0-2.7,0.4-3.9,1.3c-1.2,0.9-2,2.1-2.5,3.6c-0.7,2.4-1.1,4.9-1.1,7.7v20.5L548.1,357.8L548.1,357.8z"
		/>
</g>
<g class="st5">
	<path class="st1" d="M592.2,351.9l1,5.8c-1.9,0.4-3.5,0.6-5,0.6c-2.4,0-4.3-0.4-5.6-1.1c-1.3-0.8-2.3-1.8-2.8-3
		c-0.5-1.2-0.8-3.8-0.8-7.8v-22.5h-4.9v-5.1h4.9v-9.7l6.6-4v13.6h6.7v5.1h-6.7v22.8c0,1.9,0.1,3.1,0.3,3.6c0.2,0.5,0.6,1,1.1,1.3
		c0.5,0.3,1.3,0.5,2.3,0.5C590.1,352.1,591,352.1,592.2,351.9z"/>
	<path class="st1" d="M598.7,357.8v-39.1h6v5.6c2.9-4.3,7-6.4,12.4-6.4c2.4,0,4.5,0.4,6.5,1.3c2,0.9,3.4,2,4.4,3.3
		c1,1.4,1.7,3,2.1,4.9c0.2,1.2,0.4,3.4,0.4,6.4v24h-6.6V334c0-2.7-0.3-4.7-0.8-6.1c-0.5-1.3-1.4-2.4-2.7-3.2
		c-1.3-0.8-2.9-1.2-4.6-1.2c-2.8,0-5.3,0.9-7.3,2.7c-2,1.8-3.1,5.2-3.1,10.2v21.3L598.7,357.8L598.7,357.8z"/>
	<path class="st1" d="M667.4,345.2l6.8,0.9c-1.1,4-3.1,7.1-6,9.3c-2.9,2.2-6.6,3.3-11.2,3.3c-5.7,0-10.2-1.8-13.6-5.3
		c-3.3-3.5-5-8.5-5-14.8c0-6.6,1.7-11.7,5.1-15.3c3.4-3.6,7.8-5.5,13.2-5.5c5.2,0,9.5,1.8,12.8,5.3c3.3,3.6,5,8.6,5,15
		c0,0.4,0,1,0,1.8h-29.1c0.2,4.3,1.5,7.6,3.6,9.9c2.2,2.3,4.9,3.4,8.2,3.4c2.4,0,4.5-0.6,6.2-1.9C665,350.1,666.4,348,667.4,345.2z
		 M645.6,334.5h21.8c-0.3-3.3-1.1-5.8-2.5-7.4c-2.1-2.6-4.8-3.8-8.2-3.8c-3,0-5.6,1-7.7,3.1C647,328.4,645.8,331.1,645.6,334.5z"/>
	<path class="st1" d="M682.4,357.8v-39.1h6v5.9c1.5-2.8,2.9-4.6,4.2-5.5c1.3-0.9,2.7-1.3,4.3-1.3c2.2,0,4.5,0.7,6.8,2.1l-2.3,6.1
		c-1.6-1-3.2-1.4-4.9-1.4c-1.4,0-2.7,0.4-3.9,1.3c-1.2,0.9-2,2.1-2.5,3.6c-0.7,2.4-1.1,4.9-1.1,7.7v20.5L682.4,357.8L682.4,357.8z"
		/>
</g>
<rect x="-15522.6" y="-16464" class="st6" width="32766" height="32766"/>
</svg>
