<?xml version="1.0" encoding="UTF-8"?>
<svg id="Layer_1" xmlns="http://www.w3.org/2000/svg" version="1.1" viewBox="0 0 1152 225">
  <!-- Generator: Adobe Illustrator 29.8.3, SVG Export Plug-In . SVG Version: 2.1.1 Build 3)  -->
  <defs>
    <style>
      .st0 {
        fill: #5f8f3e;
      }

      .st1 {
        fill: #231f20;
      }

      .st2 {
        fill: #fff;
      }

      .st3 {
        fill: #96bf47;
      }

      .st4 {
        fill: #010101;
      }
    </style>
  </defs>
  <g>
    <path class="st4" d="M686.8,203.7l15.8-85.1c2-10.4,3.5-19.5,4.5-28h6.8l-2.5,17.1h.3c7.1-10.7,17-18.2,27.5-18.2,15,0,20.6,12.4,20.6,25.4,0,26.7-18.3,57.4-43.5,57.4s-12.9-2.8-15.8-2.8h-.3l-6.3,34.2h-7.1ZM701.6,160.6c3.6,2.8,8.9,4.5,15.3,4.5,20.9,0,35.5-29.7,35.5-50s-3.6-20-15.3-20-25.9,14.3-30.3,38.3l-5.1,27.2Z"/>
    <path class="st4" d="M813.6,171.7c-.2-6.4.8-12.8,2-21.3h-.3c-9.1,17.1-19.1,21.9-29.5,21.9s-19.3-10.4-19.3-24.6c0-27,19.3-58.6,50-58.6s11.9.7,16,2.2l-8.4,43.5c-2.8,14.8-3.8,28.4-3.5,36.9h-6.9ZM824.2,96.3c-1.8-.7-4.6-1.2-9.6-1.2-22.8,0-40.6,25.4-40.7,50.3-.2,10.4,2.8,19.6,13.5,19.6s27.4-19.3,31.2-39.7l5.6-29Z"/>
    <path class="st4" d="M837.5,171.7l10.1-54.3c2-10.1,3.1-18.3,3.8-26.9h6.4c-.5,6.4-1.2,10.7-2.1,19.2h.3c4.8-10.7,12.7-19.9,22.6-19.9s2.1-.3,3-.3l-1.5,7.3c-.7-.2-1.5-.3-2.6-.3-10.4,0-21.9,16.6-25.2,33.9l-7.6,41.2h-7.1Z"/>
    <path class="st4" d="M914,73.2l-3.5,17.3h18.6l-1.3,6.4h-18.6l-8.7,47c-1,5.3-1.6,9.3-1.6,13.6s2.1,7.4,7.1,7.4,4.3-.2,5.8-.7l.5,5.8c-2.1.7-4.9,1.1-7.8,1.1-9.4,0-13-6.3-13-12.9s.5-8.2,1.8-14.3l8.9-47h-11.4l1.2-6.4h11.5l2.6-14.2,7.9-3.1Z"/>
    <path class="st4" d="M928.2,171.7l10.6-56.9c1.8-9.4,2.8-17.8,3.5-24.2h6.8l-2.3,17.1h.3c6.9-10.7,16.8-18.3,27.7-18.3s17.6,4.7,17.6,19.7-.7,8.8-1.5,13.1l-9.1,49.5h-7.1l9.2-49.7c.7-3.6,1.2-7.9,1.2-12,0-8.2-3.3-14.4-13-14.4s-25.6,14.1-29,33.2l-7.8,42.9h-7.1Z"/>
    <path class="st4" d="M1049.6,165.2c-4.1,2.8-11.7,5.9-21.6,5.9-18.5,0-24.9-14.5-24.9-29.7,0-22.8,16-52.6,38.6-52.6s18.5,8.4,18.5,17.3c0,20.1-23.1,25.7-49,25.6-.8,3.6-1,14,.7,19.8,2.8,8.9,8.9,13.4,17.3,13.4s14.7-3.1,18.3-5.3l2.1,5.6ZM1053,106.3c0-7.3-5.1-11.2-12.5-11.2-12.2,0-23,13.2-28,30.3,20.6.2,40.5-3.3,40.5-19v-.2Z"/>
    <path class="st4" d="M1064.9,171.7l10.1-54.3c2-10.1,3.1-18.3,3.8-26.9h6.4c-.5,6.4-1.2,10.7-2.1,19.2h.3c4.8-10.7,12.7-19.9,22.6-19.9s2.1-.3,3-.3l-1.5,7.3c-.7-.2-1.5-.3-2.6-.3-10.4,0-21.9,16.6-25.2,33.9l-7.6,41.2h-7.1Z"/>
    <path class="st4" d="M1106.5,160.4c2.8,2.1,8.1,4.5,13.9,4.5,10.4,0,17.5-7.4,17.5-16.5s-3.3-12.7-10.7-17.5c-7.9-5.1-12.2-12.2-12.2-19.6,0-12.4,10.1-22.4,24.1-22.4s10.7,1.6,13,3.5l-2.6,6.1c-2.5-1.5-6.6-3.3-11.2-3.3-9.6,0-16,6.8-16,14.8s4.3,11.5,10.7,16c7.6,5.1,12.2,12.4,12.2,20.4,0,16-11.7,24.7-25.4,24.7s-13.4-2.6-16-4.8l2.8-5.9Z"/>
  </g>
  <g>
    <g>
      <path class="st3" d="M61.7,78.7c-.2,0-.3,0-.5,0-1.8-.3-3.3-1.9-3.4-3.7,0-1.7-1.1-42.4,22.7-51.7,6-2.3,11.5-1.8,16.3,1.6,5.7,4.1,9.9,12.1,12.4,23.8,1.8,8.3,2.1,15.4,2.1,15.7,0,1.8-1.3,3-3.2,2.8-1.8-.2-3.3-1.9-3.4-3.6-.3-7.4-2.8-27.8-11.1-33.6-2.7-1.9-5.9-2-9.8-.5-20.4,7.9-19.5,46.1-19.5,46.5,0,1.6-1.1,2.8-2.7,2.8Z"/>
      <path class="st3" d="M112.6,38.7l-92.3,28.6s-4,1.1-4.9,2.2c-1,1.2-1.2,4.5-1.2,4.5L0,184.1l107.1,20.1,8.2-165.5c-1.2-.2-2.4,0-2.7,0Z"/>
      <path class="st0" d="M144.6,52.9s-.2-.8-.6-1.2c-.5-.3-1-.4-1-.4l-15.1-1.1-11.1-11c-.4-.3-.9-.5-1.4-.6l-8.2,165.5,58-12.6-20.5-138.6Z"/>
      <path class="st2" d="M74.5,130.7c-1.6-2.2-3.6-4.2-5.6-5.9-2-1.7-4.1-3.2-6.1-4.5-1.5-.9-2.7-1.8-3.8-2.6-1.1-.9-1.9-1.7-2.6-2.5-.7-.8-1.2-1.7-1.5-2.5-.3-.9-.5-1.7-.4-2.7,0-1.2.3-2.4.8-3.4.5-1,1.1-1.9,2-2.6.9-.7,1.9-1.3,3.1-1.7,1.2-.4,2.6-.7,4.1-.8,1.6,0,3.2,0,4.7.1,1.5.2,3,.4,4.3.8,1.4.3,2.6.7,3.7,1.1,1.1.4,2.1.9,3,1.3l7.1-21.3c-1.1-.5-2.3-1-3.8-1.5-1.5-.4-3.1-.8-5-1-1.8-.2-3.8-.4-5.8-.3-2.1,0-4.2.1-6.5.4-4.9.6-9.3,2-13.1,3.9-3.7,1.9-7,4.3-9.7,7.2-2.6,2.8-4.7,6.1-6.2,9.7-1.5,3.6-2.3,7.6-2.5,12-.1,2.6.1,5,.7,7.2.6,2.2,1.4,4.3,2.6,6.2,1.1,1.9,2.5,3.7,4.1,5.3,1.6,1.6,3.3,3.2,5.2,4.5,1.5,1.1,2.8,2.2,3.9,3.2,1.1,1,1.9,2,2.6,3,.7,1,1.1,2,1.4,3,.3,1,.4,2.1.3,3.2,0,1.1-.3,2.2-.7,3.1-.4.9-1,1.7-1.8,2.4-.8.6-1.7,1.1-2.8,1.3-1.1.2-2.4.3-3.8,0-1.6-.2-3.2-.7-4.8-1.3-1.6-.6-3.1-1.3-4.5-2.1-1.4-.8-2.7-1.6-3.9-2.4-1.1-.8-2.2-1.6-3-2.3l-4.9,16.2c.8,1,1.8,2.1,3.1,3.1,1.2,1,2.6,2,4.2,2.9,1.6.9,3.3,1.8,5.2,2.5,1.9.8,3.9,1.4,6,1.9,0,0,0,0,.1,0,0,0,0,0,.1,0,0,0,0,0,.1,0,0,0,0,0,.1,0,4.4,1,8.7,1.2,12.7.7,4.1-.6,7.9-1.9,11.2-4.1,3.4-2.3,6.1-5.4,8.1-9.4,2-4,3.3-8.9,3.5-14.5.1-3.4-.3-6.6-1.3-9.4-.9-2.8-2.3-5.3-4-7.6Z"/>
      <path class="st3" d="M39.2,73.1c-.2,0-.3,0-.5,0-1.8-.3-3-1.9-2.7-3.7.2-1.7,6.4-42.4,31.9-51.7,6.4-2.3,11.8-1.8,16,1.6,5,4.1,7.8,12.1,8.2,23.8.3,8.3-.7,15.4-.7,15.7-.2,1.8-1.9,3-3.6,2.8-1.8-.2-3-1.9-2.8-3.6,1-7.4,2.1-27.8-5.2-33.6-2.3-1.9-5.5-2-9.7-.5-21.8,7.9-27.6,46.1-27.7,46.5-.2,1.6-1.6,2.8-3.2,2.8Z"/>
    </g>
    <path class="st1" d="M232.7,123.4c-5.8-3.1-8.8-5.8-8.8-9.4s4.1-7.6,10.6-7.6,11.1,1.7,14.2,3.1l5.3-16.2c-3.6-2.1-10.4-3.8-19.2-3.8-20,0-33.7,11.4-33.7,27.4s6.4,16,15,21c6.9,4,9.4,6.8,9.4,10.9s-3.5,7.8-9.9,7.8c-7.1.2-14.5-2.8-18.7-5l-5.6,16.2c4.3,3,13.1,5.5,22.5,5.6,20.5.2,35.2-10.1,35.2-28.3s-7.4-16.7-16.4-21.8Z"/>
    <path class="st1" d="M314.4,89.3c-10.1,0-18,4.8-24.1,12.1l-.3-.2,8.8-45.8h-22.8l-22.1,116.5h22.8l7.6-39.8c3-15,10.7-24.3,18-24.3s7.1,3.5,7.1,8.4-.3,6.9-1,10.1l-8.6,45.6h22.8l8.9-47.1c1-5,1.7-10.9,1.7-14.9,0-12.9-6.8-20.7-18.7-20.7Z"/>
    <path class="st1" d="M384.6,89.3c-27.4,0-45.6,24.8-45.6,52.4s10.9,31.9,31.4,31.9,45.1-24.1,45.1-52.4-9.6-31.9-30.9-31.9ZM373.4,156.1c-7.8,0-11.1-6.6-11.1-14.9,0-13.1,6.8-34.4,19.2-34.4s10.7,6.9,10.7,13.7c0,14.1-6.8,35.5-18.8,35.5Z"/>
    <path class="st1" d="M473.9,89.3c-9.1,0-18,5-24.1,13.6h-.3l1.3-12.2h-20.2c-1,8.3-2.8,20.8-4.6,30.2l-15.9,83.5h22.8l6.3-33.7h.5c2.6,1.7,7.8,3,13.4,3,26.8,0,44.3-27.4,44.3-55.2s-6.8-29.1-23.5-29.1ZM452.1,156.4c-4.1,0-6.9-1.3-9.4-3.3l3.8-21.3c2.6-14.2,10.1-23.6,18-23.6s9.1,6.4,9.1,12.6c0,14.7-8.8,35.7-21.5,35.7Z"/>
    <path class="st1" d="M529.9,56.6c-7.3,0-13.1,5.8-13.1,13.2s4.3,11.4,10.7,11.4h.3c7.1,0,13.2-4.8,13.4-13.2,0-6.6-4.5-11.4-11.4-11.4Z"/>
    <polygon class="st1" points="498 172 520.8 172 536.4 91.1 513.4 91.1 498 172"/>
    <path class="st1" d="M594.4,91h-15.9l.8-3.8c1.3-7.8,6-14.7,13.6-14.7s5.3.5,7.3,1.2l4.5-17.9c-2.6-1.2-6.8-2-12.4-2-8.1,0-16.2,2.3-22.3,7.6-7.8,6.6-11.4,16.2-13.2,25.8l-.7,3.8h-10.6l-3.3,17.2h10.6l-12.1,63.8h22.8l12.1-63.8h15.7l3.1-17.2Z"/>
    <path class="st1" d="M649.3,91.1l-13.9,36.2c-3.3,8.8-5,13.9-6.8,19.3h-.3c-.3-5.3-1-11.1-2-19.2l-3.6-36.4h-24l13.7,74.2c.3,1.7.2,2.6-.5,3.8-2.6,5.1-7.1,10.1-12.4,13.7-4.3,3.1-9.1,5.1-12.9,6.4l6.3,19.3c4.6-1,14.2-4.8,22.3-12.4,10.4-9.8,20-24.8,29.9-45.3l27.9-59.8h-23.8Z"/>
  </g>
</svg>