<svg xmlns="http://www.w3.org/2000/svg" viewBox="0 0 1820.06 375.29"><path d="M119.61,137.47V123.32A105.33,105.33,0,0,0,45,314l-1.47-1.61c-16.64-18.65-26.2-43.24-26.2-70.16A104.46,104.46,0,0,1,119.61,137.47Z" fill="#25f4ee"></path><path d="M122.1,290.77a48.88,48.88,0,0,0,48.47-46.72L170.69,15l41.58.07-.1-.51A80,80,0,0,1,210.82,0H153.55l-.09,229.51a48,48,0,0,1-70.38,40.8C91.83,282.44,106,290.77,122.1,290.77Z" fill="#25f4ee"></path><path d="M290.49,93.34V79.67a79.19,79.19,0,0,1-43.39-12.9C258.23,79.55,273.34,89.67,290.49,93.34Z" fill="#25f4ee"></path><path d="M247.1,66.77a79.34,79.34,0,0,1-19.59-52.24H211.77C215.81,36.35,229.16,55.07,247.1,66.77Z" fill="#fe2c55"></path><path d="M105.41,179.13c-26.54,0-48.58,22-48.58,48.57,0,18.49,10.93,34.55,26.25,42.61a48,48,0,0,1,53.23-74V137.85a105.73,105.73,0,0,0-14.21-1c-.83,0-1.66.05-2.49.07l-.39.05,0,44.16A44.46,44.46,0,0,0,105.41,179.13Z" fill="#fe2c55"></path><path d="M290.49,92.43l-.3-.05-.13,44.08a136,136,0,0,1-79.57-25.79l-.06,117A105.5,105.5,0,0,1,45,314a105.34,105.34,0,0,0,182.51-71.77V125.85a136.21,136.21,0,0,0,79.68,25.62V94.21A79.26,79.26,0,0,1,290.49,92.43Z" fill="#fe2c55"></path><path d="M210.82,227.7V111.32a136.21,136.21,0,0,0,79.67,25.62V92.43A79.71,79.71,0,0,1,247.1,66.77a79.84,79.84,0,0,1-34.93-52.24H170.24l-.09,229.52a48,48,0,0,1-87.07,26.26,48.12,48.12,0,0,1,22.33-90.75,47.3,47.3,0,0,1,14.2,2.23v-44.9A105.31,105.31,0,0,0,45,314,105.33,105.33,0,0,0,210.82,227.7Z"></path><path d="M337.36,48.57H431.2l-8.61,26.85H398.24v99.27H367.9V75.41l-30.52.06Z"></path><path d="M584.94,48.57h96l-8.62,26.85H645.87v99.27H615.48V75.41L585,75.47Z"></path><polygon points="436.93 88.69 467.02 88.69 466.98 174.68 437.11 174.68 436.93 88.69"></polygon><path d="M479,48.22H509V107l29.79-29.23h35.88L537,114.28l42.2,60.4H546.07L517.91,132.8,509,141.46v33.22H479Z"></path><path d="M797.4,48.22h30.06V107l29.78-29.23h35.88l-37.68,36.56,42.2,60.4H864.53L836.36,132.8l-8.9,8.66v33.22H797.4Z"></path><circle cx="451.96" cy="63.71" r="15.15"></circle><path d="M677.11,123.2a51.47,51.47,0,0,1,47.44-51.3c-1.33-.11-3.15-.18-4.51-.18a51.48,51.48,0,0,0,0,103c1.36,0,3.18-.07,4.51-.17A51.47,51.47,0,0,1,677.11,123.2Z" fill="#25f4ee"></path><path d="M736.24,71.72c-1.37,0-3.2.07-4.54.18a51.46,51.46,0,0,1,0,102.6c1.34.11,3.17.18,4.54.18a51.48,51.48,0,1,0,0-103Z" fill="#fe2c55"></path><path d="M728.11,71.72a51.48,51.48,0,1,0,51.47,51.48A51.48,51.48,0,0,0,728.11,71.72Zm0,76.51a25,25,0,1,1,25-25A25,25,0,0,1,728.11,148.23Z"></path><path d="M390.52,297.71l42.12-88.38h17.1l15.12,124H445.78l-10.62-88.56-36.36,74.7H382.6l-36.54-74.7-10.62,88.56H316.37l15.11-124H348.4Z"></path><path d="M551.26,333.35V321.29C546,329.93,534,335.15,523,335.15a42.26,42.26,0,0,1-30.23-12.24c-8.29-8.1-12.42-18.72-12.42-31.68s4.13-23.4,12.42-31.5A42.26,42.26,0,0,1,523,247.49c11,0,22.68,4.86,28.26,13.68V249.29h18.36v84.06Zm-8.1-60.84a26.07,26.07,0,0,0-18-7,25.39,25.39,0,0,0-18.36,7.2c-4.86,4.68-7.38,10.8-7.38,18.36s2.52,13.86,7.38,18.72a25.55,25.55,0,0,0,18.36,7.38c14.4,0,25.92-10.26,25.92-26.1C551.08,283.31,548.38,277,543.16,272.51Z"></path><path d="M614.08,333.35H595.54V249.29h18.54v19.26c4.14-14,11.7-21.06,23-21.06,6.66,0,11.7,1.08,14.94,3.24L649,267.83A26.29,26.29,0,0,0,636.58,265c-15.12,0-22.5,14.58-22.5,38.16Z"></path><path d="M721.54,333.35l-35.82-39.06v39.06H667.36V203.57h18.36V277l26.64-27.72H737.2l-35.82,36.54,43.92,47.52Z"></path><path d="M833.14,297.89H766.36C768,310.85,778.42,319,792.1,319c9.54,0,18.54-4.32,22.86-12.06l15.12,6.66c-7.2,14.22-22.14,21.6-38.88,21.6-12.24,0-22.5-4.14-30.78-12.24S748,304.19,748,291.05s4.14-23.58,12.42-31.5c8.28-8.1,18.54-12.06,30.78-12.06s22.32,4,30.24,12.06c7.91,7.92,11.87,18.36,11.87,31.5A65.94,65.94,0,0,1,833.14,297.89Zm-18-13.5c-1.62-13-11.16-20.7-23.94-20.7-13.14,0-23.22,7.92-24.84,20.7Z"></path><path d="M878.14,217.43v31.86H896v15.3H878.14v68.76H859.6V264.59H844.48v-15.3H859.6V217.43Z"></path><path d="M934.84,215.27c0,6.66-5.22,11.7-12.24,11.7-6.66,0-12.42-5.22-12.42-11.7s5.76-11.7,12.42-11.7C929.62,203.57,934.84,208.61,934.84,215.27ZM913.42,333.35V249.29h18.36v84.06Z"></path><path d="M976.23,333.35H957.69V249.29h18.54v12.6c4.5-9.18,15.66-14.4,25.74-14.4,20.34,0,32,13.14,32,36.9v49h-18.54v-46.8c0-13.14-6.84-20.88-17.64-20.88-12.24,0-21.6,7.2-21.6,22.5Z"></path><path d="M1073.07,344c4.32,8.64,14.22,14,23.58,14,18.72,0,28.08-11,28.08-33.12v-4.32c-4.86,9.18-16.74,14.58-28.44,14.58a41.43,41.43,0,0,1-30.06-12.06c-8.28-8.1-12.42-18.54-12.42-31.5q0-19.71,12.42-31.86a41.59,41.59,0,0,1,30.06-12.24c11.7,0,23.4,5.4,28.44,14.22V249.29h18.18v71.64c0,36.18-15.48,54.36-46.26,54.36a43.38,43.38,0,0,1-38.88-23.58l7.56-4Zm25.38-78.48a24.84,24.84,0,0,0-18.18,7.38c-4.86,4.86-7.38,11-7.38,18.54,0,7.74,2.52,13.86,7.38,18.72s11,7.2,18.18,7.2a26.39,26.39,0,0,0,18-7c5.22-4.86,7.92-11.16,7.92-18.9C1124.37,275.39,1113,265.49,1098.45,265.49Z"></path><path d="M1217.79,333.35v-124h49.86c12.42,0,22,3.78,28.26,11.52s9.54,16.92,9.54,27.9-3.24,20.16-9.54,27.72-15.66,11.34-28.26,11.34h-30.6v45.54ZM1237.05,227v43.38h29.52c26.46,1.26,25.92-44.46.72-43.38Z"></path><path d="M1386.09,333.35V321.29c-5.22,8.64-17.28,13.86-28.26,13.86a42.3,42.3,0,0,1-30.24-12.24c-8.28-8.1-12.42-18.72-12.42-31.68s4.14-23.4,12.42-31.5a42.3,42.3,0,0,1,30.24-12.24c11,0,22.68,4.86,28.26,13.68V249.29h18.36v84.06Zm-8.1-60.84a26.07,26.07,0,0,0-18-7,25.39,25.39,0,0,0-18.36,7.2c-4.86,4.68-7.38,10.8-7.38,18.36s2.52,13.86,7.38,18.72a25.55,25.55,0,0,0,18.36,7.38c14.4,0,25.92-10.26,25.92-26.1C1385.91,283.31,1383.21,277,1378,272.51Z"></path><path d="M1448.91,333.35h-18.54V249.29h18.54v19.26c4.14-14,11.7-21.06,23-21.06,6.65,0,11.7,1.08,14.94,3.24l-3.07,17.1a26.23,26.23,0,0,0-12.41-2.88c-15.12,0-22.5,14.58-22.5,38.16Z"></path><path d="M1527.38,217.43v31.86h17.82v15.3h-17.82v68.76h-18.54V264.59h-15.11v-15.3h15.11V217.43Z"></path><path d="M1581.2,333.35h-18.54V249.29h18.54v12.6c4.5-9.18,15.66-14.4,25.74-14.4,20.34,0,32,13.14,32,36.9v49h-18.54v-46.8c0-13.14-6.84-20.88-17.64-20.88-12.24,0-21.6,7.2-21.6,22.5Z"></path><path d="M1743.74,297.89H1677c1.62,13,12.06,21.06,25.74,21.06,9.54,0,18.54-4.32,22.86-12.06l15.12,6.66c-7.2,14.22-22.14,21.6-38.88,21.6-12.24,0-22.5-4.14-30.78-12.24s-12.42-18.72-12.42-31.86,4.14-23.58,12.42-31.5c8.28-8.1,18.54-12.06,30.78-12.06s22.32,4,30.24,12.06c7.92,7.92,11.88,18.36,11.88,31.5A62.29,62.29,0,0,1,1743.74,297.89Zm-18-13.5c-1.62-13-11.16-20.7-23.94-20.7-13.14,0-23.22,7.92-24.84,20.7Z"></path><path d="M1782.08,333.35h-18.54V249.29h18.54v19.26c4.14-14,11.7-21.06,23-21.06,6.66,0,11.7,1.08,14.94,3.24l-3.06,17.1a26.29,26.29,0,0,0-12.42-2.88c-15.12,0-22.5,14.58-22.5,38.16Z"></path></svg>