<?xml version="1.0" encoding="UTF-8"?>
<svg id="Layer_1" xmlns="http://www.w3.org/2000/svg" version="1.1" viewBox="0 0 1080 1080">
  <!-- Generator: Adobe Illustrator 30.0.0, SVG Export Plug-In . SVG Version: 2.1.1 Build 123)  -->
  <defs>
    <style>
      .st0 {
        fill: #9e9e9e;
      }
    </style>
  </defs>
  <path class="st0" d="M1071.5,519.94l-369.81,369.79c-6.98,7-18.51-.76-14.65-9.88l174.85-400.04c1.62-4.44-1.67-9.14-6.38-9.14h-62.8v-63.19c0-13.16-1.95-24.82-5.79-34.64-.89-2.3-1.9-4.51-3-6.59l176-176c7-7,18.51.77,14.65,9.88l-82.12,261.11c-1.9,4.48,1.4,9.44,6.26,9.44h152.38c25.71,0,38.58,31.07,20.41,49.26Z"/>
  <path class="st0" d="M75.91,493.9c-53.99,11.37-66.19,50.25-66.19,50.25v21.05l44.53-9.39s4.58-11.64,21.05-15.11c13.11-2.76,19.82,2.22,19.82,15.04v5.18s-10.67-.19-24.4,2.71c-45.76,9.64-69.25,32.57-69.25,63.7,0,26.53,16.47,45.02,50.34,37.89,23.49-4.95,36.91-17.83,44.53-32.57l2.44,17.18,52.76-11.1v-93.04c0-44.53-24.4-62.57-75.64-51.78ZM95.12,593.87c0,8.85-5.48,20.98-21.96,24.46-9.45,1.99-16.17-.27-16.17-9.72,0-8.23,5.18-15.12,18.91-18,11.29-2.39,19.21-2.84,19.21-2.84v6.11Z"/>
  <path class="st0" d="M185.32,400.96v230.56l56.88-11.98v-230.56l-56.88,11.98Z"/>
  <path class="st0" d="M367.02,541.9c0,5.54-3.08,10.8-10.15,12.3-7.99,1.68-12.3-1.11-12.3-14.32v-52.58l62.4-13.16v-45.49l-62.4,13.16v-39.97l-53.8,11.34-2.76,40.55-22.14,4.66v45.49l21.82-4.59v53.18c0,38.12,23.99,57.98,63.02,49.75,31.66-6.68,50.72-24.53,58.41-47.97v-21.22l-42.11,8.87Z"/>
  <path class="st0" d="M508.42,401.43c-53.18,11.2-84.54,55.01-84.54,101.43s31.36,77.32,84.54,66.12c53.18-11.2,84.54-55.62,84.54-101.74s-31.36-77.02-84.54-65.82ZM554.3,464.15l-17.23,15.97-.71.66-5.79,5.35c-.64.59-.82,1.53-.45,2.32l3.35,7.25.22.49,9.99,21.6c.81,1.77-1.11,3.55-2.81,2.59l-16.49-9.2-1.77-.99-9.96-5.57c-.76-.44-1.7-.32-2.34.27l-12.42,11.51-2.84,2.62-8.46,7.84c-1.43,1.31-3.72.03-3.33-1.87l2.64-13.31.67-3.43,2.96-14.97c.17-.86-.24-1.72-.99-2.14l-6.98-3.9-.67-.37-20.56-11.51c-1.7-.94-1.19-3.52.74-3.75l23.86-2.84.66-.08,7.59-.89c.86-.1,1.56-.76,1.73-1.6l2.1-10.6.61-3.08,3.57-18.04c.39-1.92,2.98-2.22,3.8-.45l6.18,13.34,1.38,2.98,6.01,13.02c.35.79,1.19,1.26,2.05,1.16l12.92-1.55,1.9-.22,17.28-2.07c1.94-.22,3.03,2.15,1.6,3.47Z"/>
  <path class="st0" d="M771.23,378.95c-6.85-17.56-21.92-28.26-49.46-22.46-23.67,4.98-39.65,22.49-46.1,36.16l-2.15-20.16-53.8,11.34v156.16l56.87-11.98v-85.15c0-12.3,5.85-26.14,23.37-29.83,14.15-2.98,19.06,5.82,19.06,19.65v86.39l56.87-11.98v-99.62c0-10.36-1.4-20.22-4.64-28.53Z"/>
  <path class="st0" d="M112.45,733.54c-17.68,3.73-28.13,14.79-34.71,31.14-4.31-13.61-12.25-21.25-31.07-17.28-15.43,3.25-26.99,13.86-32.89,29.85l-.91-20.46-5.89,1.24v111.16l7.49-1.58v-69.87c0-23.59,14.5-39.81,31.07-43.29,19.05-4.02,27.89,7.72,27.89,30.64v70.11l7.49-1.58v-69.87c0-26.31,14.3-39.76,29.71-43,21.1-4.46,29.27,7.44,29.27,28.53v71.91l7.49-1.56v-71.92c0-25.17-11.12-39.17-34.94-34.15Z"/>
  <path class="st0" d="M229.97,708.79c-31.55,6.65-53.1,36.81-53.1,69.25s21.55,53.08,53.1,46.43c31.53-6.63,53.08-36.81,53.08-69.25s-21.55-53.08-53.08-46.43ZM229.97,817.68c-29.73,6.26-45.61-15.8-45.61-41.2s15.88-54.61,45.37-60.84c29.95-6.31,45.83,15.76,45.83,41.17s-15.88,54.61-45.59,60.87Z"/>
  <path class="st0" d="M365.17,680.31c-22.01,4.63-37.67,21.53-44.01,37.4v-84.84l-7.49,1.58v170.13l5.89-1.24,1.6-25.51c9.52,17.95,27.89,21.57,44.01,18.17,31.07-6.54,53.08-37.05,53.08-70.39,0-31.07-22.91-51.65-53.08-45.29ZM365.17,789.19c-14.3,3.01-44.01,1.55-44.01-43.14,0-27.22,15.19-52.88,44.01-58.95,26.53-5.59,45.59,13.31,45.59,40.07,0,33.58-22.24,57.08-45.59,62.01Z"/>
  <path class="st0" d="M449.09,664.9v111.14l7.49-1.56v-111.16l-7.49,1.58ZM446.38,613.3v12.92l12.92-2.73v-12.92l-12.92,2.73Z"/>
  <path class="st0" d="M495.59,596.12v170.13l7.49-1.58v-170.13l-7.49,1.58Z"/>
  <path class="st0" d="M542.09,645.3v111.16l7.49-1.58v-111.16l-7.49,1.58ZM539.38,593.7v12.92l12.92-2.71v-12.94l-12.92,2.73Z"/>
  <path class="st0" d="M647.12,706.65c-1.14,11.58-6.81,24.56-22.68,27.91-17.48,3.68-25.19-6.49-25.19-25.32v-69.18l44.47-9.37v-6.81l-44.47,9.37v-30.62l-5.91,1.24-.67,30.77-19.28,4.05v6.8l18.37-3.87v71.23c0,24.04,14.74,32.29,32.44,28.55,18.15-3.82,26.55-17.83,28.58-30.28v-5.67l-5.67,1.19Z"/>
  <path class="st0" d="M755.1,600.43l-44.01,101.58-45.81-82.67-5.21,1.11v5.22l46.96,85.38-29.73,68.64v5l5-1.06,77.81-179.26v-5l-5,1.06Z"/>
</svg>