<?xml version="1.0" encoding="UTF-8"?>
<svg id="Layer_1" xmlns="http://www.w3.org/2000/svg" version="1.1" viewBox="0 0 1080 1080">
  <!-- Generator: Adobe Illustrator 30.0.0, SVG Export Plug-In . SVG Version: 2.1.1 Build 123)  -->
  <defs>
    <style>
      .st0 {
        fill: #9e9e9e;
      }
    </style>
  </defs>
  <path class="st0" d="M540.02,1080C242.26,1080,0,837.78,0,540.02S242.26,0,540.02,0s539.98,242.26,539.98,540.02-242.22,539.98-539.98,539.98M540.02,18.91C252.67,18.91,18.9,252.67,18.9,540.02s233.77,521.08,521.12,521.08,521.08-233.77,521.08-521.08S827.33,18.91,540.02,18.91"/>
  <path class="st0" d="M590.96,662.41c-.89.13-1.77-.15-1.77-1.05v-100.44c-2.09,3.84-3.57,6.33-4.28,7.68-23.49,44.78-71.76,60.65-116.38,54.12-41.1-6.01-67.61-31.05-84.26-67.75-16.53-36.43-19.1-75.14-17.38-114.36,1.62-36.88,8.36-72.57,26.02-105.58,31.93-59.68,103.48-88.79,167.91-67.72,9.11,2.98,17.56,7.99,27.28,12.51.3-6.56.93-20.77.93-20.77h95.68s.48,196.05.59,296.69c0,49.53-18.38,64.85-42.8,82.1-18.08,12.78-44.32,23.5-51.54,24.57M588.33,308.59c-.06-4.63-2.54-10.42-5.87-13.63-24.14-23.34-64.74-19.05-85.65,8.65-13.14,17.41-18.83,37.79-22.8,58.78-8.9,47.09-8.37,94.53-4.23,141.95,1.99,22.89,5.44,45.79,17.28,66.24,9.23,15.95,22.15,25.61,41.67,24.49,31.6-1.82,59.64-30.73,59.81-62.55.2-37.17.26-186.46-.21-223.92"/>
  <path class="st0" d="M679.88,631.06l-2.03,2.47c-11.39,15.07-37.26,35.48-111.74,65.16,0,0-84.22,34.99-84.89,113.85l-.45,52.87c-.02,2.49,3,3.64,4.57,1.74l2.03-2.46c10.83-15.18,42.6-38.37,111.74-66.36,0,0,84.22-34.61,84.89-112.65l.45-52.87c.02-2.49-3-3.64-4.57-1.74M647.34,702.7c-10.29,15.59-25.02,27.01-41.59,37.08-11.13,6.76-23.35,11.88-34.97,18.49-16.82,9.57-32.78,20.66-46.08,35.18-6.89,7.52-12.71,15.69-17.25,24.61.29-5.69,2.32-11.12,4.92-16.43,8.15-16.66,21.09-29.87,36.23-41.19,12.41-9.29,26.06-16.12,39.71-22.55,18.32-8.63,35.46-18.35,49.95-31.37,5.32-4.79,10.09-9.98,13.84-15.92.39-.62.85-1.21,1.41-1.75-1,5-3.31,9.51-6.16,13.84"/>
  <polygon class="st0" points="98.96 717.44 94.41 703.63 122.85 694.25 113.36 665.56 84.93 674.9 80.38 661.09 147.51 638.97 152.05 652.75 125.69 661.46 135.18 690.19 161.51 681.51 166.09 695.32 98.96 717.44"/>
  <polygon class="st0" points="68.31 590.83 66.98 576.35 137.29 569.89 138.61 584.33 68.31 590.83"/>
  <path class="st0" d="M65.95,504.57l2.88-21.6c2.92-21.56,19.31-35,40.06-32.19,20.71,2.73,33.01,19.94,30.13,41.61l-2.88,21.57-70.19-9.38ZM126.21,491.43c2.07-15.62-6.24-23.96-19.35-25.74-13.11-1.77-23.33,4.14-25.4,19.72l-.89,6.39,44.79,6.02.85-6.39Z"/>
  <path class="st0" d="M93.6,377.22l8.64-19.86c8.6-19.9,27.99-28.32,47.15-20.01,19.09,8.31,26.21,28.14,17.54,48.11l-8.64,19.87-64.69-28.1ZM154.93,381.06c6.24-14.4.52-24.67-11.56-29.95-12.07-5.21-23.49-2.4-29.73,12l-2.55,5.87,41.28,17.94,2.55-5.87Z"/>
  <polygon class="st0" points="154.42 262.72 183.66 226.27 193.59 234.29 173.47 259.36 186.1 269.47 203.82 247.39 213.53 255.19 195.81 277.27 208.62 287.57 229.63 261.31 239.6 269.29 209.47 306.84 154.42 262.72"/>
  <path class="st0" d="M275.31,192.75c-4.84-.59-12.52-2.85-12.52-2.85,0,0,5.43,5.69,8.45,9.82l17.5,23.89-11,8.05-42.13-57.53,1.18-.88,48.56,5.91c4.65.55,12.41,2.92,12.41,2.92,0,0-5.47-5.91-8.34-9.86l-17.54-23.93,11-8.05,42.17,57.57-1.18.85-48.55-5.91Z"/>
  <path class="st0" d="M423.93,115.2c-3.92-20.49,7.68-38.25,28.58-42.24,11.3-2.18,20.05-.7,26.99,4.73l-7.83,11.45c-4.14-2.88-8.68-4.87-16.73-3.36-12.52,2.4-18.83,13.66-16.32,26.62,2.44,12.92,12.7,21.2,27.28,18.42,4.47-.89,9.82-2.73,13.07-5.13l-2.14-11.22-16.73,3.21-2.4-12.55,29.76-5.69,5.91,30.98c-3.32,4.02-12.4,10.75-25.03,13.18-22.64,4.32-40.51-7.94-44.42-28.4"/>
  <polygon class="st0" points="554.27 65.13 600.95 68.79 599.95 81.53 567.82 79.05 566.57 95.23 594.85 97.44 593.89 109.89 565.53 107.67 564.28 124.07 597.88 126.69 596.92 139.42 548.77 135.7 554.27 65.13"/>
  <path class="st0" d="M674.79,82.97l1.07.41,19.13,48.04,45.53-23.71,1.18.44-25.15,66.8-13.15-4.91,9.34-24.85c1.7-4.43,4.84-11.37,4.84-11.37,0,0-6.17,4.36-10.63,6.65l-18.61,9.79-1.25-.48-7.61-19.61c-1.81-4.69-3.62-12-3.62-12,0,0-2.18,7.24-3.84,11.71l-9.34,24.85-13.03-4.95,25.14-66.79Z"/>
  <path class="st0" d="M766.99,188.24l13.67,1.55c-.56,5.98.48,11.41,6.27,15.66,4.84,3.58,9.75,3.47,12.19.11,2.99-4.03.89-7.8-2.77-14.11l-1.99-3.4c-5.76-9.86-8.05-18.54-1-28.06,6.5-8.83,18.13-10.56,28.62-2.81,7.46,5.5,10.89,12.07,9.71,21.67l-13.44-.88c.66-5.06-.48-8.12-3.84-10.6-3.4-2.51-7.2-1.96-9.3.89-2.62,3.51-1.48,6.54,1.96,12.44l2,3.43c6.79,11.63,9.16,20.13,1.95,29.95-7.83,10.49-20.38,10.16-31.53,1.92-10.86-8.05-14.07-18.46-12.48-27.77"/>
  <path class="st0" d="M906.9,296.13c18.32-10.08,39.58-3.32,49.41,14.55,9.82,17.8,4.17,39.43-14.11,49.48-18.31,10.08-39.58,3.32-49.4-14.51-9.82-17.79-4.17-39.47,14.1-49.51M935,347.09c11.52-6.39,16.14-18.91,9.93-30.17-6.2-11.3-19.24-14.07-30.83-7.72-11.52,6.39-16.14,18.9-9.93,30.17,6.24,11.3,19.24,14.07,30.83,7.72"/>
  <polygon class="st0" points="997.29 410.82 1007.63 455.28 995.15 458.2 988.1 427.95 970.15 432.13 976.54 459.63 963.87 462.63 957.45 435.08 931.56 441.14 928.28 426.92 997.29 410.82"/>
  <path class="st0" d="M977.31,591.71c20.53,3.95,32.75,21.38,28.69,42.35-2.25,11.3-6.91,18.9-14.51,23.37l-7.75-11.59c4.28-2.77,7.79-6.2,9.38-14.29,2.44-12.59-5.69-22.63-18.65-25.18-13-2.47-24.55,3.95-27.36,18.58-.89,4.47-1.11,10.19-.07,14.07l11.23,2.18,3.25-16.73,12.59,2.44-5.8,29.83-31.09-6.05c-2.47-4.58-5.35-15.55-2.88-28.21,4.43-22.71,22.45-34.78,42.98-30.76"/>
  <path class="st0" d="M944.71,714.15c18.39,9.78,24.33,31.27,14.77,49.22-9.52,17.94-30.68,25-49.07,15.22-18.42-9.82-24.37-31.28-14.81-49.22,9.56-17.98,30.68-25.04,49.11-15.21M917.39,765.4c11.67,6.2,24.63,3.21,30.65-8.12,6.05-11.37,1.29-23.78-10.34-29.95-11.67-6.2-24.63-3.29-30.65,8.12-6.05,11.34-1.25,23.78,10.34,29.95"/>
  <path class="st0" d="M865.06,821.86l31.94,31.79-10.27,10.27-31.35-31.17c-7.28-7.24-13.22-6.87-20.01-.04-6.76,6.8-7.05,12.63.26,19.9l31.35,31.2-10.26,10.3-31.9-31.75c-12.67-12.63-10.08-27.47,1.29-38.85,11.48-11.59,26.29-14.25,38.96-1.66"/>
  <path class="st0" d="M798.23,938.95l-22.74,13.07c-12.55,7.2-26.25,7.2-34.49-7.16-5.32-9.27-3.81-17.95,1.74-24.85l-27.32-15.18,14.47-8.27,24.66,14.14,8.01-4.61-12.22-21.31,12.67-7.23,35.22,61.4ZM758.94,922.33c-6.24,3.62-8.82,8.31-4.91,15.1,3.91,6.87,9.38,6.72,15.43,3.25l9.75-5.58-10.49-18.35-9.78,5.57Z"/>
  <path class="st0" d="M685.65,993.75l-1.11.3-42.76-29.13-24.52,45.16-1.22.26-16.54-69.49,13.67-3.25,6.13,25.81c1.1,4.65,2.36,12.15,2.36,12.15,0,0,2.69-7.05,5.06-11.44l10.04-18.54,1.29-.29,17.32,12c4.06,2.88,9.68,7.94,9.68,7.94,0,0-2.25-7.24-3.36-11.92l-6.17-25.77,13.55-3.25,16.58,69.49Z"/>
  <polygon class="st0" points="542.75 1014.87 496.08 1012.87 496.63 1000.1 528.79 1001.5 529.46 985.29 501.14 984.11 501.69 971.66 530.01 972.92 530.68 956.49 497.11 955.05 497.67 942.31 545.78 944.38 542.75 1014.87"/>
  <polygon class="st0" points="411.38 983.48 430.65 989.35 426.95 1001.61 374.41 985.62 378.14 973.36 397.45 979.27 414.29 923.81 428.21 928.02 411.38 983.48"/>
  <path class="st0" d="M347.46,911.63l-13.7-.22c-.07-6.02-1.59-11.3-7.72-15.03-5.17-3.1-10.04-2.51-12.19,1.03-2.58,4.28-.11,7.83,4.06,13.77l2.32,3.21c6.68,9.27,9.71,17.65,3.58,27.84-5.65,9.34-17.06,12.15-28.21,5.39-7.9-4.77-11.93-10.97-11.67-20.68l13.44-.37c-.15,5.13,1.26,8.05,4.8,10.23,3.65,2.18,7.34,1.26,9.19-1.74,2.25-3.77.85-6.65-3.06-12.19l-2.33-3.25c-7.83-10.93-10.97-19.16-4.69-29.58,6.76-11.22,19.27-12.04,31.13-4.87,11.59,7.02,15.73,17.02,15.03,26.44"/>
</svg>