<?xml version="1.0" encoding="UTF-8"?>
<svg id="Layer_1" xmlns="http://www.w3.org/2000/svg" version="1.1" viewBox="0 0 1080 1080">
  <!-- Generator: Adobe Illustrator 30.0.0, SVG Export Plug-In . SVG Version: 2.1.1 Build 123)  -->
  <defs>
    <style>
      .st0 {
        fill: #9e9e9e;
      }
    </style>
  </defs>
  <path class="st0" d="M1071.15,812.24c0,3.58-.31,7.16-1.46,10.74-1.14,3.58-2.6,6.79-4.38,9.73l-2.19.92h-.42l-1.88-2.29c.42-3.49,1.46-7.07,3.33-10.65,1.88-3.58,2.92-7.44,2.92-11.66,0-12.94-4.79-23.96-14.69-33.32,6.25,5.14,11.04,10.65,13.96,16.52,3.02,5.78,4.48,12.58,4.48,20.01h.31ZM1046.56,764.32c0-.27,0-.64.31-.92,1.15.27,1.88.92,1.88,1.56,0,.37,0,.64-.42,1.01l-.73,1.29c-.31-.37-.73-1.01-.73-1.93-.31-.37-.31-.64-.31-1.01ZM1045.83,792.5v-.28c0-.37.31-.64,1.04-.64v.28c0,.37-.31.64-1.04.64ZM1045.83,804.8c0-.28,0-.64.31-.64.42,0,.73.37.73.64,0,.37,0,.64-.31.64-.42,0-.73-.28-.73-.64ZM967.49,840.79c0-.37,0-.64.42-.64.31,0,.73.28.73.64,0,.28,0,.64-.42.64-.31,0-.73-.37-.73-.64ZM1039.89,793.79c0-.28.42-.64.73-.64.42,0,.73,0,1.14.37.31.28.73.28,1.15.28h.31c0,.37-.31.64-1.15.64-.31,0-1.04-.28-2.19-.64ZM982.91,755.6v-.37c-2.5-1.56-5.1-3.21-7.71-4.77-2.5-1.65-5.1-3.58-7.71-5.88.42.37,1.15.64,1.88,1.29.73.64,1.88,1.29,2.91,1.93,1.15.64,2.19,1.29,2.92,1.65.73.27,1.56.64,1.88.64l1.46,1.29h.42c9.89,5.51,20.52,11.02,31.98,16.52,11.35,5.51,21.25,12.3,29.69,20.38-3.96-3.58-8.44-6.79-13.23-9.73-4.79-2.85-9.48-5.78-14.69-8.35-5.1-2.66-10.31-5.23-15.42-7.8-5.11-2.57-9.9-5.14-14.69-7.8l.31,1.01ZM957.6,696.29l2.19-.28,1.46,1.93c0,5.51,1.46,11.02,4.06,16.16,2.6,5.23,5.94,10.1,9.89,14.32-4.69-4.22-8.75-9.09-12.08-14.6-3.33-5.51-5.11-11.38-5.52-17.53ZM953.95,709.97v-.37q0-.37.31-.37l.73.73v.28l-.31.37-.73-.64ZM1049.48,764.04l-1.46-2.66c-4.79-3.21-9.9-6.15-15.84-8.72-5.83-2.57-10.31-5.78-13.54-9.73h-4.06c-2.19-2.85-5.94-5.78-11.04-8.35-5.11-2.66-10.31-5.51-15.42-8.81-5.21-3.21-9.9-7.07-13.96-11.29-4.06-4.22-6.25-9.73-6.25-16.52,0-8.08,2.91-13.95,8.85-17.81,5.83-3.86,13.23-5.88,21.67-5.88l5.11.37,2.92,2.57c1.15-.28,2.61-.28,4.79-.28l2.19.28,1.46,2.3h4.06l4.48,3.85,2.5,1.01v2.57h2.92v2.57l2.61,1.01c1.46,1.93,2.92,4.87,4.06,8.72,1.15,3.86,2.19,7.8,2.92,11.66.73,3.86,1.46,7.44,2.19,10.74.73,3.21,1.46,4.77,1.88,5.14l2.6-1.28c2.92-1.01,5.1-2.94,6.98-5.51,1.77-2.57,3.23-5.51,4.06-8.72.73-3.3,1.46-6.52,1.77-10.1v-1.28c0-2.94-.31-5.51-1.04-7.71,3.23-2.94,6.25-6.24,8.75-10.1,2.61-3.85,4.06-8.08,4.06-12.3,0-1.93,0-2.94-.31-3.21l-2.6-1.65h-6.98c-1.15,1.01-1.88,1.93-1.88,2.94,0,1.29.42,2.57.73,3.58-1.46,1.29-2.92,2.57-4.79,4.22-1.77,1.56-3.64,2.2-5.83,2.2-2.6,0-5.52-.64-9.17-1.93-3.75-1.28-7.71-2.94-12.19-4.5-4.38-1.65-8.75-3.3-13.23-4.59-4.38-1.28-8.75-1.93-12.81-1.93-4.48,0-9.17,0-14.38.37-5.1.28-9.48.92-13.54,1.93l-3.02,2.57h-5.42c-1.56,1.28-3.02,2.29-4.48,3.21-1.46,1.01-2.92,1.65-4.38,2.3-1.46.64-2.92,1.65-4.38,2.57-1.56,1.01-2.6,2.29-3.33,3.95l-2.61,1.29c-3.33,4.22-5.83,8.08-7.71,11.66-1.87,3.58-2.6,8.08-2.6,13.59,0,8.08,2.29,16.52,6.67,24.97,4.38,8.35,9.9,15.51,16.56,21.67h2.92l1.04,2.57c3.33,2.3,6.98,4.22,10.73,6.15,3.64,1.93,7.29,3.86,10.63,6.15l4.38,1.01,8.44,6.15c4.79,1.29,10,3.58,15.52,6.79,5.52,3.21,10.94,7.07,16.15,11.29,5.11,4.22,9.17,8.81,12.5,13.95,3.33,5.14,5.11,10.01,5.11,14.6,0,5.51-1.04,10.01-3.65,13.59-2.6,3.58-5.94,6.52-9.9,8.72-4.06,2.29-8.44,3.95-13.65,4.87-5.1,1.01-10.31,1.28-15.42,1.28-5.52,0-9.58-.64-12.08-2.2-2.61-1.65-5.94-3.58-10-5.87h-2.92l-1.46-2.57c-6.25-3.95-11.77-9.09-16.87-15.61-5.21-6.43-8.86-12.94-11.46-19.09-.73-2.2-1.04-4.5-1.04-6.43s-1.46-3.58-4.06-4.59c-1.87-.64-3.65-.92-5.52-.92-2.92,0-4.38,1.56-4.38,4.5,0,6.15.73,12.67,2.19,19.46,1.46,6.79,4.06,12.58,7.29,17.81-1.77.92-3.23,2.3-4.37,3.86-1.04,1.65-2.19,3.3-2.92,5.23-.73,1.93-1.46,3.86-1.88,5.78-.31,1.93-.31,3.58-.31,5.23,0,1.56.31,2.85,1.46,4.13,1.04,1.38,2.6,2.02,4.38,2.02,1.88,0,3.33-.64,4.06-2.02.73-1.28,1.46-2.85,2.19-4.5.73-1.65,1.88-3.21,3.33-4.5,1.46-1.28,3.65-1.93,6.98-1.93,2.92,0,5.83.28,8.85,1.29,2.92.92,5.83,1.93,8.44,2.85l2.92,2.66h5.52c5.52,2.2,10.63,3.49,15,4.13,4.48.73,10,1.01,16.25,1.01s12.5-.28,18.75-1.01c6.25-.64,12.08-2.2,17.61-4.5,2.6-.92,4.79-2.29,6.56-3.86,1.88-1.65,4.48-2.94,7.4-3.95v-2.57h2.92v-2.2h2.61c1.14-1.65,1.88-2.94,1.88-3.95v-.92c0-1.38,1.46-2.94,3.96-5.23v-2.29l2.6-1.29c.73-3.21,1.46-6.42,2.19-9.64.73-3.3,1.15-6.52,1.15-9.73,0-4.22-.73-8.81-1.88-13.95-1.04-5.14-2.92-10.01-5.1-14.87-2.19-4.87-5.21-9.09-8.86-12.94-3.65-3.95-7.71-6.79-12.5-8.45l-2.18,3.58ZM867.73,816.46c0,1.01.42,1.29,1.46,1.29v-.28c0-.64-.31-1.01-1.46-1.01ZM873.67,809.03h.73c0-1.01-.42-1.29-.73-1.29-.42,0-.73,0-.73.28,0,.37-.42.73-.73,1.01.31.37,1.04.37,1.77.37l-.31-.37ZM876.9,803.88h.42c0-.37-.42-.64-.73-.64v.28q0,.37.31.37ZM874.39,801.59h-2.61l-.42,1.29c0,.64.42,1.01,1.15,1.01,1.15,0,1.88-.64,1.88-2.3ZM881.38,805.17h4.37l.42-2.29c0-1.65-.42-2.3-1.56-2.3-2.19,1.01-3.23,2.66-3.23,4.59ZM874.71,800.3h-.31v1.28h1.46c.31,0,.73-.37.73-.64-.42-.37-1.15-.64-1.87-.64ZM871.79,801.59c0-.64-.42-1.01-1.15-1.01,0,.64.42,1.01,1.15,1.01ZM889.81,799.02c-.42.28-.73.64-1.15.64-.31,0-.31-.37-.31-.64h1.46ZM874.39,800.3c0-.37-.42-.64-.73-.64,0,.28.31.64.73.64ZM880.23,796.72h1.15c.31.37.73.64,1.04.64.42,0,.42-.28.42-.64-.42-.37-1.15-.64-1.87-.64-.31,0-.73.28-.73.64ZM873.25,792.87v1.29h1.15v-.37c0-.64-.42-.92-1.15-.92ZM877.31,792.87h-.42q-.31,0-.31-.37v-.28c.31,0,.73.28.73.64ZM888.67,789.29c-1.04-.37-2.19-.64-3.23-.64h-.83c.42.92,1.15,1.56,2.29,1.56.31,0,.73-.28,1.46-.92h.31ZM896.06,784.06v-.92h-1.46c0,.64.31.92,1.46.92ZM894.6,783.14c0-.64-.42-1.01-1.14-1.01,0,.64.42,1.01,1.14,1.01ZM888.67,781.21v.64c0,.92.42,1.29,1.15,1.29s1.46,0,1.77.28v-.64c0-.92-.31-1.56-1.04-1.56s-1.46-.37-1.88-.64v.64ZM902.63,779.92h-2.5c.31-1.01,1.04-1.38,1.77-1.38.42,0,.73.37.73,1.38ZM887.62,778.91v1.01c0,.64.31.92,1.04,1.28v-1.01c0-1.01-.31-1.29-1.04-1.29ZM881.69,779.19v-.28c-.31,0-.73.28-.73.64h.42q.31,0,.31-.37ZM886.48,778.91h.73c0-1.01-.31-1.29-1.04-1.29-.42,0-.73.28-1.56.92.42.37,1.15.37,2.29.37h-.42ZM881.38,778.91c.73,0,1.04-.37,1.04-1.01-.73,0-1.04.37-1.04,1.01ZM893.15,779.19l2.5,2.66.42-3.3v-1.93c-1.88.37-2.92,1.29-2.92,2.57ZM895.34,766.25v.37h.73v-1.28c-.42.28-.73.64-.73.92ZM899.4,756.88v.37c0,.27.31.64,1.04.64h1.88v-1.29l-2.92.27ZM890.86,795.07l2.29,1.65.31-2.29-2.61.64ZM903.77,752.38c-.73,0-1.46,0-1.88-.37.42-.92,1.15-1.29,1.88-1.29s1.46.37,2.19,1.01c-.73.28-1.46.64-2.19.64ZM903.77,769.55v2.57c-.42.28-1.15.64-1.88.92-.73.37-1.04.73-1.04,1.38,1.04.92,1.46,1.93,1.46,2.85,0,1.01-.42,1.93-1.46,2.94v2.57h-1.15c-.31,0-.73.37-1.04,1.29-.42,1.01-.83,2.02-1.15,3.3-.42,1.29-.42,2.2-.42,3.21v1.93l1.15-.28-1.15,1.29c-.31,1.93-.73,3.86-1.04,5.78-.42,1.93-.73,3.58-1.15,5.23.42.28.73.64.73.92,0,.37-.31.64-1.46.64-1.04,3.3-2.6,6.52-4.38,9.73h.73c0,.64-.73,1.93-2.6,4.22-1.77,2.3-3.65,4.5-5.83,6.79-2.19,2.29-4.48,4.5-6.67,6.79-2.19,2.3-3.65,3.58-4.38,4.22l-1.46.37-1.46-.37-.42-2.57c.73-1.28,1.87-2.57,2.92-3.58,1.15-1.01,2.29-1.93,3.33-2.94l-.31-.27h.73c.31,0,1.46-1.01,2.92-2.66,1.46-1.56,2.92-3.49,4.38-5.78,1.46-2.29,2.92-4.22,4.06-6.15,1.15-1.93,1.87-3.21,2.19-3.86l-.73-.64,1.14-.37c1.04-1.93,2.19-3.86,2.92-5.78.73-2.02,1.46-3.95,1.88-5.88-.42-.28-1.15-.28-2.29-.28-.31,0-1.04,0-2.5.28-1.46.37-2.19.64-2.19,1.01,0,.28.73.64,1.77.64h2.19c1.15.28,1.46.92,1.46,2.2s-.31,2.3-1.46,3.3c-.73.64-1.46.92-2.5.92-.42,0-.73,0-1.15-.28l.42,2.57c0,1.65-.42,2.94-1.15,4.22-.73,1.29-2.19,1.93-4.06,1.93h-.73c1.14-1.01,1.87-1.93,1.87-2.57-1.15-1.01-1.87-1.93-1.87-2.94s.42-1.93,1.14-2.94l-4.06-1.28c.73.64,1.15,1.28,1.15,1.93,0,2.3-1.56,3.3-4.06,3.3,1.04.28,1.46.92,1.46,1.56,0,.37-.73.64-2.19.64h-3.33l1.46,4.87h2.6l-1.15,1.29,2.6,1.29-1.46,1.38,2.92,1.29c-.73.64-1.46.92-2.6.92-1.04,0-1.77-.28-2.5-.64-.73-.28-1.88-.64-3.02-.64.42-.28,1.15-.64,1.88-.92.73-.37,1.15-1.01,1.15-1.65s-1.15-1.01-3.02-1.01h-3.65c.42-.28,1.15-.64,2.19-.92,1.14-.37,1.87-1.01,1.87-1.93,0-1.01-.42-1.65-1.46-2.02-1.15-.28-1.88-.64-2.6-.92,1.15,0,2.19-.64,2.92-1.65.73-.92,1.14-1.93,1.14-2.94l-1.87-2.85v-1.01c0-.64,0-1.29.42-1.65.31-.28.73-.92.73-1.93,0-.28-.42-.64-.73-.92l-1.46-.64,3.96-2.3,1.56,2.3h2.92c1.77-2.3,4.06-3.58,6.56-3.58-.31-.37-.73-1.01-1.04-1.65-.42-.64-.73-.92-1.15-.92-.73,0-1.46.28-2.6.92-1.04.64-1.77,1.01-2.19,1.29h-5.52v.64c0,.37-.31.37-.73.37-1.04,0-1.77-.37-2.19-1.01h1.46c.73,0,1.46,0,2.19-.28,1.15-.37,2.29-.64,3.33-1.01l-4.38-2.29,2.92-1.29v-4.87l2.6-1.29-1.15-1.29,4.06-2.57-1.46-4.87,2.92,2.57,2.6-2.57,4.38-1.29c-.73-1.28-1.04-2.57-1.04-3.86,0-1.01.31-1.65,1.04-2.02.42.37.73.73,1.15,1.38.31.64,1.04.92,1.77.92.42,0,.73-.28.73-.92v-1.38h1.46c.83,0,1.15,0,1.15-.28,0-.37-.31-.64-1.46-1.01-1.15-.28-1.88-.64-2.19-.92,1.04-1.28,1.46-2.3,1.46-3.21,0-1.01-.42-1.65-1.15-2.3-.73-.64-1.04-1.28-1.04-2.3,0-.64,0-.92.31-1.28h1.46c.42,1.65,1.46,2.57,3.33,2.57l2.6-.27c0-3.58-.42-8.81-.73-15.61-.42-6.79-.73-13.86-1.15-21.3v-6.15c0-5.23.42-10.37.73-15.61.42-6.79,1.46-12.3,3.33-16.52l1.15-.92h2.92l.73,2.2c-2.6,4.22-3.65,9.09-3.65,14.6v55.36l2.5,1.01v1.28l1.46,1.28h-1.46l.42,1.65c0,1.56-.42,3.21-1.46,4.5-1.15,1.01-1.46,2.29-1.46,3.58v1.01c.31.64,1.04.92,2.19,1.29,1.04.28,2.19.28,3.23.28l-1.04-.92ZM900.86,786.72l-1.15-1.28c.42-1.01,1.15-1.38,1.88-1.38,1.04,0,1.46.37,1.46,1.38,0,.92-.73,1.28-2.19,1.28ZM867,742.29c0,.37-.31.64-.73.64-.73,0-1.46-.28-1.88-.64,0-.28,0-.64.42-.64.31,0,.73,0,1.15.37.31.28.73.28,1.04.28ZM865.54,736.14h-.42l-.31-.28v-.37l.73.64c.73,0,1.15.37,1.15,1.01-.73,0-1.15-.37-1.15-1.01ZM868.87,768.54c.73,0,1.04.37,1.04,1.01h-2.5c.31-.64.73-1.01,1.46-1.01ZM867.41,726.13c1.04-.37,1.77-.64,1.77-1.01,0-.28.42-.64.73-.92.42-.37.73-.64,1.46-1.01.42-.28.83-.28,1.56-.28s1.77,0,2.92.28c0-.92.31-1.56,1.04-1.56s1.46.28,1.88.64l-2.92.92c0,.64.31,1.29.73,1.93.31.37.73.64,1.04.64h.73c-1.46,1.65-3.23,3.3-5.1,4.87-1.04,1.01-1.88,1.93-1.88,2.94s.42,1.93,1.15,2.94c-.73,0-1.15-.37-1.46-1.01-.42-.64-.73-1.29-1.15-1.93-.31-.64-.73-1.29-1.04-1.93-.42-.64-1.15-1.01-2.19-1.01,0,.64-.42,1.01-1.15,1.01s-1.15-.37-1.46-1.01h2.61c.31-.28.73-.64,1.04-.92.42-.37.42-.64.42-1.01,0-.28-.42-.64-1.46-.64-1.15,0-1.88-.28-2.29-.64l2.61-2.57h-2.61c.42-.37,1.15-.64,1.88-1.01h.42c.31,0,.31.37.31,1.29l.42,1.01ZM872.94,716.4c0,.37,0,.64-.42.64-.31,0-.73-.28-.73-.64,0-.28,0-.64.42-.64.31,0,.73.37.73.64ZM875.85,715.11c0,.37,0,.64-.42.64-.31,0-.73-.28-1.04-.64,0-.37,0-.64.31-.64.42,0,.73.28,1.14.64ZM881.69,685.28v.64c0,.74-.31,1.01-.73,1.38-.73.27-1.46.64-2.19.64h-2.92c-1.14,0-1.87,0-2.19.27.31-1.56,1.46-2.57,3.23-2.94,1.88-.27,3.33-.64,4.48-.92l.31.92ZM882.1,753.3c0,.37,0,.64-.42,1.01-.73,0-1.04-.37-1.04-1.01,0-.27.31-.64,1.04-.92.42.28.42.64.42.92ZM880.23,719.61c0-.28,0-.64.42-.64.31,0,.73.37,1.04.64,0,.37,0,.64-.31.64-.42,0-.73-.28-1.15-.64ZM885.75,722.27c0,.28-.31.64-1.15.64h-1.46l1.15-2.02c.31.37.73.37,1.15.37.31,0,.31.37.31.64v.37ZM886.9,688.86c-.42-.27-.73-.64-.73-.92-.73,0-1.15-.37-1.15-.64.42,0,1.15.64,1.88,1.56ZM886.17,695.37c0-.37.31-.64.73-.64.73,0,1.46.28,1.77.64,0,.64-.31.92-.73.92-.31,0-1.04-.28-1.77-.92ZM887.21,755.87c0,.37,0,.74-.31.74-.42,0-.73-.37-1.15-.74h-1.15c0-.27.42-.64.83-.64.73,0,1.46.37,1.77.64ZM887.94,685.28h-1.46c.42-.92.73-1.29,1.15-1.29.31,0,.73,0,1.04.37.42.27.73.64,1.15.92-.42.37-1.15.37-2.19.37l.31-.37ZM890.54,692.16v-.74c1.04.74,1.88,1.38,1.88,1.65l-.83,1.93c-.73-.64-1.04-1.56-1.04-2.84ZM903.04,742.01v.28l-.42.37h-.31l.73-.64c0-.64.31-1.01,1.04-1.01,0,.64-.31,1.01-1.04,1.01ZM854.5,831.33l1.15-.64c0-.64.31-.92.73-.92,0,.64-.73,1.29-1.88,1.56ZM852.31,835.28v-2.3c.73-.64,1.46-.92,1.88-.92.31,0,.31.27.31.64,0,.27,0,.92-.31,1.93-.42.92-.73,1.28-1.15,1.28-.31,0-.31-.37-.31-.64h-.42ZM821.79,856.3v-.28c0-.37.42-.64,1.15-.64v.28c0,.37-.42.64-1.15.64ZM820.33,850.52c-1.04,0-1.46-.37-1.46-.64,0-.37.42-1.01,1.46-2.02v2.3l2.6.37c-.42.28-.73.64-1.15.92-.31.37-.73.64-1.04.64-.42,0-.73-.28-.73-.64l.31-.28v-.64ZM810.74,852.72l1.15,1.93h-1.46c-.73,0-1.15-.28-1.15-.64l1.15-.92.31-2.29c.73.64,1.15,1.28,1.15,1.65,0,.28-.42.64-1.46.64l.31-.37ZM805.22,846.57c0,.37,0,.64-.31.64-.42,0-.73-.28-1.15-.64,0-.28,0-.64.42-.64.31,0,.73.37,1.04.64ZM796.78,850.52l-1.46-3.58c.42,0,.73,0,1.46-.37h.42c.31,0,.73.37.73.64,0,.37-.42.64-.73,1.01-.42.28-.42.64-.42.92v1.38ZM789.81,842.07l-.73.28c-.31,0-.73-.28-.73-.64v-.92l.73-.37c.42,0,.73.37.73.64v1.01ZM787.31,837.21l-.42,2.57-1.46.37-1.46-.37-4.79-3.86-.42.28-.31,2.29c-.73-.64-1.15-1.01-1.15-1.29,0-.64.42-1.01,1.46-1.01l.42-.64c0,.37,0,.64.42,1.01.31.28,1.04.64,1.77.64l1.46-.64.42-2.57-2.92-4.59-1.56,1.01,1.15-1.28c-5.52-9.46-8.44-19.46-8.44-30.11v-101.07c0-4.22,1.04-8.45,2.92-12.67l1.15-.92,2.19-.37c.31-.27,1.04-.64,1.88-.92.73-.37,1.46-.64,2.19-.64h1.04l-4.06,2.2v1.01c0,1.01,0,1.93-.31,2.94-.73,1.56-1.46,2.84-1.88,4.22l2.19.92-2.92,1.93-.31,5.51v6.52c.31.28.31.64.31.92v1.01c-.31,1.01-.31,1.65-.31,1.93q.31,0,.31.37c0,.28,0,.64-.31.64v89.32c0,8.17,1.46,15.61,4.38,22.67l1.46-.64-1.04,1.29-.42-.27,3.33,6.43.31-.27c.42,0,.73,0,1.15.27v.74l-.42.27c.42,1.01.73,1.65,1.15,2.3.31.64,1.15,1.28,1.88,2.2v.37ZM780.32,839.78l.31-.28-.31.28v1.29h2.5c-.73.64-1.46,1.01-1.77,1.01-.42,0-.73-.37-.73-1.01v-1.29ZM767.82,704.1l-.42-2.29c-1.88,0-2.6-.28-2.6-.92l.42-.64c.31-.37.31-.64.31-1.29s-.31-1.38-.73-2.02l2.29,2.02c.31.64.31,1.29.31,1.93v.92c1.15,0,1.46.37,1.46,1.01,0,.28-.31.64-1.04,1.29ZM749.38,764.69c-.31,0-.73,0-.73-.37v-.27l.73.64c.42,0,.73.28.73.64v.28c-.31-.28-.73-.64-.73-.92ZM748.34,769.18l1.04-.64c0-.64.42-1.01.73-1.01,0,.73-.73,1.38-1.77,1.65ZM752.3,762.39l-1.46,1.01v-.37c0-.27.42-.64,1.46-.64ZM756.36,685.92l.42-1.29h1.04l-.31,1.01-1.15.27ZM759.7,687.3h.73v.64l-1.15.27.42-.92ZM763.34,709.24c0,.37,0,.73-.31.73-.42,0-.73-.37-1.14-.73,0-.28,0-.64.42-.64.31,0,.73.37,1.04.64ZM761.89,712.82c0-.28,0-.64.42-.64.31,0,.73.37,1.04.64,0,.37,0,.64-.31.64-.42,0-.73-.28-1.14-.64ZM767.41,687.3v.27c0,.37-.31.64-1.04.64v-.27c0-.37.31-.64,1.04-.64ZM787.31,832.34c0,.37,0,.64-.42.64-.31,0-.73-.27-1.14-.64,0-.27,0-.64.42-.64s.73.37,1.15.64ZM736.88,677.2l-.73.37c-.31,0-.73-.37-.73-.64v-1.01l.73-.28c.42,0,.73.28.73.64v.92ZM932.42,670.41l-1.46-1.29,1.46-3.86c-1.15-.37-2.19-.64-3.33-.64h-3.23c-12.92,0-25.42,1.93-37.5,5.78-1.14,1.01-2.19,1.65-3.33,2.3-1.15.64-2.61.92-4.06.92-.31,0-1.77-.64-4.79-1.56-2.92-1.01-6.25-1.93-10.21-2.94-4.06-1.01-8.54-1.93-13.23-2.94-4.79-.92-9.27-1.56-13.23-1.56-2.61,0-4.79.28-6.67.92-1.87.64-2.92,2.29-2.92,4.59,0,1.28.31,2.2,1.04,3.21.73.92,1.87,1.65,3.02,2.29h1.46c2.5,0,5.1.64,7.71,1.56,2.92,1.28,5.52,2.94,7.71,5.23,2.19,2.2,4.06,4.87,5.1,7.71,1.15,2.29,1.46,4.22,1.46,6.15,0,1.01,0,2.02-.31,2.94l1.46,3.58v34.98c0,8.45-.42,16.52-1.46,24.33l1.46,2.57c0,2.2-.42,4.22-1.46,5.78l1.46,2.29v19.46c0,5.51-.73,11.29-2.19,17.44-1.46,6.15-3.65,11.66-6.98,16.89-3.33,5.14-7.4,9.36-12.5,12.58-5.21,3.21-11.46,4.87-19.17,4.87s-14.69-1.65-19.48-5.14c-4.69-3.58-8.44-8.17-11.36-13.95-2.92-5.87-4.79-12.3-5.83-19.46-1.15-7.07-1.46-14.23-1.46-21.39-.42-1.56-.42-3.21-.42-4.87,0-5.14.42-10.28.73-15.15.42-6.15.42-11.66.42-16.25,0-8.72,0-17.44-.42-25.89-.31-8.45-.31-17.17-.31-25.89v-3.85c0-1.38.31-2.66.73-3.58h2.92c.31-1.65,1.04-3.31,2.19-4.87,1.15-1.65,2.19-3.21,3.33-4.87,1.04-.64,2.5-1.28,4.38-1.65l5.52-1.29c1.88-.28,3.65-.64,5.11-.92,1.46-.37,2.6-1.01,3.02-2.02v-.92c0-1.01.31-1.93.73-2.94.31-1.01.73-1.93.73-2.94,0-.64-.42-.92-1.46-1.28-1.14-.28-2.29-.64-3.33-.92-1.15-.37-2.19-.37-3.33-.37h-8.85c-2.19,0-4.38,0-6.56.37-1.46.92-2.6,1.56-3.33,1.93-.73.28-1.46.28-2.19.28h-5.52l-1.15.37-2.5,2.57h-5.94c-2.92,1.65-5.11,3.21-6.98,4.87-6.25-4.22-12.81-7.16-19.79-8.45-6.98-1.28-14.38-1.93-22.09-1.93-2.92,0-5.52.37-7.71,1.29v7.44c.42,1.01.73,1.29,1.15,1.29q.31,0,.31-.28h2.6c3.33,0,6.25,1.29,8.85,3.86,2.19,1.01,4.38,1.93,6.25,2.94,1.77,1.01,3.23,2.3,4.38,4.22,2.19,2.94,3.65,7.8,4.38,14.6.73,6.79,1.15,13.86,1.15,21.67s0,15.24-.42,22.31c-.31,7.16-.31,12.67-.31,16.89,0,7.44.31,15.24,1.04,22.95.73,7.8,2.19,15.61,4.48,23.04,2.19,7.44,5.52,14.6,9.89,21.39,4.38,6.79,10.31,12.58,17.29,17.81,3.23,2.2,6.56,4.13,10.21,5.51,3.75,1.28,7.4,3.21,10.73,5.51h2.92l1.15,2.2c1.04.37,2.19.64,3.23.64.42,0,.73,0,1.15-.28,1.04,0,2.19,0,3.33-.37.73,1.01,1.77,1.65,3.65,1.93,1.87.37,3.65.64,5.83,1.01,2.29.37,4.48.37,6.25.37h4.79c6.25,0,11.77-.73,16.56-2.02,4.79-1.29,10.31-2.57,16.56-3.86,1.46-1.28,2.92-2.29,4.06-2.94,1.04-.64,2.5-1.28,3.96-1.56,1.46-.37,3.02-.64,4.06-1.01,1.15-.28,2.19-1.01,3.33-1.93v-2.57h2.6v-2.3h2.92v-2.57h2.92c2.19-1.93,4.38-4.22,6.25-6.52,1.88-2.2,3.33-4.87,4.38-7.43l3.02-1.29v-3.58c3.65-3.21,6.56-8.08,8.75-14.23,2.19-6.15,3.64-13.31,4.79-21.02,1.15-7.8,1.88-15.88,2.19-24.6v-6.52c0-6.15,0-12.3-.31-18.45-.42-8.08-.73-15.51-1.15-22.4-.31-6.79-.31-12.58-.31-17.17,0-2.57.31-5.14,1.04-7.44,3.33-3.49,5.52-6.43,6.67-8.35,1.04-2.02,2.19-3.31,3.23-4.22,1.15-1.01,3.02-1.93,5.21-2.57,2.19-.73,5.83-2.02,11.04-3.58.73-.37,1.04-.64,1.04-1.01v-1.93c0-.37.42-.64.73-1.01l-2.92,2.94ZM566.13,757.25h1.46v-2.66c-.73,0-1.04.37-1.04,1.01s0,1.28-.42,1.65ZM569.15,753.67v.27c0,.37-.42.64-1.56.64v-.92h1.56ZM593.01,852.08l-1.15-.64v-.28l-.31.92h1.46ZM688.95,683.35v4.22l-1.56,1.93h-.73l-1.77-.64-2.6.64,1.88-1.29-2.19-1.93h1.77l1.46-1.93v-2.94h1.46l2.29,1.93ZM679.37,686.29c1.04,1.01,1.46,1.93,1.46,2.94h-1.46c-.42,0-.73-.37-.73-.64,0-.64.31-1.28.73-1.65v-.64ZM670.93,675.27l-1.15,2.57-1.46-5.14c1.87,0,2.6.92,2.6,2.57ZM665.41,680.14v1.28c-.42-.28-.73-.64-1.15-.92,0-.37.42-.37,1.46-.37v-2.29c-1.77-.28-2.5-.92-2.5-1.93v-.64c.73,0,1.46.37,2.19.64.31.37.31.64.31,1.29v.64c.42.37.73.64,1.15,1.01.31.27.73.64.73.92,0,.37-.42.74-.73.74v-.37h-1.46ZM660.2,677.57l-.31-2.3-2.92-1.01c.31-.28,1.04-.64,1.77-.64s1.15.64,1.15,1.65c1.04,0,1.46.37,1.46,1.01,0,.28-.42.64-1.15,1.29ZM665.41,671.69c0,.37,0,.64-.42.64-.31,0-.73-.28-.73-.64,0-.28,0-.64.42-.64.31,0,.73.37.73.64ZM641.87,756.24v-1.29c0-.37.42-1.01.73-1.65.42-.64.73-.92,1.15-.92.31.92.73,1.56.73,1.93l-2.6,1.93ZM649.26,758.54h-1.56c.42-1.01.83-1.29,1.15-1.29.42,0,.73,0,1.15.27.31.37.73.64,1.04,1.01-.31.27-1.04.27-2.19.27l.42-.27ZM649.26,762.12v-2.3c.73-.64,1.46-1.01,1.77-1.01l.42.37v.27c0,.37,0,1.01-.42,1.93-.31,1.01-.73,1.38-1.04,1.38-.42,0-.73-.37-.73-1.01v.37ZM594.05,850.8l-1.46.37h-2.19c-1.04-1.01-2.19-1.65-3.33-1.65-.31,0-.73,0-1.04.37l2.5-1.65-1.46-1.01c.73.64,1.46,1.01,2.29,1.01l1.46-.37c.31-.92.73-1.56.73-2.2v-.37c-2.61-5.51-4.06-11.29-4.06-17.17,0-.27,0-.64.31-.92v-18.45h-.73c-.31,0-.73,0-.73-.37,0-.64.42-1.29,1.46-1.65v-4.5l.42-7.16v-7.44c-.42-.28-.73-.64-1.15-.92q-.31,0-.31-.37h1.46v-106.58h1.46l2.6,2.02v52.14l1.04-.64-1.04,1.29v1.93l1.04-.64-1.04,1.28v38.83l1.04-.64-1.04,1.28v2.94l1.04-.64-1.04,1.29v2.57c0,.37,0,.64.31.64.42,0,.73,0,1.15-.28.31-.37.73-.64,1.04-1.01l-.73.64-.31.37h-1.15c0,2.3.42,5.14.73,8.72.42,3.58.73,5.88.73,7.16l-1.04.92v1.93l1.46,1.38v.28c0,.37-.42.37-1.46.37v30.11c0,4.5.73,8.72,2.6,12.3.73.28,1.04.64,1.04,1.28,0,.28,0,.64-.31.92l.31,1.01h.73c1.88,0,2.6.37,2.6,1.29l-1.46,1.28c-.42.37-1.15.64-1.88.64-.31,0-.73-.28-.73-.64v-.92l-1.87-.37ZM584.57,839.78c0-.64.31-.92.73-.92.31,0,1.04.28,1.77.92,0,.37-.31.64-.73.64-.73,0-1.46-.28-1.77-.64ZM581.55,842.07l-9.9,8.72h-2.92l-.42-2.57.83-1.65,8.75-7.71,3.65,3.21ZM564.36,810.68l.73.64c.73,0,1.04.28,1.04.92-.31,0-.73-.28-1.04-.64-.42-.28-.73-.64-1.15-.92h.42ZM562.49,842.07c-.73,0-1.15-.37-1.15-.64.42,0,1.15.64,1.87,1.56-.31-.28-.73-.64-.73-.92ZM561.34,738.43c.42,0,.73,0,1.15.37,0,.64-.42.92-1.15.92s-1.04-.28-1.46-.92c.42-.37.73-.37,1.15-.37h.31ZM568.01,740.08l-1.15,1.93c-.31-.37-.73-.37-1.04-.37-.42,0-.42-.28-.42-.64,0-.28.42-.64,1.15-.64h1.46v-.28ZM565.09,748.8c-.73,0-1.46-.37-2.6-.64.42-.37.73-1.01,1.46-1.93l.42-.64v-.37c-.42,0-.73.37-1.15.64l-.73.37c1.15-1.01,1.88-1.28,2.6-1.28l2.92,1.28c-.42.28-.73.92-1.15,1.56-.31.64-.73,1.01-1.46,1.01h-.31ZM572.07,745.87c0,.37,0,.64-.42.64-.31,0-.73-.28-.73-.64,0-.28,0-.64.42-.64.31,0,.73.37.73.64ZM563.94,795.44c0,.64,0,1.28-.31,1.65-1.15-.37-1.56-.73-1.56-1.01,0-.37,0-.64.42-1.01.42-.28.73-.64,1.15-.92.31.28.73.92.73,1.56l-.42-.28ZM566.13,776.34c.42-.37.73-.37,1.15-.37.31,0,.73.37.73,1.28-.42.37-.73.37-1.15.37-.31,0-.73-.37-.73-1.29ZM571.65,756.24l-.31-2.3-5.52,1.29v1.38h2.5c-.31.27-.73.64-1.04.92h-.42c-.31,0-.73-.27-.73-.92h-1.46v2.2c.42.37.73.37,1.15.37.31,0,.73.27.73.64,0,.27-.42.64-.73.64h-1.88l1.15-1.93c-.42-.37-1.15-.64-2.19-1.01-1.15-.27-1.56-.64-1.56-.92.42-.37.73-.74,1.15-.74h.42c.73.37,1.46.37,1.77.37v-1.29c-1.04,0-1.46-.64-1.46-1.93,0-.37,0-.64.42-1.01.31-.28.73-.64,1.04-.64l1.46.37h1.46l4.06,2.2c1.15,0,1.46.37,1.46,1.01,0,.27-.31.64-1.04,1.29h-.42ZM573.11,751.1l1.15-.64c0-.74.31-1.01,1.04-1.01-.31.64-1.04,1.29-2.19,1.65ZM577.17,783.41c0-.28,0-.64.42-.64.31,0,.73.37.73.64,0,.37,0,.64-.42.64-.31,0-.73-.28-.73-.64ZM574.26,756.61c0-.37,0-.74.31-.74.42,0,.73.37,1.15.74,0,.27,0,.64-.42.64-.31,0-.73-.37-1.04-.64ZM569.88,799.94c0,.64-.42,1.01-1.15,1.01-.42-.37-.42-.64-.42-1.01,0-.28,0-.64.42-.92.73.28,1.15.64,1.15.92ZM568.73,816.83c0-.37,0-.64.42-.64h.31l-.73.64c0,.28-.42.64-.73.64h-.42c.42-.37.73-.64,1.14-.64ZM571.34,839.14c0,.37,0,.64-.42.64-.31,0-.73-.28-.73-.64,0-.28,0-.64.42-.64.31,0,.73.37.73.64ZM570.19,830.42c0-.64.42-1.01,1.15-1.01.31.37.31.64.31,1.01,0,.27,0,.64-.31.92-.73-.27-1.15-.64-1.15-1.29v.37ZM581.24,807.37c0,.37,0,.64-.42.64-.31,0-.73-.28-1.04-.64,0-.28,0-.64.31-.64.42,0,.73.37,1.15.64ZM582.69,821.97c0,.37,0,.64-.31.64-.42,0-.83-.28-1.14-.64,0-.28,0-.64.31-.64.42,0,.83.37,1.15.64ZM585.3,788.92v.37c0,.28-.42.64-1.15.64v-.37c0-.28.42-.64,1.15-.64ZM600.72,854.01c0,.37,0,.64-.42.64-.31,0-.73-.28-1.04-.64,0-.28,0-.64.31-.64.42,0,.73.37,1.14.64ZM556.24,676.28v-1.01c1.15,0,1.88.37,1.88,1.01s-.42,1.29-1.46,2.2c-.42-.27-.42-.92-.42-1.93v-.28ZM693.33,734.58l.73-2.66c-.73-5.51-1.15-10.65-1.15-15.79,0-2.66,0-5.23.42-7.8.31-7.44.73-15.24.73-23.32,0-3.21,0-6.52-.42-9.73-.31-3.21-.73-6.43-1.04-9.73-.73-.28-2.19-.64-4.38-.64h-4.79c-26.88,0-53.34,0-79.38.37-26.15.28-52.61.28-79.38.28l-1.15,1.28v2.66c0,2.2.73,3.86,1.88,4.77,1.04,1.01,2.5,1.65,4.38,2.02,1.87.28,3.65.64,5.83.92,2.29.37,4.48,1.28,6.67,2.57v2.66h2.92v2.2l2.6,1.29c1.46,2.02,2.6,6.52,3.33,13.31.73,6.79,1.46,14.87,1.77,24.33.42,9.36.73,19.37,1.15,30.11v30.75c-.42,9.73-.42,18.45-.42,25.89v15.51c0,3.58-.31,6.89-1.04,10.1l-2.92,2.57-1.56,4.87c-1.77,1.93-3.96,3.58-6.56,4.87-2.6,1.29-5.11,2.3-7.71,3.21-2.6,1.01-4.79,1.65-6.67,2.3-1.77.64-2.92,1.28-3.23,1.93v6.15c1.04,1.01,2.92,1.65,5.1,1.93,2.19.37,4.06.37,5.11.37,7.4,0,14.69-.64,21.77-1.93,6.98-1.38,13.54-3.95,19.79-7.53,1.15,1.65,2.6,2.94,4.38,3.95,1.15,0,3.33.28,6.67.92,3.33.64,6.98,1.28,11.04,2.02,3.96.64,8.44,1.29,12.81,1.93,4.38.64,8.13.92,11.46.92,1.77,0,2.92-.64,3.23-1.56.42-1.01.42-2.3.42-3.58,0-1.93-.42-3.21-1.46-4.22-1.14-1.01-2.6-1.65-4.48-2.3-1.77-.64-3.65-.92-5.52-1.28-1.77-.28-3.65-.64-5.42-1.29-3.75-1.28-6.25-4.87-7.81-10.37-1.46-5.51-2.19-11.66-2.5-18.45-.42-3.21-.42-6.43-.42-10.01,0-3.3,0-6.52.42-9.73.31-6.52.31-11.38.31-14.23l-1.46-3.3,1.46-1.29c.42-.28.42-.64.42-.92,0-1.28-.73-2.66-1.88-3.58l1.46-2.57v-4.87c1.15-.64,2.92-1.01,5.52-1.01h16.15c3.75,0,6.98.37,10.31,1.01,3.33.64,6.67,1.56,9.58,2.94,2.92,1.29,5.52,3.21,7.71,6.15v2.57h2.92c1.46,2.57,2.19,4.5,2.19,5.78s.42,2.3.73,2.94c.42.64,1.56,1.28,3.02,1.65,1.46.28,3.96.64,8.02.92.42-.92.73-1.56.73-1.93l-3.65-20.38-2.6-2.29v-4.87h-2.92l-1.46-6.15c.42-.92,1.15-1.93,2.19-2.57,1.15-.64,1.87-1.65,2.19-2.57v-4.87l2.6-2.3c.42-.64.73-1.93,1.15-3.86.31-1.93.73-3.95,1.04-6.15.42-2.29.73-4.22,1.15-5.87.31-1.56.73-2.85.73-3.58,0-.92-.42-1.56-.73-1.93h-6.98c-2.19,0-3.75,1.29-4.79,3.95-1.15,2.57-2.19,4.87-3.33,6.79-4.06,6.43-9.17,10.37-15.42,11.66-6.25,1.29-13.23,1.93-20.94,1.93-4.38,0-9.17-.64-14.69-1.65.31-5.78.73-11.66.73-17.44,0-4.87,0-9.73-.42-14.6-.73-10.65-1.04-21.67-1.04-32.68,0-2.94.31-5.23.73-6.79.31-1.65,2.5-2.66,6.56-2.66,8.85,0,16.98.64,24.27,1.65,7.4,1.01,15.42,2.29,23.85,3.85v2.66c1.88.92,3.75,1.93,5.52,2.57,1.88.64,3.75,1.29,5.52,2.2v2.66h2.92l1.15,3.58c3.33,2.57,5.94,5.42,7.71,8.72,1.88,3.21,3.33,6.79,4.38,10.65,1.15,3.95,1.87,7.8,2.29,11.66.31,3.95.73,7.44,1.04,11.02.73.37,1.87.64,3.33.64,2.6,0,5.52-.64,8.85-1.56l-3.33,1.29ZM693.64,734.21c0,.37-.31.37-.73.37.42,0,.73,0,1.15-.37h-.42ZM431.43,809.67c0-.28-.42-.64-1.15-.92-.73-.37-1.04-.37-1.46-.37,0,.64.42,1.01,1.15,1.01.31,0,.73,0,1.04.28h.42ZM427.37,792.87l-1.46.92h2.92c0-.64-.31-.92-1.46-.92ZM442.79,791.22c0-1.01.42-1.29,1.15-1.29v.28c0,.64-.42,1.01-1.15,1.01ZM453.83,723.56v1.29h1.46c0-1.01-.31-1.29-1.46-1.29ZM403.51,711.26c0,.64-.42.92-1.15.92s-1.15-.28-1.46-.92h2.6ZM394.66,710.25v-2.94h-.42c-.73,0-1.04.37-1.46,1.01-.31.64-.31,1.29-.31,1.65.73.64,1.46.92,1.77.92.42,0,.83-.28.83-.64h-.42ZM395.81,707.03l-1.15-.64v.92c.73,0,1.15,0,1.15-.28ZM389.14,706.39c.73,0,1.15-.37,1.15-1.01-.73,0-1.15.37-1.15,1.01ZM394.66,706.67v-2.2c-.73.28-1.15.64-1.15.92,0,.64.42,1.01,1.15,1.01v.28ZM436.95,792.87v-.37q0,.37-.42.37h.42ZM442.06,791.58h-1.88v2.2c.42-.64,1.15-.92,2.29-.92l-.42-1.29ZM479.56,673.34c0-.37,0-.64.31-.64.42,0,.73.28,1.15.64,0,.28,0,.64-.42.64-.31,0-.73-.37-1.04-.64ZM476.96,688.21v1.01c-.31,0-.73-.37-.73-.64q0-.37.42-.37h.31ZM459.35,725.76v.37c0,1.01.31,1.29,1.04,1.29.83,0,1.14.37,1.14,1.29,0,.37-.31,1.01-1.14,1.65l-1.46-2.57h-.31c-.73,0-1.15.64-1.15,1.56v2.29c-1.04-1.01-2.19-1.28-3.33-1.28-.73,0-1.04.28-1.04,1.28v2.3l1.46,2.57c-.42-.37-1.15-.64-1.88-1.28-.31-.37-.31-.64-.31-1.01,0-.28.31-.64.73-.92v-2.3c-.42-.37-.73-.64-1.15-.64-.31,0-.31-.37-.31-.64,0-.64.73-1.29,2.19-1.65,1.46-.28,2.19-.92,2.19-1.65,0-.28,0-.64-.31-.64-.42,0-.73-.28-1.15-.64h-2.92l1.46-1.29-1.46-2.57,4.38,1.29c.42-.64.73-1.29,1.15-2.29.31-.92,1.04-1.29,2.19-1.29,1.87,0,2.61.64,2.61,1.93,0,.73-.42,1.38-1.15,1.65l-1.46,3.21ZM452.37,741.64h-.42l-.31-.28v-.37l.73.64c.73,0,1.04.37,1.04,1.01-.73,0-1.04-.37-1.04-1.01ZM449.77,745.59c0-.64.42-1.01.73-1.01.42,0,1.15.37,1.88,1.01,0,.28-.42.64-.73.64-.73,0-1.46-.37-1.88-.64ZM450.19,739.44h-1.46c0-1.01.31-1.38,1.04-1.38.42,0,.73.37,1.46,1.01-.31.37-.73.64-1.04.64q-.42,0-.42-.28h.42ZM433.2,776.34c.42,0,.73,0,.73.28v.37l-.73-.64c-.31,0-.73-.37-.73-.64v-.37c.42.37.73.64.73,1.01ZM435.08,798.38v3.86h-.73c-.73,0-1.15-.37-1.46-1.28-.42-1.01-.42-1.65-.42-2.29,0-.92.42-1.29.73-1.29h.42c.31.37.73.64,1.15,1.01l.31-2.3c1.15.64,1.88,1.28,1.88,1.93,0,.37-.42.64-1.15.64-.31,0-.73,0-1.04-.28h.31ZM426.23,820.68c0,.37-.31.64-.73.64-.31,0-.73-.28-1.04-.64h-1.15c0-.28.42-.64,1.15-.64.31,0,1.04.37,2.19.64h-.42ZM425.91,813.52l2.92-2.57c0-.92.42-1.29,1.46-1.29.42,0,1.15,0,2.19.37,1.14.28,1.88.64,1.88,1.29,0,.28-.42.64-1.15.64h-1.77v2.57c0,1.01-.42,1.65-1.46,1.65-1.88-.64-3.02-1.65-3.75-3.3h-2.5c.31-.28,1.04-.64,1.77-.92h.42c.31,0,.31.28.31,1.29l-.31.28ZM442.79,794.8l-4.06,1.29v1.01c0,.28,0,.64-.31.64-.42,0-.73-.37-1.46-.64v7.71l.31-.28-.31.64v1.93h1.77c.73-.64,1.15-1.28,1.15-1.65,0-.28,0-.64-.42-.92-.31-.37-.73-1.01-.73-2.02v-.64c1.15,0,1.88.37,2.19,1.38.42.92.42,1.93.42,2.85v2.3l-2.61-1.29v.64c0,2.29-.31,4.22-1.46,5.78h-.31v17.17l.31-2.2c1.15.92,1.46,1.93,1.46,2.84l-1.46,2.94c.42,3.95,1.46,7.44,3.33,10.74l-.73,2.2h-2.6c-1.04-.28-2.5-1.56-4.79-3.86-2.19-2.29-3.65-3.86-4.79-4.87l-1.77,1.65-3.33,2.85c-1.04,1.01-2.19,2.02-3.33,2.94-1.04,1.01-1.77,1.28-2.19,1.28l-1.46-.64-.73-2.2c.42-1.01,1.88-2.66,4.38-4.87l5.52-4.86,10,8.72h2.92l.73-2.29c-1.15-1.56-1.88-3.58-2.19-5.51-.42-1.93-.73-3.86-1.46-5.78l.31-.37v-.92l-1.46-1.29c0-.37.31-.37,1.46-.37v-17.44c0-.37,0-1.01-.31-1.65-.42-.64-.83-1.01-1.15-1.01-.42,0-.73.37-.73.64,0,.37,0,.64-.42,1.01-1.77,0-3.96,0-6.56.37-2.61.28-4.79.64-6.67.92.42-.92,1.15-1.93,1.87-2.94.73-.92,1.46-1.93,2.19-2.85l4.38,2.2,1.15-2.2c1.88,1.28,3.33,1.93,4.38,1.93.73-.37,1.56-.64,1.88-1.29.42-.64.73-1.28.73-2.02h.42v-5.14c0-.64-.42-1.28-1.15-1.65-.73-.28-1.46-.64-2.19-.64l-5.21,2.66v.64c0,.64,0,1.28-.31,2.2-.42,1.01-1.14,1.29-2.19,1.29-.42-.28-.73-.92-.73-1.93,0-.92,0-1.56.31-2.2h-1.46l-1.46,3.49h-.31c-.83,0-1.15-.64-1.15-1.56,0-1.01.31-1.65.73-1.93.42-.37.73-.37,1.15-.37.31,0,.73,0,1.04.37l-1.46-2.66-2.19.37c-.42,0-1.15,0-1.88-.37-.73-.28-1.04-.64-1.04-.92,0-.37.31-.64,1.04-1.01.73-.28,1.46-.64,1.88-.92,0-.64.31-1.01.73-1.01.31,0,1.15.37,1.88,1.01h-2.6l2.6,2.57,2.5.28c1.87,0,2.92-.64,3.33-1.93.42-1.29.73-2.57,1.15-3.58l1.46,3.58c.73-.28,1.46-.92,1.77-1.93.42-1.01.73-1.65,1.14-1.65,1.15,0,1.88.37,2.19,1.29-.31.37-.73.37-1.04.37-.42,0-.83.37-.83.64,0,.37.42.64.83,1.01.31.28.73.28,1.04.28v-4.5c-1.04-.37-2.19-.64-3.33-.64-1.04,0-1.46-.64-1.46-1.93l.42-1.38h1.46v2.02c0,.28.31.64.73.64,1.46,0,2.19-.64,2.19-1.65v-1.93h-.31v-.37l.31-.28v-27.54c0-.64-.73-1.93-2.19-3.86-1.46-2.02-2.19-3.3-2.6-3.95-2.5-5.14-5.52-10.37-8.75-15.51-3.33-5.14-6.67-10.37-10-15.24-.31.37-.73.64-1.04.64v-.64l-.42-.28c0-.37,0-.64.42-.64l.31.28-6.98-11.29-2.5,3.49,1.46,1.38c-.42.64-1.15.92-1.87.92h-.42c-1.04-.28-1.77-.64-2.19-.92-.31.28-.73.64-.73.92,0,1.01.73,1.65,2.6,1.93,1.15.37,1.46.64,1.46,1.01l-.31.28h2.92v-.92c0-.37.31-.64.73-.64.73,0,1.46,0,2.19.28.73.37,1.46.64,1.87,1.01-.73.28-1.46.64-2.29.64-1.04,0-1.77,0-2.5-.37.31,1.01.73,1.65.73,2.02,0,.28-1.15.64-2.92.64h-3.75l-1.04,2.57h-1.46c-1.87,0-3.75-.37-5.52-1.01-1.87-.64-3.75-1.28-5.52-1.56,1.04-.37,2.5-.64,4.38-.64,1.15,0,1.87-.37,1.87-1.01v-1.93l-2.92-3.58h-5.52l2.5-1.29c-.31-1.01-1.46-2.29-3.23-3.58-1.88-1.29-3.33-1.93-4.79-1.93q-.42,0-.42.28v.37c.42.37.73.64,1.15,1.01-1.46-1.65-2.19-2.94-2.19-3.95,0-.92.31-1.93.73-3.21l3.96,4.87h4.48v2.3l4.06-2.3,1.46-2.57c-.42-.37-.42-1.01-.42-1.65s.42-1.28.73-1.65c.42,1.01.73,1.65.73,2.02,0,.64-.31.92-1.04,1.29l-1.46,2.57c.31,1.93,1.77,2.94,4.38,2.94s4.79-.37,6.56-.64v2.57c1.15-.37,1.88-1.01,2.29-1.93.31-1.01.73-2.02.73-2.94l.73.28c-1.87-3.49-3.75-7.44-5.94-11.29-2.19-3.85-3.23-8.08-3.23-12.3v-.64l.73-.37,2.19.37.73,1.93v2.3c0,2.84.73,5.78,1.77,8.72,1.15,2.94,2.6,5.78,4.48,8.72,1.77,2.94,3.65,5.87,5.52,8.45,1.77,2.57,3.23,4.87,4.79,7.16v.64l9.9,15.79,1.46-.28h.31c-.31.28-.73.28-1.04.28l-.42,1.01,1.87,2.57,1.88-.28-1.56,1.28,1.15,1.93,1.46-.64-1.04,1.29,1.04,1.65,1.46-.37h.42c-.42.37-.73.37-1.15.37l-.31.92.31,1.01,3.33-1.01h1.46l1.15,3.58-3.33,1.65c2.61,4.22,4.38,7.07,5.52,9,1.04,2.02,1.77,3.58,2.19,5.23.42,1.01.42,1.93.42,2.94,0,.92,0,2.2-.42,3.49-.42,2.66-.42,6.88-.42,12.39l.42.28h-.42v3.58l1.88.28-1.88,1.01v2.94c1.15.64,2.29,1.29,3.75,1.56.31.37.73.64.73,1.01,0,.64-.42,1.28-1.46,1.93l-1.15,2.3ZM405.29,821.97c0-.28.42-.64.73-.64.42,0,1.15.37,2.29.64-1.15.37-1.88.64-2.29.64-.73,0-1.04-.28-1.04-.64h.31ZM402.78,847.86c0-.28,0-.64.31-.64.42,0,.73.37.73.64,0,.37,0,.64-.31.64-.42,0-.73-.28-.73-.64ZM406.43,799.66v-.37c0-.64.31-.92,1.04-1.29h2.29l3.65.37v.28c0,1.01-.73,1.28-1.88,1.28-1.04,0-1.77,0-2.5-.28-.42-.37-.73-.37-1.14-.37s-.73,0-1.15.37h-.31ZM415.6,779.56l-.73.64c0,.64-.42,1.01-1.15,1.01,0-.37.42-.64.73-1.01.42-.28.83-.64,1.14-1.01v.37ZM410.08,772.12v2.3c.42-.37,1.15-.37,1.88-.37s1.46.37,2.19.64c-.73.64-1.46,1.01-2.61,1.01-.31,0-.73-.37-1.04-1.28-.42.28-.73.28-1.15.28-.73,0-1.04-.64-1.04-1.65,0-.92.31-1.29,1.46-1.29.31,0,.73,0,1.04.37l-2.5-1.29,2.19-1.93v-.37c0-.28-.42-1.28-.73-2.57.31.28,1.46.92,3.23,1.93,1.87,1.01,3.02,1.65,3.02,1.93-1.15,1.01-3.02,1.65-5.52,1.93l-.42.37ZM416.02,773.41h2.5c0,.64-.31,1.01-.73,1.01-.31,0-1.04-.37-1.77-1.01ZM419.25,739.72h-1.46c.42-.92.73-1.28,1.15-1.28.31,0,.73,0,1.04.37.42.28.73.64,1.15.92-.42.37-1.15.37-2.19.37l.31-.37ZM418.93,778.27l.31-2.29c.42.37.73.64,1.15,1.01v.28c0,.37-.42.64-1.46.64v1.29h1.04c1.15,0,1.87.37,1.87,1.01s-.31,1.01-1.14,1.01c-.31,0-1.04-.37-1.77-1.01v-1.93ZM425.5,751.74l-.73.64c0,.28-.31.64-.73.64h-.31c.31-.37.73-.64,1.04-.64,0-.37,0-.64.42-.64h.31ZM414.87,764.04l1.15,1.93h-1.56c-.73,0-1.04-.37-1.04-.64,0-.64.31-1.01,1.46-1.01-.42-.64-.42-1.29-.42-1.56,0-.64.42-1.38.83-1.65.31.28.73,1.01.73,1.65,0,.92-.42,1.56-1.15,1.93v-.64ZM399.45,722.27c.73,0,1.04.28,1.04.92-.31.37-.73.37-1.04.37-.42,0-.73,0-1.15-.37.42-.64.73-.92,1.46-.92h-.31ZM393.51,720.9c-.73,1.01-1.46,1.38-2.19,1.38s-1.46-.37-2.5-1.01c.31-.37,1.04-.64,2.19-.64,1.04,0,1.77,0,2.5.28ZM384.03,713.18h-1.46l-2.6-1.28v-.37c0-.28.31-.64.73-.64h1.15c.73,0,1.46.37,1.77.64.42.37.42.64.42,1.01,0,.28,0,.64-.42.92l.42-.28ZM372.99,679.77l-1.46-.92c.31-1.01,1.04-1.65,2.19-1.65,1.04,0,1.46.37,1.46,1.28,0,1.01-.73,1.29-2.19,1.29ZM367.78,682.06v.37c-.73-.64-1.46-1.01-2.19-1.01h-1.04c-1.15.64-2.19,1.01-3.75,1.01l-.31-1.01c0-.92.31-1.65,1.46-1.93,1.14-.37,1.87-.37,2.19-.37.73,0,1.46.37,2.19,1.01.73.64,1.15,1.28,1.15,1.93h.31ZM364.86,693.45c0-.37,0-.64.42-.64.31,0,.73.27,1.04.64,0,.28,0,.64-.31.64-.42,0-.73-.37-1.15-.64ZM360.07,691.79l-.73-.64c-.73,0-1.04-.37-1.04-1.01.73,0,1.04.37,1.04,1.01h.42l.31.28v.37ZM364.55,673.99l1.77,2.29c.73-.64,1.46-1.01,2.6-1.01.73,0,1.15.37,1.15.64-.73,1.01-1.88,1.65-3.02,1.65h-.73v-1.29l-1.46.64-.31.28c-.42,0-.42-.28-.42-.92l.42-2.29ZM371.53,683.72c0,.27-.42.64-.73.64-.42,0-.73-.37-1.15-.64h-1.04c0-.37.31-.64,1.04-.64.42,0,1.15.27,2.19.64h-.31ZM377.05,685.92c0,.37,0,.74-.42.74-.31,0-.73-.37-1.04-.74,0-.27,0-.64.31-.64.42,0,.73.37,1.15.64ZM378.51,679.77l.31.37-.31-.37h-1.46v2.3c-.73-.27-1.15-.64-1.15-1.28s.42-1.01,1.15-1.01h1.46ZM378.51,693.45c-.42,0-.73,0-.73-.37v-.27l.73.64c.31,0,.73.28.73.64v.28c-.42-.28-.73-.64-.73-.92ZM375.91,676.92v-2.66c.42.37.73.37,1.15.37.31,0,.73,0,1.04-.37.42-.28.42-.64.42-.92q0-.37-.42-.37h1.15c.31,0,.73.37.73.64,0,.64-.42,1.38-1.14,1.65-.73.37-1.46.64-1.77,1.01l-1.15.64ZM382.89,696.66c0,.28,0,.64-.31.64-.42,0-.73-.37-1.15-.64,0-.37,0-.64.42-.64.31,0,.73.28,1.04.64ZM384.03,690.51c0,.28-.42.64-.73.64-.42,0-.73-.37-1.15-.64h-1.15c0-.37.42-.64,1.15-.64.42,0,1.15.28,2.19.64h-.31ZM388.82,677.84h-1.56c.42-.92.73-1.29,1.15-1.29s.73,0,1.15.37c.31.28.73.64,1.04.92-.31.37-1.04.37-2.19.37l.42-.37ZM414.87,712.18c0,.64-.42,1.01-1.15,1.01-.31,0-1.04-.37-1.77-1.01,0-.28.31-.64,1.04-.64.42,0,1.15.37,2.29.64h-.42ZM413.72,721.63c.42-.37.73-.73,1.15-.73v-.28q0-.37.42-.37h.31c-.73.64-1.46,1.01-1.87,1.38ZM433.2,742.29l-.31-.28.31.28ZM453.83,716.12c0,.28,0,.64-.42.64-.31,0-.73-.37-1.04-.64,0-.37,0-.64.31-.64.42,0,.73.28,1.15.64ZM510.81,674.26l.31-5.14c0-1.65-.73-2.57-2.19-2.94-1.46-.28-2.92-.64-4.06-.64-4.79,0-8.75.64-12.5,2.29-3.65,1.65-6.98,3.58-10.21,5.78l-3.33-.64.31-.92c0-1.01-1.04-1.93-2.92-2.94-1.77-1.01-4.06-1.93-6.56-2.57-2.6-.64-4.79-1.29-6.98-1.65-2.29-.28-3.75-.64-4.79-.64-.73,0-1.88.37-3.33.64v8.45c0,.64.73.92,1.88,1.29,1.04.37,2.19.64,3.23,1.01,1.15.28,2.29.92,3.33,1.93,1.15.92,1.88,2.2,1.88,4.22,0,.92-1.15,3.49-3.33,7.71-2.19,4.22-4.79,8.81-7.4,13.59-2.5,4.87-5.11,9.46-7.71,13.95-2.5,4.59-4.37,7.44-5.52,9.09-.31.64-.73,1.65-1.46,2.94-.73,1.29-1.46,2.85-2.5,4.5-1.15,1.65-2.19,2.94-3.33,3.86-1.14,1.01-1.87,1.65-2.6,1.65-2.5-6.79-6.25-13.59-11.04-20.38-4.69-6.79-8.75-13.59-12.5-20.11l-2.5-1.28-5.94-15.51c0-1.65.73-2.94,2.19-3.95,1.56-.92,3.02-1.93,4.79-2.57,1.88-.64,3.33-1.65,4.79-2.57,1.46-1.01,2.19-2.57,2.19-4.87s-1.46-3.58-4.37-3.86c-2.92-.37-5.11-.37-6.98-.37-3.65,0-7.4.37-11.04,1.01-3.65.64-7.29,1.56-10.63,2.57l-8.13,2.3-3.23,1.28c-5.52-2.94-11.04-5.23-16.98-6.52-5.83-1.29-12.08-1.93-18.34-1.93-1.88,0-3.33.28-4.79.64-1.46.37-2.92.64-4.38,1.01v2.57c0,2.94.31,4.5.73,5.14.31.64,2.19,1.29,5.11,2.3,5.94,1.65,10.63,4.5,13.96,8.72,3.33,4.22,6.67,8.45,9.9,12.67,3.02,4.22,6.98,9.73,12.19,16.8,5.1,7.16,9.9,14.6,14.69,22.4,4.79,7.71,8.86,15.15,12.5,22.67,3.65,7.44,5.52,13.22,5.52,17.44v45.99c0,4.22-.42,7.8-1.15,10.65-.73,2.94-1.77,5.23-3.33,7.16-1.46,1.93-3.65,3.86-6.25,5.88-2.5,1.93-5.83,3.86-9.9,6.15h-8.44v6.15c0,2.2.42,3.49.73,3.86.42.28.73.28,1.15.28.73,0,1.77-.28,3.65-.64l1.46,1.38,2.92-1.38c4.79-.28,9.58-.64,14.38-.64s9.58-.64,14.38-1.93c1.77-.64,3.96-1.93,6.56-3.58,2.6-1.56,4.79-2.57,6.67-2.57l3.96,3.95c1.15.28,2.19.64,3.33.64h3.33c6.25,2.2,12.5,3.49,18.33,3.86,5.94.28,12.5.64,19.48.92v-6.15c0-2.2-1.46-3.86-4.38-4.77-2.92-1.01-6.25-2.3-9.58-3.95-3.33-1.56-6.25-4.22-8.86-7.44-2.19-2.94-3.23-6.79-3.23-11.93v-2.94l-1.46-3.95,1.46-3.49-1.46-3.95,1.46-8.35c-1.15-2.3-1.46-4.87-1.46-7.8v-19.46c0-3.58.31-7.07,1.04-10.37.73-3.21,1.88-5.78,2.92-7.71,1.56-2.3,3.75-5.88,6.25-10.74,2.6-4.87,5.94-10.01,9.59-15.88,3.65-5.78,7.4-11.93,11.35-18.45,4.06-6.43,8.13-12.3,11.77-17.81,3.75-5.51,7.4-10.37,10.73-14.5,3.23-4.22,5.83-6.88,8.02-7.8,1.46-1.01,2.92-1.65,4.48-2.3,1.46-.64,3.23-1.28,5.11-1.56l-2.92,4.77ZM304.79,785.43c.42,0,.73-.37,1.15-.73h-.42c-.31,0-.73.37-.73.73ZM303.33,782.77c-.73,0-1.04.37-1.04,1.29h.31c.42,0,.73-.28.73-1.29ZM229.88,760.74h-.73v1.38c.31.64,1.04.92,2.19.92.73,0,1.04-.27,1.04-.92,0-1.01-.73-1.38-2.19-1.38h-.31ZM241.24,722.55h-2.61v1.29c.42,0,1.15,0,1.88-.28.73-.37,1.04-.64,1.04-1.01h-.31ZM230.2,719.98l-2.92-2.3c0-.64.31-.92,1.04-.92.42,0,1.15.28,1.87.92v2.3ZM224.68,716.12v.28c.42,0,.73-.28.73-.64h-.31q-.42,0-.42.37ZM218.84,715.11v1.28c.31,0,.73,0,.73-.28,0-.37-.42-.64-.73-1.01ZM319.47,835.92h1.88c-1.15,1.28-2.19,1.93-3.33,1.93-.31,0-.73,0-1.46-.37-.73-.28-1.04-.64-1.46-.92.42-.37,1.15-.64,1.87-.64h2.5ZM318.02,845.65l-1.04-1.29c-.42-.37-.42-.64-.42-1.01,0-1.01.42-1.65,1.15-1.93.73-.37,1.46-.64,2.19-.64,1.04,0,1.46.28,1.46.92-1.15.37-1.88.64-2.6,1.01-.31.28-.73.64-.73,1.01,0,.28,0,.64.42.92l-.42,1.01ZM312.91,817.75c.31-.28.73-.64,1.04-.64,0,.37-.31.64-.73.64h-.31ZM311.04,803.52c0-.28.42-.64.73-.64.42,0,1.15.37,2.19.64-.73.64-1.46,1.01-1.77,1.01-.73,0-1.15-.37-1.15-1.01ZM304.06,791.22l-1.46-2.29-2.61,1.01v-1.01c0-.64.42-1.29.73-1.56.42-.37.73-1.01.73-1.93-.31-1.01-1.46-2.02-3.23-2.94-1.15-.37-1.88-1.01-1.88-1.93,0-.37.42-1.01,1.15-1.65h-.73c-.42,0-.42-.37-.42-.64,0-.64.42-1.29,1.15-1.65v2.3c1.77,0,2.92.64,3.23,1.93.42,1.28,1.15,2.29,2.29,3.21.73-.64,1.46-.92,2.19-.92s1.04.28,1.46,1.29c.31,1.01.31,1.65.31,1.93v1.28c0,.64-.31,1.01-.73,1.01-.31,0-.73-.37-1.04-1.01-.42-.64-.73-.92-1.15-1.28l-1.46,2.57c1.15,0,1.88.37,1.88,1.28v.37q-.42,0-.42.28v.37ZM292.29,781.49c.42.37.42,1.01.42,1.65s-.42,1.29-.73,1.56c-.42-.28-.73-.64-1.15-.92-.31-.37-.31-.64-.31-1.01,0-.28.31-.64,1.46-.92.31-.37.73-.64,1.04-.64.73,0,1.15.28,1.15.92v1.93c-.73,0-1.15-.28-1.46-.92-.42-.64-.73-1.29-1.15-1.65h.73ZM286.76,774.05c-1.77-1.01-4.38-1.65-7.71-1.65h-1.77c-4.06.37-7.4.37-10,.37l-2.5,1.29c-2.19-.64-4.79-1.01-7.4-1.01h-3.65c-4.06.73-7.71,1.01-11.04,1.01,3.33-12.94,6.98-25.89,11.04-38.83,4.06-12.94,7.29-25.98,10.31-38.92.31.64,1.04,2.94,2.5,6.79,1.46,3.95,3.02,8.81,4.79,14.32,1.88,5.51,3.64,11.29,5.52,17.44,1.88,6.15,3.64,12.03,5.52,17.17,1.88,5.23,3.33,9.73,4.38,13.31,1.15,3.58,1.87,5.51,1.87,5.78,0,.64,0,1.28-.42,1.65l-1.46,1.29ZM247.49,784.06c0-.28,0-.64.31-.64.42,0,.73.37,1.15.64,0,.37,0,.64-.42.64-.31,0-.73-.28-1.04-.64ZM247.49,728.42c0-.37,0-.64.31-.64.42,0,.73.28,1.15.64,0,.28,0,.64-.42.64-.31,0-.73-.37-1.04-.64ZM216.97,846.94l-1.04,2.2h-2.29c-1.04-.64-1.77-1.29-2.19-1.56-.31-.37-1.04-1.01-2.19-1.93l1.15.28,2.19-.28.73-1.93c-.42-1.01-.42-2.02-.42-2.94v-2.94c0-5.78.73-11.66,1.88-17.44,1.15-5.88,2.6-11.66,4.38-17.53,1.88-5.78,3.75-11.66,5.94-17.44,2.19-5.88,4.06-11.38,5.52-16.89l-3.75-1.01,1.46-2.2v-1.28c-.73-1.01-1.04-1.65-1.04-1.93,0-.37.31-.74.73-.74.31-.28.73-.28,1.15-.28.73,0,1.46,0,1.77.28l1.15,1.38,3.65-13.04-2.19-.64,2.6-.64,1.04-4.22h-.73l1.15-.92,1.46-5.23c-1.15-.92-1.46-1.56-1.46-2.2l.31-1.28,1.46,1.56,1.15-3.86-4.06-.37c-.73.37-1.14.64-1.14,1.01s0,.37.42.37c.42.64.73,1.29.73,2.2,0,.64-.31,1.01-1.46,1.01-.73-1.01-1.15-2.29-1.15-3.95,0-.92.42-1.56,1.46-1.56.42,0,.83,0,1.14.28l2.61-1.28c-1.15-.92-1.46-1.93-1.46-2.85,0-.37,0-.73.31-1.01l-1.46-1.28c-.31.64-1.14.92-1.87.92s-1.04-.28-1.04-1.29l1.46-3.21,1.46,3.58h1.46l2.6-1.29.31-2.3c.42.37.73.64,1.15,1.01v.28c0,.37-.42.64-1.46.64v1.29l1.88-.28,2.92-10.37-1.87-.37,2.19-.92,10.73-37.91h1.46c.31,0,1.04.37,2.19.64v1.93c-.42.37-.42,1.01-.42,1.93l-7.71,27.54.73-.28-1.04,1.28c-.42.92-.73,2.57-1.46,4.87-.73,2.2-1.56,4.5-2.29,7.07-.73,2.66-1.46,4.87-1.77,7.16-.42,1.65-.42,2.57-.42,3.21v1.01l-.73.28-1.04,3.3,2.19-.37c.31,0,.73,0,.73.37,0,.64-.42,1.28-1.46,1.93-1.15.64-1.87.92-2.19,1.29l-3.33,11.66h.31c0,5.78-1.46,12.67-4.38,20.75-2.92,8.08-6.25,16.52-9.58,25.25-3.23,8.72-6.25,17.44-8.44,26.26-1.04,4.87-1.77,9.36-1.77,13.59,0,3.58.31,7.07,1.46,10.37l-.42,1.28ZM212.59,783.14v-2.29c.31-.28.73-.64.73-.92,0-.37.31-.37.73-.37l.31.37v.28c0,.37,0,1.01-.31,1.93-.42,1.01-.73,1.29-1.15,1.29-.31,0-.73-.28-.73-.92l.42.64ZM219.57,726.77c0-.37,0-.64.31-.64.42,0,.73.28,1.15.64,0,.37,0,.64-.42.64-.31,0-.73-.28-1.04-.64ZM219.15,735.49c0,.37-.31.64-.73.64-.31,0-.73-.28-1.04-.64h-1.15c0-.28.42-.64,1.15-.64.31,0,1.04.37,2.19.64h-.42ZM224.68,761.38v.37c0,.37-.31.64-1.04.64v-.27c0-.37.31-.74,1.04-.74ZM224.68,736.5c0,.64-.31.92-.73.92,0-.28.73-.92,1.88-1.56-.42.28-.73.64-1.15.64ZM217.7,719.98v-1.29c.73,0,1.15-.37,1.46-1.01.42-.64.73-1.29.73-1.93s.42-1.01.73-1.28h.73c.42,0,1.15,0,2.29.28v-1.29h-2.6c.31-.64,1.04-.92,2.19-.92.42,0,.73.28.73.64v1.56c-.73.73-1.04,1.38-1.04,1.65,0,.37.31.64,1.04,1.01.73.28,1.46.64,2.19.92.73.37,1.46.64,2.19,1.01.83.28,1.15.92,1.15,1.93v3.86c-1.46.37-2.19,1.28-2.19,2.66,1.04,1.56,2.6,2.57,4.79,2.57-1.15.28-2.19.64-3.33.92-1.15.37-2.19.37-3.33.37-1.04,0-1.77-.37-2.19-1.28-.31-1.01-.31-1.93-.31-2.94s0-2.29.31-3.58c.42-1.29.42-2.2.42-2.94-1.56.73-3.33,1.01-5.21,1.01-1.04,0-1.46-.28-1.46-1.28,0-.37,0-.64.42-1.01q0-.28.31-.28v.64ZM229.16,716.4h2.5c-.31.64-1.04,1.01-1.77,1.01-.42,0-.73-.37-.73-1.01l-2.6-.28c.73-.64,1.04-1.01,1.46-1.01.73,0,1.15.37,1.15,1.28ZM230.61,719.98c0-.37,0-.64.31-.64.42,0,.73.28.73.64,0,.28,0,.64-.31.64-.42,0-.73-.37-.73-.64ZM230.61,734.85v-.28q0-.37.31-.37l.73.64v.37l-.31.28-.73-.64ZM235.72,730.63c-.42.37-.73.64-1.15,1.01-.31.28-.73.28-1.04.28-.42,0-.73-.28-.73-.92,0-.37.31-.64,1.04-.64.42,0,1.15.28,2.29.64l-.42-.37ZM234.26,714.75c0,.37,0,.73-.42.73-.31,0-.73-.37-1.04-.73,0-.28,0-.64.31-.64.42,0,.73.37,1.15.64ZM234.26,709.97c0,.28,0,.64-.42.64-.31,0-.73-.37-1.04-.64,0-.37,0-.73.31-.73.42,0,.73.37,1.15.73ZM236.45,718.05l.42,2.2h1.04l1.46-2.2-1.04-1.93h1.77c.73,0,1.15.28,1.15.64q0,.28-.42.28c-.31,0-.73,0-1.04.37l-1.46,2.2v.37c0,.92-.42,1.65-.73,1.65-.42,0-.73-.37-.73-.73l.31-.28v-1.01c-1.04,0-1.46-.28-1.46-.64,0-.28.42-.92,1.15-1.56l-.42.64ZM241.97,708.96l-1.46,2.57,1.46-2.57v-1.29c0-.37.42-.64.73-.64.42,0,.73.28,1.15,1.28.31.92.73,1.65,1.04,1.93l-2.92-1.29ZM251.55,685.65c0,.27,0,.64-.42.64-.31,0-.73-.37-.73-.64,0-.37,0-.64.42-.64.31,0,.73.27.73.64ZM259.99,678.21c0-.37,0-.64.31-.64.42,0,.73.28,1.15.64,0,.27,0,.64-.42.64-.31,0-.73-.37-1.04-.64ZM261.45,690.51c0,.28,0,.64-.42.64-.31,0-.73-.37-1.04-.64,0-.37,0-.64.31-.64.42,0,.73.28,1.15.64ZM260.3,684.63v-2.2c.42-.37.73-.64.73-1.01,0-.28.42-.28.73-.28l.42.28v.37c0,.27,0,.92-.42,1.93-.31.92-.73,1.29-1.04,1.29-.42,0-.73-.37-.73-1.01l.31.64ZM264.78,677.84l-1.46-3.58h1.46c.73,0,1.04.37,1.04,1.01,0,.37,0,.64-.31,1.01l-.73,1.56ZM296.04,769.55l.73-.64c0-.64.31-1.01,1.04-1.01,0,.37-.31.64-.73,1.01-.31.28-.73.64-1.04.92v-.28ZM300.41,776.62l-.73.64c0,.64-.42,1.01-1.14,1.01,0-.64.42-1.01,1.14-1.01v-.28l.31-.37h.42ZM303.74,784.7c0,.37,0,.73-.42.73-.31,0-.73-.37-1.04-.73,0-.28,0-.64.31-.64.42,0,.73.37,1.15.64ZM306.24,792.5l.42-.64c0,.37,0,.64.31,1.01v.92c0,.37,0,.64.42,1.01l-.42.64c-.31,0-.31-.37-.31-1.29v-1.93l-.42.28ZM315.83,818.39c0,.37,0,.64-.31.64-.42,0-.83-.28-.83-.64,0-.28,0-.64.42-.64s.73.37.73.64ZM191.97,851.8l-1.77-.64-.42-2.29.73-1.29c4.06-1.65,7.4-4.22,10.31-7.8l2.92,3.95c-1.46,1.93-3.33,3.49-5.52,4.77-2.19,1.38-4.37,2.3-6.56,3.3h.31ZM348.54,854.01l-3.65-.28-6.98-3.58-1.14-3.58h-2.92v-2.57c-1.88-1.65-4.38-6.52-7.4-14.6-2.92-8.08-6.25-17.81-9.9-29.1-3.65-11.38-7.29-23.69-11.36-37.27-4.06-13.59-7.71-26.53-11.46-39.2-3.65-12.58-6.98-24.24-9.9-34.61-2.91-10.37-5.1-18.18-6.98-23.68-6.25-.28-12.08-.64-18.02-.64h-24.59c-2.19,0-4.38,0-6.98.37-.73.28-1.46,1.56-2.19,3.86-.73,2.29-1.46,4.87-2.19,7.8-.83,2.84-1.56,5.51-1.88,8.08-.42,2.57-.73,4.5-1.15,5.51-5.52,20.75-11.35,41.13-17.19,61.51-5.94,20.38-11.77,40.85-17.29,61.51-1.15,3.58-2.19,7.53-3.33,12.03-1.15,4.5-2.6,8.72-4.38,12.94-1.87,4.22-4.48,7.8-7.71,10.65-3.33,2.66-7.4,3.95-12.19,3.95h-1.04v10.01c5.42-.28,10.63-.64,15-.64s9.17-.64,14.38-1.93l9.48-6.15c.42,0,1.88.28,4.06,1.28,2.19,1.01,5.21,1.93,8.44,2.94,3.33.92,6.98,1.93,11.04,2.94,4.06.92,7.71,1.29,11.46,1.29,1.77,0,3.96,0,6.25-.37,2.19-.28,3.96-1.28,5.1-2.94l-1.46-3.49,1.46-2.66h-1.46c-5.52,0-9.17-1.93-11.35-5.78-2.29-3.86-3.33-7.8-3.33-11.66,0-5.51,1.46-12.03,4.38-19.09,2.92-7.16,5.11-13.59,6.67-19.1l49.59-1.01c2.61,0,5.1.37,7.71,1.01,1.15,6.15,2.92,12.3,5.52,18.73,2.61,6.52,4.06,12.67,4.06,18.82,0,3.58-.73,6.43-2.29,8.45-1.46,1.93-3.65,4.13-6.98,6.43h-1.77c-2.6,0-4.48.37-5.94,1.29-1.46,1.01-2.19,2.57-2.19,4.87,0,.37.42,1.28.73,2.94.42,1.56.73,2.29,1.15,2.29h.31c4.79-.73,9.27-1.38,13.23-1.65,4.06-.37,8.13-1.28,12.19-2.94,1.04-.28,2.5-.92,4.06-1.93,1.46-1.01,2.92-1.28,4.69-1.28,1.56,0,3.33.64,5.52,1.93,2.29,1.29,4.06,2.3,5.21,2.94h1.77c3.02,0,5.21.28,6.98,1.28,1.88,1.29,4.06,1.93,6.98,1.93,1.15,0,2.29-.28,3.75-.64,1.04-1.65,1.77-3.58,1.77-5.51,0-2.57-.31-3.86-1.04-3.86h-4.06l.73,2.2ZM82.71,752.66c0-.92-.42-1.29-1.46-1.29v.37c0,.64.31.92,1.46.92ZM82.71,743.94v-1.28c-.42,0-.73,0-.73.28,0,.37.31.64.73,1.01ZM159.49,667.47v.37c0,.64.42,1.01,1.46,1.01,0-1.01-.31-1.38-1.46-1.38ZM162.82,668.11c2.19-.28,3.33-1.29,3.33-2.85l-.42-1.28c-1.15.28-1.87.92-2.19,1.93-.42.92-.73,1.93-1.15,2.94l.42-.73ZM170.53,662.33l-.73,1.01h1.04c0-.73,0-1.01-.31-1.01ZM175.33,659.39c0-.28,0-.64.31-.64.42,0,.73.37,1.15.64,0,.37,0,.64-.42.64-.31,0-.73-.28-1.04-.64ZM173.87,667.84h-2.6c.31.28.31,1.01.31,1.65s-.31,1.28-.73,1.56c-.31-.92-.73-1.56-.73-1.93,0-.28.42-.64,1.15-1.01,0-.64.31-.92,1.04-.92.42,0,.83.28,1.15.92l.42-.28ZM167.2,667.84c-.73,1.65-1.88,3.21-3.33,4.87l-1.04-4.87h-1.46v1.01c0,.92-.42,1.28-.73,1.28-.73,0-1.15-.37-1.56-1.01-.31-.64-.31-1.29-.31-1.65v-.64h1.46v-.64c0-.92.73-1.56,1.88-2.2,1.77-1.01,2.92-1.65,3.65-2.02v-3.86l8.44,2.57v.64c0,.37-.31,1.29-1.04,2.66-.83,1.28-1.56,1.93-2.61,1.93-.42,0-.73-.37-.73-1.28v-1.65c-1.15,1.65-1.88,3.21-2.6,4.87ZM149.91,673.99c0-.37,0-.64.42-.64.31,0,.73.28,1.04.64,0,.28,0,.64-.31.64-.42,0-.73-.37-1.15-.64ZM114.7,845.01h-3.33c-1.14-.37-2.92-1.65-5.52-3.95-2.6-2.2-4.06-3.86-4.79-4.87-.31.37-1.04,1.01-2.19,2.02-1.15.92-2.19,1.93-3.33,2.85-1.04,1.01-2.19,1.93-3.33,2.66-1.04.64-1.77.92-2.5.92l-1.46-.28-.73-2.66c.31-.92,1.77-2.57,3.96-4.5l4.79-4.22c0-.64.42-.92,1.15-1.29.73-.37,1.46-.64,1.77-1.01.42.64.83,1.38.83,1.65,0,.37-.42.64-1.15,1.01l8.44,7.43h2.92l.73-2.57c-1.04-2.3-1.77-4.59-2.19-6.52-.31-1.93-.73-4.22-1.04-6.52l-1.15.37,1.15-1.28v-22.68h-.42c-.31,0-.31-.37-.31-.64,0-.37,0-.64.31-.64h.42v-1.93h-1.15l1.15-1.29v-13.95h-.42c-.31,0-.31-.37-.31-.64,0-.37,0-.64.31-.64h.42v-13.31l-1.15.37,1.15-1.38v-94.19h1.46l1.77.64v108.14c.42,0,.73.37,1.15.64l.31.37q0,.28-.31.28l-.73-.28v31.4l1.04-.37-1.04,1.38v11.66c0,1.29.31,2.84.73,5.14.31.37.31.64.31,1.01q0,.27-.31.27c.31,1.29.73,2.57,1.15,3.86.31,1.38,1.04,2.66,1.77,3.95v2.57h2.6c-.42.64-1.15,1.01-1.87,1.01-.31,0-.73-.37-.73-1.01l-.31,1.01ZM86.78,836.2c0-.28.31-.64.73-.64.31,0,.73,0,1.04.37.42.28.73.28,1.15.28h.31c0,.37-.31.64-1.04.64-.42,0-1.15-.28-2.19-.64ZM86.36,830.05l2.6.37c-.73.64-1.15.92-1.46.92-.73,0-1.15-.27-1.15-1.29h-2.6c.42-.64,1.14-.92,2.19-.92.42,0,.83.27.83.92h-.42ZM80.84,823.26v2.29l2.92-1.28c-.31.27-.73.64-1.04.92-.42.37-.73.64-1.15.64-.31,0-.73-.27-.73-.64-.73,0-1.15-.27-1.15-.64,0-.64.42-1.28,1.15-1.56v.28ZM78.96,816.83h-1.46c.42-.64,1.14-1.01,2.19-1.01.83,0,1.56.37,1.88.64-.31.37-1.04.37-2.19.37h-.42ZM76.46,675.27c0,.37,0,.64-.42.64-.31,0-.73-.28-1.04-.64,0-.28,0-.64.31-.64.42,0,.73.37,1.15.64ZM80.53,680.14c0,.37,0,.64-.42.64s-.73-.28-1.15-.64c0-.37,0-.64.42-.64.31,0,.73.27,1.15.64ZM80.84,674.26l1.46-2.2v-1.29h.73c1.15,0,1.46.28,1.46.64,0,.64-.31,1.29-1.04,1.93-.73.64-1.46.92-2.19.92h-.42ZM87.82,729.34c1.15.64,1.88,1.65,1.88,2.57-1.15,1.65-2.19,2.66-3.75,2.66l-1.04-.37c2.19-.92,3.33-2.3,3.33-3.58,0-.28,0-.64-.42-.92v-.37ZM91.88,735.49c0,.37,0,.64-.42.64-.31,0-.73-.28-.73-.64,0-.28,0-.64.42-.64.31,0,.73.37.73.64ZM94.49,741l2.19-.92c0,.28-.42.92-.73,1.56l-.42.64c-.31,0-.73-.28-1.04-1.28-1.15.37-1.88,1.01-2.6,1.65-.73.64-1.88.92-2.92.92-.73,0-1.46-.28-2.6-.64l1.88-2.57c1.46-.64,3.23-.92,5.11-.92,1.15,0,1.46.28,1.46.92l-.31.64ZM93.34,747.15l4.06,2.29h-4.06c-1.46,0-2.6-.64-3.65-1.65,1.46-.28,2.5-.64,3.65-.64ZM100.74,748.16c-.73,0-1.15-.37-1.15-1.01h2.6c-.42.64-.73,1.01-1.15,1.01h-.31ZM99.59,752.02c0-.28,0-.64.42-.64.31,0,.73.37,1.04.64,0,.37,0,.64-.31.64-.42,0-.73-.28-1.15-.64ZM98.13,784.06v.37c0,.28-.42.64-1.15.64v-.37c0-.28.42-.64,1.15-.64ZM96.99,825.83c0,.37,0,.74-.31.74-.42,0-.73-.37-1.15-.74,0-.27,0-.64.42-.64.31,0,.73.37,1.04.64ZM90.74,752.66h-2.5v2.29c1.77,0,2.5.64,2.5,1.93v.64h-2.5v.64c0,1.01-.42,1.65-1.46,1.93-1.15.37-2.29.64-3.33.64v-4.87l4.38,1.38v-2.66c-.31-.27-.73-.64-1.04-.92-.42-.37-.83-.64-.83-1.01,0-.28.42-.64.83-.64h.31c.42.37.73.37,1.15.37l-.42-1.29c0-.37.42-.64.73-.64.42,0,.73.28,1.15.64.31.28.73.64,1.04.92h2.6c-.42.37-.73.64-1.15,1.01h-.31c-.42,0-.73-.37-.73-1.01l-.42.64ZM90.01,773.04l.73-.64c0-.64.42-.92,1.15-.92,0,.64-.42.92-1.15.92v.37l-.31.28h-.42ZM87.51,826.56h3.23c-.31.92-1.04,1.28-2.19,1.28-.31,0-.73,0-1.04-.37-.42-.28-.73-.28-1.15-.28.42-.37.73-.64,1.15-.64ZM87.82,791.86c0,.64-.31,1.01-1.04,1.29-.42-.28-.42-.92-.42-1.56,0-.73.42-1.38.73-1.65.42.92.73,1.65.73,1.93ZM78.24,774.42c.42.28.73.28,1.15.28,0,1.01-.42,1.29-1.15,1.29-.31,0-.73-.28-1.46-.92.42-.37.73-.64,1.15-.64h.31ZM80.11,756.61l-1.46-3.58h1.46v-1.65c0-.64.42-.92.73-.92,1.88,0,2.61.92,2.61,2.57,0,.92-.42,1.28-1.15,1.28-.31,0-.73,0-1.04-.37l-1.15,2.66ZM77.92,742.29h1.46l1.46,2.3,1.46,1.29h-1.46c-.31.37-.31.64-.31,1.29s-.42,1.01-.83,1.01c-.73,0-1.04-.64-1.04-1.93v-2.66l-.73-1.29ZM79.38,810.95c0-.28.31-.64.73-.64s.73,0,1.15.37c.31.28.73.28,1.04.28h.42c0,.37-.42.64-1.15.64-.31,0-1.04-.28-2.19-.64ZM111.36,804.8h-.42l-.31-.28v-.37l.73.64c.73,0,1.04.37,1.04,1.01-.73,0-1.04-.37-1.04-1.01ZM110.63,783.41l.73-.64c0-.28.31-.64.73-.64h.31c-.31.37-.73.64-1.04.64,0,.37,0,.64-.42.64h-.31ZM186.68,703.45l1.46-2.29c-2.19-3.58-3.33-7.07-3.65-10.65-.42-3.58-1.46-7.16-3.33-10.74-.73-1.56-1.77-2.84-3.33-4.13-1.46-1.38-2.19-2.94-2.5-4.59,2.19-2.2,3.23-4.87,3.23-8.08,0-2.29-.31-4.5-1.46-6.79-1.04-2.29-2.5-4.22-4.38-5.87h-1.46v.64c0,4.87-1.88,8.17-5.11,10.1-3.33,1.93-7.4,3.21-12.19,3.58-3.33.28-6.25.64-9.17.64-1.88,0-3.65,0-5.52-.37-5.11-.28-9.17-.28-12.5-.28-14.69,0-29.38,0-44.07.28-14.69.37-29.48.37-44.17.37-3.23,0-6.25-.37-8.75-1.01-1.15-.92-2.6-1.93-4.06-2.94-1.46-.92-2.92-2.2-4.38-3.49-1.56-1.38-2.6-2.66-3.33-3.95-.73-.92-1.15-2.2-1.15-3.58v-.92h-1.46c-1.87,1.28-3.33,2.57-4.06,4.22-.73,1.56-1.04,3.21-1.04,4.87,0,1.93,0,3.86.31,5.78.42,1.93.42,3.58.42,5.23,0,2.85-1.15,6.15-3.33,9.36-2.19,3.21-3.65,6.43-4.79,9.36-.73,2.57-1.04,5.23-1.04,7.8,0,2.94-.73,5.51-1.88,8.08,0,2.94,1.88,4.22,5.1,4.22,1.88,0,3.33-.37,4.06-.64.73-.37,1.88-1.01,2.92-1.93,1.15-6.15,3.33-10.74,6.98-13.95,3.75-3.21,8.13-5.51,13.23-6.79,5.21-1.29,10.73-2.3,16.56-2.57,5.94-.37,11.77-.37,17.29-.37,1.88,0,3.65.37,5.52,1.01l.31,48.84v11.38c0,5.78.42,12.58.73,20.75v25.24c-.31,9.09-.73,17.44-1.46,25.25-.73,7.8-1.46,14.23-2.5,19.74-1.15,5.51-2.6,8.72-4.48,9.73-1.04.64-2.19,1.28-3.65,1.93-1.46.64-2.6,1.65-3.33,2.57-1.04.37-2.5.64-4.38,1.01-1.88.37-3.33.64-4.79,1.01-1.46.28-2.92.92-4.06,1.56-1.04.64-1.46,1.29-1.46,2.3,0,.28.42,1.65,1.15,3.86.73,2.29,1.46,3.3,1.77,3.3,1.15-.37,3.02-.73,5.52-1.01,1.88-.37,3.33-.37,4.79-.37,1.88,0,3.33,0,4.79.37,1.88.28,3.33.28,4.79.28,1.87,0,3.65,0,5.52-.28,3.33-.37,6.56-1.28,9.58-2.57,2.92-1.29,6.25-2.3,9.48-2.57l2.92-3.95c.42,0,2.29.37,5.21,1.28,2.92,1.01,6.56,1.93,10.63,2.94,4.06,1.01,8.44,1.93,13.23,2.94,4.79.92,9.17,1.28,13.23,1.28h5.52c1.88,0,3.33-1.01,4.38-2.57v-6.15c-.31-1.01-1.04-1.29-2.19-1.29h-.73c-1.04.28-2.19.28-3.33.28-1.46,0-2.5,0-3.23-.28-3.75-3.58-6.67-6.15-9.17-7.8-2.6-1.65-4.48-3.21-5.94-4.87-1.46-1.65-2.6-3.85-3.33-6.52-.73-2.57-1.04-6.43-1.04-11.93v-11.66c0-6.79.31-15.24.73-24.97.31-9.73.73-20.38.73-31.67v-57.65c0-7.16,0-11.38-.42-12.3.73-.37,2.19-.74,4.79-.74h18.02c3.65,0,7.4.37,10.63,1.01,3.33.64,6.67,1.65,9.58,3.21,2.92,1.65,6.25,3.95,9.9,6.79,1.88,1.65,3.02,3.3,3.33,4.87.42,1.65.73,3.3.73,4.87,0,1.65.42,2.94,1.15,3.95.73.92,2.19,1.28,4.06,1.28.73,0,2.5,0,5.11-.37,2.6-.28,4.06-.92,4.06-1.93-1.15-1.01-1.46-2.57-1.46-4.5l-.42,4.5Z"/>
  <path class="st0" d="M716.98,83.62c.24-.07,1.15-.33,3.42-.93,2.33-.61,5.73-1.47,10.4-2.27,4.7-.8,10.53-1.8,18.33-.89,3.92.46,8.51,1.18,13.87,4.47,2.66,1.63,5.52,4.18,7.7,7.79,2.17,3.59,3.34,8.08,3.42,12.08.14,8.14-2.37,14.43-5.04,19.92-2.71,5.55-6,10.45-9.59,15.17-7.17,9.43-15.83,17.86-25.36,26.24-9.54,8.38-20.16,16.41-31.73,24.16-11.56,7.74-23.95,15.45-37.3,22.65-26.63,14.37-56.63,27.83-89.36,39.07-208.92,71.77-282.96-3.37-268.02-74.83,16.75-80.09,164.83-94.71,242.82-66.32,39.1,14.22,72.14,43.4,84.93,85.49,3.64,12.01,5.21,23.85,6.15,35.15,9.03,109.24-60.13,286.41-150.32,367.99-4.95,4.48-9.41,8.02-13.06,10.84-3.65,2.82-6.55,4.85-8.58,6.14-2.09,1.32-3.03,1.91-3.17,1.99-.14.1,1.32-.83-.36.23-1.68,1.06-3.9.55-4.96-1.13-.95-1.49-.65-3.41.6-4.56,1.25-1.15.19-.17.56-.51.39-.38.99-.95,1.76-1.71,1.56-1.54,3.82-3.92,6.69-7.15,71.08-80.4,136.35-285.31,105.08-388.8-18.09-59.89-60.65-76.1-134.61-70.99-34.9,2.42-90.85,24.21-70.51,53.23,9.26,13.21,29.43,15.26,41.73,16.25,42.92,3.45,109.51-5.99,151.48-14.8,31.23-6.56,60.29-14.86,86.38-24.47,26.07-9.6,49.23-20.46,68.22-32.3,9.47-5.9,17.91-12.1,24.78-18.53,3.44-3.21,6.45-6.53,8.79-9.88,2.33-3.31,3.92-6.78,4.16-9.6.23-2.82-.78-4.81-2.9-6.54-2.1-1.72-4.97-2.86-7.71-3.62-5.57-1.56-10.85-1.88-15.06-2.03-4.24-.16-7.55-.05-9.73.06-2.24.11-1.43.07-3.4.17-1.99.1-3.66-1.42-3.76-3.4-.09-1.71,1.04-3.2,2.63-3.63,1.59-.43.38-.11.63-.17"/>
  <path class="st0" d="M98.56,916.13c.29-.46,1-.54,2.14-.22,1.13.32,2.29.87,3.49,1.66,1.19.78,2.19,1.74,3.01,2.88.81,1.13,1.02,2.25.61,3.36-2.9,3.54-5.78,7.39-8.63,11.55-2.85,4.15-5.58,8.42-8.19,12.81-2.61,4.39-5.05,8.82-7.32,13.29-2.27,4.47-4.27,8.83-6.01,13.07-1.74,4.24-3.2,8.28-4.36,12.11-1.16,3.83-1.92,7.26-2.27,10.28-.06.41-.44.36-1.13-.13s-1.47-1.16-2.31-2c-.84-.84-1.6-1.73-2.27-2.66-.67-.93-1.03-1.66-1.09-2.18.17-3.08.84-6.62,2-10.63,1.16-4.01,2.66-8.22,4.49-12.64,1.83-4.42,3.91-8.96,6.23-13.64,2.32-4.68,4.74-9.22,7.23-13.64,2.5-4.42,4.98-8.63,7.45-12.64,2.47-4.01,4.78-7.55,6.93-10.63M57.86,946.54c0,.52-.42.76-1.26.7-.84-.06-1.82-.25-2.92-.57-1.1-.32-2.15-.73-3.14-1.22-.99-.49-1.6-.94-1.83-1.35-.06-3.89.45-7.38,1.53-10.46,1.07-3.08,2.48-5.81,4.23-8.19,1.74-2.38,3.76-4.44,6.06-6.19,2.3-1.74,4.66-3.25,7.1-4.53,2.44-1.28,4.88-2.34,7.32-3.18,2.44-.84,4.71-1.55,6.8-2.14,3.66-.99,7.45-1.68,11.37-2.09,3.92-.41,7.86-.61,11.81-.61,3.31,0,6.74.09,10.28.26,3.54.17,6.88.41,10.02.7,2.79.23,5.58.42,8.37.57,2.79.15,5.43.22,7.93.22,3.08,0,5.93-.17,8.54-.52,2.61-.35,5.03-1.02,7.23-2,.41-.17.64.09.7.78.06.7,0,1.51-.17,2.44s-.42,1.84-.74,2.74c-.32.9-.68,1.5-1.09,1.79-2.32.81-4.87,1.41-7.63,1.79-2.76.38-5.56.57-8.41.57-3.2,0-6.49-.16-9.89-.48-3.4-.32-6.84-.65-10.33-1-3.72-.41-7.48-.78-11.29-1.13-3.81-.35-7.6-.52-11.37-.52-2.38,0-4.72.09-7.02.26-2.29.17-4.6.49-6.93.96-3.14.58-6.17,1.57-9.11,2.96-2.93,1.39-5.56,3.35-7.89,5.88-2.32,2.53-4.23,5.72-5.71,9.59-1.48,3.86-2.34,8.53-2.57,13.99Z"/>
  <path class="st0" d="M128.28,944.45c.7-.35,1.61-.33,2.75.04,1.13.38,2.22.93,3.27,1.66,1.05.73,1.89,1.6,2.53,2.61.64,1.02.78,2.02.44,3.01-.17.47-.45,1.1-.83,1.92-.38.81-.83,1.77-1.35,2.88-.81,1.74-1.71,3.73-2.7,5.97-.99,2.24-1.92,4.46-2.79,6.67-.87,2.21-1.61,4.3-2.22,6.27-.61,1.98-.92,3.6-.92,4.88,0,1.57.17,2.35.52,2.35h.78c1.57-.52,3.09-1.44,4.58-2.74,1.48-1.31,2.91-2.79,4.27-4.44,1.37-1.66,2.64-3.41,3.83-5.27,1.19-1.86,2.28-3.63,3.27-5.32l1.31-2.27c.29-.46.73-.76,1.31-.87.58-.12,1.12-.1,1.61.04.49.15.86.42,1.09.83.23.41.17.9-.17,1.48l-2.09,3.31c-1.8,2.9-3.76,5.87-5.88,8.89-2.12,3.02-4.58,5.75-7.36,8.19-.41.35-.93.76-1.57,1.22-.64.46-1.38.89-2.22,1.26-.84.38-1.79.7-2.83.96-1.05.26-2.15.39-3.31.39-2.32-.12-4.05-.93-5.19-2.44s-1.7-3.37-1.7-5.58c0-.99.09-1.98.26-2.96-1.05,1.34-2.12,2.61-3.22,3.83-1.1,1.22-2.27,2.32-3.49,3.31-.41.35-.93.76-1.57,1.22-.64.46-1.38.89-2.22,1.26-.84.38-1.79.7-2.83.96-1.05.26-2.15.39-3.31.39-2.27-.12-3.97-.92-5.1-2.4-1.13-1.48-1.7-3.33-1.7-5.53,0-1.22.12-2.38.35-3.49.23-1.05.55-2.28.96-3.7.41-1.42.89-2.95,1.44-4.58.55-1.63,1.13-3.31,1.74-5.05.61-1.74,1.23-3.46,1.87-5.14.87-2.44,1.71-4.84,2.53-7.19.81-2.35,1.51-4.63,2.09-6.84h.61c.7-.35,1.61-.33,2.75.04,1.13.38,2.21.93,3.22,1.66,1.02.73,1.84,1.6,2.48,2.61.64,1.02.78,2.02.44,3.01l-2.35,5.23c-.81,1.74-1.7,3.7-2.66,5.88-.96,2.18-1.86,4.36-2.7,6.54-.84,2.18-1.55,4.24-2.14,6.19-.58,1.95-.87,3.53-.87,4.75,0,1.57.17,2.35.52,2.35h.7c1.57-.58,3.08-1.5,4.53-2.74,1.45-1.25,2.83-2.67,4.14-4.27,1.31-1.6,2.56-3.3,3.75-5.1,1.19-1.8,2.28-3.54,3.27-5.23h-.09c.12-.29.28-.55.48-.78.2-.23.39-.49.57-.78.29-.81.58-1.63.87-2.44.29-.81.58-1.63.87-2.44.93-2.5,1.82-4.98,2.66-7.45.84-2.47,1.55-4.81,2.14-7.02h.61Z"/>
  <path class="st0" d="M177.26,973.3c-1.22,1.74-2.63,3.52-4.23,5.32-1.6,1.8-3.33,3.43-5.19,4.88-1.86,1.45-3.86,2.63-6.01,3.53-2.15.9-4.39,1.29-6.71,1.18-2.56-.12-4.44-.93-5.67-2.44-1.22-1.51-1.8-3.25-1.74-5.23.06-1.45.35-2.88.87-4.27.52-1.39,1.15-2.77,1.87-4.14.73-1.37,1.55-2.7,2.48-4.01.93-1.31,1.86-2.6,2.79-3.88.23-.29.49-.67.78-1.13.29-.47.58-.84.87-1.13l2-2.7c1.05-1.45,2-2.72,2.88-3.79.87-1.08,1.45-1.7,1.74-1.87-.7.12-1.32.23-1.87.35-.55.12-1.09.26-1.61.44-.64.17-1.29.32-1.96.44-.67.12-1.55.15-2.66.09h-1.05c-1.28,1.74-2.53,3.56-3.75,5.45-1.22,1.89-2.35,3.7-3.4,5.45-.23.29-.6.44-1.09.44s-.97-.07-1.44-.22c-.46-.15-.83-.36-1.09-.65-.26-.29-.25-.64.04-1.05.46-.76.96-1.57,1.48-2.44.52-.87,1.02-1.69,1.48-2.44.52-.87,1.09-1.79,1.7-2.75.61-.96,1.23-1.93,1.87-2.92-.87-.64-1.31-1.51-1.31-2.61,0-.64.15-1.38.44-2.22.29-.84.65-1.7,1.09-2.57.44-.87.92-1.76,1.44-2.66.52-.9,1.05-1.76,1.57-2.57.47-.7.89-1.42,1.26-2.18.38-.76.71-1.54,1-2.35,1.57.64,3.06,1.44,4.49,2.4,1.42.96,2.14,2.14,2.14,3.53,0,.64-.2,1.45-.61,2.44l-3.92,5.67c-.23.35-.07.46.48.35.55-.12,1.35-.36,2.4-.74,1.05-.38,2.22-.84,3.53-1.39,1.31-.55,2.56-1.12,3.75-1.7,1.19-.58,2.27-1.15,3.22-1.7.96-.55,1.58-1,1.87-1.35.35,0,.78.12,1.31.35.52.23,1.05.49,1.57.78.52.29.99.58,1.39.87.41.29.64.46.7.52.46.64.55,1.48.26,2.53-.29,1.05-.84,2.22-1.66,3.53-.81,1.31-1.82,2.73-3.01,4.27-1.19,1.54-2.43,3.12-3.7,4.75-.76.99-1.51,1.96-2.27,2.92-.76.96-1.51,1.93-2.27,2.92-.58.7-1.22,1.54-1.92,2.53-.7.99-1.37,2.02-2,3.09-.64,1.07-1.18,2.14-1.61,3.18-.44,1.05-.65,2-.65,2.88,0,1.45.55,2.21,1.66,2.27.64,0,1.45-.25,2.44-.74.99-.49,2.03-1.19,3.14-2.09,1.1-.9,2.24-1.95,3.4-3.14,1.16-1.19,2.24-2.48,3.22-3.88,1.05-1.57,2.08-3.18,3.09-4.84,1.02-1.66,1.84-3.04,2.48-4.14.23-.29.6-.45,1.09-.48.49-.03.97.04,1.44.22.46.17.84.41,1.13.7.29.29.32.64.09,1.05-.41.64-.8,1.29-1.18,1.96-.38.67-.77,1.32-1.18,1.96-.52.93-1.05,1.83-1.57,2.7-.52.87-1.07,1.71-1.66,2.53"/>
  <path class="st0" d="M222.84,971.73c-.81,1.28-1.92,2.86-3.31,4.75-1.39,1.89-2.96,3.7-4.71,5.45-1.74,1.74-3.59,3.24-5.53,4.49-1.95,1.25-3.91,1.87-5.88,1.87-1.16,0-2.27-.17-3.31-.52-1.05-.35-1.98-.87-2.79-1.57-.81-.7-1.45-1.6-1.92-2.7-.46-1.1-.67-2.41-.61-3.92.06-1.45.26-2.91.61-4.36.35-1.45.81-3.01,1.39-4.66.58-1.66,1.26-3.47,2.05-5.45.78-1.98,1.7-4.18,2.74-6.62.46-1.16.86-2.25,1.18-3.27.32-1.02.48-1.93.48-2.75,0-.58-.36-.77-1.09-.57-.73.2-1.93,1.06-3.62,2.57-2.03,1.8-3.89,3.62-5.58,5.45-1.69,1.83-3.43,3.85-5.23,6.06-1.51,3.43-2.79,6.94-3.83,10.55-1.05,3.6-1.71,7.32-2,11.16-.06.52-.52.73-1.39.61-.87-.12-1.8-.39-2.79-.83-.99-.44-1.92-.97-2.79-1.61-.87-.64-1.34-1.25-1.39-1.83.23-4.36,1.06-8.67,2.48-12.94,1.42-4.27,2.95-8.58,4.58-12.94.81-2.03,1.61-4.13,2.4-6.27.78-2.15,1.52-4.5,2.22-7.06.7-.35,1.66-.36,2.88-.04,1.22.32,2.38.83,3.49,1.53,1.1.7,2,1.54,2.7,2.53.7.99.87,1.98.52,2.96h.09c0,.12-.03.2-.09.26,2.15-2.03,4.44-3.76,6.88-5.19,2.44-1.42,5-2.22,7.67-2.4.7,0,1.45.25,2.27.74.81.49,1.55,1.1,2.22,1.83.67.73,1.19,1.5,1.57,2.31.38.81.48,1.54.31,2.18-.99,2.67-1.99,5.19-3.01,7.54-1.02,2.35-1.9,4.37-2.66,6.06-.64,1.51-1.23,2.91-1.79,4.18-.55,1.28-1.05,2.54-1.48,3.79-.44,1.25-.78,2.54-1.05,3.88-.26,1.34-.45,2.82-.57,4.44-.06.29.01.58.22.87.2.29.62.35,1.26.17,1.51-.76,3.4-2.14,5.67-4.14,2.27-2,4.56-4.75,6.88-8.24,1.1-1.63,2.15-3.28,3.14-4.97l1.39-2.44c.17-.29.51-.45,1-.48.49-.03.97.04,1.44.22.46.17.84.41,1.13.7.29.29.32.64.09,1.05l-4.53,7.58Z"/>
  <path class="st0" d="M231.64,963.45c0-1.05.06-2.11.17-3.18.12-1.07.32-2.19.61-3.35-.81,1.16-1.63,2.38-2.44,3.66-.81,1.28-1.6,2.53-2.35,3.75l-1.39,2.18c.99.17,1.92.46,2.79.87.17.17.41.61.7,1.31.29.7.57,1.45.83,2.27.26.81.44,1.58.52,2.31.09.73-.01,1.23-.3,1.53-1.39-1.16-2.61-1.74-3.66-1.74-.76,0-1.52.15-2.31.44-.78.29-1.48.68-2.09,1.18s-1.1,1.09-1.48,1.79c-.38.7-.57,1.48-.57,2.35,0,.52.07,1.05.22,1.57.15.52.33.99.57,1.39.7,1.16,1.54,2.02,2.53,2.57.99.55,1.89.86,2.7.91,1.05.12,1.95-.06,2.7-.52.76-.46,1.37-1.09,1.83-1.87.46-.78.81-1.71,1.05-2.79.23-1.08.35-2.19.35-3.36,0-.99-.04-2-.13-3.05-.09-1.05-.19-2.09-.3-3.14-.12-1.1-.23-2.27-.35-3.49-.12-1.22-.17-2.41-.17-3.57M214.74,978.18c0-1.86.49-3.7,1.48-5.53.99-1.83,2.24-3.33,3.75-4.49.35-.58.74-1.18,1.18-1.79.44-.61.8-1.2,1.09-1.79,1.51-2.44,3.06-4.87,4.66-7.28,1.6-2.41,3.33-4.84,5.19-7.28.35-.46.67-.9.96-1.31.29-.41.58-.84.87-1.31.93-1.34,2-2.76,3.22-4.27,1.22-1.51,2.99-3.28,5.32-5.32.7.29,1.57.73,2.61,1.31,1.05.58,1.99,1.21,2.83,1.87.84.67,1.47,1.34,1.87,2,.41.67.32,1.21-.26,1.61h.09c-.81.76-1.44,1.42-1.87,2-.44.58-.97,1.34-1.61,2.27l-1.05,1.57c-1.22,1.92-2.05,3.98-2.48,6.19-.44,2.21-.65,4.44-.65,6.71,0,1.16.03,2.32.09,3.49.06,1.16.15,2.32.26,3.49l.26,4.71c.06,2.09-.26,4.02-.96,5.8-.7,1.77-1.71,3.27-3.05,4.49-1.34,1.22-2.93,2.14-4.79,2.75-1.86.61-3.86.86-6.01.74-4.47-.35-7.76-1.55-9.85-3.62-2.09-2.06-3.14-4.4-3.14-7.02Z"/>
  <path class="st0" d="M350.08,906.36c.29-.52.87-.57,1.74-.13.87.44,1.74,1.07,2.61,1.92.87.84,1.63,1.77,2.27,2.79.64,1.02.9,1.84.78,2.48-2.96,7.49-5.8,14.22-8.5,20.18-2.7,5.95-5.21,11.49-7.54,16.6-1.22,2.67-2.48,5.48-3.79,8.41-1.31,2.93-2.6,5.93-3.88,8.98-1.28,3.05-2.51,6.1-3.7,9.15-1.19,3.05-2.31,6-3.35,8.85-.17.64-.33,1.23-.48,1.79-.15.55-.22.97-.22,1.26.47-.93.93-1.77,1.39-2.53.41-.64.8-1.29,1.18-1.96.38-.67.65-1.15.83-1.44,2.67-4.59,5.49-9.21,8.45-13.86l3.75-6.01c5.81-9.47,11.87-18.81,18.17-28.02,6.3-9.21,13.23-18.05,20.78-26.54.29-.29.76-.38,1.39-.26.46-.12,1.18.1,2.14.65.96.55,1.9,1.21,2.83,1.96.93.76,1.73,1.53,2.4,2.31.67.78.91,1.35.74,1.7-1.1,1.05-2.63,3.12-4.58,6.23-1.95,3.11-4.1,6.8-6.45,11.07-2.35,4.27-4.74,8.93-7.15,13.99-2.41,5.05-4.6,10.1-6.58,15.12-1.98,5.03-3.59,9.82-4.84,14.38-1.25,4.56-1.87,8.5-1.87,11.81,0,2.25.28,4.1.83,5.53.55,1.44,1.44,2.35,2.66,2.76,1.51.57,3.08.86,4.71.86.99,0,2.02-.1,3.09-.31,1.07-.2,2.14-.48,3.18-.83.46,0,.65.19.57.57s-.33.81-.74,1.32c-.41.51-.89.99-1.44,1.44-.55.45-1.03.7-1.44.76-.87.13-1.77.22-2.7.28-.93.06-1.89.09-2.88.09-2.27,0-4.36-.26-6.27-.78-3.08-.81-5.3-2.38-6.67-4.71-1.37-2.32-2.05-5.14-2.05-8.45,0-3.02.41-6.38,1.22-10.07.81-3.69,1.9-7.54,3.27-11.55,1.37-4.01,2.92-8.1,4.66-12.29,1.74-4.18,3.57-8.25,5.49-12.2-5.98,8.02-11.63,16.08-16.95,24.18-5.32,8.11-10.41,16.14-15.29,24.1-.58.87-1.34,1.77-2.27,2.7-.93.93-1.93,1.7-3.01,2.31-1.07.61-2.19,1-3.35,1.18-1.16.17-2.3-.06-3.4-.7-1.74-.93-2.61-2.61-2.61-5.05s.61-5.74,1.83-9.72c1.22-3.98,2.79-8.35,4.71-13.12,1.92-4.76,4.08-9.78,6.49-15.03,2.41-5.26,4.81-10.47,7.19-15.64l1.83-3.92c-3.2,4.65-6.41,9.21-9.63,13.68-3.22,4.47-6.58,8.89-10.07,13.25h.09c-1.57,2.03-3.21,4.13-4.92,6.27-1.71,2.15-3.73,4.47-6.06,6.97-.29.29-.8.87-1.53,1.74-.73.87-1.52,1.8-2.4,2.79-1.68,1.92-3.53,3.97-5.53,6.14-2,2.18-4.11,4.18-6.32,6.01-2.21,1.83-4.49,3.34-6.84,4.53-2.35,1.19-4.72,1.76-7.1,1.7-2.38-.06-4.33-.68-5.84-1.87-1.51-1.19-2.73-2.7-3.66-4.53-.93-1.83-1.57-3.85-1.92-6.06-.35-2.21-.52-4.33-.52-6.36,0-.81.01-1.66.04-2.53.03-.87.1-1.63.22-2.27.41-3.31,1.38-7.16,2.92-11.55,1.54-4.39,3.49-8.89,5.84-13.51,2.35-4.62,5.08-9.17,8.19-13.64,3.11-4.47,6.43-8.45,9.98-11.94,3.54-3.49,7.25-6.29,11.11-8.41,3.86-2.12,7.8-3.15,11.81-3.09,1.63.06,3.09.49,4.4,1.31,1.31.81,2.4,1.82,3.27,3.01.87,1.19,1.54,2.51,2,3.97.47,1.45.7,2.82.7,4.1,0,1.16-.2,2.24-.61,3.22-.58,1.39-1.48,2.73-2.7,4.01-1.22,1.28-2.44,2.27-3.66,2.96-1.22.7-2.24.99-3.05.87-.81-.12-1.07-.87-.78-2.27.23-.81.55-2.09.96-3.83.41-1.74.61-3.49.61-5.23,0-1.57-.2-2.93-.61-4.1-.41-1.16-1.13-1.83-2.18-2-2.96-.17-6.04.71-9.24,2.66-3.2,1.95-6.35,4.55-9.46,7.8-3.11,3.25-6.09,6.94-8.93,11.07-2.85,4.13-5.39,8.31-7.63,12.55-2.24,4.24-4.1,8.34-5.58,12.29-1.48,3.95-2.43,7.32-2.83,10.11,0,.12-.01.25-.04.39-.03.15-.04.28-.04.39-.06.7-.1,1.41-.13,2.14-.03.73-.04,1.44-.04,2.14,0,.58.01,1.21.04,1.87.03.67.1,1.29.22,1.87.41,2.27,1.16,4.24,2.27,5.93,1.1,1.69,2.88,2.76,5.32,3.22,1.63,0,3.54-.71,5.75-2.14,2.21-1.42,4.59-3.35,7.15-5.8,2.56-2.44,5.27-5.32,8.15-8.63,2.88-3.31,5.84-6.88,8.89-10.72,3.05-3.83,6.16-7.86,9.32-12.07,3.17-4.21,6.32-8.44,9.46-12.68,3.66-4.94,7.19-9.69,10.59-14.25,3.4-4.56,6.73-8.82,9.98-12.77.29-.58.52-1.15.7-1.7.17-.55.38-1.09.61-1.61h.09Z"/>
  <path class="st0" d="M399.76,948.72c-2.27.46-4.43,1.55-6.49,3.27-2.06,1.71-3.89,3.7-5.49,5.97-1.6,2.27-2.96,4.62-4.1,7.06-1.13,2.44-1.93,4.59-2.4,6.45,4.18-1.45,7.97-3.62,11.37-6.49,3.4-2.88,6.2-6.41,8.41-10.59.46-1.05.7-2.09.7-3.14,0-.87-.16-1.54-.48-2-.32-.46-.83-.64-1.53-.52M404.99,956.13c-2.5,4.53-5.84,8.32-10.02,11.37-4.18,3.05-8.89,5.33-14.12,6.84v.7c0,1.86.36,3.68,1.09,5.45.73,1.77,1.87,2.92,3.44,3.44,1.1.23,2.44.13,4.01-.3,1.57-.44,3.22-1.22,4.97-2.35,1.74-1.13,3.54-2.61,5.4-4.44,1.86-1.83,3.66-4.02,5.4-6.58.93-1.34,1.77-2.64,2.53-3.92.76-1.28,1.45-2.5,2.09-3.66.35-.46.81-.76,1.39-.87.58-.12,1.12-.1,1.61.04.49.15.84.42,1.05.83.2.41.13.9-.22,1.48l-1.66,2.7c-1.39,2.27-3.11,4.81-5.14,7.63-2.03,2.82-4.5,5.59-7.41,8.32-1.63,1.39-3.25,2.47-4.88,3.22-1.63.76-3.18,1.32-4.66,1.7-1.48.38-2.83.6-4.05.65-1.22.06-2.18.09-2.88.09-4.3,0-7.64-1.05-10.02-3.14-2.38-2.09-3.66-4.94-3.83-8.54-.12-3.31.49-6.58,1.83-9.8,1.34-3.22,3.49-6.81,6.45-10.76.93-1.22,2.19-2.56,3.79-4.01,1.6-1.45,3.4-2.77,5.4-3.97,2-1.19,4.14-2.16,6.41-2.92,2.27-.76,4.53-1.1,6.8-1.05,2.21.06,3.98.64,5.32,1.74,1.34,1.1,2,2.56,2,4.36,0,1.68-.7,3.6-2.09,5.75Z"/>
  <path class="st0" d="M474.62,971.73c-.81,1.28-1.92,2.86-3.31,4.75-1.39,1.89-2.95,3.7-4.66,5.45-1.71,1.74-3.56,3.24-5.53,4.49-1.98,1.25-3.95,1.87-5.93,1.87-1.16,0-2.27-.17-3.31-.52-1.05-.35-1.98-.87-2.79-1.57-.81-.7-1.45-1.6-1.92-2.7-.46-1.1-.67-2.41-.61-3.92.06-1.45.26-2.91.61-4.36.35-1.45.81-3.01,1.39-4.66.58-1.66,1.26-3.47,2.05-5.45.78-1.98,1.7-4.18,2.75-6.62.46-1.16.87-2.27,1.22-3.31.35-1.05.52-1.98.52-2.79,0-.58-.36-.73-1.09-.44-.73.29-1.93,1.13-3.62,2.53-2.03,1.86-3.92,3.69-5.66,5.49-1.74,1.8-3.46,3.81-5.14,6.01-.93,1.98-1.8,4.13-2.61,6.45-.76,2.32-1.42,4.78-2,7.36-.58,2.59-.96,5.21-1.13,7.89,0,.58-.44.81-1.31.7-.87-.12-1.82-.39-2.83-.83-1.02-.44-1.96-.99-2.83-1.66-.87-.67-1.34-1.29-1.39-1.87.17-4.07.91-8.15,2.22-12.25,1.31-4.1,2.8-8.29,4.49-12.59.87-2.21,1.51-4.04,1.92-5.49.41-1.45.46-2.32.17-2.61-.7.12-2.35,1.25-4.97,3.4-2.03,1.8-3.89,3.62-5.58,5.45-1.69,1.83-3.43,3.85-5.23,6.06-1.51,3.43-2.79,6.94-3.83,10.55-1.05,3.6-1.71,7.32-2,11.16-.06.52-.52.73-1.39.61-.87-.12-1.8-.39-2.79-.83-.99-.44-1.92-.97-2.79-1.61s-1.34-1.25-1.39-1.83c.23-4.36,1.06-8.67,2.48-12.94,1.42-4.27,2.95-8.58,4.58-12.94.81-2.03,1.61-4.13,2.4-6.27.78-2.15,1.52-4.5,2.22-7.06.7-.35,1.66-.36,2.88-.04,1.22.32,2.38.83,3.49,1.53,1.1.7,2,1.54,2.7,2.53.7.99.87,1.98.52,2.96h.09c0,.12-.03.2-.09.26,2.15-2.03,4.44-3.76,6.88-5.19,2.44-1.42,5-2.22,7.67-2.4.7,0,1.47.25,2.31.74.84.49,1.61,1.1,2.31,1.83.7.73,1.22,1.5,1.57,2.31.35.81.41,1.54.17,2.18-.12.17-.19.35-.22.52-.03.17-.1.32-.22.44,2.21-2.09,4.59-3.91,7.15-5.45,2.56-1.54,5.23-2.4,8.02-2.57.64,0,1.37.25,2.18.74.81.49,1.55,1.1,2.22,1.83.67.73,1.19,1.5,1.57,2.31.38.81.45,1.54.22,2.18-.99,2.79-1.98,5.34-2.96,7.67-.99,2.32-1.86,4.33-2.61,6.01-.7,1.45-1.31,2.82-1.83,4.1-.52,1.28-.99,2.56-1.39,3.83-.41,1.28-.76,2.59-1.05,3.92-.29,1.34-.49,2.79-.61,4.36-.06.29,0,.61.17.96.17.35.58.38,1.22.09,1.63-.76,3.54-2.14,5.75-4.14,2.21-2,4.5-4.75,6.88-8.24.52-.76,1.07-1.64,1.66-2.66.58-1.02,1.19-2.11,1.83-3.27l.96-1.48c.35-.46.81-.76,1.39-.87.58-.12,1.12-.1,1.61.04.49.15.84.42,1.05.83.2.41.13.9-.22,1.48-.76,1.28-1.53,2.54-2.31,3.79-.78,1.25-1.55,2.51-2.31,3.79"/>
  <path class="st0" d="M498.85,961.62c-.35-.12-.62-.39-.83-.83-.2-.44-.35-.94-.44-1.53-.09-.58-.13-1.16-.13-1.74v-1.57c.06-.47.32-.94.78-1.44.46-.49.97-.94,1.52-1.35.55-.41,1.1-.77,1.66-1.09.55-.32.92-.54,1.09-.65.52-.29,1.02-.46,1.48-.52-.06-.81-.32-1.51-.78-2.09-.46-.58-1.37-.81-2.7-.7-1.16.12-2.57.61-4.23,1.48-1.66.87-3.21,2.03-4.66,3.49h.09c-1.34,1.34-2.54,2.86-3.62,4.58-1.08,1.71-1.99,3.49-2.75,5.32-.76,1.83-1.35,3.68-1.79,5.53-.44,1.86-.65,3.6-.65,5.23,0,2.44.48,4.5,1.44,6.19.96,1.68,2.51,2.59,4.66,2.7,2.15.12,4.27-.67,6.36-2.35,2.09-1.69,3.97-3.81,5.62-6.36,1.66-2.56,2.99-5.3,4.01-8.24,1.02-2.93,1.5-5.62,1.44-8.06,0-1.16-.12-1.86-.35-2.09-.52,0-1.1.22-1.74.65-.64.44-1.25.96-1.83,1.57-.58.61-1.09,1.26-1.53,1.96-.44.7-.68,1.34-.74,1.92h-1.39ZM500.77,944.1c1.45.17,2.7.52,3.75,1.05,1.05.52,1.9,1.16,2.57,1.92.67.76,1.16,1.6,1.48,2.53.32.93.54,1.86.65,2.79,1.1,1.22,1.8,2.9,2.09,5.05.06.41.1.81.13,1.22.03.41.04.84.04,1.31,0,2.15-.31,4.33-.92,6.54-.61,2.21-1.47,4.36-2.57,6.45-1.1,2.09-2.41,4.05-3.92,5.88-1.51,1.83-3.15,3.44-4.92,4.84-1.77,1.39-3.63,2.48-5.58,3.27-1.95.78-3.94,1.18-5.97,1.18-3.54-.06-6.68-1.15-9.41-3.27-2.73-2.12-4.59-5.13-5.58-9.02-.29-1.28-.44-2.5-.44-3.66,0-3.2.81-6.51,2.44-9.93,1.63-3.43,3.79-6.54,6.49-9.33,2.7-2.79,5.75-5.03,9.15-6.71,3.4-1.69,6.9-2.38,10.5-2.09Z"/>
  <path class="st0" d="M548.7,973.3c-1.22,1.74-2.63,3.52-4.23,5.32-1.6,1.8-3.33,3.43-5.19,4.88-1.86,1.45-3.86,2.63-6.01,3.53-2.15.9-4.39,1.29-6.71,1.18-2.56-.12-4.44-.93-5.67-2.44-1.22-1.51-1.8-3.25-1.74-5.23.06-1.45.35-2.88.87-4.27.52-1.39,1.15-2.77,1.87-4.14.73-1.37,1.55-2.7,2.48-4.01.93-1.31,1.86-2.6,2.79-3.88.23-.29.49-.67.78-1.13.29-.47.58-.84.87-1.13l2-2.7c1.05-1.45,2-2.72,2.88-3.79.87-1.08,1.45-1.7,1.74-1.87-.7.12-1.32.23-1.87.35-.55.12-1.09.26-1.61.44-.64.17-1.29.32-1.96.44-.67.12-1.55.15-2.66.09h-1.05c-1.28,1.74-2.53,3.56-3.75,5.45-1.22,1.89-2.35,3.7-3.4,5.45-.23.29-.6.44-1.09.44s-.97-.07-1.44-.22c-.46-.15-.83-.36-1.09-.65s-.25-.64.04-1.05c.46-.76.96-1.57,1.48-2.44.52-.87,1.02-1.69,1.48-2.44.52-.87,1.09-1.79,1.7-2.75.61-.96,1.23-1.93,1.87-2.92-.87-.64-1.31-1.51-1.31-2.61,0-.64.15-1.38.44-2.22.29-.84.65-1.7,1.09-2.57.44-.87.92-1.76,1.44-2.66.52-.9,1.05-1.76,1.57-2.57.47-.7.89-1.42,1.26-2.18.38-.76.71-1.54,1-2.35,1.57.64,3.06,1.44,4.49,2.4,1.42.96,2.14,2.14,2.14,3.53,0,.64-.2,1.45-.61,2.44l-3.92,5.67c-.23.35-.07.46.48.35.55-.12,1.35-.36,2.4-.74,1.05-.38,2.22-.84,3.53-1.39,1.31-.55,2.56-1.12,3.75-1.7,1.19-.58,2.27-1.15,3.22-1.7.96-.55,1.58-1,1.87-1.35.35,0,.78.12,1.31.35.52.23,1.05.49,1.57.78.52.29.99.58,1.39.87.41.29.64.46.7.52.46.64.55,1.48.26,2.53-.29,1.05-.84,2.22-1.66,3.53-.81,1.31-1.82,2.73-3.01,4.27-1.19,1.54-2.43,3.12-3.7,4.75-.76.99-1.51,1.96-2.27,2.92-.76.96-1.51,1.93-2.27,2.92-.58.7-1.22,1.54-1.92,2.53-.7.99-1.37,2.02-2,3.09-.64,1.07-1.18,2.14-1.61,3.18-.44,1.05-.65,2-.65,2.88,0,1.45.55,2.21,1.66,2.27.64,0,1.45-.25,2.44-.74.99-.49,2.03-1.19,3.14-2.09,1.1-.9,2.24-1.95,3.4-3.14,1.16-1.19,2.24-2.48,3.22-3.88,1.05-1.57,2.08-3.18,3.09-4.84,1.02-1.66,1.84-3.04,2.48-4.14.23-.29.6-.45,1.09-.48.49-.03.97.04,1.44.22.46.17.84.41,1.13.7.29.29.32.64.09,1.05-.41.64-.8,1.29-1.18,1.96-.38.67-.77,1.32-1.18,1.96-.52.93-1.05,1.83-1.57,2.7-.52.87-1.07,1.71-1.66,2.53"/>
  <path class="st0" d="M567.52,920.4c.64-.12,1.47.15,2.48.78,1.02.64,2,1.41,2.96,2.31.96.9,1.77,1.8,2.44,2.7.67.9,1,1.53,1,1.87-.23.93-.65,2-1.26,3.22-.61,1.22-1.23,2.44-1.87,3.66-.58,1.16-1.13,2.31-1.66,3.44-.52,1.13-.99,2.4-1.39,3.79-.64-.12-1.35-.42-2.14-.91-.78-.49-1.51-1.06-2.18-1.7-.67-.64-1.23-1.28-1.7-1.92-.46-.64-.7-1.16-.7-1.57.06-.99.22-2.08.48-3.27.26-1.19.57-2.45.91-3.79.41-1.45.77-2.92,1.09-4.4.32-1.48.54-2.89.65-4.23h.87ZM567.09,951.77l.17-.61c.47-.81.71-1.26.74-1.35.03-.09-.28.57-.91,1.96ZM558.9,944.36c.64-.29,1.47-.29,2.48,0,1.02.29,1.99.77,2.92,1.44.93.67,1.7,1.48,2.31,2.44.61.96.83,1.9.65,2.83l-3.14,5.75c-.87,1.51-1.83,3.2-2.88,5.05-1.05,1.86-2.06,3.73-3.05,5.62-.99,1.89-1.92,3.73-2.79,5.53-.87,1.8-1.55,3.41-2.05,4.84-.49,1.42-.76,2.57-.78,3.44-.03.87.3,1.31,1,1.31h.7c1.63-.58,3.24-1.5,4.84-2.75,1.6-1.25,3.14-2.69,4.62-4.31,1.48-1.63,2.9-3.33,4.27-5.1,1.37-1.77,2.63-3.47,3.79-5.1l1.31-1.83c.23-.29.61-.45,1.13-.48.52-.03,1,.03,1.44.17.44.15.77.38,1,.7.23.32.17.68-.17,1.09h.09c-2.32,3.6-4.82,7.03-7.5,10.28-2.67,3.25-5.81,6.32-9.41,9.18-.46.35-1.05.77-1.74,1.23-.7.48-1.48.9-2.35,1.29-.87.38-1.82.7-2.83.97-1.02.26-2.05.39-3.09.39-2.09-.06-3.63-.73-4.62-1.99-.99-1.26-1.48-2.82-1.48-4.63,0-1.45.29-3.08.87-4.88h-.09c.29-1.1.73-2.4,1.31-3.88.58-1.48,1.23-3.07,1.96-4.75.73-1.69,1.51-3.43,2.35-5.23.84-1.8,1.7-3.6,2.57-5.4,1.16-2.5,2.27-4.88,3.31-7.15,1.05-2.27,1.89-4.3,2.53-6.1h.52Z"/>
  <path class="st0" d="M599.33,948.72c-2.27.46-4.43,1.55-6.49,3.27-2.06,1.71-3.89,3.7-5.49,5.97-1.6,2.27-2.96,4.62-4.1,7.06-1.13,2.44-1.93,4.59-2.4,6.45,4.18-1.45,7.97-3.62,11.37-6.49,3.4-2.88,6.2-6.41,8.41-10.59.46-1.05.7-2.09.7-3.14,0-.87-.16-1.54-.48-2-.32-.46-.83-.64-1.53-.52M604.56,956.13c-2.5,4.53-5.84,8.32-10.02,11.37-4.18,3.05-8.89,5.33-14.12,6.84v.7c0,1.86.36,3.68,1.09,5.45.73,1.77,1.87,2.92,3.44,3.44,1.1.23,2.44.13,4.01-.3,1.57-.44,3.22-1.22,4.97-2.35,1.74-1.13,3.54-2.61,5.4-4.44,1.86-1.83,3.66-4.02,5.4-6.58.93-1.34,1.77-2.64,2.53-3.92.76-1.28,1.45-2.5,2.09-3.66.35-.46.81-.76,1.39-.87.58-.12,1.12-.1,1.61.04.49.15.84.42,1.05.83.2.41.13.9-.22,1.48l-1.66,2.7c-1.39,2.27-3.11,4.81-5.14,7.63-2.03,2.82-4.5,5.59-7.41,8.32-1.63,1.39-3.25,2.47-4.88,3.22-1.63.76-3.18,1.32-4.66,1.7-1.48.38-2.83.6-4.05.65-1.22.06-2.18.09-2.88.09-4.3,0-7.64-1.05-10.02-3.14-2.38-2.09-3.66-4.94-3.83-8.54-.12-3.31.49-6.58,1.83-9.8,1.34-3.22,3.49-6.81,6.45-10.76.93-1.22,2.19-2.56,3.79-4.01,1.6-1.45,3.4-2.77,5.4-3.97,2-1.19,4.14-2.16,6.41-2.92,2.27-.76,4.53-1.1,6.8-1.05,2.21.06,3.98.64,5.32,1.74,1.34,1.1,2,2.56,2,4.36,0,1.68-.7,3.6-2.09,5.75Z"/>
  <path class="st0" d="M617.46,963.45c0-1.05.06-2.11.17-3.18.12-1.07.32-2.19.61-3.35-.81,1.16-1.63,2.38-2.44,3.66-.81,1.28-1.6,2.53-2.35,3.75l-1.39,2.18c.99.17,1.92.46,2.79.87.17.17.41.61.7,1.31.29.7.57,1.45.83,2.27.26.81.44,1.58.52,2.31.09.73-.01,1.23-.31,1.53-1.39-1.16-2.61-1.74-3.66-1.74-.76,0-1.52.15-2.31.44-.78.29-1.48.68-2.09,1.18-.61.49-1.1,1.09-1.48,1.79-.38.7-.57,1.48-.57,2.35,0,.52.07,1.05.22,1.57.15.52.33.99.57,1.39.7,1.16,1.54,2.02,2.53,2.57.99.55,1.89.86,2.7.91,1.05.12,1.95-.06,2.7-.52.76-.46,1.37-1.09,1.83-1.87.46-.78.81-1.71,1.05-2.79.23-1.08.35-2.19.35-3.36,0-.99-.04-2-.13-3.05-.09-1.05-.19-2.09-.3-3.14-.12-1.1-.23-2.27-.35-3.49-.12-1.22-.17-2.41-.17-3.57M600.55,978.18c0-1.86.49-3.7,1.48-5.53.99-1.83,2.24-3.33,3.75-4.49.35-.58.74-1.18,1.18-1.79.44-.61.8-1.2,1.09-1.79,1.51-2.44,3.06-4.87,4.66-7.28,1.6-2.41,3.33-4.84,5.19-7.28.35-.46.67-.9.96-1.31.29-.41.58-.84.87-1.31.93-1.34,2-2.76,3.22-4.27,1.22-1.51,2.99-3.28,5.32-5.32.7.29,1.57.73,2.61,1.31,1.05.58,1.99,1.21,2.83,1.87.84.67,1.47,1.34,1.87,2,.41.67.32,1.21-.26,1.61h.09c-.81.76-1.44,1.42-1.87,2-.44.58-.97,1.34-1.61,2.27l-1.05,1.57c-1.22,1.92-2.05,3.98-2.48,6.19-.44,2.21-.65,4.44-.65,6.71,0,1.16.03,2.32.09,3.49.06,1.16.15,2.32.26,3.49l.26,4.71c.06,2.09-.26,4.02-.96,5.8-.7,1.77-1.71,3.27-3.05,4.49-1.34,1.22-2.93,2.14-4.79,2.75-1.86.61-3.86.86-6.01.74-4.47-.35-7.76-1.55-9.85-3.62-2.09-2.06-3.14-4.4-3.14-7.02Z"/>
  <path class="st0" d="M652.41,957.26c2.67-7.73,6.48-14.47,11.42-20.22,4.94-5.75,10.47-10.56,16.6-14.42,6.13-3.86,12.62-6.83,19.48-8.89,6.86-2.06,13.57-3.3,20.13-3.7,1.39,0,2.6.23,3.62.7,1.02.46,1.82,1,2.4,1.61.58.61.94,1.22,1.09,1.83.15.61.07,1.03-.22,1.26h.17c-.17.29-.73,1.28-1.66,2.96-.93,1.69-2.11,3.86-3.53,6.54-1.42,2.67-3.01,5.74-4.75,9.19-1.74,3.46-3.5,7.1-5.27,10.94-1.77,3.83-3.52,7.76-5.23,11.77-1.71,4.01-3.22,7.9-4.53,11.68-1.31,3.78-2.37,7.35-3.18,10.72-.81,3.37-1.22,6.3-1.22,8.8,0,3.31.61,5.55,1.83,6.71h-.09c.76.58,1.42.87,2,.87.81,0,1.67-.22,2.57-.65.9-.44,1.67-.8,2.31-1.09h-.09c.81-.47,1.42-.77,1.83-.92.41-.15.64.01.7.48.23,1.16.19,2.25-.13,3.27-.32,1.02-.89,1.79-1.7,2.31h.09c-.93.64-1.87,1.1-2.83,1.39-.96.29-1.93.44-2.92.44-2.03,0-4.15-.64-6.36-1.92-2.27-1.39-3.89-3.25-4.88-5.58-.99-2.32-1.48-5.03-1.48-8.11s.38-6.26,1.13-9.89c.76-3.63,1.76-7.39,3.01-11.29,1.25-3.89,2.67-7.83,4.27-11.81,1.6-3.98,3.25-7.86,4.97-11.63,1.71-3.78,3.41-7.35,5.1-10.72,1.68-3.37,3.22-6.39,4.62-9.06.41-.81.73-1.5.96-2.05.23-.55.35-1.03.35-1.44,0-.46-.73-.52-2.18-.17-4.3.76-8.45,2.09-12.46,4.01-4.01,1.92-7.77,4.18-11.29,6.8-3.52,2.61-6.75,5.49-9.72,8.63-2.96,3.14-5.55,6.33-7.76,9.59-2.21,3.25-3.99,6.45-5.36,9.59-1.37,3.14-2.22,6.01-2.57,8.63-1.28-.06-2.54-.28-3.79-.65-1.25-.38-2.34-.89-3.27-1.52-.93-.64-1.61-1.38-2.05-2.22-.44-.84-.48-1.76-.13-2.75"/>
  <path class="st0" d="M755.42,971.73c-.81,1.28-1.92,2.86-3.31,4.75-1.39,1.89-2.96,3.7-4.71,5.45-1.74,1.74-3.59,3.24-5.53,4.49-1.95,1.25-3.91,1.87-5.88,1.87-1.16,0-2.27-.17-3.31-.52-1.05-.35-1.98-.87-2.79-1.57-.81-.7-1.45-1.6-1.92-2.7-.46-1.1-.67-2.41-.61-3.92.06-1.45.26-2.91.61-4.36.35-1.45.81-3.01,1.39-4.66.58-1.66,1.26-3.47,2.05-5.45.78-1.98,1.7-4.18,2.75-6.62.46-1.16.86-2.25,1.18-3.27.32-1.02.48-1.93.48-2.75,0-.58-.36-.77-1.09-.57-.73.2-1.93,1.06-3.62,2.57-2.03,1.8-3.89,3.62-5.58,5.45-1.68,1.83-3.43,3.85-5.23,6.06-1.51,3.43-2.79,6.94-3.83,10.55-1.05,3.6-1.71,7.32-2,11.16-.06.52-.52.73-1.39.61-.87-.12-1.8-.39-2.79-.83-.99-.44-1.92-.97-2.79-1.61-.87-.64-1.34-1.25-1.39-1.83.23-4.36,1.06-8.67,2.48-12.94,1.42-4.27,2.95-8.58,4.58-12.94.81-2.03,1.61-4.13,2.4-6.27.78-2.15,1.52-4.5,2.22-7.06.7-.35,1.66-.36,2.88-.04,1.22.32,2.38.83,3.49,1.53,1.1.7,2,1.54,2.7,2.53.7.99.87,1.98.52,2.96h.09c0,.12-.03.2-.09.26,2.15-2.03,4.44-3.76,6.88-5.19,2.44-1.42,5-2.22,7.67-2.4.7,0,1.45.25,2.27.74.81.49,1.55,1.1,2.22,1.83.67.73,1.19,1.5,1.57,2.31.38.81.48,1.54.3,2.18-.99,2.67-1.99,5.19-3.01,7.54-1.02,2.35-1.9,4.37-2.66,6.06-.64,1.51-1.23,2.91-1.79,4.18-.55,1.28-1.05,2.54-1.48,3.79-.44,1.25-.79,2.54-1.05,3.88-.26,1.34-.45,2.82-.57,4.44-.06.29.01.58.22.87.2.29.62.35,1.26.17,1.51-.76,3.4-2.14,5.67-4.14,2.27-2,4.56-4.75,6.88-8.24,1.1-1.63,2.15-3.28,3.14-4.97l1.39-2.44c.17-.29.51-.45,1-.48.49-.03.97.04,1.44.22.46.17.84.41,1.13.7.29.29.32.64.09,1.05l-4.53,7.58Z"/>
  <path class="st0" d="M758.24,944.71c-.52.17-.99.2-1.38.09-.41-.12-.73-.31-.96-.57-.23-.26-.32-.55-.26-.87.06-.32.29-.62.7-.91,4.1-2.67,8.29-4.88,12.59-6.62,3.2-6.86,5.46-12.75,6.8-17.69.7-.35,1.66-.38,2.88-.09,1.22.29,2.38.78,3.49,1.48,1.1.7,2,1.54,2.7,2.53.7.99.87,1.98.52,2.96-.23.58-.61,1.47-1.13,2.66-.52,1.19-1.16,2.54-1.92,4.05,4.36-.87,8.74-1.31,13.16-1.31.58,0,1.29.01,2.14.04.84.03,1.55.07,2.14.13.17.47.17.99,0,1.57-.17.58-.45,1.12-.83,1.61-.38.49-.83.9-1.35,1.22-.52.32-1.05.42-1.57.31-.7-.06-1.36-.1-2-.13-.64-.03-1.28-.04-1.92-.04-2.03,0-4.05.12-6.06.35-2,.23-4.02.58-6.06,1.05l-4.1,8.02-.52,1.05c-.52.99-1.23,2.37-2.14,4.14-.9,1.77-1.87,3.75-2.92,5.93-1.05,2.18-2.11,4.46-3.18,6.84-1.08,2.38-2.05,4.69-2.92,6.93-.87,2.24-1.58,4.31-2.14,6.23-.55,1.92-.83,3.49-.83,4.71s.15,2.06.44,2.35h.7c1.57-.58,3.08-1.5,4.53-2.74,1.45-1.25,2.83-2.67,4.14-4.27,1.31-1.6,2.56-3.3,3.75-5.1,1.19-1.8,2.28-3.54,3.27-5.23h-.09c.29-.46.58-.92.87-1.35.29-.44.58-.89.87-1.35.17-.29.51-.45,1-.48s.97.04,1.44.22c.46.17.84.41,1.13.7.29.29.35.64.17,1.05l-2.18,3.57c-.87,1.39-1.79,2.85-2.74,4.36-.96,1.51-1.99,3.01-3.09,4.49-1.1,1.48-2.27,2.9-3.49,4.27-1.22,1.37-2.5,2.6-3.83,3.7-.41.35-.93.76-1.57,1.22-.64.46-1.38.89-2.22,1.26-.84.38-1.79.7-2.83.96-1.03.26-2.14.39-3.28.39-2.37-.12-4.08-.93-5.14-2.44-1.06-1.51-1.6-3.37-1.6-5.58,0-.46.03-1.02.09-1.66s.15-1.22.26-1.74c.41-2.61,1.02-5.23,1.86-7.84.83-2.61,1.79-5.22,2.85-7.8,1.06-2.59,2.24-5.16,3.5-7.71,1.26-2.56,2.57-5.11,3.91-7.67l2.53-5.05c-1.34.58-2.67,1.18-4.01,1.79-1.34.61-2.66,1.29-3.98,2.05h-.17Z"/>
  <path class="st0" d="M803.01,961.62c-.35-.12-.62-.39-.83-.83-.2-.44-.35-.94-.44-1.53-.09-.58-.13-1.16-.13-1.74v-1.57c.06-.47.32-.94.78-1.44.46-.49.97-.94,1.52-1.35.55-.41,1.1-.77,1.66-1.09.55-.32.92-.54,1.09-.65.52-.29,1.02-.46,1.48-.52-.06-.81-.32-1.51-.78-2.09-.46-.58-1.37-.81-2.7-.7-1.16.12-2.57.61-4.23,1.48-1.66.87-3.21,2.03-4.66,3.49h.09c-1.34,1.34-2.54,2.86-3.62,4.58-1.08,1.71-1.99,3.49-2.75,5.32-.76,1.83-1.35,3.68-1.79,5.53-.44,1.86-.65,3.6-.65,5.23,0,2.44.48,4.5,1.44,6.19.96,1.68,2.51,2.59,4.66,2.7,2.15.12,4.27-.67,6.36-2.35,2.09-1.69,3.97-3.81,5.62-6.36,1.66-2.56,2.99-5.3,4.01-8.24,1.02-2.93,1.5-5.62,1.44-8.06,0-1.16-.12-1.86-.35-2.09-.52,0-1.1.22-1.74.65-.64.44-1.25.96-1.83,1.57-.58.61-1.09,1.26-1.53,1.96-.44.7-.68,1.34-.74,1.92h-1.39ZM804.92,944.1c1.45.17,2.7.52,3.75,1.05,1.05.52,1.9,1.16,2.57,1.92.67.76,1.16,1.6,1.48,2.53s.54,1.86.65,2.79c1.1,1.22,1.8,2.9,2.09,5.05.06.41.1.81.13,1.22.03.41.04.84.04,1.31,0,2.15-.31,4.33-.92,6.54-.61,2.21-1.47,4.36-2.57,6.45-1.1,2.09-2.41,4.05-3.92,5.88-1.51,1.83-3.15,3.44-4.92,4.84-1.77,1.39-3.63,2.48-5.58,3.27-1.95.78-3.94,1.18-5.97,1.18-3.54-.06-6.68-1.15-9.41-3.27-2.73-2.12-4.59-5.13-5.58-9.02-.29-1.28-.44-2.5-.44-3.66,0-3.2.81-6.51,2.44-9.93,1.63-3.43,3.79-6.54,6.49-9.33,2.7-2.79,5.75-5.03,9.15-6.71,3.4-1.69,6.9-2.38,10.5-2.09Z"/>
  <path class="st0" d="M941.49,939.57c-1.8,1.8-3.69,3.66-5.67,5.58-1.98,1.92-3.95,3.81-5.93,5.66.52-.06,1.05-.09,1.57-.09h1.66c1.22,0,2.41.01,3.57.04,1.16.03,2.32.07,3.49.13,1.98-3.31,4.01-6.59,6.1-9.85,2.09-3.25,4.18-6.54,6.27-9.85l3.83-5.93c-2.56,2.38-5.07,4.76-7.54,7.15-2.47,2.38-4.92,4.76-7.36,7.15M895.47,961.18c-.41.12-.99-.01-1.74-.39-.76-.38-1.45-.81-2.09-1.31-.64-.49-1.15-1-1.53-1.53-.38-.52-.42-.93-.13-1.22,4.88-1.1,9.79-2.14,14.73-3.09,4.94-.96,9.94-1.7,14.99-2.22,3.78-3.49,7.47-6.96,11.07-10.41,3.6-3.46,7.02-6.8,10.24-10.02,3.22-3.22,6.23-6.27,9.02-9.15,2.79-2.88,5.27-5.48,7.45-7.8,2.18-2.32,3.99-4.31,5.45-5.97,1.45-1.66,2.47-2.89,3.05-3.7.41-.17,1.06-.01,1.96.48.9.49,1.79,1.09,2.66,1.79.87.7,1.6,1.41,2.18,2.14.58.73.76,1.23.52,1.53l-.44.35c.29.12.44.26.44.44-.64,1.68-1.54,3.7-2.7,6.06-1.16,2.35-2.51,4.92-4.05,7.71-1.54,2.79-3.21,5.75-5.01,8.89-1.8,3.14-3.63,6.3-5.49,9.5-2.96,5.05-5.9,10.12-8.8,15.21-2.9,5.08-5.45,9.82-7.63,14.21-2.18,4.39-3.81,8.24-4.88,11.55-1.08,3.31-1.26,5.72-.57,7.23.46.99.93,1.66,1.39,2h-.17c.41.29.6.6.57.92-.03.32-.17.6-.44.83-.26.23-.61.39-1.05.48-.44.09-.89.04-1.35-.13-3.14-.23-5.3-1.21-6.49-2.92-1.19-1.71-1.79-3.7-1.79-5.97,0-1.05.1-2.14.31-3.27.2-1.13.45-2.25.74-3.36.29-1.1.61-2.15.96-3.14.35-.99.67-1.89.96-2.7,1.39-3.25,2.98-6.54,4.75-9.85,1.77-3.31,3.68-6.68,5.71-10.11-1.1-.06-2.18-.1-3.22-.13-1.05-.03-2.06-.04-3.05-.04s-1.96.01-2.92.04c-.96.03-1.9.07-2.83.13l-3.92,3.57-4.44,4.18c-4.01,3.78-8.24,7.67-12.68,11.68-4.44,4.01-9.03,7.68-13.77,11.02-4.73,3.34-9.57,6.13-14.51,8.37-4.94,2.24-9.94,3.47-14.99,3.7-4.71.23-8.79-.25-12.24-1.44-3.46-1.19-6.3-2.85-8.54-4.97-2.24-2.12-3.91-4.6-5.01-7.45-1.1-2.85-1.66-5.84-1.66-8.98,0-3.49.68-6.99,2.05-10.5,1.37-3.52,3.37-6.7,6.01-9.54,2.64-2.85,5.9-5.16,9.76-6.93,3.86-1.77,8.32-2.72,13.38-2.83,4.07-.06,7.52.71,10.37,2.31s5.08,3.94,6.71,7.02h.09c.12.46.12,1.13,0,2-.12.87-.32,1.7-.61,2.48-.29.78-.64,1.37-1.05,1.74-.41.38-.84.3-1.31-.22-.64-.99-1.45-2.08-2.44-3.27-.99-1.19-2.09-2.28-3.31-3.27-1.22-.99-2.57-1.83-4.05-2.53-1.48-.7-3.06-1.05-4.75-1.05-4.01-.12-7.58.51-10.72,1.87-3.14,1.36-5.78,3.2-7.93,5.49-2.15,2.29-3.79,4.9-4.92,7.8-1.13,2.9-1.7,5.81-1.7,8.72,0,2.38.39,4.68,1.18,6.88.78,2.21,1.98,4.15,3.57,5.84,1.6,1.68,3.62,3.04,6.06,4.05,2.44,1.02,5.32,1.53,8.63,1.53h1.35c.44,0,.89-.03,1.35-.09,3.89-.23,7.96-1.42,12.2-3.57,4.24-2.15,8.63-4.89,13.16-8.24,4.53-3.34,9.15-7.12,13.86-11.33,4.71-4.21,9.44-8.56,14.21-13.03-6.45,1.05-13.1,3.02-19.96,5.93h-.17Z"/>
  <path class="st0" d="M985.85,973.3c-1.22,1.74-2.63,3.52-4.23,5.32-1.6,1.8-3.33,3.43-5.19,4.88-1.86,1.45-3.86,2.63-6.01,3.53-2.15.9-4.39,1.29-6.71,1.18-2.56-.12-4.44-.93-5.67-2.44-1.22-1.51-1.8-3.25-1.74-5.23.06-1.45.35-2.88.87-4.27.52-1.39,1.15-2.77,1.87-4.14.73-1.37,1.55-2.7,2.48-4.01.93-1.31,1.86-2.6,2.79-3.88.23-.29.49-.67.78-1.13.29-.47.58-.84.87-1.13l2-2.7c1.05-1.45,2-2.72,2.88-3.79.87-1.08,1.45-1.7,1.74-1.87-.7.12-1.32.23-1.87.35-.55.12-1.09.26-1.61.44-.64.17-1.29.32-1.96.44-.67.12-1.55.15-2.66.09h-1.05c-1.28,1.74-2.53,3.56-3.75,5.45-1.22,1.89-2.35,3.7-3.4,5.45-.23.29-.6.44-1.09.44s-.97-.07-1.44-.22c-.46-.15-.83-.36-1.09-.65-.26-.29-.25-.64.04-1.05.46-.76.96-1.57,1.48-2.44.52-.87,1.02-1.69,1.48-2.44.52-.87,1.09-1.79,1.7-2.75.61-.96,1.23-1.93,1.87-2.92-.87-.64-1.31-1.51-1.31-2.61,0-.64.15-1.38.44-2.22.29-.84.65-1.7,1.09-2.57.44-.87.92-1.76,1.44-2.66.52-.9,1.05-1.76,1.57-2.57.47-.7.89-1.42,1.26-2.18.38-.76.71-1.54,1-2.35,1.57.64,3.06,1.44,4.49,2.4,1.42.96,2.14,2.14,2.14,3.53,0,.64-.2,1.45-.61,2.44l-3.92,5.67c-.23.35-.07.46.48.35.55-.12,1.35-.36,2.4-.74,1.05-.38,2.22-.84,3.53-1.39,1.31-.55,2.56-1.12,3.75-1.7,1.19-.58,2.27-1.15,3.22-1.7.96-.55,1.58-1,1.87-1.35.35,0,.78.12,1.31.35.52.23,1.05.49,1.57.78.52.29.99.58,1.39.87.41.29.64.46.7.52.46.64.55,1.48.26,2.53-.29,1.05-.84,2.22-1.66,3.53-.81,1.31-1.82,2.73-3.01,4.27-1.19,1.54-2.43,3.12-3.7,4.75-.76.99-1.51,1.96-2.27,2.92-.75.96-1.51,1.93-2.27,2.92-.58.7-1.22,1.54-1.92,2.53-.7.99-1.37,2.02-2,3.09-.64,1.07-1.18,2.14-1.61,3.18-.44,1.05-.65,2-.65,2.88,0,1.45.55,2.21,1.66,2.27.64,0,1.45-.25,2.44-.74.99-.49,2.03-1.19,3.14-2.09,1.1-.9,2.24-1.95,3.4-3.14,1.16-1.19,2.24-2.48,3.22-3.88,1.05-1.57,2.08-3.18,3.09-4.84,1.02-1.66,1.84-3.04,2.48-4.14.23-.29.6-.45,1.09-.48s.97.04,1.44.22c.46.17.84.41,1.13.7.29.29.32.64.09,1.05-.41.64-.8,1.29-1.18,1.96-.38.67-.77,1.32-1.18,1.96-.52.93-1.05,1.83-1.57,2.7-.52.87-1.07,1.71-1.66,2.53"/>
  <path class="st0" d="M989.71,944.71c-.52.17-.99.2-1.38.09-.41-.12-.73-.31-.96-.57-.23-.26-.32-.55-.26-.87.06-.32.29-.62.7-.91,4.1-2.67,8.29-4.88,12.59-6.62,3.2-6.86,5.46-12.75,6.8-17.69.7-.35,1.66-.38,2.88-.09,1.22.29,2.38.78,3.49,1.48,1.1.7,2,1.54,2.7,2.53.7.99.87,1.98.52,2.96-.23.58-.61,1.47-1.13,2.66-.52,1.19-1.16,2.54-1.92,4.05,4.36-.87,8.74-1.31,13.16-1.31.58,0,1.29.01,2.14.04.84.03,1.55.07,2.14.13.17.47.17.99,0,1.57-.17.58-.45,1.12-.83,1.61-.38.49-.83.9-1.35,1.22-.52.32-1.05.42-1.57.31-.7-.06-1.36-.1-2-.13-.64-.03-1.28-.04-1.92-.04-2.03,0-4.05.12-6.06.35-2,.23-4.02.58-6.06,1.05l-4.1,8.02-.52,1.05c-.52.99-1.23,2.37-2.14,4.14-.9,1.77-1.87,3.75-2.92,5.93-1.05,2.18-2.11,4.46-3.18,6.84-1.08,2.38-2.05,4.69-2.92,6.93-.87,2.24-1.58,4.31-2.14,6.23-.55,1.92-.83,3.49-.83,4.71s.15,2.06.44,2.35h.7c1.57-.58,3.08-1.5,4.53-2.74,1.45-1.25,2.83-2.67,4.14-4.27,1.31-1.6,2.56-3.3,3.75-5.1,1.19-1.8,2.28-3.54,3.27-5.23h-.09c.29-.46.58-.92.87-1.35.29-.44.58-.89.87-1.35.17-.29.51-.45,1-.48.49-.03.97.04,1.44.22.46.17.84.41,1.13.7.29.29.35.64.17,1.05l-2.18,3.57c-.87,1.39-1.79,2.85-2.74,4.36-.96,1.51-1.99,3.01-3.09,4.49-1.1,1.48-2.27,2.9-3.49,4.27-1.22,1.37-2.5,2.6-3.83,3.7-.41.35-.93.76-1.57,1.22-.64.46-1.38.89-2.22,1.26-.84.38-1.79.7-2.83.96-1.03.26-2.14.39-3.28.39-2.37-.12-4.08-.93-5.14-2.44-1.06-1.51-1.6-3.37-1.6-5.58,0-.46.03-1.02.09-1.66.06-.64.15-1.22.26-1.74.41-2.61,1.02-5.23,1.86-7.84.83-2.61,1.79-5.22,2.85-7.8,1.06-2.59,2.24-5.16,3.5-7.71,1.26-2.56,2.57-5.11,3.91-7.67l2.53-5.05c-1.34.58-2.67,1.18-4.01,1.79-1.34.61-2.66,1.29-3.98,2.05h-.17Z"/>
</svg>