<?xml version="1.0" encoding="UTF-8"?>
<svg id="Layer_1" xmlns="http://www.w3.org/2000/svg" version="1.1" viewBox="0 0 1080 1080">
  <!-- Generator: Adobe Illustrator 30.0.0, SVG Export Plug-In . SVG Version: 2.1.1 Build 123)  -->
  <defs>
    <style>
      .st0 {
        fill: #9e9e9e;
      }
    </style>
  </defs>
  <g>
    <path class="st0" d="M678.84,824.9l-12.23-11.83c-6.96,9.36-15.02,15.76-27.41,12.81-11.48-2.73-18.2-14.36-15.1-25.75,1.73-6.36,8.68-11.58,13.92-15.09.33-.49-3.31-4.1-3.93-4.93-16.56-22.17,17.1-40.31,28.56-22.25,7.53,11.87-2.76,19.62-11.6,25.81l18.34,18.34c1.27-3.96,8.96-13.27,9.15-16.82.21-3.84-5.51-3.01-5.8-3.29-.13-.13.1-2.58,0-3.16h22.49c-.1.58.14,3.03,0,3.16-.08.07-1.51-.02-2.07.1-3.05.65-6.13,2.07-8.4,4.23l-12.32,18.75c2.3,2.4,4.62,4.79,7,7.1,2.47,2.39,9.09,9.05,12.13,9.57,1.21.21,2.44.06,3.66.09v3.16h-16.37ZM646.2,754.78c-6.79.85-8.67,9.85-6.81,15.28,1.49,4.35,5.64,7.41,8.67,10.65,5.25-4.5,8.41-9.55,7.69-16.76-.48-4.79-4.3-9.83-9.56-9.17ZM640.63,787.85c-20.92,18.37,4.9,44.47,23.02,22.26l-23.02-22.26Z"/>
    <path class="st0" d="M331.44,752.31c-.1.58.14,3.03,0,3.16-.32.31-5.92-.27-8.07,2.77-.19.27-1,2.02-1,2.15v23.47h41.42v-22.68c0-1.38-1.79-3.77-3.02-4.48-1.83-1.06-6.21-1.01-6.45-1.24-.13-.13.1-2.58,0-3.16h28.4c-.1.58.14,3.03,0,3.16-.1.1-2.04.02-2.79.17-3.11.66-5.78,1.67-6.26,5.18.93,17.71-1.35,36.88-.05,54.42.25,3.34,1.37,5.02,4.67,5.99,1.07.31,4.27.35,4.43.5.13.13-.1,2.58,0,3.16h-28.4c.1-.58-.14-3.02,0-3.16.1-.1,2.15.03,2.86-.1,2.71-.5,6.61-2.38,6.61-5.62v-27.81h-41.42v29c0,.23,1.23,2.07,1.56,2.39,2.35,2.23,7.23,1.87,7.52,2.15.13.13-.1,2.58,0,3.16h-28.4c.1-.58-.14-3.03,0-3.16.17-.17,3.61-.22,4.75-.58,3.18-1,4.33-3.2,4.67-6.37-.78-16.73,1.21-34.66.07-51.25-.25-3.64-.97-6.26-4.76-7.47-1.17-.38-4.56-.43-4.73-.59-.13-.13.1-2.58,0-3.16h28.4Z"/>
    <path class="st0" d="M1028.67,752.31c-.1.58.14,3.03,0,3.16-.32.31-5.92-.27-8.07,2.77-.19.27-1,2.02-1,2.15v23.47h41.42v-22.68c0-1.38-1.79-3.77-3.02-4.48-1.83-1.06-6.21-1.01-6.45-1.24-.13-.13.1-2.58,0-3.16h28.4c-.1.58.14,3.03,0,3.16-.1.1-2.04.02-2.79.17-3.11.66-5.78,1.67-6.26,5.18.93,17.71-1.35,36.88-.05,54.42.25,3.34,1.37,5.02,4.67,5.99,1.07.31,4.27.35,4.43.5.13.13-.1,2.58,0,3.16h-28.4c.1-.58-.14-3.02,0-3.16.1-.1,2.15.03,2.86-.1,2.71-.5,6.61-2.38,6.61-5.62v-27.81h-41.42v29c0,.23,1.23,2.07,1.56,2.39,2.35,2.23,7.23,1.87,7.52,2.15.13.13-.1,2.58,0,3.16h-28.4c.1-.58-.14-3.03,0-3.16.17-.17,3.61-.22,4.75-.58,3.18-1,4.33-3.2,4.67-6.37-.78-16.73,1.21-34.66.07-51.25-.25-3.64-.97-6.26-4.76-7.47-1.17-.38-4.56-.43-4.73-.59-.13-.13.1-2.58,0-3.16h28.4Z"/>
    <path class="st0" d="M496.81,752.31l.39.98,44.19,55.83v-48.72c0-.14-.81-1.88-1-2.15-2.15-3.05-7.76-2.47-8.07-2.77-.13-.13.1-2.58,0-3.16h23.67c.38,4.03-.57,2.69-3.18,3.33-2.14.53-4.27,1.16-5.45,3.23-.16.27-.84,2.17-.84,2.32v65.29c-1.74-.22-4.16.56-5.55-.56l-46.14-58.41-1.57-1.39v48.33c0,.17.48,2.65.58,2.97.59,1.97,2.59,3.27,4.47,3.82,1.07.31,4.27.35,4.43.5.13.13-.1,2.58,0,3.16h-23.67c.1-.58-.14-3.03,0-3.16.17-.17,3.61-.22,4.75-.58,2.94-.93,4.26-3,4.68-5.97l.06-54.42c-1.86-4.27-7.53-5.69-11.86-5.3v-3.16h20.12Z"/>
    <path class="st0" d="M28.45,752.31c-.1.58.14,3.03,0,3.16-.32.31-5.92-.27-8.07,2.77-.19.27-1,2.02-1,2.15v23.47c1.23.05,2.24.09,3.45-.3,2.63-.85,16.91-14.39,19.84-17.25,1.91-1.87,6.76-5.75,5.08-8.64-1.54-2.65-6.79-1.95-7.06-2.21-.14-.14.1-2.58,0-3.16h28.01c-.1.58.14,3.02,0,3.16-.1.1-2.26-.07-2.92.04-3.01.49-5.84,1.75-8.25,3.58-9.02,7.59-17.57,15.76-26.21,23.79,7.5,8.62,14.92,17.37,22.58,25.85,2.99,3.31,9.67,11.75,13.69,12.74,1.47.36,2.78.3,4.27.27v3.16h-16.37l-28.59-32.16c-2.18-2.26-4.05-4.45-7.51-4.53v29c0,.23,1.23,2.07,1.56,2.39,2.35,2.23,7.23,1.87,7.52,2.15.13.13-.1,2.58,0,3.16H.05c.1-.58-.14-3.03,0-3.16.17-.17,3.61-.22,4.75-.58,3.18-1,4.33-3.2,4.67-6.37-.78-16.73,1.21-34.66.07-51.25-.25-3.64-.97-6.26-4.76-7.47-1.17-.38-4.56-.43-4.73-.59-.13-.13.1-2.58,0-3.16h28.4Z"/>
    <path class="st0" d="M798.91,752.31c11.71,1.19,24.26,11.34,16.69,23.79-2.82,4.63-6.09,5.69-10.46,8.07-.35.19-1.08.31-.5.88.17.16,3.59.92,4.44,1.28,18.66,7.98,14.78,28.99-2.48,36-1.93.78-7.41,2.57-9.26,2.57h-31.76c.1-.58-.14-3.03,0-3.16.31-.3,5.54.32,7.9-2.56,1.18-1.44,1.47-3.68,1.59-5.51,1.14-16.59-.85-34.52-.07-51.25-.34-3.17-1.49-5.37-4.67-6.37-1.13-.36-4.58-.41-4.75-.58-.13-.13.1-2.58,0-3.16h33.34ZM784.91,783.48h10.45c14.58,0,17.85-25.45-.4-27.22-1.33-.13-10.06-.2-10.06,1.38v25.84ZM784.91,787.82v27.81c0,1.48,2.22,3.37,3.56,3.94,4.55,1.95,11.29,1.09,15.51-1.45,9.12-5.48,9.03-22.14-.16-27.71-1.36-.82-5.85-2.6-7.27-2.6h-11.64Z"/>
    <path class="st0" d="M453.9,752.31l1.18,16.96h-3.95c.27-5.09-2.74-10.59-7.8-12.12-2.89-.87-14.34-.88-17.64-.5-1.09.12-3.35.9-3.35,2.17v25.05h16.77c1.49,0,3.32-3.69,3.65-5.03.16-.67.32-3.84.51-4.02.21-.2,2.52.1,3.14-.02v22.29c0,.63-2.18.84-2.79.42-1.13-.79-.11-7-3.96-8.67-.25-.11-2.02-.63-2.14-.63h-15.19v27.81c0,.58,1.78,2.69,2.39,3.13,2.73,1.91,12.44,1.73,15.96,1.42,8.43-.73,12.95-8.48,15.53-15.64.18-.5-.25-.63.55-.48.41.08,2.53.65,2.6.76.58.83-4.07,17.24-4.3,19.68h-52.07c.1-.58-.14-3.03,0-3.16.17-.17,3.61-.22,4.75-.58,3.18-1,4.33-3.2,4.67-6.37-.78-16.73,1.21-34.66.07-51.25-.25-3.64-.97-6.26-4.76-7.47-1.17-.38-4.56-.43-4.73-.59-.13-.13.1-2.58,0-3.16h50.89Z"/>
    <path class="st0" d="M831.56,824.9c.1-.58-.14-3.02,0-3.16.1-.1,2.25.05,2.91-.05,8.51-1.23,9.7-6.88,12.66-13.77,8-18.66,14.77-37.89,22.73-56.56.38-.91,3.58-.86,3.95-.38l27.36,65.65c1.77,3.11,4.02,4.5,7.55,5.07.66.11,2.82-.06,2.92.04.14.14-.1,2.57,0,3.16h-30.77c.1-.58-.14-3.02,0-3.16.32-.31,6.04.48,8.07-2.78,2.56-4.1-3.92-13.09-4.87-17.49-9.48-.45-19.27-.33-28.86-.06-1.01,3.7-5.82,11.41-5.49,14.96.29,3.11,3.87,4.79,6.59,5.27,3.19.57,3.56-1.24,3.25,3.26h-28.01ZM882.06,796.89l-13.01-30.77-12.23,30.77h25.25Z"/>
    <path class="st0" d="M284.19,771.25c-.77-.15-2.57.26-3.09-.06-.24-.15-1.99-4.33-2.51-5.18-4.01-6.67-9.52-10.68-17.48-11.31-37.67-3.02-38.28,60.85-6.59,67.34,10.7,2.19,18.59-1.61,24.64-10.26,1.63-2.32,2.48-6.98,5.85-4.79-.75,1.99-2.5,13.21-3.44,14-1.23,1.03-5.48,2.85-7.13,3.42-26.34,9.15-54.08-6.47-54.18-35.6-.1-28.99,29.65-46.07,55.41-35.25,2.55,1.07,6.87,2.82,7.32,5.7.6,3.84.47,8.12,1.22,12Z"/>
    <path class="st0" d="M199.88,752.31c-.5,2.3-.54,17.87-1.2,18.52-.13.12-3.41.15-3.53.02-.19-.2-.35-4.51-.57-5.55-.58-2.71-1.84-5.64-4.19-7.25-.41-.28-2.67-1.41-2.93-1.41h-13.22v59.77c0,1.07,2.03,3.51,3.02,4.08,1.8,1.04,5.83,1.02,6.06,1.24.13.13-.1,2.58,0,3.16h-28.01c.1-.58-.14-3.03,0-3.16.31-.29,5.86.19,7.84-2.62.21-.3,1.24-2.56,1.24-2.7v-59.77h-12.82c-.64,0-4.46,2.17-5.13,2.76-2.2,1.95-3.33,5.07-3.97,7.87-.77,3.35.88,3.92-4.12,3.57l1.19-18.54h60.36Z"/>
    <path class="st0" d="M981.02,752.31c-.5,2.3-.54,17.87-1.2,18.52-.13.12-3.41.15-3.53.02-.19-.2-.35-4.51-.57-5.55-.58-2.71-1.84-5.64-4.19-7.25-.41-.28-2.67-1.41-2.93-1.41h-13.22v59.77c0,1.07,2.03,3.51,3.02,4.08,1.8,1.04,5.83,1.02,6.06,1.24.13.13-.1,2.58,0,3.16h-28.01c.1-.58-.14-3.03,0-3.16.31-.29,5.86.19,7.84-2.62.21-.3,1.24-2.56,1.24-2.7v-59.77h-12.82c-.64,0-4.46,2.17-5.13,2.76-2.2,1.95-3.33,5.07-3.97,7.87-.77,3.35.88,3.92-4.12,3.57l1.19-18.54h60.36Z"/>
    <path class="st0" d="M114.28,752.31c-.1.58.14,3.03,0,3.16-.16.15-3.36.19-4.43.5-2.21.65-4.14,2.09-4.62,4.45l-.05,55.62c.06,2.75,2.23,4.48,4.67,5.19,1.07.31,4.27.35,4.43.5.13.13-.1,2.58,0,3.16h-28.4c.1-.58-.14-3.03,0-3.16.31-.3,5.54.32,7.9-2.56,1.18-1.44,1.47-3.68,1.59-5.51,1.14-16.59-.85-34.52-.07-51.25-.34-3.17-1.49-5.37-4.67-6.37-1.13-.36-4.58-.41-4.75-.58-.13-.13.1-2.58,0-3.16h28.4Z"/>
  </g>
  <path class="st0" d="M822.24,252.98v15.26c-12.91.66-25.45,1.91-36.7,8.64-10.98,6.56-18.12,16.89-23.35,28.35l-120.78,329.93c-.53,1.45-1.91,2.41-3.45,2.41h-13.58c-1.53,0-2.89-.94-3.44-2.37l-84.32-221.19-80.01,221.13c-.53,1.46-1.91,2.43-3.46,2.43h-13.25c-1.53,0-2.9-.95-3.44-2.37l-128.8-340.16c-4.53-8.39-9.99-15.84-18.53-20.46-9.61-5.19-20.71-5.69-31.38-6.34v-15.26h149.17v15.26c-14.94.73-33.31,3.69-39.44,19.46-4.37,11.24-1.16,20,2.36,30.75l89.21,236.27,64.75-177.59c-10.67-25.06-18.2-52.75-29.17-77.52-3.09-6.98-7.74-15.32-13.57-20.33-10.65-9.15-25.09-10.41-38.54-11.04v-15.26h148.32v15.26c-23.38.67-45.4,10.17-40.45,37.48,29.78,83.15,62.75,165.16,93.01,248.14,1.93-1.16,2.6-4.31,3.39-6.34,26.91-68.96,52.46-141.15,77.13-211.04,3.59-10.18,11.64-27.87,10.91-38.04-1.66-22.99-26.37-29.7-45.67-30.2v-15.26h133.07Z"/>
</svg>