<svg width="2913" height="1316" viewBox="0 0 2913 1316" fill="none" xmlns="http://www.w3.org/2000/svg">
<path d="M187.184 155.951C158.712 257.799 85.0883 522.226 55.7538 627.204C47.9888 654.753 28.7201 724.46 20.9551 751.383C-31.3867 934.416 14.9157 1117.24 153.248 1218.25C300.208 1332.62 546.674 1347.44 783.938 1255.82C818.449 1243.3 910.191 1209.49 946.141 1196.34C1087.06 1144.79 1471.28 1003.91 1624.86 947.773L2611.3 586.716C3162.33 366.951 2883.08 -149.382 2362.25 41.5818C2349.88 46.3819 2337.51 52.0169 2325.72 57.4432L650.783 859.283C492.032 928.99 354.85 841.126 379.295 700.668C403.166 530.157 442.566 261.138 464.998 102.732C481.103 -44.6129 234.061 5.89337 187.184 155.743V155.951Z" fill="url(#paint0_radial_10664_73)" fill-opacity="0.1"/>
<defs>
<radialGradient id="paint0_radial_10664_73" cx="0" cy="0" r="1" gradientTransform="matrix(2448.34 371.18 -511.484 1776.74 265.958 1213.36)" gradientUnits="userSpaceOnUse">
<stop stop-color="#38EF7D"/>
<stop offset="1" stop-color="#11998E"/>
</radialGradient>
</defs>
</svg>
