<svg width="1440" height="1810" viewBox="0 0 1440 1810" fill="none" xmlns="http://www.w3.org/2000/svg">
<path d="M1283.74 1622.13C1312.23 1452.69 1380.78 1045.95 1405.92 896.62C1412.45 858.577 1428.21 763.552 1434.41 727.687C1474.96 493.393 1436.92 263.288 1337.37 136.085C1242.68 7.54164 1093.36 -19.9435 953.082 52.1213C933.473 61.5065 881.519 86.8129 861.408 96.3657C784.316 133.571 584.881 230.105 509.296 266.64L73.3879 477.471C-142.807 594.786 -201.296 1123.54 25.2889 1041.09C30.987 1038.57 37.0204 1035.55 42.7185 1032.2L993.136 471.27C1098.38 415.965 1184.53 541.492 1159.22 713.274C1130.73 937.513 1080.12 1327.17 1047.6 1580.9C1018.95 1837.99 1234.8 1883.24 1283.74 1622.3V1622.13Z" fill="url(#paint0_radial_10262_224)" fill-opacity="0.1"/>
<defs>
<radialGradient id="paint0_radial_10262_224" cx="0" cy="0" r="1" gradientUnits="userSpaceOnUse" gradientTransform="translate(1397.97 170.672) rotate(11.8) scale(2654.83 2654.83)">
<stop stop-color="#FDC830"/>
<stop offset="1" stop-color="#F37335"/>
</radialGradient>
</defs>
</svg>
